<svg xmlns="http://www.w3.org/2000/svg" width="54" height="64" viewBox="0 0 54 64" fill="none"><path d="M42.4608 33.7249C42.7615 33.7217 42.6386 33.7189 42.4608 33.7249V33.7249Z" fill="#A233B4"></path><path d="M23.117 9.48823C18.3247 11.5317 14.1612 15.1004 11.4146 19.655C8.52999 24.4408 7.70954 30.4131 9.07316 35.6097C11.7393 45.7924 24.4059 54.3233 34.9458 51.517C38.8141 50.481 42.2296 48.2134 45.4294 45.7545C48.6397 43.2884 52.9364 39.3876 50.8505 35.0417C48.8732 30.9324 43.2577 33.0182 39.6697 32.6648C34.9736 32.1963 30.6264 28.3675 30.1749 23.4983C29.7706 19.0281 31.823 14.5741 31.3712 10.0777C30.8994 5.55068 26.098 7.71987 23.7046 9.22405C23.5046 9.29019 23.3008 9.37388 23.117 9.48823ZM44.8211 34.229C44.8107 34.2363 44.8003 34.2437 44.7899 34.251C44.7311 34.2774 44.6723 34.3038 44.6202 34.3405C44.4373 34.4095 44.3244 34.3995 44.8211 34.229ZM42.0457 35.2865C42.0352 35.2938 42.0352 35.2938 42.0457 35.2865C41.9328 35.2764 41.7953 35.2986 41.6644 35.331C41.6444 35.3003 41.7686 35.2577 42.0457 35.2865Z" fill="#A233B4"></path><path d="M38.2004 32.8932C37.9925 32.8299 37.7238 32.7197 38.2004 32.8932V32.8932Z" fill="#A233B4"></path></svg>