<svg xmlns="http://www.w3.org/2000/svg" width="123" height="108" viewBox="0 0 123 108" fill="none"><path d="M122.323 97.7246H0.237281C0.17435 97.7246 0.113997 97.6996 0.0694978 97.6551C0.024999 97.6106 0 97.5502 0 97.4873C0 97.4243 0.024999 97.364 0.0694978 97.3195C0.113997 97.275 0.17435 97.25 0.237281 97.25H122.323C122.386 97.25 122.446 97.275 122.491 97.3195C122.535 97.364 122.56 97.4243 122.56 97.4873C122.56 97.5502 122.535 97.6106 122.491 97.6551C122.446 97.6996 122.386 97.7246 122.323 97.7246Z" fill="#D1D3D4"></path><path d="M112.101 56.1055H84.8472V102.897H112.101V56.1055Z" fill="white"></path><path d="M112.101 103.135H84.8471C84.7842 103.135 84.7239 103.11 84.6794 103.066C84.6349 103.021 84.6099 102.961 84.6099 102.898V56.1064C84.6099 56.0435 84.6349 55.9831 84.6794 55.9386C84.7239 55.8941 84.7842 55.8691 84.8471 55.8691H112.101C112.164 55.8691 112.225 55.8941 112.269 55.9386C112.314 55.9831 112.339 56.0435 112.339 56.1064V102.889C112.34 102.92 112.335 102.952 112.323 102.982C112.312 103.012 112.295 103.039 112.272 103.062C112.25 103.086 112.224 103.104 112.194 103.116C112.165 103.129 112.133 103.135 112.101 103.135ZM85.0844 102.661H111.864V56.3437H85.0844V102.661Z" fill="#231F20"></path><path d="M37.0158 56.1055H9.76172V102.897H37.0158V56.1055Z" fill="white"></path><path d="M37.0158 103.135H9.7617C9.69876 103.135 9.63841 103.11 9.59391 103.066C9.54941 103.021 9.52441 102.961 9.52441 102.898V56.1064C9.52441 56.0435 9.54941 55.9831 9.59391 55.9386C9.63841 55.8941 9.69876 55.8691 9.7617 55.8691H37.0158C37.0787 55.8691 37.1391 55.8941 37.1836 55.9386C37.2281 55.9831 37.2531 56.0435 37.2531 56.1064V102.889C37.2544 102.92 37.2492 102.952 37.2378 102.982C37.2265 103.012 37.2092 103.039 37.187 103.062C37.1649 103.086 37.1383 103.104 37.1088 103.116C37.0794 103.129 37.0478 103.135 37.0158 103.135ZM9.99898 102.661H36.7785V56.3437H9.99898V102.661Z" fill="#231F20"></path><path d="M89.9202 42.5391L95.3159 53.3733H80.7231L89.9202 42.5391Z" fill="#231F20"></path><path d="M95.316 53.6115H80.7374C80.6917 53.6114 80.647 53.5985 80.6084 53.5742C80.5698 53.5498 80.5388 53.515 80.5191 53.4738C80.5003 53.4327 80.4939 53.3871 80.5007 53.3424C80.5074 53.2978 80.527 53.256 80.5571 53.2223L89.7541 42.3881C89.7787 42.3575 89.811 42.3338 89.8476 42.3197C89.8843 42.3055 89.9241 42.3013 89.9629 42.3074C90.0019 42.3118 90.0393 42.3258 90.0716 42.3482C90.1039 42.3705 90.1301 42.4006 90.148 42.4356L95.539 53.2698C95.559 53.3044 95.5695 53.3437 95.5695 53.3837C95.5695 53.4236 95.559 53.4629 95.539 53.4976C95.5166 53.5358 95.4836 53.5669 95.4441 53.5871C95.4046 53.6073 95.3601 53.6157 95.316 53.6115ZM81.2357 53.1369H94.9316L89.868 42.9718L81.2357 53.1369Z" fill="#231F20"></path><path d="M48.4766 53.3742H83.2193L95.8236 34.9043H63.0266L48.4766 53.3742Z" fill="#231F20"></path><path d="M83.2193 53.6105H48.4671C48.4227 53.6103 48.3791 53.5975 48.3415 53.5738C48.3039 53.55 48.2737 53.5162 48.2544 53.4761C48.2351 53.436 48.2275 53.3913 48.2324 53.3471C48.2373 53.3029 48.2545 53.261 48.2821 53.2261L62.8321 34.7562C62.854 34.728 62.8821 34.7051 62.9142 34.6895C62.9463 34.6739 62.9815 34.6658 63.0172 34.666H95.8142C95.8572 34.6673 95.899 34.6799 95.9356 34.7023C95.9723 34.7248 96.0024 34.7565 96.023 34.7942C96.0462 34.8311 96.0585 34.8739 96.0585 34.9175C96.0585 34.9612 96.0462 35.0039 96.023 35.0409L83.4186 53.5061C83.397 53.5389 83.3673 53.5657 83.3325 53.584C83.2976 53.6022 83.2587 53.6113 83.2193 53.6105ZM48.9654 53.1359H83.1102L95.3918 35.1406H63.1406L48.9654 53.1359Z" fill="#231F20"></path><path d="M64.0704 36.6953L53.687 50.1491H79.47L89.227 36.6953H64.0704Z" fill="white"></path><path d="M79.4702 50.3893H53.6872C53.6427 50.3894 53.5991 50.377 53.5614 50.3535C53.5236 50.33 53.4932 50.2964 53.4736 50.2564C53.4516 50.2182 53.4399 50.1748 53.4399 50.1307C53.4399 50.0865 53.4516 50.0432 53.4736 50.0049L63.8618 36.5511C63.8837 36.5229 63.9117 36.5001 63.9438 36.4845C63.9759 36.4688 64.0112 36.4608 64.0469 36.461H89.1987C89.2421 36.4602 89.2848 36.4719 89.3218 36.4946C89.3588 36.5173 89.3885 36.5501 89.4075 36.5891C89.4306 36.6261 89.4429 36.6689 89.4429 36.7125C89.4429 36.7561 89.4306 36.7989 89.4075 36.8359L79.6505 50.2897C79.6301 50.319 79.6032 50.3433 79.572 50.3605C79.5407 50.3778 79.5059 50.3877 79.4702 50.3893ZM54.1712 49.9147H79.323L88.7621 36.926H64.1893L54.1712 49.9147Z" fill="#231F20"></path><path d="M71.4549 47.7014C71.4056 47.701 71.3576 47.6852 71.3176 47.6563C71.2776 47.6274 71.2477 47.5867 71.2319 47.54C69.9838 43.8622 68.2469 39.8284 67.6157 39.7335C66.8612 39.7335 62.0206 43.734 57.7211 47.6444C57.6745 47.6872 57.6129 47.7097 57.5497 47.7071C57.4865 47.7044 57.427 47.6767 57.3842 47.6302C57.3414 47.5836 57.3188 47.5219 57.3215 47.4587C57.3242 47.3956 57.3518 47.336 57.3984 47.2932C58.8885 45.9407 66.2964 39.2637 67.6584 39.2637H67.7106C68.9255 39.4488 71.0753 45.5279 71.7065 47.3881C71.7168 47.4177 71.721 47.4491 71.7189 47.4803C71.7168 47.5116 71.7084 47.542 71.6942 47.57C71.68 47.5979 71.6603 47.6227 71.6363 47.6428C71.6124 47.6629 71.5845 47.678 71.5546 47.6871C71.5232 47.7005 71.4888 47.7054 71.4549 47.7014Z" fill="#D1D3D4"></path><path d="M79.1996 48.1955C79.1477 48.1952 79.0972 48.1778 79.0561 48.1461C79.0149 48.1144 78.9853 48.0701 78.9718 48.0199C78.1366 45.0539 76.9455 41.8886 76.3855 41.7225C75.8255 41.5564 73.2249 43.9054 71.1083 46.1644C71.0649 46.2103 71.005 46.2371 70.9418 46.2389C70.8786 46.2407 70.8173 46.2173 70.7714 46.1738C70.7255 46.1304 70.6987 46.0705 70.6969 46.0073C70.6951 45.9442 70.7185 45.8828 70.7619 45.8369C71.8439 44.6837 75.4506 40.9489 76.5231 41.2716C77.5956 41.5943 79.1332 46.843 79.4274 47.9155C79.445 47.9759 79.4379 48.0408 79.4077 48.096C79.3774 48.1512 79.3265 48.1921 79.2661 48.2097L79.1996 48.1955Z" fill="#D1D3D4"></path><path d="M86.8258 44.0425C86.2421 44.0425 85.7817 43.7625 85.7817 43.4066C85.7817 43.0506 86.2563 42.7754 86.8258 42.7754C87.3952 42.7754 87.8698 43.0506 87.8698 43.4066C87.8698 43.7625 87.4095 44.0425 86.8258 44.0425ZM86.8258 42.894C86.3227 42.894 85.8766 43.1266 85.8766 43.4066C85.8766 43.6865 86.299 43.9238 86.8258 43.9238C87.3525 43.9238 87.7512 43.6865 87.7512 43.4066C87.7512 43.1266 87.3288 42.9083 86.8258 42.9083V42.894Z" fill="#A7A9AC"></path><path d="M90.9736 38.6616H88.8665C88.8518 38.6605 88.8379 38.6542 88.8275 38.6437C88.817 38.6333 88.8107 38.6194 88.8096 38.6047C88.8095 38.5891 88.8154 38.5741 88.8259 38.5626C88.8365 38.5512 88.851 38.5442 88.8665 38.543H90.9736C90.9815 38.5429 90.9893 38.5446 90.9965 38.5477C91.0038 38.5509 91.0103 38.5555 91.0156 38.5613C91.021 38.5671 91.0251 38.5739 91.0276 38.5814C91.0302 38.5889 91.0312 38.5968 91.0305 38.6047C91.0305 38.6198 91.0245 38.6342 91.0138 38.6449C91.0032 38.6556 90.9887 38.6616 90.9736 38.6616Z" fill="#A7A9AC"></path><path d="M83.219 53.6082C83.1683 53.6086 83.1187 53.5938 83.0766 53.5655C83.0266 53.5277 82.9931 53.4719 82.9834 53.4099C82.9737 53.348 82.9884 53.2846 83.0244 53.2333L89.7537 43.9984C89.772 43.9731 89.7952 43.9517 89.8218 43.9353C89.8485 43.919 89.8781 43.9081 89.909 43.9033C89.9398 43.8984 89.9713 43.8997 90.0017 43.9071C90.0321 43.9144 90.0607 43.9277 90.0859 43.9462C90.136 43.984 90.1694 44.0397 90.1791 44.1017C90.1889 44.1637 90.1741 44.227 90.1381 44.2784L83.4088 53.5323C83.3846 53.558 83.3551 53.5782 83.3223 53.5913C83.2895 53.6044 83.2542 53.6102 83.219 53.6082Z" fill="white"></path><path d="M71.4547 40.1232C71.2482 40.1232 71.0463 40.062 70.8746 39.9473C70.703 39.8326 70.5691 39.6695 70.4901 39.4787C70.4111 39.288 70.3904 39.078 70.4307 38.8755C70.471 38.673 70.5704 38.487 70.7164 38.3409C70.8624 38.1949 71.0485 38.0955 71.251 38.0552C71.4535 38.0149 71.6634 38.0356 71.8542 38.1146C72.045 38.1936 72.208 38.3275 72.3228 38.4992C72.4375 38.6708 72.4987 38.8727 72.4987 39.0792C72.4987 39.3561 72.3887 39.6216 72.1929 39.8174C71.9971 40.0132 71.7316 40.1232 71.4547 40.1232ZM71.4547 38.5097C71.3421 38.5097 71.2319 38.5431 71.1383 38.6057C71.0446 38.6683 70.9717 38.7572 70.9286 38.8613C70.8855 38.9653 70.8742 39.0798 70.8962 39.1903C70.9181 39.3008 70.9724 39.4022 71.052 39.4819C71.1316 39.5615 71.2331 39.6157 71.3436 39.6377C71.454 39.6597 71.5685 39.6484 71.6726 39.6053C71.7767 39.5622 71.8656 39.4892 71.9282 39.3956C71.9908 39.3019 72.0242 39.1918 72.0242 39.0792C72.0248 39.0042 72.0105 38.9299 71.9821 38.8605C71.9537 38.7911 71.9118 38.7281 71.8588 38.6751C71.8058 38.6221 71.7427 38.5802 71.6734 38.5518C71.604 38.5234 71.5296 38.5091 71.4547 38.5097Z" fill="#D1D3D4"></path><path d="M113.259 53.7754H6.14062V58.3169H113.259V53.7754Z" fill="white"></path><path d="M113.264 58.5552H6.14109C6.07816 58.5552 6.01781 58.5302 5.97331 58.4857C5.92881 58.4412 5.90381 58.3808 5.90381 58.3179V53.7763C5.90502 53.7138 5.93042 53.6541 5.97465 53.6099C6.01889 53.5657 6.07854 53.5403 6.14109 53.5391H113.264C113.327 53.5403 113.386 53.5657 113.43 53.6099C113.475 53.6541 113.5 53.7138 113.501 53.7763V58.3179C113.501 58.3808 113.476 58.4412 113.432 58.4857C113.387 58.5302 113.327 58.5552 113.264 58.5552ZM6.37837 58.0806H113.008V54.0089H6.37837V58.0806Z" fill="#231F20"></path><path d="M46.4312 78.3436C46.5308 78.6805 40.5371 100.197 40.5371 100.197L48.9131 101.545L58.8125 71.8184L46.4312 78.3436Z" fill="white"></path><path d="M48.913 101.784H48.8751L40.4991 100.436C40.4656 100.431 40.4336 100.419 40.4049 100.402C40.3763 100.384 40.3518 100.36 40.333 100.332C40.2998 100.273 40.2897 100.203 40.3045 100.137C42.6441 91.7564 46.1274 79.0809 46.1938 78.3691C46.1905 78.3228 46.2009 78.2765 46.2237 78.236C46.2465 78.1955 46.2806 78.1626 46.3219 78.1413L58.7033 71.6161C58.7456 71.5948 58.7932 71.5862 58.8403 71.5912C58.8875 71.5963 58.9321 71.6148 58.969 71.6446C59.0036 71.6764 59.0287 71.7172 59.0412 71.7625C59.0538 71.8078 59.0535 71.8557 59.0402 71.9008L49.1361 101.627C49.1201 101.674 49.09 101.714 49.0499 101.742C49.0099 101.77 48.962 101.785 48.913 101.784ZM40.8455 100.004L48.7612 101.281L58.4138 72.309L46.6446 78.5067C46.3836 79.8687 44.4332 87.0868 40.836 100.004H40.8455Z" fill="#231F20"></path><path d="M40.0295 99.2674L38.7529 103.282L58.8127 104.834C57.8707 102.937 56.2418 101.469 54.2569 100.729C52.1735 99.9982 49.9289 99.125 49.9289 99.125L48.9133 101.545L40.0295 99.2674Z" fill="#231F20"></path><path d="M58.8124 105.073L38.7527 103.521C38.7169 103.518 38.6822 103.507 38.6512 103.489C38.6202 103.471 38.5936 103.447 38.5735 103.417C38.5534 103.387 38.5403 103.354 38.5352 103.318C38.53 103.283 38.533 103.246 38.5438 103.212L39.8204 99.1974C39.839 99.14 39.8789 99.0918 39.9318 99.0628C39.9847 99.0337 40.0467 99.0258 40.1052 99.0408L48.7896 101.267L49.7388 99.0361C49.7502 99.0077 49.7672 98.9818 49.7887 98.96C49.8102 98.9382 49.8358 98.9208 49.864 98.9089C49.8922 98.897 49.9225 98.8908 49.9532 98.8906C49.9838 98.8905 50.0141 98.8964 50.0425 98.908C50.0662 98.908 52.3061 99.7859 54.3657 100.507C56.4139 101.266 58.0935 102.781 59.0592 104.74C59.0791 104.776 59.0896 104.816 59.0896 104.857C59.0896 104.897 59.0791 104.937 59.0592 104.973C59.0337 105.013 58.9961 105.045 58.9519 105.062C58.9076 105.08 58.8588 105.084 58.8124 105.073ZM39.0659 103.07L58.4043 104.569C57.4646 102.906 55.9694 101.626 54.1807 100.953C52.4865 100.36 50.6689 99.6673 50.0567 99.4347L49.1313 101.637C49.1092 101.69 49.0689 101.733 49.0176 101.759C48.9663 101.786 48.9073 101.793 48.8513 101.779L40.1858 99.5676L39.0659 103.07Z" fill="#231F20"></path><path d="M25.9492 78.6289L24.5255 101.294C24.5255 101.294 19.7134 101.46 18.508 102.305C17.3027 103.149 16.3203 106.974 16.3203 106.974H17.8199C17.8199 106.974 18.6931 104.127 19.6517 103.785C20.6104 103.444 26.0583 103.311 26.0583 103.311C26.0583 103.311 28.6874 104.326 29.1098 106.068C29.442 107.439 29.347 107.757 29.347 107.757H31.008C31.004 106.977 30.8922 106.201 30.6758 105.451C30.3436 104.502 29.0955 103.368 29.0955 103.368C29.0955 103.368 31.8432 103.425 32.7591 103.425C33.675 103.425 34.6289 105.171 34.6289 105.171H36.418C36.418 105.171 34.5482 102.02 33.3381 101.797C32.128 101.574 29.0243 101.033 29.0243 101.033L28.1796 79.915L25.9492 78.6289Z" fill="#231F20"></path><path d="M31.0268 108.001H29.3658C29.3284 108 29.2916 107.991 29.258 107.975C29.2244 107.959 29.1948 107.935 29.1713 107.906C29.1499 107.875 29.1358 107.84 29.13 107.803C29.1243 107.766 29.127 107.728 29.1381 107.692C29.1402 107.163 29.0585 106.636 28.896 106.131C28.5401 104.646 26.3619 103.692 26.0486 103.559C24.5063 103.592 20.5105 103.735 19.7654 104.034C19.1485 104.261 18.4035 106.017 18.0807 107.066C18.0657 107.115 18.0356 107.158 17.9946 107.189C17.9537 107.219 17.9041 107.236 17.853 107.237H16.3391C16.3031 107.236 16.2678 107.227 16.2358 107.21C16.2038 107.194 16.1758 107.17 16.154 107.142C16.1322 107.113 16.117 107.08 16.1096 107.045C16.1023 107.009 16.1028 106.973 16.1113 106.938C16.1493 106.781 17.1269 103.018 18.3892 102.135C19.5044 101.357 23.3531 101.134 24.3212 101.091L25.7165 78.6352C25.7196 78.5951 25.7325 78.5565 25.754 78.5226C25.7755 78.4887 25.805 78.4605 25.8398 78.4406C25.8749 78.4219 25.914 78.4121 25.9537 78.4121C25.9935 78.4121 26.0326 78.4219 26.0676 78.4406L28.3171 79.7361C28.3519 79.7557 28.3811 79.7838 28.4018 79.8179C28.4226 79.852 28.4343 79.8908 28.4357 79.9307L29.2757 100.859C29.9685 100.977 32.3793 101.395 33.4044 101.59C34.6762 101.827 36.4463 104.741 36.6409 105.073C36.6617 105.109 36.6727 105.15 36.6727 105.192C36.6727 105.233 36.6617 105.274 36.6409 105.31C36.62 105.347 36.5897 105.378 36.553 105.4C36.5164 105.422 36.4747 105.433 36.4321 105.434H34.643C34.6004 105.433 34.5587 105.422 34.522 105.4C34.4853 105.378 34.455 105.347 34.4342 105.31C34.0925 104.684 33.3332 103.687 32.7732 103.687C32.1278 103.687 30.5617 103.659 29.698 103.644C30.2137 104.143 30.6264 104.738 30.9129 105.396C31.1406 106.166 31.2572 106.965 31.2593 107.768C31.2581 107.83 31.2332 107.888 31.1899 107.931C31.1465 107.975 31.0881 108 31.0268 108.001ZM29.6031 107.526H30.7753C30.7596 106.851 30.6542 106.181 30.4621 105.533C30.1536 104.646 28.9577 103.564 28.9435 103.55C28.9086 103.517 28.8841 103.475 28.8732 103.428C28.8622 103.382 28.8652 103.333 28.8818 103.289C28.9015 103.244 28.9334 103.207 28.9737 103.18C29.014 103.153 29.0611 103.138 29.1096 103.137C29.1381 103.137 31.862 103.194 32.7684 103.194C33.6749 103.194 34.5196 104.499 34.7758 104.94H36.0002C35.3643 103.939 34.102 102.183 33.3047 102.036C32.1136 101.813 29.0336 101.281 28.9957 101.276C28.9411 101.268 28.8914 101.24 28.855 101.198C28.8186 101.157 28.7979 101.104 28.7964 101.049L27.9659 80.0636L26.1625 79.0243L24.7816 101.329C24.7781 101.387 24.7528 101.443 24.7107 101.484C24.6686 101.525 24.6127 101.549 24.5538 101.552C23.2345 101.599 19.6041 101.86 18.6645 102.501C17.8102 103.099 16.9845 105.533 16.6476 106.739H17.6631C17.8814 106.069 18.6597 103.891 19.5614 103.564C20.463 103.236 25.8256 103.089 26.0486 103.089H26.1388C26.2527 103.132 28.8913 104.166 29.3374 106.008C29.4785 106.504 29.5707 107.012 29.6126 107.526H29.6031Z" fill="#231F20"></path><path d="M53.3885 64.1738C53.3885 64.1738 72.3425 65.1846 73.5384 67.8849C74.7343 70.5851 65.9454 100.278 65.9454 100.278C65.9454 100.278 75.2231 103.486 73.7045 104.16C72.1859 104.834 56.9999 103.486 56.9999 103.486L64.199 75.9619L45.4443 74.6996L53.3885 64.1738Z" fill="white"></path><path d="M71.3174 104.588C66.866 104.588 58.2147 103.833 56.9951 103.724C56.9604 103.721 56.9267 103.711 56.8964 103.694C56.8661 103.676 56.8399 103.653 56.8195 103.625C56.8 103.596 56.7869 103.563 56.7811 103.529C56.7754 103.494 56.7772 103.459 56.7863 103.425L63.9047 76.1998L45.4348 74.9565C45.3928 74.9518 45.3526 74.9367 45.3178 74.9127C45.2831 74.8887 45.2548 74.8565 45.2355 74.8189C45.2174 74.7798 45.2104 74.7365 45.2155 74.6938C45.2205 74.6511 45.2373 74.6106 45.2639 74.5768L53.2129 64.0321C53.2335 63.9988 53.2632 63.9722 53.2986 63.9554C53.3339 63.9385 53.3733 63.9322 53.4122 63.9372C53.4596 63.9372 58.2147 64.1935 63.0553 64.7819C72.9689 65.9778 73.5716 67.3398 73.7709 67.7906C74.9431 70.4434 67.127 97.2133 66.2633 100.132C68.7832 101.01 74.0983 102.979 74.1363 103.952C74.1376 104.047 74.1084 104.14 74.0528 104.217C73.9972 104.294 73.9183 104.351 73.8278 104.379C73.0055 104.57 72.1599 104.64 71.3174 104.588ZM57.3131 103.273C61.717 103.663 72.4516 104.465 73.6238 103.943C73.3106 103.368 69.4097 101.731 65.8694 100.512C65.8116 100.491 65.764 100.449 65.7366 100.394C65.7092 100.339 65.7041 100.276 65.7223 100.217C68.1521 91.9837 74.2644 70.1349 73.3153 67.9852C72.3662 65.8354 58.8222 64.7107 53.4976 64.4212L45.9046 74.5151L64.2227 75.7537C64.2578 75.7555 64.2922 75.7649 64.3233 75.7813C64.3545 75.7977 64.3817 75.8207 64.403 75.8487C64.4411 75.9076 64.4547 75.9791 64.441 76.048L57.3131 103.273Z" fill="#231F20"></path><path d="M46.958 47.2989C46.958 47.2989 56.696 59.4476 60.8579 59.1107C65.0198 58.7737 76.9408 43.7966 76.9408 43.7966C79.0954 41.2245 81.5061 37.9595 79.9638 34.4146C79.8119 34.0729 79.5462 33.7075 79.176 33.7359C79.0203 33.7598 78.8724 33.82 78.7442 33.9115L77.4154 34.7278C77.4581 34.3624 76.993 34.1014 76.6371 34.201C76.2907 34.3365 76.0022 34.5881 75.8209 34.9128C74.4399 36.8775 73.5477 38.7473 73.6237 41.1676L59.6905 48.286L54.1619 42.1689" fill="white"></path><path d="M60.6915 59.3532C56.3682 59.3532 47.1665 47.9637 46.7726 47.4464C46.7397 47.3969 46.7266 47.3369 46.7358 47.2782C46.7451 47.2194 46.776 47.1663 46.8225 47.1293C46.8691 47.0924 46.9278 47.0742 46.9871 47.0784C47.0464 47.0827 47.1019 47.109 47.1427 47.1522C47.2377 47.2709 56.596 58.8833 60.6773 58.8833H60.8386C64.8534 58.5606 76.6273 43.8066 76.7412 43.6547C78.9669 41.0067 81.2116 37.903 79.7357 34.5194C79.6787 34.3866 79.4794 33.9642 79.1852 33.9832C79.0665 34.0048 78.9545 34.0535 78.8577 34.1255L77.5195 34.937C77.4816 34.9604 77.438 34.9727 77.3935 34.9725C77.3491 34.9723 77.3056 34.9596 77.268 34.9359C77.2304 34.9121 77.2002 34.8783 77.1809 34.8382C77.1616 34.7981 77.1539 34.7535 77.1588 34.7093C77.1618 34.675 77.1554 34.6406 77.1404 34.6096C77.1254 34.5787 77.1022 34.5525 77.0734 34.5337C77.0194 34.4904 76.9565 34.4595 76.8893 34.4431C76.8221 34.4267 76.7521 34.4253 76.6842 34.4388C76.3919 34.5634 76.1497 34.7822 75.9961 35.0604C74.8287 36.7214 73.7609 38.6101 73.8416 41.1728C73.843 41.2175 73.8318 41.2618 73.8091 41.3004C73.7864 41.3391 73.7533 41.3705 73.7135 41.3911L59.7803 48.5095C59.7338 48.5334 59.6806 48.5413 59.6291 48.5318C59.5776 48.5224 59.5307 48.4962 59.4956 48.4573L53.9717 42.3307C53.9495 42.3086 53.9318 42.2824 53.9198 42.2535C53.9077 42.2246 53.9015 42.1935 53.9015 42.1622C53.9015 42.1309 53.9077 42.0999 53.9198 42.071C53.9318 42.0421 53.9495 42.0158 53.9717 41.9938C54.0169 41.95 54.0773 41.9255 54.1402 41.9255C54.2031 41.9255 54.2635 41.95 54.3086 41.9938L59.7092 47.9637L73.3528 41.0114C73.3101 38.3871 74.4016 36.4556 75.5927 34.7615C75.8064 34.391 76.1418 34.1059 76.5419 33.9547C76.6859 33.9201 76.836 33.9197 76.9802 33.9534C77.1244 33.9872 77.2587 34.0543 77.3724 34.1493C77.4363 34.205 77.4908 34.2707 77.5337 34.3438L78.5967 33.6937C78.7575 33.5813 78.9431 33.5096 79.1377 33.4849C79.5506 33.4517 79.916 33.7554 80.1533 34.3059C81.8712 38.2447 78.7676 41.9463 77.0971 43.9347C76.6225 44.5421 65.0812 58.9925 60.8623 59.3342L60.6915 59.3532Z" fill="#231F20"></path><path d="M15.0818 45.2245C15.0818 45.2245 10.0657 56.5902 11.9259 57.8051C13.7862 59.02 25.1093 57.8051 25.1093 57.8051L24.1269 43.0938" fill="white"></path><path d="M16.2299 58.5549C14.2035 58.5549 12.4334 58.4125 11.788 57.9854C11.4653 57.7766 10.4782 57.136 12.5805 50.9809C13.5913 48.0149 14.8489 45.1581 14.8632 45.1296C14.8732 45.0978 14.8898 45.0685 14.9119 45.0435C14.934 45.0185 14.9611 44.9985 14.9915 44.9847C15.0218 44.971 15.0548 44.9637 15.0881 44.9636C15.1214 44.9634 15.1545 44.9702 15.185 44.9836C15.2155 44.997 15.2429 45.0167 15.2653 45.0414C15.2877 45.0661 15.3046 45.0953 15.315 45.1269C15.3254 45.1586 15.329 45.1922 15.3255 45.2253C15.3221 45.2585 15.3117 45.2906 15.295 45.3194C13.3968 49.6427 10.8246 56.7943 12.049 57.5868C13.4727 58.5359 21.5402 57.9095 24.8622 57.5868L23.9131 43.108C23.9109 43.0768 23.9149 43.0455 23.9248 43.0159C23.9347 42.9863 23.9503 42.9589 23.9708 42.9353C24.0122 42.8877 24.0708 42.8585 24.1337 42.8541C24.1967 42.8497 24.2588 42.8705 24.3064 42.9118C24.354 42.9532 24.3832 43.0118 24.3876 43.0748L25.37 57.7861C25.374 57.8476 25.3539 57.9081 25.3141 57.9551C25.2742 58.002 25.2177 58.0316 25.1564 58.0376C24.8242 58.0566 20.0406 58.5549 16.2299 58.5549Z" fill="#231F20"></path><path d="M19.1677 64.4872C19.1677 64.4872 16.7142 69.9351 19.329 73.3709C21.9439 76.8067 58.2431 77.2196 58.2431 77.2196L60.8485 64.1739L45.6625 62.1049L44.7798 57.5918L19.1677 64.4872Z" fill="white"></path><path d="M58.2524 77.4567C58.1622 77.4567 49.0649 77.3475 39.7445 76.8207C27.1923 76.1089 20.2542 74.9937 19.1247 73.4988C16.4577 69.9966 18.8305 64.6056 18.9349 64.3778C18.9491 64.3451 18.9706 64.3162 18.9978 64.2931C19.0249 64.2701 19.057 64.2536 19.0915 64.2449L44.7179 57.3495C44.7496 57.3399 44.7832 57.3374 44.816 57.3423C44.8489 57.3472 44.8802 57.3594 44.9077 57.378C44.9345 57.3949 44.9576 57.417 44.9756 57.4432C44.9935 57.4693 45.006 57.4988 45.0121 57.5299L45.8616 61.8816L60.8625 63.9222C60.895 63.9262 60.9262 63.9372 60.954 63.9544C60.9819 63.9716 61.0057 63.9946 61.0238 64.0219C61.0427 64.0475 61.0558 64.0768 61.0623 64.1079C61.0689 64.139 61.0687 64.1712 61.0618 64.2022L58.4849 77.2621C58.475 77.3165 58.4463 77.3658 58.4038 77.4014C58.3613 77.4369 58.3078 77.4564 58.2524 77.4567ZM19.3383 64.6862C19.0298 65.4408 17.2123 70.2006 19.5186 73.2283C21.5213 75.8574 45.4867 76.835 58.0578 76.9868L60.5778 64.3778L45.6575 62.3467C45.6087 62.3397 45.5632 62.3176 45.5275 62.2836C45.4918 62.2496 45.4676 62.2053 45.4582 62.1568L44.6277 57.8858L19.3383 64.6862Z" fill="#231F20"></path><path d="M34.0401 18.5916C33.6697 18.3693 33.3471 18.0757 33.091 17.7279C32.7356 17.2183 32.4781 16.647 32.3317 16.0432C31.0456 11.3925 31.0361 5.43677 35.1791 2.25247C36.401 1.31871 37.829 0.69138 39.3433 0.423035C40.8576 0.15469 42.4141 0.253144 43.8825 0.710151C45.8947 1.36504 47.6031 4.13173 48.5 5.93031C49.2356 7.38721 49.7339 8.97224 50.6071 10.3485C51.4803 11.7247 52.8707 12.9301 54.5032 13.0107C53.8566 13.3725 53.1367 13.5835 52.3971 13.6279C51.6575 13.6722 50.9174 13.5489 50.2322 13.267C50.5516 13.6958 50.9877 14.0236 51.4884 14.2112C51.9891 14.3989 52.5332 14.4385 53.0558 14.3253C52.1067 15.0798 50.7495 15.0514 49.5536 14.7998C48.3577 14.5483 47.1807 14.1687 45.9516 14.3253C44.0534 14.5388 42.8195 15.934 41.3341 16.9449C39.4501 18.1787 36.1946 19.8397 34.0401 18.5916Z" fill="white"></path><path d="M35.8294 19.2758C35.1656 19.29 34.5102 19.1261 33.9312 18.8012C33.5258 18.5597 33.1751 18.2364 32.9014 17.8521C32.527 17.312 32.2567 16.7069 32.1041 16.0677C31.4777 13.7898 29.8262 6.03553 35.0227 2.03024C36.2748 1.07033 37.7395 0.425666 39.2931 0.150629C40.8467 -0.124407 42.4436 -0.0217433 43.9492 0.449959C46.1037 1.14756 47.8548 4.08034 48.6948 5.76503C48.9795 6.3345 49.2358 6.9277 49.4778 7.50192C49.8433 8.42415 50.2812 9.31596 50.7876 10.1689C51.2622 10.9045 52.553 12.6224 54.494 12.7173C54.5451 12.7192 54.5943 12.7378 54.6337 12.7704C54.6732 12.8031 54.7008 12.8478 54.7123 12.8977C54.7258 12.9476 54.7218 13.0007 54.7011 13.0482C54.6804 13.0956 54.6442 13.1346 54.5984 13.1587C53.545 13.7457 52.3193 13.9455 51.1341 13.7234C51.69 14.0652 52.3571 14.1775 52.9943 14.0366C53.0472 14.023 53.1032 14.0281 53.1528 14.051C53.2024 14.0739 53.2426 14.1132 53.2666 14.1623C53.2905 14.2113 53.2969 14.2672 53.2844 14.3204C53.272 14.3736 53.2416 14.4208 53.1984 14.4542C52.3489 15.1234 51.1056 15.3037 49.5016 14.9952C49.2168 14.943 48.9321 14.8766 48.6474 14.8101C47.7802 14.5594 46.8769 14.4568 45.9756 14.5064C44.6326 14.6583 43.636 15.4555 42.5777 16.2576C42.217 16.5375 41.8469 16.8223 41.4625 17.088C40.3568 17.8568 37.9839 19.2758 35.8294 19.2758ZM41.0259 0.487925C38.9572 0.486726 36.9457 1.16721 35.3027 2.42413C30.3435 6.25383 31.9428 13.7519 32.555 15.9633C32.6937 16.5448 32.94 17.0953 33.281 17.5863C33.5191 17.9113 33.8211 18.1842 34.1685 18.3883C36.4559 19.7171 40.1337 17.4392 41.2062 16.7131C41.5764 16.4616 41.9418 16.1769 42.293 15.9016C43.356 15.0759 44.457 14.2217 45.9329 14.0556C46.8929 13.9955 47.8562 14.1015 48.7802 14.3688C49.0602 14.4305 49.3402 14.4969 49.6202 14.5491C50.4101 14.7332 51.2316 14.7332 52.0215 14.5491C51.2387 14.4237 50.5356 13.9981 50.0616 13.3627C50.0308 13.3217 50.0141 13.2717 50.0141 13.2204C50.0141 13.169 50.0308 13.1191 50.0616 13.078C50.0926 13.0367 50.1367 13.0071 50.1867 12.9942C50.2367 12.9813 50.2896 12.9857 50.3368 13.0068C51.4072 13.4403 52.5994 13.4656 53.6872 13.078C52.3013 12.6394 51.1308 11.6959 50.408 10.4347C49.8852 9.56169 49.4344 8.6475 49.0602 7.70124C48.8182 7.13651 48.5857 6.54806 48.2867 5.99282C47.6318 4.68778 45.8807 1.58416 43.8116 0.915028C42.9111 0.627529 41.9711 0.483402 41.0259 0.487925Z" fill="#231F20"></path><path d="M46.9008 15.2129C46.9008 15.2129 48.1964 19.2656 47.5178 19.8399C46.8391 20.4141 45.4297 19.5124 45.4297 19.5124" fill="white"></path><path d="M46.9437 20.272C46.3633 20.2223 45.8042 20.03 45.316 19.712C45.288 19.6961 45.2636 19.6746 45.2442 19.6489C45.2248 19.6232 45.2108 19.5938 45.2031 19.5625C45.1954 19.5312 45.1942 19.4986 45.1995 19.4669C45.2048 19.4351 45.2166 19.4047 45.234 19.3776C45.2514 19.3505 45.2742 19.3273 45.3009 19.3092C45.3276 19.2912 45.3577 19.2788 45.3893 19.2728C45.421 19.2668 45.4535 19.2673 45.485 19.2743C45.5164 19.2813 45.5461 19.2946 45.5723 19.3134C45.9045 19.5222 46.9437 20.0395 47.3756 19.6598C47.703 19.3799 47.2807 17.1731 46.6733 15.2891C46.6553 15.2287 46.6616 15.1637 46.6908 15.1079C46.7201 15.052 46.77 15.0098 46.8299 14.9902C46.8896 14.9707 46.9547 14.9758 47.0108 15.0042C47.0668 15.0327 47.1093 15.0823 47.1288 15.142C47.442 16.1291 48.4149 19.4131 47.6841 20.0205C47.4773 20.1937 47.2132 20.2834 46.9437 20.272Z" fill="#231F20"></path><path d="M47.6888 10.5677C48.7945 12.1432 47.6888 14.5065 47.2142 16.1153C46.5593 18.3805 45.8522 20.6283 45.0929 22.8588C44.6184 24.2825 40.8788 23.2527 40.3473 22.6405L39.3318 28.4823L31.4683 25.7631L33.9977 18.6779C33.9977 18.6779 36.5271 19.4087 38.805 16.8888C41.0829 14.3689 42.6679 7.94336 42.6679 7.94336C42.6679 7.94336 46.6115 9.02536 47.6888 10.5677Z" fill="white"></path><path d="M39.3268 28.7208H39.2509L31.3826 26.011C31.3528 26.0017 31.3252 25.9864 31.3015 25.966C31.2778 25.9456 31.2586 25.9205 31.245 25.8924C31.2237 25.8325 31.2237 25.7671 31.245 25.7073L33.7555 18.5984C33.775 18.542 33.8154 18.4953 33.8684 18.4679C33.9214 18.4406 33.9829 18.4346 34.0402 18.4513C34.1399 18.475 36.4652 19.1014 38.6102 16.7286C40.7552 14.3558 42.4067 7.95401 42.4067 7.88757C42.4137 7.85683 42.4271 7.82788 42.4459 7.80256C42.4647 7.77723 42.4885 7.75609 42.5159 7.74046C42.5736 7.71672 42.6384 7.71672 42.6962 7.74046C42.8623 7.78791 46.7395 8.86516 47.8547 10.4549C48.8418 11.8786 48.2059 13.7769 47.6886 15.3429C47.5889 15.6466 47.494 15.9361 47.4134 16.2066C46.7585 18.4608 46.0466 20.7339 45.2873 22.9596C45.1944 23.1783 45.0437 23.3676 44.8514 23.5072C44.6592 23.6468 44.4325 23.7314 44.1958 23.7521C42.919 23.8938 41.6289 23.6526 40.4895 23.0593L39.5404 28.5262C39.535 28.56 39.522 28.5922 39.5023 28.6202C39.4825 28.6481 39.4566 28.6712 39.4265 28.6875C39.3965 28.7067 39.3623 28.7182 39.3268 28.7208ZM31.767 25.6171L39.1417 28.1703L40.0909 22.5989C40.0987 22.5548 40.1189 22.5138 40.1491 22.4807C40.1792 22.4476 40.2182 22.4237 40.2614 22.4118C40.3046 22.3998 40.3503 22.4004 40.3931 22.4134C40.436 22.4263 40.4744 22.4512 40.5037 22.485C40.8454 22.8789 42.9003 23.5243 44.1057 23.287C44.5138 23.2064 44.7606 23.0355 44.846 22.7793C45.6005 20.5631 46.3171 18.2994 46.9673 16.05C47.0479 15.7748 47.1476 15.4805 47.2473 15.1673C47.7218 13.7199 48.3293 11.9166 47.4751 10.7017C46.6208 9.48684 43.6785 8.49975 42.8148 8.24349C42.4969 9.45362 41.0258 14.7592 38.9567 17.0466C36.9682 19.2438 34.8137 19.0777 34.1256 18.9448L31.767 25.6171Z" fill="#231F20"></path><path d="M45.5155 21.1511C45.5155 21.1511 43.4512 21.7396 43.0288 19.6562L45.5155 21.1511Z" fill="white"></path><path d="M44.8842 21.4634C44.477 21.4738 44.0747 21.372 43.7215 21.1692C43.4685 21.0059 43.253 20.7908 43.0894 20.538C42.9258 20.2852 42.8177 20.0005 42.7724 19.7028C42.7612 19.6404 42.7749 19.5762 42.8105 19.5238C42.8462 19.4714 42.901 19.4351 42.9631 19.4227C43.0253 19.4102 43.0898 19.4227 43.1429 19.4573C43.1959 19.4919 43.2333 19.546 43.2469 19.6079C43.2784 19.8392 43.3581 20.0613 43.4807 20.2599C43.6033 20.4585 43.7661 20.6293 43.9588 20.7611C44.4152 20.9909 44.9393 21.0482 45.4347 20.9224C45.4658 20.914 45.4983 20.9118 45.5303 20.916C45.5624 20.9201 45.5932 20.9305 45.6212 20.9466C45.6492 20.9627 45.6737 20.9841 45.6934 21.0097C45.7131 21.0353 45.7276 21.0645 45.736 21.0956C45.7444 21.1268 45.7466 21.1593 45.7425 21.1913C45.7383 21.2233 45.7279 21.2542 45.7118 21.2822C45.6957 21.3102 45.6743 21.3347 45.6487 21.3544C45.6232 21.3741 45.594 21.3886 45.5628 21.397C45.3401 21.4467 45.1122 21.469 44.8842 21.4634Z" fill="#231F20"></path><path d="M42.141 15.4445C42.2374 14.8587 42.17 14.2576 41.9464 13.7077C41.8307 13.2636 41.6517 12.8384 41.4149 12.4453C41.2917 12.2515 41.1277 12.0869 40.9342 11.9631C40.7407 11.8393 40.5226 11.7593 40.2949 11.7287C40.0903 11.7251 39.8873 11.7656 39.6998 11.8475C39.5122 11.9294 39.3446 12.0507 39.2082 12.2033C38.9311 12.5006 38.7265 12.8579 38.6102 13.2473C38.3358 14.0875 38.2864 14.9849 38.4671 15.8501C38.6478 16.7153 39.0522 17.518 39.64 18.178L39.5499 18.0072" fill="white"></path><path d="M39.6403 18.4168C39.6074 18.4165 39.575 18.4096 39.5448 18.3966C39.5147 18.3835 39.4874 18.3646 39.4647 18.3409C38.8477 17.6457 38.4232 16.8013 38.2334 15.8914C38.0436 14.9815 38.0951 14.0378 38.3827 13.154C38.5099 12.7301 38.7341 12.3418 39.0376 12.0198C39.2011 11.8468 39.3994 11.7104 39.6194 11.6196C39.8395 11.5288 40.0762 11.4856 40.3142 11.493C40.5782 11.5229 40.8319 11.6123 41.0563 11.7546C41.2807 11.8968 41.47 12.088 41.6097 12.314C41.8618 12.7253 42.0521 13.1714 42.1744 13.638C42.4123 14.2292 42.4813 14.8749 42.3738 15.503C42.3571 15.5645 42.3168 15.6169 42.2617 15.6489C42.2067 15.6809 42.1412 15.6898 42.0795 15.6739C42.0193 15.6572 41.9681 15.6175 41.937 15.5633C41.9059 15.5091 41.8974 15.4448 41.9134 15.3844C41.9929 14.8419 41.9258 14.2881 41.7189 13.7804C41.6124 13.3587 41.4428 12.9555 41.2158 12.5845C41.1141 12.417 40.9759 12.2746 40.8116 12.1678C40.6473 12.061 40.4611 11.9925 40.2667 11.9676C40.0978 11.9643 39.9301 11.9969 39.7747 12.0631C39.6193 12.1294 39.4797 12.2278 39.365 12.3519C39.1126 12.6222 38.9258 12.947 38.8193 13.3011C38.5736 14.0528 38.5157 14.8531 38.6505 15.6324C38.7854 16.4116 39.1089 17.146 39.5928 17.7714C39.6259 17.7805 39.6567 17.7961 39.6836 17.8173C39.7105 17.8385 39.7329 17.8648 39.7494 17.8948L39.8349 18.0657C39.8623 18.1166 39.8697 18.176 39.8557 18.2322C39.8416 18.2884 39.8071 18.3373 39.7589 18.3694C39.7248 18.3964 39.6836 18.4129 39.6403 18.4168Z" fill="#231F20"></path><path d="M47.0505 13.3312C47.1518 12.8785 47.0887 12.479 46.9097 12.439C46.7306 12.3989 46.5034 12.7334 46.4021 13.1862C46.3008 13.6389 46.3639 14.0383 46.5429 14.0784C46.722 14.1184 46.9492 13.7839 47.0505 13.3312Z" fill="#231F20"></path><path d="M40.3427 22.6406C39.3116 21.9715 38.3241 21.2377 37.3861 20.4434C37.3861 20.4434 36.9116 24.5531 39.7257 25.4974L40.3427 22.6406Z" fill="#231F20"></path><path d="M39.7256 25.7351C39.7005 25.7396 39.6748 25.7396 39.6497 25.7351C36.6979 24.7432 37.1298 20.6051 37.1487 20.4295C37.1538 20.3869 37.1702 20.3465 37.196 20.3123C37.2218 20.2781 37.2563 20.2514 37.2959 20.2349C37.336 20.2196 37.3795 20.2151 37.4219 20.2217C37.4644 20.2284 37.5043 20.246 37.5379 20.2729C38.4693 21.0606 39.4488 21.7897 40.4707 22.4558C40.5104 22.4821 40.5416 22.5196 40.5602 22.5635C40.5787 22.6074 40.5839 22.6558 40.5751 22.7026L39.9582 25.55C39.951 25.5825 39.9371 25.6132 39.9175 25.6402C39.8979 25.6671 39.873 25.6897 39.8443 25.7066C39.8075 25.7253 39.7669 25.7351 39.7256 25.7351ZM37.5996 20.9278C37.5996 21.9433 37.7325 24.3683 39.5548 25.1751L40.0768 22.7501C39.2199 22.1862 38.393 21.5779 37.5996 20.9278Z" fill="#231F20"></path><path d="M17.6963 66.2852C17.6963 66.2852 18.1234 37.2421 22.4799 30.5556C26.8364 23.869 38.1404 22.3599 43.5315 26.3462C48.9225 30.3325 46.3266 60.7993 46.3266 60.7993C46.3266 60.7993 29.138 66.2852 17.6963 66.2852Z" fill="#007456"></path><path d="M39.7682 24.6387C42.6358 25.8035 45.3159 27.385 47.7219 29.3321C51.4519 32.4309 59.3249 45.7566 59.3249 45.7566L48.9415 52.0445L39.6211 40.5507L39.7682 24.6387Z" fill="#007456"></path><path d="M26.9697 26.4453C26.9697 26.4453 21.5359 27.0575 18.6601 33.0227C17.1035 36.2592 13.1172 46.709 13.1172 46.709L25.1046 48.09L26.9697 26.4453Z" fill="#007456"></path><path d="M48.1635 51.3173C48.1262 51.3171 48.0894 51.308 48.0564 51.2906C48.0233 51.2733 47.995 51.2482 47.9736 51.2176L38.7149 38.6086C38.6962 38.5836 38.6826 38.5553 38.6749 38.5251C38.6672 38.4949 38.6655 38.4635 38.6699 38.4326C38.6743 38.4018 38.6847 38.3721 38.7006 38.3453C38.7165 38.3185 38.7375 38.2951 38.7624 38.2764C38.8137 38.2403 38.8771 38.2256 38.939 38.2354C39.001 38.2451 39.0568 38.2785 39.0946 38.3286L48.3533 50.9376C48.3797 50.9729 48.3958 51.0148 48.3998 51.0587C48.4038 51.1026 48.3954 51.1467 48.3757 51.1861C48.356 51.2255 48.3257 51.2587 48.2882 51.2818C48.2507 51.305 48.2075 51.3173 48.1635 51.3173Z" fill="#231F20"></path><path d="M75.8018 37.0665L78.1176 29.877L78.839 30.0858L77.382 37.1757C77.382 37.1757 76.357 38.1628 75.8018 37.0665Z" fill="#231F20"></path><path d="M76.5135 37.8223H76.3522C76.1826 37.7866 76.0244 37.71 75.8912 37.5992C75.7581 37.4883 75.654 37.3466 75.5881 37.1864C75.5644 37.1286 75.5644 37.0638 75.5881 37.0061L77.8897 29.807C77.9103 29.7488 77.952 29.7005 78.0064 29.6715C78.0609 29.6425 78.1242 29.635 78.184 29.6504L78.9053 29.8592C78.9625 29.8759 79.0113 29.9134 79.0421 29.9644C79.0728 30.0154 79.0833 30.0761 79.0714 30.1344L77.6145 37.2528C77.6049 37.2982 77.5818 37.3396 77.5481 37.3715C77.2657 37.6369 76.9001 37.7962 76.5135 37.8223ZM76.039 37.0393C76.0751 37.1145 76.1275 37.1807 76.1923 37.2332C76.2572 37.2857 76.3328 37.3232 76.4139 37.343C76.6859 37.3454 76.9481 37.2415 77.1447 37.0535L78.5446 30.2531L78.2552 30.1724L76.039 37.0393Z" fill="#231F20"></path><path d="M32.009 20.7904C27.7379 19.8413 22.9923 20.5057 19.5422 23.1632C18.0801 24.2304 16.9816 25.7215 16.3959 27.4342C16.1183 28.2948 16.0536 29.2098 16.2074 30.1008C16.3611 30.9918 16.7287 31.8322 17.2786 32.55C20.553 36.4841 27.7427 36.4651 32.1893 35.1791C35.2218 34.3059 44.2005 30.0443 41.728 25.8587C39.9484 22.8642 35.2123 21.4785 32.009 20.7904Z" fill="#007456"></path><path d="M26.5707 35.5325C23.7407 35.4505 20.9773 34.6555 18.5363 33.2214C18.5093 33.2054 18.4858 33.1841 18.4672 33.1587C18.4487 33.1334 18.4355 33.1045 18.4284 33.0739C18.4213 33.0433 18.4205 33.0116 18.426 32.9807C18.4315 32.9497 18.4432 32.9203 18.4604 32.894C18.4944 32.8412 18.548 32.804 18.6094 32.7907C18.6708 32.7774 18.7349 32.7889 18.7878 32.8228C18.8448 32.8608 24.7151 36.5101 30.2722 34.4031C32.9393 33.3923 34.5433 31.5984 36.0761 29.8663C37.7703 27.968 39.3696 26.1742 42.1315 25.9227C42.1627 25.9201 42.1941 25.9237 42.2239 25.9333C42.2537 25.9429 42.2813 25.9582 42.3051 25.9785C42.3289 25.9988 42.3485 26.0236 42.3627 26.0515C42.3769 26.0794 42.3854 26.1098 42.3878 26.141C42.3911 26.1719 42.3881 26.2032 42.3791 26.233C42.37 26.2627 42.3551 26.2904 42.3352 26.3143C42.3153 26.3382 42.2908 26.3578 42.2631 26.3721C42.2355 26.3863 42.2053 26.3949 42.1743 26.3973C39.6021 26.6298 38.131 28.2955 36.4321 30.1937C34.9229 31.8879 33.2145 33.8051 30.4383 34.8587C29.2004 35.3152 27.89 35.5435 26.5707 35.5325Z" fill="#231F20"></path><path d="M18.1235 55.9075C18.0923 55.9062 18.0617 55.8989 18.0334 55.8858C18.0051 55.8727 17.9796 55.8542 17.9584 55.8313C17.9373 55.8084 17.9208 55.7815 17.9101 55.7522C17.8993 55.723 17.8944 55.6918 17.8957 55.6607C18.2421 48.1484 19.794 37.3379 19.794 37.2288C19.8045 37.167 19.8385 37.1117 19.889 37.0745C19.9394 37.0374 20.0023 37.0212 20.0645 37.0295C20.1258 37.0389 20.1811 37.072 20.2184 37.1216C20.2556 37.1713 20.2719 37.2336 20.2638 37.2952C20.2638 37.4044 18.693 48.2101 18.3655 55.6797C18.363 55.7418 18.3363 55.8004 18.2911 55.843C18.2458 55.8856 18.1856 55.9087 18.1235 55.9075Z" fill="#231F20"></path><path d="M54.518 102.978H64.6024C64.6024 102.978 65.6987 100.534 68.062 100.197C68.062 100.197 77.259 104.084 75.9065 104.881C74.554 105.678 53.8062 105.593 53.8062 105.593L54.518 102.978Z" fill="#231F20"></path><path d="M55.9222 105.836H53.801C53.7653 105.836 53.73 105.828 53.6979 105.813C53.6658 105.797 53.6377 105.774 53.6159 105.746C53.593 105.717 53.5772 105.683 53.5698 105.647C53.5623 105.61 53.5635 105.573 53.5732 105.537L54.285 102.922C54.2987 102.871 54.329 102.827 54.3711 102.795C54.4133 102.763 54.4648 102.746 54.5175 102.747H64.4549C64.7349 102.201 65.8786 100.274 68.0283 99.9659C68.0686 99.9541 68.1114 99.9541 68.1517 99.9659C70.05 100.763 76.2193 103.459 76.281 104.636C76.2843 104.725 76.2624 104.813 76.2179 104.89C76.1735 104.967 76.1081 105.03 76.0294 105.072C74.8763 105.765 61.4224 105.836 55.9222 105.836ZM54.1142 105.362C62.4332 105.385 74.8478 105.234 75.7874 104.678C75.7874 104.09 71.7679 102.026 68.0283 100.44C65.8738 100.792 64.8298 103.055 64.8203 103.079C64.8011 103.121 64.7702 103.156 64.7315 103.18C64.6927 103.205 64.6478 103.217 64.602 103.217H54.6979L54.1142 105.362Z" fill="#231F20"></path><path d="M46.8962 79.6341C53.317 78.2816 57.6213 75.2776 55.0967 71.2249C52.572 67.1721 34.439 69.8012 30.894 66.7972C27.349 63.7933 28.6161 47.8623 24.7247 45.1336C20.8333 42.4048 4.15241 39.6477 2.28738 43.093C0.422348 46.5383 2.28738 71.6093 7.72111 77.1759C13.1548 82.7425 40.632 80.9249 46.8962 79.6341Z" fill="#231F20"></path><path d="M28.0609 81.224H26.9883C19.775 81.1623 10.5448 80.4363 7.5313 77.3611C2.15925 71.8183 0.0616895 46.7378 2.07858 42.9935C2.42501 42.3528 3.21753 41.883 4.45139 41.5698C9.60988 40.3454 21.5356 42.5759 24.8576 44.8917C26.9504 46.3581 27.6005 51.3552 28.2317 56.1862C28.8059 60.5996 29.3991 65.1602 31.0553 66.5696C32.6309 67.9079 37.4714 68.1024 42.1553 68.2923C47.9213 68.5248 53.8865 68.7668 55.315 71.0542C56.1407 72.383 56.302 73.6643 55.7895 74.8507C54.8404 77.0432 51.7178 78.8038 46.9579 79.8051C43.6882 80.5264 35.6966 81.224 28.0609 81.224ZM8.05806 41.7264C6.87897 41.7054 5.70118 41.8152 4.5463 42.0538C3.4643 42.3101 2.77144 42.704 2.49619 43.2213C0.654891 46.6239 2.66229 71.6522 7.89196 77.0242C13.2118 82.4864 40.5466 80.702 46.844 79.397C51.3856 78.4479 54.4797 76.7394 55.3387 74.7178C55.7848 73.6738 55.6377 72.5396 54.8973 71.3484C53.6018 69.2699 47.7789 69.0373 42.1221 68.8095C37.1392 68.6102 32.4316 68.4204 30.7326 66.973C28.9388 65.4449 28.3598 60.9983 27.7476 56.2906C27.1355 51.583 26.4948 46.6666 24.5681 45.3236C22.0054 43.5155 13.7481 41.7264 8.05806 41.7264Z" fill="#231F20"></path><path d="M58.8126 66.5236H58.7746L43.4748 63.8471C43.4118 63.8364 43.3557 63.8012 43.3188 63.7491C43.2819 63.697 43.2671 63.6324 43.2778 63.5695C43.2885 63.5066 43.3238 63.4505 43.3758 63.4135C43.4279 63.3766 43.4925 63.3618 43.5554 63.3725L58.8553 66.0491C58.9183 66.0547 58.9764 66.0852 59.0169 66.1337C59.0573 66.1822 59.0769 66.2448 59.0712 66.3077C59.0656 66.3706 59.0352 66.4287 58.9866 66.4692C58.9381 66.5097 58.8755 66.5293 58.8126 66.5236Z" fill="#D1D3D4"></path><path d="M113.857 6.2207H85.0464V26.4464H113.857V6.2207Z" fill="white"></path><path d="M113.852 26.6827H85.0464C84.9834 26.6827 84.9231 26.6577 84.8786 26.6132C84.8341 26.5687 84.8091 26.5084 84.8091 26.4454V6.2197C84.8091 6.15677 84.8341 6.09642 84.8786 6.05192C84.9231 6.00742 84.9834 5.98242 85.0464 5.98242H113.852C113.915 5.98242 113.976 6.00742 114.02 6.05192C114.065 6.09642 114.09 6.15677 114.09 6.2197V26.4454C114.09 26.5084 114.065 26.5687 114.02 26.6132C113.976 26.6577 113.915 26.6827 113.852 26.6827ZM85.2836 26.2082H113.615V6.45698H85.2836V26.2082Z" fill="#D1D3D4"></path><path d="M103.64 45.6468C103.583 45.6466 103.528 45.6265 103.485 45.5901C103.442 45.5537 103.412 45.5032 103.402 45.4475L102.235 37.8735L100.194 38.7752C100.166 38.7877 100.135 38.7945 100.104 38.7951C100.072 38.7957 100.041 38.7901 100.012 38.7786C99.9829 38.7672 99.9564 38.7501 99.9339 38.7283C99.9114 38.7065 99.8935 38.6805 99.8811 38.6518C99.8686 38.6235 99.8619 38.593 99.8614 38.562C99.8608 38.5311 99.8665 38.5004 99.878 38.4716C99.8895 38.4429 99.9066 38.4168 99.9283 38.3947C99.95 38.3727 99.9759 38.3552 100.004 38.3433L102.335 37.3373C102.367 37.321 102.403 37.3125 102.439 37.3125C102.475 37.3125 102.511 37.321 102.543 37.3373C102.576 37.3546 102.603 37.379 102.625 37.4085C102.646 37.4381 102.66 37.4722 102.667 37.5081L103.882 45.3621C103.887 45.393 103.886 45.4247 103.879 45.4553C103.872 45.4858 103.858 45.5146 103.84 45.5399C103.821 45.5652 103.798 45.5864 103.771 45.6023C103.743 45.6183 103.713 45.6285 103.682 45.6326L103.64 45.6468Z" fill="#231F20"></path><path d="M107.664 53.7777H101.722L101.399 40.9883H107.986L107.664 53.7777Z" fill="white"></path><path d="M107.664 54.0092H101.723C101.661 54.0093 101.602 53.9856 101.558 53.9431C101.514 53.9006 101.488 53.8427 101.485 53.7814L101.144 40.9968C101.142 40.9333 101.166 40.872 101.21 40.8259C101.255 40.7792 101.316 40.7519 101.381 40.75H107.968C108.031 40.7536 108.091 40.781 108.135 40.8268C108.179 40.8726 108.204 40.9333 108.205 40.9968L107.882 53.8099C107.874 53.8629 107.848 53.9115 107.808 53.9477C107.768 53.9839 107.718 54.0056 107.664 54.0092ZM101.969 53.5346H107.446L107.754 41.2198H101.642L101.969 53.5346Z" fill="#231F20"></path><path d="M108.589 39.6914H100.797V40.987H108.589V39.6914Z" fill="white"></path><path d="M108.589 41.2232H100.797C100.734 41.2232 100.674 41.1982 100.629 41.1537C100.585 41.1092 100.56 41.0489 100.56 40.986V39.6904C100.56 39.6275 100.585 39.5671 100.629 39.5226C100.674 39.4781 100.734 39.4531 100.797 39.4531H108.589C108.652 39.4531 108.712 39.4781 108.757 39.5226C108.801 39.5671 108.826 39.6275 108.826 39.6904V40.986C108.826 41.0489 108.801 41.1092 108.757 41.1537C108.712 41.1982 108.652 41.2232 108.589 41.2232ZM101.034 40.7487H108.352V39.9277H101.034V40.7487Z" fill="#231F20"></path><path d="M104.821 49.4579C104.25 49.5066 103.678 49.3819 103.179 49.1C102.68 48.8182 102.278 48.3924 102.025 47.8783C101.772 47.3642 101.68 46.7857 101.761 46.2184C101.842 45.6511 102.092 45.1214 102.479 44.6987C102.865 44.2759 103.371 43.9797 103.929 43.8488C104.487 43.7178 105.071 43.7583 105.606 43.9648C106.14 44.1713 106.6 44.5343 106.925 45.0064C107.25 45.4784 107.425 46.0375 107.427 46.6105C107.458 47.3333 107.201 48.0388 106.712 48.5725C106.224 49.1062 105.544 49.4246 104.821 49.4579ZM104.821 44.2614C104.345 44.2126 103.864 44.3091 103.444 44.5384C103.023 44.7677 102.682 45.1189 102.464 45.5459C102.247 45.9729 102.164 46.4557 102.227 46.9307C102.289 47.4057 102.494 47.8508 102.814 48.2072C103.134 48.5637 103.554 48.8149 104.02 48.9278C104.486 49.0407 104.975 49.01 105.422 48.8398C105.87 48.6696 106.256 48.3678 106.529 47.9741C106.802 47.5804 106.95 47.1133 106.952 46.6342C106.983 46.0373 106.776 45.4523 106.377 45.0076C105.978 44.5628 105.418 44.2945 104.821 44.2614Z" fill="#D1D3D4"></path><path d="M93.503 22.4406C92.9212 22.4369 92.344 22.3375 91.7946 22.1464C91.0761 21.9206 90.3815 21.6249 89.7207 21.2637C89.5594 21.1735 89.4028 21.0691 89.2462 20.9647C88.8498 20.7085 88.5101 20.3737 88.2481 19.9811C87.9861 19.5885 87.8073 19.1464 87.7228 18.6821C87.6614 18.3412 87.7183 17.9896 87.8842 17.6855C88.1472 17.3249 88.5102 17.0494 88.9282 16.893C89.2059 16.778 89.4625 16.6176 89.6875 16.4184C90.1621 15.9106 89.977 15.1703 89.7872 14.3873C89.735 14.188 89.6875 13.9934 89.6495 13.8036C89.53 13.197 89.5489 12.5713 89.7051 11.973C89.8612 11.3748 90.1504 10.8196 90.5512 10.3488C90.9897 9.8591 91.5376 9.4797 92.1502 9.24141C92.7628 9.00312 93.423 8.91264 94.0772 8.97732C95.9185 9.18613 97.3707 10.0736 98.0635 11.4071C98.3665 12.0299 98.5074 12.7191 98.4734 13.4109C98.4394 14.1027 98.2315 14.7748 97.869 15.3649C97.6124 15.7266 97.4672 16.1555 97.4513 16.5988C97.548 16.9897 97.7537 17.3452 98.0445 17.6238C98.3824 17.9671 98.6217 18.3949 98.7374 18.8624C98.8513 19.6407 98.3388 20.3857 97.1714 21.1403C96.1035 21.9258 94.8272 22.3782 93.503 22.4406ZM89.958 20.8461C90.5912 21.1941 91.2572 21.4787 91.9464 21.6955C93.9491 22.3789 95.5199 21.6338 96.9198 20.7464C97.9164 20.0963 98.3435 19.5078 98.2723 18.9336C98.1664 18.553 97.9636 18.2064 97.6839 17.9275C97.3325 17.5787 97.0901 17.1351 96.9863 16.651C96.98 16.1227 97.1375 15.6055 97.4371 15.1703C97.7683 14.6451 97.9612 14.0446 97.9977 13.4247C98.0342 12.8049 97.9132 12.1858 97.6459 11.6254C97.029 10.4342 95.7097 9.64171 94.0298 9.44714C93.4511 9.38942 92.8669 9.4694 92.3251 9.68054C91.7832 9.89168 91.299 10.228 90.9119 10.662C90.5592 11.0785 90.3048 11.5691 90.1676 12.0973C90.0304 12.6256 90.0139 13.1779 90.1193 13.7134C90.1573 13.8938 90.2048 14.0836 90.2522 14.2734C90.4563 15.1039 90.6888 16.0483 90.0387 16.7411C89.7767 16.9885 89.473 17.1878 89.1418 17.3296C88.8085 17.4507 88.5159 17.6628 88.297 17.9418C88.1865 18.1548 88.1514 18.399 88.1974 18.6346C88.2767 19.0335 88.4357 19.4122 88.6648 19.7481C88.894 20.0841 89.1885 20.3704 89.5309 20.5898C89.6685 20.6902 89.811 20.7837 89.958 20.8698V20.8461Z" fill="#D1D3D4"></path><path d="M106.426 22.3028C105.208 22.2864 104.004 22.0367 102.881 21.5673L102.643 21.4723C102.148 21.1894 101.584 21.051 101.015 21.0728C100.445 21.0946 99.8928 21.2758 99.421 21.5957C98.902 21.8637 98.3451 22.0509 97.7696 22.151C97.1262 22.2073 96.479 22.1023 95.8865 21.8454C95.2941 21.5886 94.775 21.1879 94.3764 20.6798C93.6884 19.9113 93.2369 18.9605 93.0761 17.9416C92.98 17.3286 93.0824 16.7008 93.3685 16.1501C93.6545 15.5994 94.1091 15.1546 94.6659 14.8807C95.7669 14.4061 96.9391 14.7336 98.078 15.0563C98.8946 15.3484 99.7598 15.4806 100.626 15.4454C101.291 15.3341 101.933 15.1128 102.525 14.7905C102.913 14.5974 103.312 14.4278 103.721 14.2828C105.619 13.6516 109.287 14.2828 110.73 15.8678C111.119 16.2753 111.396 16.7768 111.533 17.3233C111.67 17.8698 111.663 18.4426 111.513 18.9856C111.297 19.6957 110.912 20.3425 110.39 20.87C109.868 21.3976 109.226 21.79 108.518 22.0133C107.84 22.2193 107.134 22.317 106.426 22.3028ZM101.172 20.5944H101.286C101.821 20.6472 102.343 20.7934 102.828 21.0263L103.056 21.1212C104.715 21.8703 106.583 22.0163 108.338 21.534C108.97 21.3364 109.545 20.9884 110.013 20.5197C110.481 20.051 110.828 19.4757 111.024 18.8433C111.152 18.3758 111.156 17.8832 111.038 17.4134C110.919 16.9435 110.68 16.5124 110.345 16.162C109.045 14.7383 105.576 14.1262 103.839 14.7099C103.449 14.8444 103.067 15.0029 102.696 15.1844C102.064 15.5338 101.38 15.776 100.669 15.901C99.7402 15.9424 98.812 15.8038 97.9356 15.4929C96.8347 15.1797 95.7906 14.8807 94.8463 15.2983C94.3876 15.5355 94.0155 15.9113 93.7829 16.3723C93.5503 16.8333 93.469 17.3559 93.5507 17.8657C93.7036 18.7979 94.1221 19.6662 94.7561 20.3666C95.2591 20.9313 96.3127 21.8615 97.7363 21.6811C98.2622 21.5844 98.7708 21.4101 99.2454 21.1639C99.8393 20.8378 100.496 20.6435 101.172 20.5944Z" fill="#D1D3D4"></path><path d="M105.752 18.7497C105.435 18.7698 105.119 18.7164 104.826 18.5937C104.534 18.471 104.274 18.2824 104.067 18.0426C103.836 17.8116 103.57 17.6179 103.279 17.4684C102.931 17.304 102.557 17.2028 102.173 17.1694C101.832 17.1599 101.497 17.079 101.188 16.9319C100.88 16.7848 100.606 16.5747 100.384 16.3152C100.137 15.9943 99.962 15.6239 99.8711 15.2291C99.7802 14.8343 99.7756 14.4246 99.8576 14.0278C99.958 13.5078 100.166 13.0146 100.468 12.5798C100.771 12.145 101.161 11.7783 101.613 11.5032C104.114 10.0321 108.756 11.5649 110.269 13.7384C110.806 14.5072 111.418 16.0305 109.51 17.5728C108.507 18.3165 107.299 18.731 106.051 18.7592L105.752 18.7497ZM104.043 11.3751C103.282 11.3501 102.527 11.5269 101.855 11.8876C101.462 12.1283 101.123 12.4485 100.86 12.8276C100.596 13.2067 100.415 13.6365 100.327 14.0895C100.256 14.4183 100.258 14.7586 100.333 15.0866C100.407 15.4145 100.553 15.7221 100.759 15.9878C100.944 16.1996 101.171 16.37 101.426 16.4878C101.682 16.6056 101.959 16.6681 102.24 16.6711C103.063 16.7222 103.835 17.0894 104.394 17.6962C104.59 17.9273 104.845 18.1016 105.131 18.2009C105.417 18.3003 105.725 18.321 106.022 18.2609C107.169 18.2279 108.279 17.8527 109.211 17.1837C110.421 16.2013 110.635 15.0956 109.88 13.9899C108.865 12.5282 106.255 11.3751 104.043 11.3751Z" fill="#D1D3D4"></path><path d="M33.3284 17.0212C33.3284 17.0212 34.8613 15.7778 33.3284 14.1738H30.856C30.856 14.1738 31.3875 16.2477 30.856 17.0212H33.3284Z" fill="#231F20"></path><path d="M33.3287 17.2586H30.8562C30.8124 17.2581 30.7696 17.246 30.7321 17.2234C30.6946 17.2009 30.6637 17.1688 30.6427 17.1305C30.6205 17.0931 30.6088 17.0505 30.6088 17.0071C30.6088 16.9637 30.6205 16.921 30.6427 16.8837C31.027 16.3284 30.7471 14.7861 30.6047 14.2404C30.5973 14.2045 30.5973 14.1675 30.6046 14.1316C30.6119 14.0957 30.6265 14.0617 30.6474 14.0316C30.6702 14.0032 30.6991 13.9804 30.732 13.9648C30.7649 13.9492 30.8008 13.9412 30.8372 13.9414H33.3097C33.3734 13.9435 33.4342 13.9688 33.4805 14.0126C33.7199 14.2307 33.9104 14.4969 34.0396 14.7938C34.1688 15.0906 34.2338 15.4115 34.2303 15.7352C34.1705 16.3056 33.8956 16.8316 33.4616 17.2064C33.4235 17.2367 33.3772 17.2549 33.3287 17.2586ZM31.2264 16.784H33.2338C33.5309 16.4969 33.716 16.1133 33.7558 15.702C33.7568 15.4619 33.709 15.224 33.6152 15.0029C33.5213 14.7818 33.3835 14.5821 33.21 14.416H31.1409C31.341 15.1898 31.3701 15.9978 31.2264 16.784Z" fill="#231F20"></path><path d="M31.9858 16.0826C32.0217 15.8058 31.9919 15.5246 31.8987 15.2615C31.8055 14.9985 31.6516 14.7611 31.4495 14.5687C31.2682 14.3329 31.0595 14.1194 30.8278 13.9328C30.3828 13.6434 29.8841 13.4465 29.3615 13.3539C28.2083 13.0739 26.8605 13.4298 25.6836 13.4535C24.4194 13.4775 23.1634 13.245 21.9915 12.7701C21.5888 12.6342 21.2278 12.3973 20.9427 12.082C20.6485 13.8047 20.6865 15.7029 21.6783 17.1503C22.5187 18.2429 23.6805 19.0445 25.0002 19.4425C25.8776 19.7964 26.8331 19.9113 27.7694 19.7754C28.7056 19.6395 29.589 19.2577 30.3296 18.6689C31.0063 18.1579 31.5286 17.4698 31.8387 16.6805C31.9074 16.4866 31.9567 16.2863 31.9858 16.0826Z" fill="white"></path><path d="M27.0546 20.0586C26.3192 20.0513 25.5905 19.9181 24.9001 19.6647C23.5362 19.2525 22.3361 18.4226 21.469 17.2919C20.5816 15.9964 20.3253 14.2358 20.7002 12.0718C20.7085 12.0268 20.7295 11.9851 20.7605 11.9515C20.7916 11.9179 20.8316 11.8938 20.8758 11.882C20.9201 11.8709 20.9666 11.8731 21.0097 11.8883C21.0527 11.9034 21.0903 11.931 21.1178 11.9674C21.3784 12.2482 21.7045 12.4602 22.067 12.5843C23.2214 13.0264 24.4523 13.2345 25.6879 13.1965C26.077 13.1965 26.4804 13.1443 26.9075 13.0968C27.7412 12.952 28.5937 12.952 29.4274 13.0968C29.9826 13.1954 30.512 13.4053 30.984 13.7138C31.2262 13.9154 31.4472 14.1412 31.6436 14.3876C31.8675 14.6061 32.0369 14.8741 32.1383 15.17C32.2397 15.4659 32.2702 15.7815 32.2273 16.0913C32.1918 16.312 32.1329 16.5284 32.0517 16.7367C31.7243 17.5659 31.1762 18.2897 30.4667 18.8295C29.5027 19.6162 28.2988 20.0499 27.0546 20.0586ZM21.0989 12.5653C20.8521 14.4161 21.0989 15.8872 21.8629 17.012C22.6705 18.0656 23.7897 18.8378 25.0614 19.2187C25.902 19.5565 26.8168 19.6664 27.7135 19.5373C28.6101 19.4081 29.4567 19.0444 30.1677 18.4831C30.8072 17.9927 31.2997 17.3361 31.5914 16.5849C31.6615 16.4069 31.714 16.2225 31.748 16.0344C31.7784 15.7912 31.7513 15.5443 31.6689 15.3135C31.5865 15.0827 31.451 14.8745 31.2735 14.7056C31.0975 14.4988 30.9003 14.3111 30.685 14.1456C30.2644 13.8779 29.7951 13.6957 29.304 13.6094C28.5189 13.4743 27.7164 13.4743 26.9312 13.6094C26.5136 13.6521 26.077 13.6995 25.6689 13.709C24.3697 13.7299 23.0793 13.4927 21.8724 13.0114C21.5977 12.8941 21.338 12.7443 21.0989 12.5653Z" fill="#231F20"></path><path d="M81.4302 4.52734H61.2803V17.834H81.4302V4.52734Z" fill="white"></path><path d="M81.4302 18.0759H61.2802C61.2173 18.0759 61.157 18.0509 61.1125 18.0064C61.068 17.9619 61.043 17.9015 61.043 17.8386V4.52244C61.043 4.45951 61.068 4.39915 61.1125 4.35465C61.157 4.31016 61.2173 4.28516 61.2802 4.28516H81.4302C81.4927 4.28637 81.5524 4.31176 81.5966 4.356C81.6408 4.40024 81.6662 4.45989 81.6674 4.52244V17.8386C81.6662 17.9011 81.6408 17.9608 81.5966 18.005C81.5524 18.0493 81.4927 18.0747 81.4302 18.0759ZM61.4986 17.6013H81.2119V4.76446H61.5175L61.4986 17.6013Z" fill="#D1D3D4"></path><path d="M81.4302 17.8379H61.2803V20.4717H81.4302V17.8379Z" fill="white"></path><path d="M81.4302 20.7099H61.2802C61.2173 20.7099 61.157 20.6849 61.1125 20.6404C61.068 20.5959 61.043 20.5356 61.043 20.4727V17.8388C61.043 17.7759 61.068 17.7156 61.1125 17.6711C61.157 17.6266 61.2173 17.6016 61.2802 17.6016H81.4302C81.4931 17.6016 81.5534 17.6266 81.5979 17.6711C81.6424 17.7156 81.6674 17.7759 81.6674 17.8388V20.4727C81.6674 20.5356 81.6424 20.5959 81.5979 20.6404C81.5534 20.6849 81.4931 20.7099 81.4302 20.7099ZM61.4986 20.2354H81.2119V18.0761H61.5175L61.4986 20.2354Z" fill="#D1D3D4"></path><path d="M63.5864 14.7388C63.5411 14.7406 63.4963 14.7291 63.4574 14.7057C63.4186 14.6823 63.3874 14.6481 63.3677 14.6073C63.3481 14.5665 63.3408 14.5208 63.3467 14.4758C63.3527 14.4309 63.3717 14.3887 63.4013 14.3544C63.6291 14.0696 69.0961 7.36411 74.1929 7.76749C76.224 7.92884 77.6097 8.99185 77.9039 10.6148C78.0366 11.3097 77.9359 12.0289 77.6175 12.6606C77.2991 13.2923 76.7808 13.801 76.1433 14.1076C74.7196 14.7672 73.4003 14.7578 72.4797 14.0791C72.0803 13.7603 71.7774 13.3367 71.6048 12.8557C71.4321 12.3747 71.3966 11.8552 71.5021 11.3552C71.521 10.9234 71.6744 10.5084 71.9407 10.1681C72.207 9.82776 72.573 9.57913 72.9875 9.45692C73.417 9.3437 73.869 9.34782 74.2964 9.46886C74.7238 9.5899 75.1109 9.82341 75.4172 10.145C75.558 10.3002 75.6483 10.4944 75.6763 10.702C75.7042 10.9096 75.6685 11.1208 75.5738 11.3077C75.2132 12.0053 74.7861 12.3707 74.302 12.3897C73.5285 12.3897 72.959 11.5118 72.9353 11.4738C72.9189 11.447 72.908 11.4173 72.9032 11.3863C72.8984 11.3553 72.8998 11.3237 72.9073 11.2933C72.9148 11.2628 72.9283 11.2341 72.9469 11.2089C72.9656 11.1837 72.989 11.1624 73.0159 11.1464C73.0423 11.1301 73.0717 11.1193 73.1023 11.1146C73.133 11.1098 73.1642 11.1112 73.1943 11.1188C73.2243 11.1263 73.2526 11.1397 73.2774 11.1583C73.3022 11.1769 73.323 11.2003 73.3387 11.227C73.462 11.4216 73.8559 11.9389 74.2878 11.9151C74.7196 11.8914 74.9617 11.4406 75.1515 11.0894C75.2039 10.9845 75.222 10.8657 75.2032 10.7499C75.1845 10.6341 75.1299 10.5271 75.0471 10.444C74.8004 10.1932 74.4919 10.012 74.1528 9.91869C73.8136 9.82536 73.4558 9.82322 73.1156 9.9125C72.7918 10.0124 72.5073 10.2113 72.3022 10.4811C72.0971 10.7509 71.9816 11.0781 71.9719 11.4169C71.8808 11.8315 71.9061 12.2634 72.0452 12.6645C72.1842 13.0657 72.4315 13.4206 72.7597 13.69C73.5332 14.2642 74.6959 14.2595 75.944 13.69C76.4874 13.4244 76.9269 12.9854 77.1933 12.4424C77.4597 11.8993 77.5377 11.2831 77.4151 10.6908C77.1636 9.30032 75.9392 8.38442 74.1359 8.24205C69.3096 7.84342 63.8237 14.5822 63.7715 14.6534C63.7487 14.6802 63.7203 14.7017 63.6884 14.7165C63.6564 14.7313 63.6216 14.7389 63.5864 14.7388Z" fill="#D1D3D4"></path></svg>