<svg xmlns="http://www.w3.org/2000/svg" width="54" height="106" viewBox="0 0 54 106" fill="none"><path d="M46.226 59.9171C45.6061 62.199 43.5998 70.3305 42.6981 75.624C42.157 78.682 41.6611 81.7516 41.2102 84.8211L40.5565 89.4312C40.331 91.0297 40.1619 92.3734 40.1169 93.6476C40.083 94.887 40.1958 95.9758 40.4437 96.6708C40.5677 97.0183 40.703 97.2732 40.8721 97.5048C41.0524 97.7481 41.2891 97.9333 41.492 98.1071C41.9429 98.3967 42.698 98.5936 43.7463 98.5357C44.7833 98.4778 46.0119 98.1535 47.2405 97.7017C48.8072 97.1805 51.3095 95.5357 52.6959 97.7133C53.406 98.8601 53.5187 100.099 53.0002 101.269C52.4817 102.439 51.3208 103.563 49.5173 104.293C47.3532 105.15 44.9073 105.845 42.0781 105.59C40.6804 105.474 39.17 104.976 37.8851 104.154C36.6001 103.331 35.5294 102.219 34.7742 100.91C34.0302 99.6129 33.6132 98.2345 33.399 96.9372C33.1849 95.6399 33.1511 94.4005 33.1849 93.2306C33.2187 92.0491 33.3089 90.9255 33.4103 89.8366L33.6921 86.6976C34.1768 80.5701 35.1348 74.5004 36.3747 68.4887C36.9946 65.4886 37.6822 62.5001 38.4148 59.5232L39.5533 55.0637L40.1394 52.8397C40.331 52.0983 40.5564 51.3223 40.6804 50.7547C40.8044 50.2103 40.9059 49.6659 40.9509 49.1678C40.9848 48.913 40.996 48.6697 41.0073 48.4496C41.0186 48.2527 41.0073 47.9516 40.996 47.8937C40.9735 47.6504 40.8833 47.384 40.6579 47.2681C40.455 47.1175 40.2183 47.1407 39.9478 47.2218C39.1701 47.4651 38.1556 48.0327 36.9383 48.6929C32.2606 51.2296 27.5716 53.7664 22.9278 56.361L19.659 58.2143C18.6108 58.8167 17.416 59.5233 16.0747 60.1488C14.7221 60.7627 13.1779 61.3534 11.2843 61.5271C9.40193 61.7356 7.17017 61.2839 5.36672 60.1372C3.50692 58.9904 2.15432 57.1834 1.4104 55.4807C0.643936 53.7548 0.305773 52.0752 0.125429 50.4767C-0.0436444 48.8782 -0.0323605 47.3376 0.102898 45.8202C0.238156 44.2449 0.519953 42.9823 0.745384 41.6387C2.51502 32.43 6.56149 23.9047 11.4759 16.225C12.0507 15.3099 12.5918 14.2442 13.1892 13.1786C13.7527 12.0897 14.4065 11.0241 15.1166 10.0743C16.2776 8.49894 18.3741 5.98536 19.8168 4.69961C20.448 4.14362 21.1243 3.61085 21.6203 2.9506C23.9535 -0.0610506 25.2948 0.00840932 26.3881 3.05481C26.6361 3.71505 27.4251 4.14361 27.1208 5.05869C27.1095 5.09344 27.087 5.17453 27.0757 5.20928C26.4896 8.25568 24.2353 9.55303 22.5896 11.6033C18.6671 16.6188 15.342 22.144 12.8285 28.0283C11.5661 30.9705 10.4953 33.9937 9.61608 37.0749C9.2103 38.627 8.80453 40.1676 8.48892 41.743C8.30858 42.519 8.18461 43.3183 8.04935 44.1059C7.91409 44.9052 7.76753 45.6928 7.6999 46.3763C7.51956 48.1138 7.56466 49.886 7.89154 51.3107C8.06061 52.0173 8.30858 52.608 8.59037 53.025C8.87215 53.442 9.14269 53.6853 9.49211 53.859C9.8528 54.0443 10.2135 54.1254 10.7432 54.0791C11.2617 54.0559 11.9267 53.8706 12.6368 53.581C13.3582 53.2914 14.136 52.886 14.9475 52.4227L17.5287 50.9053C19.4336 49.7701 21.1919 48.3685 23.2772 47.4998L23.2434 47.5114C25.261 46.3183 27.2448 45.0441 29.2962 43.9437C31.28 42.8665 33.2863 41.7777 35.3039 40.6888C35.9126 40.3877 36.5663 40.0749 37.3328 39.8085C37.6597 39.6927 38.2796 39.4958 38.8094 39.3915C39.3504 39.2757 39.9027 39.2062 40.455 39.1946C42.653 39.102 44.8058 39.9707 46.3275 41.5576C47.8491 43.1213 48.6269 45.4264 48.7058 47.6272C48.7734 49.3647 48.548 50.7895 48.2549 52.1447L48.0182 53.1293L47.7702 54.0212C47.6237 54.5424 47.4659 55.0752 47.3194 55.5965C47.0151 56.639 46.722 57.67 46.4289 58.7009C46.35 58.9673 46.35 59.4422 46.226 59.9171Z" fill="#007456"></path></svg>