<svg xmlns="http://www.w3.org/2000/svg" width="64" height="64" viewBox="0 0 64 64" fill="none"><circle cx="32" cy="32" r="25" fill="#007456"></circle><path d="M32.0002 58.6673C17.2726 58.6673 5.3335 46.7281 5.3335 32.0007C5.3335 17.2731 17.2726 5.33398 32.0002 5.33398C46.7276 5.33398 58.6668 17.2731 58.6668 32.0007C58.6668 46.7281 46.7276 58.6673 32.0002 58.6673ZM28.3252 22.4396C28.15 22.3227 27.9442 22.2604 27.7335 22.2604C27.1444 22.2604 26.6668 22.738 26.6668 23.3271V40.6743C26.6668 40.8849 26.7292 41.0908 26.846 41.266C27.1727 41.7561 27.8351 41.8887 28.3252 41.5617L41.3356 32.8881C41.4527 32.81 41.5532 32.7095 41.6314 32.5924C41.9583 32.1023 41.8258 31.4399 41.3356 31.1132L28.3252 22.4396Z" fill="white"></path></svg>