<svg xmlns="http://www.w3.org/2000/svg" width="101" height="57" viewBox="0 0 101 57" fill="none"><path d="M10.5314 2.20329C9.86839 4.90022 8.14722 7.23598 6.52422 9.42538C4.73576 11.8409 2.87003 14.271 1.72859 17.0821C0.739691 19.5255 0.365044 22.244 1.07137 24.8183C1.76131 27.3324 3.28835 29.5458 5.70581 30.6356C8.64895 31.9612 11.9393 31.1139 14.8761 30.2551C18.018 29.3324 21.1542 28.409 24.2961 27.4862C30.622 25.6281 36.948 23.7699 43.2739 21.9118C45.5189 21.2536 48.0662 20.4434 50.2227 20.6099C51.2321 20.6852 51.8717 20.8406 52.5704 21.3939C53.1088 21.8237 53.4936 22.7322 53.4428 23.5845C53.2831 26.1526 51.3907 28.3577 49.9259 30.3843C48.2816 32.6588 46.7428 35.0272 46.1905 37.8245C45.7109 40.239 46.0716 42.9369 47.5834 44.9268C49.3475 47.255 52.2266 47.9193 55 47.7774C57.9082 47.6276 60.7734 46.6321 63.5745 45.892C66.7116 45.0621 69.8429 44.2315 72.98 43.4016C75.9312 42.6204 78.8822 41.7399 81.8925 41.2049C84.4162 40.754 87.1576 40.4857 89.6347 41.308C94.2422 42.831 95.9283 47.3689 96.8107 51.7617C97.044 52.9271 97.2351 54.1051 97.409 55.2812C97.7375 57.4967 101.166 56.9632 100.839 54.7419C100.149 50.0909 99.2283 44.8588 95.8827 41.3033C93.9377 39.2345 91.4418 37.9663 88.6494 37.5105C85.7887 37.041 82.8076 37.4218 79.9987 38.0268C76.9938 38.6675 74.0327 39.5352 71.0636 40.3202C67.9265 41.1501 64.7951 41.9806 61.658 42.8105C59.1086 43.4862 56.3251 44.4794 53.6912 44.3163C52.565 44.245 51.5876 43.9924 50.7261 43.2334C50.1504 42.7234 49.7278 41.8399 49.5762 41.0284C49.1791 38.9042 49.8662 36.8114 51.0793 34.8492C52.607 32.3744 54.6122 30.1999 55.8794 27.5608C57.0855 25.049 57.4341 21.948 55.6535 19.612C54.0958 17.5644 51.5028 17.044 49.0793 17.127C46.4687 17.2176 43.9773 18.0985 41.4915 18.8282C38.3496 19.7509 35.2134 20.6744 32.0716 21.5971C25.8178 23.4344 19.5733 25.3428 13.2987 27.1076C11.9406 27.4884 10.4809 27.8925 9.06174 27.84C7.79892 27.7939 6.79755 27.4451 5.94891 26.676C5.74344 26.4888 5.39074 26.0629 5.14892 25.6848C5.24795 25.8363 5.0804 25.5718 5.08106 25.566C5.01827 25.4537 4.95614 25.3356 4.89976 25.2182C4.75913 24.9218 4.63063 24.6209 4.52643 24.3111C4.25541 23.5268 4.1232 22.2913 4.18292 21.4633C4.3794 18.7769 5.81943 16.3562 7.32742 14.2061C9.03813 11.7582 10.941 9.46096 12.371 6.82313C13.1007 5.47672 13.6149 4.08214 13.9769 2.59415C14.2035 1.68024 13.2961 0.764228 12.4521 0.667064C11.4237 0.554511 10.7587 1.28363 10.5314 2.20329Z" fill="white"></path></svg>