<svg xmlns="http://www.w3.org/2000/svg" width="81" height="80" viewBox="0 0 81 80" fill="none"><path d="M69.3354 44.3146C67.8488 41.9496 66.3335 39.6042 64.8239 37.2525C63.8925 35.8118 62.864 34.4428 62.1164 32.8836C61.9122 32.4529 61.8862 31.9099 61.4751 31.6112L61.4814 31.6168C61.2583 31.1693 61.087 30.6888 60.8003 30.275C59.7319 28.7348 58.7725 27.0206 57.6174 25.6292C57.5727 25.578 57.5887 25.4454 57.53 25.3591C57.2433 24.9453 56.1708 23.537 55.5603 22.5859C54.1311 20.385 52.6557 18.2107 50.6829 16.3951C50.3739 16.1083 46.6844 11.666 45.1268 12.7517C43.4944 13.8837 46.0909 18.7977 46.5524 19.3448C47.6738 20.6724 49.0308 21.8484 49.7043 23.4659C50.696 25.8304 52.3356 27.7555 53.6592 29.8849C54.8515 31.8067 56.2037 33.6113 57.3784 35.5401C58.4805 37.3476 59.3135 39.3445 60.5189 41.086C61.5614 42.5919 62.9932 43.8233 64.1671 45.2316C64.4433 45.5682 64.4441 46.1905 64.7343 46.5622C64.979 46.8708 65.3559 47.3989 65.7033 47.6296C65.8522 47.7285 66.0305 47.8196 66.0648 47.9971C66.2195 48.8017 70.0341 53.5477 71.9167 52.2094C73.7587 50.8914 70.6304 46.362 69.3354 44.3146Z" fill="#FFD75E"></path><path d="M36.6963 34.3549C34.9788 33.5353 33.2445 32.7347 31.511 31.946C30.445 31.4588 29.3321 31.088 28.3556 30.398C28.0878 30.2045 27.9046 29.8264 27.5426 29.8539L27.5488 29.8595C27.2573 29.6674 27.0043 29.4191 26.6869 29.2943C25.4965 28.8204 24.3305 28.1536 23.1318 27.8418C23.0835 27.8327 23.059 27.7205 22.9919 27.6945C22.6746 27.5698 21.5255 27.1892 20.8209 26.866C19.1915 26.125 17.5355 25.4394 15.6505 25.3179C15.3513 25.2997 11.5251 24.3061 10.8064 26.072C10.0563 27.9115 13.2929 29.9274 13.7766 30.0423C14.932 30.3268 16.1978 30.3594 17.1492 31.1287C18.539 32.2549 20.2263 32.6634 21.767 33.4157C23.1482 34.0936 24.614 34.5871 25.9904 35.2833C27.2864 35.9304 28.4518 36.8904 29.789 37.4274C30.943 37.8915 32.2857 37.9135 33.5026 38.2302C33.7871 38.3031 33.9815 38.7703 34.2912 38.8656C34.5463 38.9462 34.9608 39.1011 35.2676 39.047C35.3976 39.0273 35.5444 38.9887 35.622 39.0918C35.973 39.5855 39.9809 40.7299 40.8379 38.5789C41.6732 36.465 38.1866 35.0623 36.6963 34.3549Z" fill="#FFD75E"></path><path d="M43.4353 49.7256C40.8211 48.7617 38.1845 47.8232 35.5597 46.8839C33.952 46.3092 32.292 45.8572 30.7492 45.0691C30.3312 44.8546 29.967 44.4394 29.4665 44.4451L29.4784 44.4444C29.0303 44.2257 28.5969 43.9522 28.123 43.8008C26.3371 43.2366 24.5267 42.4585 22.7688 42.0662C22.7024 42.0521 22.6359 41.9364 22.5388 41.9063C22.0649 41.7549 20.3565 41.2938 19.285 40.9146C16.8133 40.044 14.3207 39.2226 11.648 38.9862C11.2286 38.9513 5.60331 37.6755 5.02512 39.4989C4.42109 41.3896 9.46381 43.7052 10.1642 43.8551C11.855 44.2215 13.6498 44.3305 15.173 45.1915C17.3995 46.4535 19.8689 46.9832 22.2162 47.8671C24.3257 48.6634 26.5017 49.2703 28.6057 50.0729C30.5817 50.8292 32.4573 51.9027 34.4745 52.5489C36.2122 53.104 38.1021 53.2073 39.8901 53.6038C40.313 53.6984 40.694 54.1964 41.154 54.3127C41.5293 54.4101 42.1486 54.6007 42.5756 54.5634C42.7595 54.5465 42.9482 54.5114 43.0803 54.6292C43.6906 55.1734 49.6053 56.6056 50.2854 54.3872C50.946 52.2418 45.7085 50.566 43.4353 49.7256Z" fill="#FFD75E"></path></svg>