<svg xmlns="http://www.w3.org/2000/svg" width="480" height="480" viewBox="0 0 480 480" fill="none"><mask id="mask0_6782_36831" style="mask-type:luminance" maskUnits="userSpaceOnUse" x="38" y="19" width="404" height="442"><path d="M442 19.5H38.5V460.5H442V19.5Z" fill="white"></path></mask><g mask="url(#mask0_6782_36831)"><path fill-rule="evenodd" clip-rule="evenodd" d="M244.783 72.9156C244.783 72.9156 240.586 63.7216 236.439 58.8751C232.296 54.0231 229.564 53.4036 224.098 52.7891C218.632 52.1746 195.173 60.7286 190.5 67.6041C185.827 74.4796 196.88 89.1201 196.88 89.1201L196.935 89.2396C206.287 85.1976 215.844 81.6451 225.566 78.5971C233.071 76.2086 239.442 74.3196 244.783 72.9156ZM226.529 56.0526C226.144 55.8991 225.708 56.0861 225.554 56.4706C225.4 56.8551 225.587 57.2916 225.972 57.4456C227.556 58.0791 230.103 59.5061 232.493 61.7016C234.88 63.8946 237.072 66.8186 238.025 70.4401C238.13 70.8406 238.541 71.0796 238.941 70.9746C239.342 70.8691 239.581 70.4586 239.476 70.0581C238.429 66.0796 236.037 62.9201 233.508 60.5966C230.981 58.2756 228.278 56.7526 226.529 56.0526Z" fill="url(#paint0_linear_6782_36831)"></path><path fill-rule="evenodd" clip-rule="evenodd" d="M176.578 199.462L224.036 188.993L228.973 191.112L230.602 204.503L230.766 204.483C230.766 204.483 233.673 205.273 237.906 202.894C239.568 201.961 240.279 200.687 240.956 199.473C242.004 197.595 242.971 195.861 247.257 195.754C250.787 195.667 253.19 197.72 255.462 199.66C257.729 201.597 259.866 203.421 262.861 202.894C268.857 201.84 270.421 197.753 270.421 197.753L270.451 197.748C270.091 195.909 269.887 194.87 269.887 194.87C269.887 194.87 365.118 188.524 354.54 74.7121C349.802 73.4471 344.946 72.6721 340.05 72.3986C332.173 71.9396 324.278 72.9252 316.755 75.3057C313.955 76.1607 311.251 77.3026 308.685 78.7131C312.393 158.226 246.177 156.612 244.298 156.547C244.353 153.829 244.359 148.038 243.494 146.169C242.674 144.395 236.759 143.945 229.738 143.895C226.98 143.875 224.047 143.915 221.184 143.965C216.612 144.046 211.36 144.271 206.788 144.615C201.212 145.03 196.64 145.62 195.525 146.349C194.061 147.299 194.711 152.194 195.186 154.844L194.881 154.899C155.227 158.054 139.9 183.037 134.936 208.654C129.924 234.52 135.495 261.037 137.269 266.354C140.157 275.022 146.044 272.648 148.082 271.504C148.328 271.371 148.565 271.222 148.792 271.059L173.755 262.825C173.755 262.825 182.224 261.061 179.361 251.072C177.837 245.751 176.683 240.799 175.844 236.187C175.122 232.286 174.602 228.35 174.285 224.395C173.475 214.017 174.449 205.807 176.253 199.372L176.578 199.462ZM349.505 79.5837C352.566 106.56 342.792 166.258 279.245 189.294L279.755 190.704C344.208 167.34 354.1 106.772 350.995 79.4146L349.505 79.5837Z" fill="#007456"></path><path d="M437.006 427.297C437.006 427.297 439.069 434.063 433.778 444.291C428.486 454.52 398.336 458.906 398.336 458.906V458.911C389.932 457.311 382.701 452.416 379.464 442.702C377.9 438.01 375.096 432.419 371.464 426.313L371.939 426.033C371.939 426.033 384.589 427.322 388.378 410.738C392.765 420.042 395.573 426.443 396.392 427.538C399.565 431.77 424.963 425.425 424.963 425.425C424.963 425.425 432.294 423.592 437.006 427.297Z" fill="#111111"></path><path d="M275.85 226.679L275.41 226.704C275.41 226.704 273.797 230.791 267.591 231.845C261.385 232.9 258.741 224.53 251.446 224.705C244.152 224.88 246.155 229.467 241.773 231.845C237.391 234.224 234.383 233.434 234.383 233.434L234.133 233.464L232.374 219.019L232.729 218.974C232.729 218.974 235.687 219.763 239.984 217.385C244.281 215.006 242.312 210.419 249.478 210.239C256.643 210.059 259.241 218.444 265.332 217.385C271.423 216.326 273.007 212.243 273.007 212.243L273.207 212.208C274.029 216.599 274.933 221.537 275.85 226.679Z" fill="#007456"></path><path d="M197.939 103.441C196.315 103.951 177.852 109.632 175.833 104.46C174.499 101.053 183.149 95.3161 196.933 89.2401C206.286 85.1986 215.843 81.6471 225.565 78.5996C233.07 76.2111 239.441 74.3221 244.783 72.9181C259.943 68.9306 266.813 68.7961 267.773 71.9636C269.067 76.2461 256.365 80.9726 256.365 80.9726L256.325 81.2426C253.704 80.9446 251.06 80.8961 248.43 81.0976C248.43 81.0976 197.644 88.8876 199.348 94.2941C199.962 96.2526 199.458 99.7356 198.648 103.444L197.939 103.441Z" fill="url(#paint1_linear_6782_36831)"></path><path d="M207.318 94.3489L207.053 119.342L206.813 119.337C206.813 119.337 202.521 125.683 199.878 123.215C197.355 120.861 200.762 115.729 201.087 115.255C200.787 115.65 197.949 119.267 196.115 118.043C194.876 117.218 197.225 109.983 198.649 103.443C199.458 99.7354 199.963 96.2524 199.349 94.2929C197.645 88.8864 248.431 81.0965 248.431 81.0965C251.062 80.895 253.705 80.9434 256.326 81.2414C258.276 81.5214 259.929 82.0809 260.338 83.1254C261.483 86.0334 250.635 87.4424 250.635 87.4424C250.635 87.4424 260.778 96.8809 252.843 99.8789C245.788 102.542 245.418 91.629 245.428 89.1664V89.1614C245.428 88.8564 245.433 88.6814 245.433 88.6814C245.433 88.6814 225.683 84.7089 207.638 94.3529L207.318 94.3489Z" fill="#171717"></path><path d="M230.767 204.484C230.767 204.484 233.676 205.278 237.908 202.895C242.14 200.511 240.201 195.929 247.258 195.755C254.314 195.58 256.866 203.955 262.862 202.895C268.858 201.835 270.422 197.753 270.422 197.753L270.452 197.748C271.037 200.761 272.036 205.923 273.205 212.209L273.005 212.244C273.005 212.244 271.421 216.326 265.33 217.385C259.239 218.445 256.641 210.065 249.476 210.24C242.311 210.414 244.284 215.002 239.982 217.385C235.679 219.769 232.727 218.974 232.727 218.974L232.372 219.019L230.603 204.504L230.767 204.484Z" fill="url(#paint2_linear_6782_36831)"></path><path d="M181.9 297.117C201.797 293.71 260.953 282.312 277.582 277.74C276.5 304.967 259.429 317.554 237.908 324.549C214.044 332.309 193.408 334.073 178.417 327.372C175.334 325.993 171.382 324.379 166.845 322.825C174.909 309.675 181.9 297.122 181.9 297.122L181.9 297.117Z" fill="#007456"></path><path d="M178.417 327.372C193.407 334.072 214.043 332.309 237.907 324.549C259.428 317.553 276.502 304.967 277.581 277.74C278.101 277.595 278.581 277.46 279.015 277.33C279.015 277.33 319.503 304.212 322.796 308.444C323.481 309.329 322.716 312.112 321.027 315.979C317.969 322.99 311.893 333.553 305.947 342.797C299.442 352.92 293.091 361.469 291.052 362.054C286.11 363.468 238.852 333.133 238.852 333.133C238.852 333.133 218.865 375.46 214.393 383.455C211.91 387.897 188.293 380.212 169.533 370.893C162.857 367.57 156.796 364.048 152.524 360.78C147.203 356.727 144.654 353.085 147.148 350.766C151.875 346.369 159.769 334.366 166.845 322.825C171.381 324.379 175.334 325.993 178.417 327.372Z" fill="#007456"></path><path d="M71.2005 432.128C57.794 438.473 46.6863 433.187 45.0973 421.37C43.5083 409.553 71.3405 376.055 71.3405 376.055C74.383 376.664 79.375 377.634 84.3665 378.513C86.738 378.908 89.1375 379.111 91.542 379.118V379.123C86.2455 388.073 92.516 397.273 94.045 399.279C88.079 399.679 84.3665 399.679 84.3665 399.679C75.4305 406.025 75.1955 422.249 71.2005 432.128Z" fill="#111111"></path><path d="M194.881 154.9C155.227 158.055 139.9 183.039 134.936 208.65C129.924 234.518 135.495 261.036 137.269 266.35C140.157 275.02 146.044 272.646 148.082 271.5C148.328 271.367 148.565 271.218 148.792 271.056L173.755 262.821C173.755 262.821 182.224 261.057 179.361 251.069C177.837 245.747 176.683 240.796 175.844 236.184C175.122 232.282 174.602 228.346 174.285 224.392C173.475 214.013 174.449 205.804 176.253 199.368C180.8 183.139 190.649 178.172 190.649 178.172" stroke="#171717" stroke-width="1.4" stroke-linecap="round" stroke-linejoin="round"></path><path d="M244.259 156.545H244.299C246.177 156.61 312.393 158.224 308.686 78.7114C311.251 77.3004 313.955 76.1589 316.756 75.3039C324.278 72.9239 332.173 71.9394 340.05 72.3989C344.947 72.6719 349.802 73.4474 354.541 74.7124" stroke="#171717" stroke-width="1.4" stroke-linecap="round" stroke-linejoin="round"></path><path d="M175.364 288.458C175.364 288.458 172.776 297.862 175.364 298.097C175.734 298.132 178.102 297.772 181.9 297.117C201.797 293.71 260.953 282.312 277.582 277.74C278.101 277.595 278.582 277.46 279.016 277.331C280.585 276.866 281.579 276.491 281.879 276.231C283.872 274.502 279.785 248.749 275.848 226.681C274.933 221.539 274.029 216.602 273.204 212.21C272.035 205.924 271.036 200.763 270.451 197.75C270.091 195.911 269.887 194.872 269.887 194.872C269.887 194.872 365.119 188.524 354.541 74.7148" stroke="#171717" stroke-width="1.4" stroke-linecap="round" stroke-linejoin="round"></path><path d="M181.9 297.122C181.9 297.122 174.909 309.672 166.845 322.825C159.769 334.367 151.875 346.369 147.148 350.766C144.654 353.085 147.203 356.727 152.524 360.78C156.796 364.048 162.857 367.57 169.533 370.893C188.291 380.212 211.91 387.897 214.393 383.455C218.865 375.46 238.85 333.133 238.85 333.133C238.85 333.133 286.108 363.468 291.05 362.054C293.088 361.469 299.439 352.92 305.945 342.797C311.891 333.553 317.967 322.99 321.025 315.979C322.714 312.112 323.478 309.329 322.794 308.444C319.501 304.212 279.013 277.33 279.013 277.33" stroke="#171717" stroke-width="1.4" stroke-linecap="round" stroke-linejoin="round"></path><path d="M195.525 156.556C195.525 156.556 195.37 155.866 195.186 154.842C194.711 152.192 194.061 147.297 195.525 146.348C196.64 145.618 201.212 145.029 206.788 144.614C211.36 144.269 216.611 144.044 221.183 143.964C224.046 143.914 226.98 143.874 229.738 143.894C236.758 143.944 242.674 144.394 243.494 146.167C244.358 148.036 244.353 153.827 244.298 156.545C244.283 157.425 244.258 157.984 244.258 157.984" stroke="#171717" stroke-width="1.4" stroke-linecap="round" stroke-linejoin="round"></path><path d="M206.788 144.607L207.053 119.339L207.318 94.3458L207.343 92.0273" stroke="#171717" stroke-width="1.4" stroke-linecap="round" stroke-linejoin="round"></path><path d="M245.428 89.1591C245.431 89.1461 245.432 89.1326 245.433 89.1191" stroke="#171717" stroke-width="1.4" stroke-linecap="round" stroke-linejoin="round"></path><path d="M229.738 143.888C229.738 143.888 227.625 134.794 230.268 132.675C232.911 130.557 239.087 130.737 241.375 124.211C243.614 117.84 245.348 90.4481 245.428 89.1641" stroke="#171717" stroke-width="1.4" stroke-linecap="round" stroke-linejoin="round"></path><path d="M201.112 115.218C201.103 115.229 201.094 115.24 201.087 115.253C200.787 115.648 197.949 119.265 196.115 118.041C194.876 117.216 197.225 109.981 198.649 103.441C199.458 99.7335 199.963 96.2505 199.349 94.291C197.645 88.8845 248.431 81.0945 248.431 81.0945C251.062 80.893 253.705 80.9415 256.326 81.2395C258.276 81.5195 259.929 82.079 260.338 83.1235C261.483 86.0315 250.635 87.4405 250.635 87.4405C250.635 87.4405 260.778 96.879 252.843 99.877C245.788 102.54 245.418 91.627 245.428 89.1645V89.1595C245.428 88.8545 245.433 88.6795 245.433 88.6795C245.433 88.6795 225.683 84.707 207.638 94.351" stroke="#171717" stroke-width="1.4" stroke-linecap="round" stroke-linejoin="round"></path><path d="M206.814 119.336C206.814 119.336 202.522 125.682 199.878 123.214C197.355 120.86 200.763 115.728 201.088 115.254" stroke="#171717" stroke-width="1.4" stroke-linecap="round" stroke-linejoin="round"></path><path d="M198.054 103.406C198.054 103.406 198.014 103.421 197.939 103.441C196.315 103.951 177.852 109.632 175.833 104.46C174.499 101.053 183.149 95.3161 196.933 89.2401C206.286 85.1986 215.843 81.6471 225.565 78.5996C233.07 76.2111 239.441 74.3221 244.783 72.9181C259.943 68.9306 266.813 68.7961 267.773 71.9636C269.067 76.2461 256.365 80.9726 256.365 80.9726" stroke="#171717" stroke-width="1.4" stroke-linecap="round" stroke-linejoin="round"></path><path d="M196.88 89.1201C196.88 89.1201 185.827 74.4796 190.5 67.6041C195.173 60.7286 218.632 52.1746 224.098 52.7891C229.564 53.4036 232.298 54.0231 236.44 58.8751C240.582 63.7271 244.784 72.9156 244.784 72.9156" stroke="#171717" stroke-width="1.4" stroke-linecap="round" stroke-linejoin="round"></path><path d="M331.61 60.6075C331.609 60.601 331.608 60.594 331.605 60.5875C331.465 59.6935 327.113 31.5922 332.315 30.3927C337.606 29.1737 340.075 71.96 340.075 71.96" stroke="#171717" stroke-width="1.4" stroke-linecap="round" stroke-linejoin="round"></path><path d="M324.675 62.018C324.675 62.0095 324.673 62.001 324.67 61.993C324.47 61.0335 318.624 32.843 321.97 31.688C325.328 30.5285 331.42 59.6945 331.604 60.588" stroke="#171717" stroke-width="1.4" stroke-linecap="round" stroke-linejoin="round"></path><path d="M317.855 66.136L317.85 66.131C317.7 65.6215 309.545 38.1393 313.508 36.3903C317.435 34.6568 324.426 61.0645 324.67 61.994" stroke="#171717" stroke-width="1.4" stroke-linecap="round" stroke-linejoin="round"></path><path d="M316.816 75.3605C316.816 75.3605 316.796 75.3405 316.756 75.3055C315.771 74.436 302.675 62.744 305.278 60.1405C307.946 57.4725 317.59 65.9015 317.85 66.1315" stroke="#171717" stroke-width="1.4" stroke-linecap="round" stroke-linejoin="round"></path><path d="M148.082 271.504C148.838 273.795 149.848 275.994 151.095 278.06C151.935 279.48 152.908 280.817 154.003 282.052C157.636 286.109 163.087 289.172 170.747 286.369" stroke="#171717" stroke-width="1.4" stroke-linecap="round" stroke-linejoin="round"></path><path d="M164.842 282.051C166.506 283.857 168.534 285.291 170.792 286.258C172.266 286.895 173.837 287.28 175.439 287.397C178.112 287.587 181.189 287.008 184.528 284.984" stroke="#171717" stroke-width="1.4" stroke-linecap="round" stroke-linejoin="round"></path><path d="M174.215 280.024C174.215 280.024 179.057 283.636 184.528 284.985H184.533C188.106 285.87 191.948 285.785 194.883 283.107C199.405 278.974 196.352 272.684 196.352 272.684" stroke="#171717" stroke-width="1.4" stroke-linecap="round" stroke-linejoin="round"></path><path d="M173.755 262.824C173.755 262.824 180.6 266.537 186.122 270.404C187.574 271.402 188.968 272.482 190.299 273.637C192.322 275.437 193.467 277.03 192.762 277.994C188.885 283.286 174.934 271.503 174.934 271.503" stroke="#171717" stroke-width="1.4" stroke-linecap="round" stroke-linejoin="round"></path><path d="M134.936 208.65L111.641 213.792L109.113 287.188L113.17 290.162L153.998 282.052" stroke="#171717" stroke-width="1.4" stroke-linecap="round" stroke-linejoin="round"></path><path d="M190.764 273.497L196.305 272.437L237.908 264.473L236.179 250.282L235.065 241.143L234.13 233.463L232.371 219.018L230.603 204.502L228.974 191.111L224.037 188.992L176.578 199.461" stroke="#171717" stroke-width="1.4" stroke-linecap="round" stroke-linejoin="round"></path><path d="M186.122 270.404L232.911 261.065L224.037 188.992" stroke="#171717" stroke-width="1.4" stroke-linecap="round" stroke-linejoin="round"></path><path d="M151.095 278.061L109.113 287.189" stroke="#171717" stroke-width="1.4" stroke-linecap="round" stroke-linejoin="round"></path><path d="M199.903 155.555H239.497" stroke="#171717" stroke-width="1.4" stroke-linecap="round" stroke-linejoin="round"></path><path d="M152.519 360.785C152.519 360.785 148.842 370.519 126.95 374.749C110.681 377.897 99.493 379.226 91.5385 379.116C89.1345 379.109 86.7345 378.907 84.363 378.512C79.3715 377.632 74.3795 376.662 71.337 376.053C69.503 375.688 68.3735 375.459 68.3735 375.459C68.3735 375.459 35.9236 410.49 39.9236 425.775C43.9236 441.06 67.2005 442 71.198 432.125C75.1955 422.251 75.43 406.022 84.364 399.675C84.364 399.675 88.0765 399.675 94.0425 399.275C103.087 398.671 117.318 397.152 131.628 393.325C155.193 387.029 169.318 371.135 169.533 370.89L169.538 370.885" stroke="#171717" stroke-width="1.4" stroke-linecap="round" stroke-linejoin="round"></path><path d="M94.3574 399.683C94.3574 399.683 94.2374 399.543 94.0424 399.278C92.5134 397.269 86.2424 388.07 91.5394 379.121" stroke="#171717" stroke-width="1.4" stroke-linecap="round" stroke-linejoin="round"></path><path d="M388.378 410.738C375.782 384.03 350.148 333.429 321.028 315.98" stroke="#171717" stroke-width="1.4" stroke-linecap="round" stroke-linejoin="round"></path><path d="M305.95 342.799C305.95 342.799 351.37 392.476 371.467 426.318C375.099 432.424 377.903 438.016 379.467 442.708C382.704 452.421 389.935 457.318 398.339 458.917C416.489 462.375 440.111 450.477 440.836 438.59C441.196 432.644 439.457 429.226 437.009 427.303C432.297 423.595 424.966 425.429 424.966 425.429C424.966 425.429 399.566 431.775 396.395 427.543C395.576 426.448 392.768 420.048 388.381 410.743" stroke="#171717" stroke-width="1.4" stroke-linecap="round" stroke-linejoin="round"></path><path d="M371.939 426.038C371.939 426.038 384.589 427.327 388.378 410.743V410.738" stroke="#171717" stroke-width="1.4" stroke-linecap="round" stroke-linejoin="round"></path><path d="M222.683 114.688C222.683 114.688 227.005 116.032 227.18 114.258C227.355 112.484 225.33 93.6172 225.33 93.6172C225.33 93.6172 234.324 90.6172 238.996 92.5577" stroke="#171717" stroke-width="1.4" stroke-linecap="round" stroke-linejoin="round"></path><path d="M230.842 99.7884C231.498 99.3839 232.253 99.1699 233.023 99.1699C233.794 99.1699 234.549 99.3839 235.205 99.7884" stroke="#171717" stroke-width="1.4" stroke-linecap="round" stroke-linejoin="round"></path><path d="M214.043 99.1635C214.043 99.1635 217.131 96.7005 219.684 98.729" stroke="#171717" stroke-width="1.4" stroke-linecap="round" stroke-linejoin="round"></path><path d="M211.31 122.803C211.31 122.803 214.31 126.86 218.451 125.891" stroke="#171717" stroke-width="1.4" stroke-linecap="round" stroke-linejoin="round"></path><path d="M132.587 97.0259C132.587 100.031 131.697 102.968 130.028 105.467C128.358 107.966 125.986 109.914 123.209 111.064C120.433 112.214 117.378 112.515 114.431 111.929C111.484 111.343 108.776 109.896 106.652 107.771C104.527 105.646 103.08 102.938 102.494 99.9914C101.908 97.0439 102.209 93.9889 103.359 91.2129C104.509 88.4369 106.457 86.0639 108.956 84.3949C111.455 82.7259 114.392 81.8354 117.397 81.8359C119.392 81.8359 121.367 82.2289 123.21 82.9919C125.053 83.7554 126.728 84.8744 128.138 86.2849C129.549 87.6954 130.667 89.3699 131.431 91.2129C132.194 93.0559 132.587 95.0309 132.587 97.0259Z" stroke="#171717" stroke-width="1.4" stroke-linecap="round" stroke-linejoin="round"></path><path d="M121.574 75.9337L125.107 61.8438" stroke="#171717" stroke-width="1.4" stroke-linecap="round" stroke-linejoin="round"></path><path d="M110.287 116.162L105.705 132.911" stroke="#171717" stroke-width="1.4" stroke-linecap="round" stroke-linejoin="round"></path><path d="M98.2948 104.785L91.2393 108.538" stroke="#171717" stroke-width="1.4" stroke-linecap="round" stroke-linejoin="round"></path><path d="M98.2953 90.765L67.9653 84.0645" stroke="#171717" stroke-width="1.4" stroke-linecap="round" stroke-linejoin="round"></path><path d="M105.705 80.3554L100.414 74.7344" stroke="#171717" stroke-width="1.4" stroke-linecap="round" stroke-linejoin="round"></path><path d="M134.976 84.0644L141.187 81.8359" stroke="#171717" stroke-width="1.4" stroke-linecap="round" stroke-linejoin="round"></path><path d="M138.083 104.16L151.2 107.373" stroke="#171717" stroke-width="1.4" stroke-linecap="round" stroke-linejoin="round"></path><path d="M126.561 116.162L130.039 121.499" stroke="#171717" stroke-width="1.4" stroke-linecap="round" stroke-linejoin="round"></path><path d="M240.671 243.868C240.671 243.868 274.534 234.434 277.352 268.297C277.623 271.437 277.7 274.591 277.582 277.741C276.5 304.968 259.429 317.554 237.908 324.55C214.044 332.31 193.408 334.073 178.417 327.373C175.334 325.994 171.382 324.38 166.845 322.826C149.321 316.835 123.079 311.808 104.561 325.259" stroke="#171717" stroke-width="1.4" stroke-linecap="round" stroke-linejoin="round"></path><path d="M103.312 324.435C103.873 324.854 104.364 325.36 104.766 325.935C107.519 329.852 105.64 336.135 100.609 341.33C99.3942 342.581 98.0642 343.715 96.6362 344.717C88.7462 350.267 79.6027 350.853 76.2097 346.032C72.8167 341.21 76.4547 332.795 84.3392 327.249C84.7992 326.924 85.2637 326.619 85.7282 326.335C92.3142 322.241 99.4742 321.527 103.312 324.435Z" stroke="#171717" stroke-width="1.4" stroke-linecap="round" stroke-linejoin="round"></path><path d="M230.767 204.484C230.767 204.484 233.676 205.278 237.908 202.895C242.14 200.511 240.201 195.929 247.258 195.755C254.314 195.58 256.866 203.955 262.862 202.895C268.858 201.835 270.422 197.753 270.422 197.753" stroke="#171717" stroke-width="1.4" stroke-linecap="round" stroke-linejoin="round"></path><path d="M232.726 218.974C232.726 218.974 235.684 219.763 239.981 217.385C244.278 215.006 242.31 210.419 249.475 210.239C256.641 210.059 259.239 218.444 265.33 217.385C271.421 216.326 273.005 212.243 273.005 212.243" stroke="#171717" stroke-width="1.4" stroke-linecap="round" stroke-linejoin="round"></path><path d="M234.38 233.435C234.38 233.435 237.393 234.23 241.77 231.846C246.147 229.463 244.143 224.881 251.443 224.706C258.743 224.531 261.387 232.906 267.588 231.846C273.789 230.787 275.407 226.705 275.407 226.705" stroke="#171717" stroke-width="1.4" stroke-linecap="round" stroke-linejoin="round"></path><path d="M233.91 250.659L232.911 241.49L235.065 241.145L237.908 240.695L239.352 249.514L236.179 250.284L234.62 250.659" stroke="#171717" stroke-width="1.4" stroke-linecap="round" stroke-linejoin="round"></path><path d="M174.285 224.396C174.285 224.396 179.391 224.646 180.181 229.058C180.96 233.37 176.059 236.068 175.844 236.188H175.839" stroke="#171717" stroke-width="1.4" stroke-linecap="round" stroke-linejoin="round"></path><path d="M71.3385 376.055C71.3385 376.055 43.5063 409.555 45.0953 421.37C46.6843 433.185 57.792 438.473 71.1985 432.128" stroke="#171717" stroke-width="1.4" stroke-linecap="round" stroke-linejoin="round"></path><path d="M398.336 458.91C398.336 458.91 428.491 454.522 433.778 444.294C439.064 434.066 437.006 427.301 437.006 427.301" stroke="#171717" stroke-width="1.4" stroke-linecap="round" stroke-linejoin="round"></path><path d="M85.728 326.328V326.333C85.738 326.538 86.023 332.319 89.7855 336.641C91.9855 339.175 95.377 341.208 100.609 341.328" stroke="#171717" stroke-width="1.4" stroke-linecap="round" stroke-linejoin="round"></path><path d="M103.312 324.434C103.312 324.434 93.2086 328.391 89.7856 336.641" stroke="#171717" stroke-width="1.4" stroke-linecap="round" stroke-linejoin="round"></path><path d="M126.582 405.783C133.761 405.075 140.576 402.283 146.188 397.75" stroke="#171717" stroke-width="1.4" stroke-linecap="round" stroke-linejoin="round"></path><path d="M207.106 365.585L205.931 359.941" stroke="#171717" stroke-width="1.4" stroke-linecap="round" stroke-linejoin="round"></path><path d="M170.66 341.364L174.893 339.719" stroke="#171717" stroke-width="1.4" stroke-linecap="round" stroke-linejoin="round"></path><path d="M203.096 321.614L202.318 316.924" stroke="#171717" stroke-width="1.4" stroke-linecap="round" stroke-linejoin="round"></path><path d="M226.857 301.144L233.211 300.494" stroke="#171717" stroke-width="1.4" stroke-linecap="round" stroke-linejoin="round"></path><path d="M191.822 306.562L191.117 303.035" stroke="#171717" stroke-width="1.4" stroke-linecap="round" stroke-linejoin="round"></path><path d="M261.12 332.97L267.045 330.496" stroke="#171717" stroke-width="1.4" stroke-linecap="round" stroke-linejoin="round"></path><path d="M291.82 340.866C290.92 338.77 290.858 336.409 291.649 334.27" stroke="#171717" stroke-width="1.4" stroke-linecap="round" stroke-linejoin="round"></path><path d="M300.219 310.777C302.347 310.489 304.512 310.659 306.569 311.277" stroke="#171717" stroke-width="1.4" stroke-linecap="round" stroke-linejoin="round"></path><path d="M279.909 307.776C279.249 306.096 279.28 304.223 279.993 302.564" stroke="#171717" stroke-width="1.4" stroke-linecap="round" stroke-linejoin="round"></path><path d="M259.325 291.023L263.908 295.382" stroke="#171717" stroke-width="1.4" stroke-linecap="round" stroke-linejoin="round"></path><path d="M66.9714 334.787C65.5674 336.298 64.7024 338.231 64.5104 340.284C64.3184 342.338 64.8104 344.397 65.9099 346.142" stroke="#171717" stroke-width="1.4" stroke-linecap="round" stroke-linejoin="round"></path><path d="M118.22 312.202C120.22 310.376 122.634 309.064 125.254 308.379C127.874 307.694 130.621 307.657 133.258 308.271" stroke="#171717" stroke-width="1.4" stroke-linecap="round" stroke-linejoin="round"></path><path d="M229.202 211.804L228.25 204.281" stroke="#171717" stroke-width="1.4" stroke-linecap="round" stroke-linejoin="round"></path><path d="M231.091 225.912L230.621 221.209" stroke="#171717" stroke-width="1.4" stroke-linecap="round" stroke-linejoin="round"></path><path d="M355.132 56.3655C355.984 47.0013 353.096 37.6806 347.1 30.4375" stroke="#171717" stroke-width="1.4" stroke-linecap="round" stroke-linejoin="round"></path><path d="M360.913 44.3835C360.869 42.7154 360.369 41.0912 359.467 39.6875" stroke="#171717" stroke-width="1.4" stroke-linecap="round" stroke-linejoin="round"></path><path d="M129.947 196.981C131.907 189.233 135.288 181.915 139.917 175.4" stroke="#171717" stroke-width="1.4" stroke-linecap="round" stroke-linejoin="round"></path><path d="M287.843 242.59L285.206 225.573C284.983 224.485 284.921 223.369 285.024 222.262" stroke="#171717" stroke-width="1.4" stroke-linecap="round" stroke-linejoin="round"></path><path d="M366.024 441.664C361.727 428.803 355.324 416.744 347.077 405.98" stroke="#171717" stroke-width="1.4" stroke-linecap="round" stroke-linejoin="round"></path><path d="M413.305 427.883C410.195 433.212 408.933 439.419 409.715 445.539" stroke="white" stroke-width="1.4" stroke-linecap="round" stroke-linejoin="round"></path><path d="M421.797 426.137C419.127 431.604 418.262 437.776 419.325 443.766" stroke="white" stroke-width="1.4" stroke-linecap="round" stroke-linejoin="round"></path><path d="M78.6242 406.144C76.6072 405.427 74.7872 404.244 73.3127 402.692C71.8382 401.14 70.7502 399.262 70.1367 397.211" stroke="white" stroke-width="1.4" stroke-linecap="round" stroke-linejoin="round"></path><path d="M74.7166 417.164C72.1281 416.469 69.7571 415.131 67.8241 413.274C65.8916 411.417 64.4596 409.101 63.6611 406.543" stroke="white" stroke-width="1.4" stroke-linecap="round" stroke-linejoin="round"></path><path d="M183.393 78.6947C182.319 76.5657 181.79 74.2027 181.853 71.8187C181.916 69.4342 182.57 67.1027 183.755 65.0332" stroke="#171717" stroke-width="1.4" stroke-linecap="round" stroke-linejoin="round"></path><path d="M251.07 53.6675L254.246 48.0254" stroke="#171717" stroke-width="1.4" stroke-linecap="round" stroke-linejoin="round"></path><path d="M255.66 52.616L249.732 47.9453" stroke="#171717" stroke-width="1.4" stroke-linecap="round" stroke-linejoin="round"></path><path d="M226.74 33.5668V27.9238" stroke="#171717" stroke-width="1.4" stroke-linecap="round" stroke-linejoin="round"></path><path d="M222.5 31.0547L229.906 29.6387" stroke="#171717" stroke-width="1.4" stroke-linecap="round" stroke-linejoin="round"></path><path d="M317.065 189.174C330.447 182.499 341.21 171.537 347.641 158.035" stroke="#171717" stroke-width="1.4" stroke-linecap="round" stroke-linejoin="round"></path><path d="M97.3361 196.482L92.3896 190.848" stroke="#171717" stroke-width="1.4" stroke-linecap="round" stroke-linejoin="round"></path><path d="M91.6689 196.187C93.5654 194.869 95.0289 193.018 95.8749 190.869" stroke="#171717" stroke-width="1.4" stroke-linecap="round" stroke-linejoin="round"></path><path d="M61.4685 202.75C54.929 207.662 50.6085 215.8 51.33 223.945C52.0515 232.091 58.38 239.724 66.468 240.936C69.3025 241.361 72.3715 240.978 74.6825 239.283C76.9935 237.588 78.3105 234.4 77.2995 231.719C75.8105 227.769 69.8365 227.009 66.7065 229.843C63.5765 232.678 63.231 237.703 64.9395 241.564C66.648 245.426 69.9975 248.309 73.4895 250.686C76.9815 253.063 80.7395 255.092 83.8665 257.928C86.4515 260.272 88.676 263.606 88.0165 267.032C87.292 270.792 83.161 273.166 79.3345 273.013C75.508 272.86 72.03 270.757 69.062 268.336" stroke="#171717" stroke-width="1.4" stroke-linecap="round" stroke-linejoin="round"></path><path d="M59.2231 255.038C57.8371 254.208 56.7056 253.012 55.9536 251.582" stroke="#171717" stroke-width="1.4" stroke-linecap="round" stroke-linejoin="round"></path><path d="M55.3032 256.111L58.9312 250.891" stroke="#171717" stroke-width="1.4" stroke-linecap="round" stroke-linejoin="round"></path><path d="M85.6572 224.383L89.5372 219.445" stroke="#171717" stroke-width="1.4" stroke-linecap="round" stroke-linejoin="round"></path><path d="M88.9257 224.296L85.0342 220.074" stroke="#171717" stroke-width="1.4" stroke-linecap="round" stroke-linejoin="round"></path><path d="M372.988 182.672C378.453 196.245 378.471 211.403 373.038 224.989C370.954 230.131 367.512 235.42 362.104 236.658C357.07 237.811 351.821 234.949 348.56 230.945C345.672 227.402 344.073 221.936 346.967 218.398C349.331 215.507 353.711 215.187 357.317 216.164C365.377 218.35 371.329 225.742 373.45 233.82C375.571 241.897 374.345 250.526 371.804 258.481C370.051 263.97 366.646 270.058 360.907 270.566C357.114 270.902 353.586 268.596 349.801 268.183C344.232 267.575 338.615 271.63 337.157 277.039C335.699 282.449 338.334 288.607 343.101 291.55C347.868 294.493 354.351 294.182 358.996 291.054" stroke="#171717" stroke-width="1.4" stroke-linecap="round" stroke-linejoin="round"></path><path d="M331.142 269.176L336.08 264.238" stroke="#171717" stroke-width="1.4" stroke-linecap="round" stroke-linejoin="round"></path><path d="M335.374 268.117C334.426 266.252 333.005 264.669 331.254 263.524L332.2 262.824" stroke="#171717" stroke-width="1.4" stroke-linecap="round" stroke-linejoin="round"></path><path d="M386.153 212.728L390.74 209.203" stroke="#171717" stroke-width="1.4" stroke-linecap="round" stroke-linejoin="round"></path><path d="M389.75 213.412C388.505 211.488 387.536 209.4 386.871 207.207" stroke="#171717" stroke-width="1.4" stroke-linecap="round" stroke-linejoin="round"></path><path d="M254.018 32.5441L250.805 36.0906C250.708 36.1977 250.58 36.2725 250.44 36.3049C250.299 36.3374 250.152 36.3259 250.018 36.272C249.884 36.2181 249.769 36.1244 249.69 36.0036C249.611 35.8827 249.571 35.7405 249.575 35.5961L249.71 30.8121C249.714 30.6725 249.677 30.5349 249.603 30.4166C249.528 30.2984 249.421 30.2048 249.293 30.1476L244.927 28.1871C244.796 28.128 244.685 28.0299 244.611 27.9061C244.536 27.7822 244.502 27.6386 244.512 27.4945C244.521 27.3504 244.575 27.2128 244.666 27.1001C244.756 26.9875 244.879 26.9053 245.017 26.8646L249.609 25.5146C249.743 25.4754 249.862 25.3975 249.952 25.2907C250.041 25.1839 250.097 25.0531 250.112 24.9146L250.627 20.1566C250.643 20.0129 250.702 19.8774 250.797 19.7683C250.892 19.6592 251.018 19.5819 251.158 19.5467C251.298 19.5115 251.446 19.5201 251.581 19.5714C251.716 19.6227 251.832 19.7142 251.913 19.8336L254.613 23.7836C254.692 23.8988 254.803 23.9881 254.933 24.0402C255.063 24.0922 255.205 24.1047 255.341 24.0761L260.026 23.0956C260.167 23.0659 260.314 23.0803 260.447 23.1368C260.58 23.1933 260.693 23.2892 260.77 23.4116C260.846 23.534 260.884 23.6769 260.877 23.8212C260.87 23.9655 260.819 24.1042 260.73 24.2186L257.809 28.0096C257.724 28.1201 257.673 28.2535 257.664 28.3927C257.654 28.532 257.686 28.671 257.755 28.7921L260.135 32.9446C260.207 33.0699 260.239 33.2141 260.226 33.358C260.214 33.5018 260.157 33.6384 260.065 33.7492C259.972 33.86 259.848 33.9397 259.708 33.9777C259.569 34.0157 259.421 34.0101 259.285 33.9616L254.777 32.3541C254.646 32.3075 254.504 32.3007 254.369 32.3345C254.234 32.3683 254.112 32.4412 254.018 32.5441Z" fill="#171717"></path><path d="M392.277 266.075L390.172 269.225C390.109 269.32 390.018 269.394 389.911 269.435C389.805 269.477 389.688 269.485 389.577 269.459C389.466 269.432 389.365 269.372 389.289 269.286C389.213 269.201 389.165 269.094 389.151 268.981L388.701 265.217C388.687 265.107 388.642 265.004 388.57 264.92C388.498 264.836 388.403 264.775 388.297 264.745L384.647 263.717C384.537 263.686 384.439 263.622 384.366 263.534C384.294 263.445 384.25 263.337 384.241 263.223C384.232 263.109 384.258 262.995 384.316 262.896C384.374 262.797 384.46 262.718 384.564 262.67L388.004 261.079C388.104 261.033 388.189 260.958 388.246 260.863C388.304 260.769 388.333 260.66 388.328 260.549L388.178 256.762C388.174 256.647 388.204 256.534 388.266 256.438C388.327 256.342 388.418 256.267 388.523 256.223C388.629 256.179 388.745 256.168 388.857 256.193C388.968 256.217 389.07 256.275 389.148 256.359L391.724 259.139C391.799 259.22 391.897 259.277 392.004 259.303C392.112 259.329 392.225 259.322 392.329 259.284L395.884 257.971C395.991 257.932 396.108 257.926 396.219 257.955C396.33 257.983 396.429 258.045 396.504 258.132C396.578 258.219 396.624 258.327 396.635 258.441C396.647 258.554 396.622 258.669 396.567 258.769L394.717 262.078C394.663 262.175 394.639 262.285 394.648 262.396C394.657 262.506 394.698 262.611 394.767 262.698L397.117 265.674C397.188 265.764 397.23 265.873 397.237 265.988C397.243 266.102 397.215 266.216 397.155 266.314C397.095 266.411 397.006 266.488 396.901 266.534C396.796 266.58 396.679 266.592 396.567 266.57L392.849 265.835C392.74 265.814 392.628 265.826 392.526 265.869C392.425 265.911 392.338 265.983 392.277 266.075Z" fill="#171717"></path><g opacity="0.1"><path d="M58.7499 437.963C61.6119 440.324 66.3349 436.249 68.3429 434.225C71.4064 431.178 73.7279 427.468 75.1279 423.381C76.5319 419.297 76.6719 414.948 77.2919 410.71C77.8419 406.963 78.9544 403.158 82.7224 401.531C86.5459 399.881 91.0834 400.291 95.1429 400.171C100.108 400.007 105.058 399.538 109.966 398.768C119.597 397.269 129.002 394.571 137.963 390.738C148.078 386.406 157.549 380.705 166.113 373.796C167.736 372.496 167.444 369.753 166.113 368.396C164.537 366.785 162.313 367.117 160.711 368.396C145.646 380.403 127.353 388.277 108.369 391.399C103.714 392.152 99.0139 392.594 94.2999 392.723C89.8174 392.857 85.1044 392.657 80.8219 394.211C71.3439 397.649 70.0799 406.74 69.3374 415.585C68.9984 420.149 67.5164 424.555 65.0289 428.397C63.7424 430.42 61.8899 432.263 60.2399 433.997C59.5469 434.725 57.3104 436.778 58.7489 437.965L58.7499 437.963Z" fill="#171717"></path></g><g opacity="0.1"><path d="M210.814 384.892C214.951 383.325 216.851 377.769 218.873 374.167C221.142 370.123 223.285 366.008 225.463 361.914C229.977 353.428 234.433 344.912 238.831 336.367C241.127 331.927 234.431 327.989 232.112 332.44C227.671 340.968 223.271 349.517 218.912 358.085C216.815 362.229 214.681 366.356 212.677 370.546C210.927 374.203 207.239 379.283 208.334 383.484C208.59 384.466 209.801 385.275 210.813 384.892H210.814Z" fill="#171717"></path></g><g opacity="0.1"><path d="M306.893 343.102C308.76 347.62 312.943 351.195 316.319 354.641C319.891 358.288 323.43 361.968 326.935 365.68C333.826 372.996 340.631 380.376 346.974 388.18C353.248 395.837 358.964 403.934 364.078 412.409C369.022 420.676 372.831 429.327 376.607 438.159C380.242 446.665 385.311 455.507 394.887 458.036C399.85 459.347 401.968 451.659 397.005 450.352C389.66 448.418 386.178 440.531 383.463 434.135C379.713 425.297 375.863 416.664 370.92 408.408C360.834 391.567 348.031 376.478 334.551 362.276C330.745 358.266 326.806 354.376 322.865 350.5C319.084 346.78 315.042 341.95 310.036 339.96C308.324 339.28 306.179 341.373 306.893 343.102Z" fill="#171717"></path></g><g opacity="0.1"><path d="M150.262 272.778C148.471 279.132 154.501 285.378 159.755 288.128C160.677 288.639 161.761 288.775 162.782 288.508C163.802 288.24 164.679 287.59 165.232 286.692C165.408 286.392 165.544 286.07 165.636 285.735C166.097 284.16 165.358 281.957 163.796 281.214C161.513 280.195 159.462 278.72 157.77 276.879C157.036 276.04 156.288 275.196 155.592 274.325C154.873 273.464 154.057 272.688 153.161 272.012C152.17 271.218 150.645 271.42 150.261 272.778L150.262 272.778Z" fill="#171717"></path></g><g opacity="0.1"><path d="M243.141 88.6674C236.016 87.5764 228.76 88.0949 221.654 89.0984C215.891 89.9124 208.891 91.1779 207.018 97.6514C206.098 100.832 206.447 104.556 206.355 107.831C206.243 111.789 206.237 115.748 206.205 119.707C206.174 123.336 206.171 126.965 206.194 130.593C206.213 134.26 205.499 138.884 206.67 142.373C208.068 146.536 214.791 144.5 213.156 140.585L213.097 140.351C213.092 139.907 212.971 139.473 212.746 139.091C212.521 138.709 212.201 138.391 211.816 138.171C211.432 137.95 210.996 137.834 210.553 137.833C210.11 137.832 209.674 137.946 209.288 138.165L209.913 138.115L213.156 142.372C214.243 139.453 213.8 135.672 213.919 132.572C214.046 129.272 214.192 125.976 214.274 122.676C214.435 116.242 214.584 109.814 214.617 103.376C214.628 101.205 214.254 99.3664 216.279 98.1344C218.382 96.8554 221.188 96.4844 223.552 95.9754C229.811 94.6314 236.128 94.2534 242.476 93.5924C245.026 93.3269 246.176 89.1304 243.143 88.6654L243.141 88.6674Z" fill="#171717"></path></g><g opacity="0.1"><path d="M196.323 98.7972C193.673 98.7367 191.037 99.7537 188.402 100.037C185.706 100.327 182.77 100.497 180.093 99.9872V105.197C186.934 103.485 193.414 99.6067 199.929 96.8567C206.729 93.9867 213.649 91.3257 220.626 88.9197C234.483 84.1517 248.716 80.5557 263.176 78.1697C265.476 77.7887 266.759 74.9422 266.188 72.8647C265.518 70.4277 263.188 69.4647 260.883 69.8527C246.131 72.3122 231.616 76.0322 217.499 80.9712C210.46 83.4332 203.551 86.2537 196.799 89.4212C190.207 92.5212 182.793 95.6567 177.47 100.68C175.753 102.3 177.083 105.298 179.38 105.291C182.537 105.282 185.591 105.356 188.734 104.912C191.553 104.512 194.96 104.07 197.274 102.287C198.674 101.207 198.343 98.8372 196.328 98.7932L196.323 98.7972Z" fill="#171717"></path></g><g opacity="0.1"><path d="M201.628 84.0042C200.517 80.8542 198.689 78.1507 198.572 74.7072C198.486 73.1567 198.599 71.6017 198.91 70.0797C199.36 68.1052 200.25 66.4227 198.873 64.5387C197.999 63.3437 196.719 62.6707 195.22 63.0522L194.8 63.1592C194.156 63.3377 193.569 63.6802 193.096 64.1527C192.624 64.6252 192.281 65.2122 192.103 65.8562C190.235 72.6612 191.344 82.7497 197.737 86.9952C199.606 88.2362 202.387 86.1612 201.628 84.0042Z" fill="#171717"></path></g></g><defs><linearGradient id="paint0_linear_6782_36831" x1="217.066" y1="52.7581" x2="217.066" y2="89.2396" gradientUnits="userSpaceOnUse"><stop stop-color="#FFB800"></stop><stop offset="1" stop-color="#FF7F0A"></stop></linearGradient><linearGradient id="paint1_linear_6782_36831" x1="221.782" y1="69.7421" x2="221.782" y2="106.619" gradientUnits="userSpaceOnUse"><stop stop-color="#FFB800"></stop><stop offset="1" stop-color="#FF7F0A"></stop></linearGradient><linearGradient id="paint2_linear_6782_36831" x1="251.904" y1="195.752" x2="251.904" y2="219.102" gradientUnits="userSpaceOnUse"><stop stop-color="#FFB800"></stop><stop offset="1" stop-color="#FF7F0A"></stop></linearGradient></defs></svg>