<svg xmlns="http://www.w3.org/2000/svg" width="24" height="24" viewBox="0 0 24 24" fill="none"><path d="M12.0022 0C13.7886 0 16.251 6.56474 16.5238 6.74261C16.7966 6.92092 23.4102 7.75949 23.9587 9.10828C24.5071 10.4571 19.4185 15.3363 19.2922 15.6686C19.166 16.0005 20.4376 22.9382 19.3916 23.8465C18.3456 24.7544 12.3667 21.2041 12.0022 21.2019C11.6377 21.1997 5.9004 24.7734 4.61278 23.8465C3.32516 22.9197 4.80514 16.0442 4.71212 15.6686C4.61909 15.2935 -0.535603 10.8944 0.0456993 9.10828C0.627002 7.32255 7.24316 6.92754 7.48057 6.74261C7.71797 6.55768 10.2158 0 12.0022 0Z" fill="#FFBD39"></path><path d="M12.0022 0.816406C13.6674 0.816406 15.8504 7.17018 16.1046 7.33613C16.3588 7.50208 22.6349 8.04892 23.1463 9.30635C23.6577 10.5633 18.8023 14.9941 18.6853 15.3035C18.5679 15.6129 19.8647 22.1971 18.8899 23.0431C17.915 23.8897 12.3423 20.463 12.0022 20.4608C11.6621 20.4586 6.31463 23.9073 5.11456 23.0431C3.9145 22.1794 5.51781 15.7709 5.4311 15.4209C5.34439 15.0713 0.315975 10.9711 0.857711 9.30635C1.39945 7.64155 7.79041 7.5087 8.01182 7.33613C8.23281 7.16356 10.337 0.816406 12.0022 0.816406Z" fill="url(#paint0_linear_6575_37511)"></path><path d="M2.31467 9.61219C2.19891 8.42847 5.90224 7.73157 6.06599 9.11699C6.22889 10.502 2.47294 11.2249 2.31467 9.61219Z" fill="white"></path><path d="M7.01419 8.73008C6.9864 7.96874 8.09345 7.92239 8.15112 8.54691C8.21594 9.24646 7.03986 9.44243 7.01419 8.73008Z" fill="white"></path><g opacity="0.6"><g opacity="0.6"><path d="M8.80906 14.9294C8.80906 15.6996 8.1642 16.3241 7.36864 16.3241C6.57308 16.3241 5.92822 15.6996 5.92822 14.9294C5.92822 14.1592 6.57351 13.5352 7.36864 13.5352C8.1642 13.5352 8.80906 14.1592 8.80906 14.9294Z" fill="#FF5F82"></path></g><g opacity="0.6"><path d="M18.3594 14.9294C18.3594 15.6996 17.7145 16.3241 16.9189 16.3241C16.1234 16.3241 15.4785 15.6996 15.4785 14.9294C15.4785 14.1592 16.1234 13.5352 16.9189 13.5352C17.7141 13.5352 18.3594 14.1592 18.3594 14.9294Z" fill="#FF5F82"></path></g></g><path d="M8.71539 14.7029C8.86945 14.5811 10.5763 14.6747 12.22 14.6795C13.7358 14.6839 15.1977 14.5908 15.3412 14.7029C15.6409 14.9373 14.5991 17.6088 12.0298 17.6088C9.46001 17.6088 8.41947 14.9373 8.71539 14.7029Z" fill="#872A2A"></path><path d="M7.59422 9.75042C3.70526 8.03531 4.11566 12.6484 8.45796 13.3766C11.7547 10.6477 10.6939 6.66049 7.59422 9.75042Z" fill="#FF5F5F"></path><path d="M16.386 9.75092C20.2173 7.89766 19.9564 12.5231 15.6406 13.4058C12.2576 10.7969 13.1878 6.77397 16.386 9.75092Z" fill="#FF5F5F"></path><defs><linearGradient id="paint0_linear_6575_37511" x1="6.43416" y1="6.48046" x2="20.3171" y2="22.3853" gradientUnits="userSpaceOnUse"><stop offset="0.043" stop-color="#FFF466"></stop><stop offset="0.0753" stop-color="#FFF466"></stop><stop offset="0.3152" stop-color="#FFEC5F"></stop><stop offset="0.6922" stop-color="#FFD54D"></stop><stop offset="0.8602" stop-color="#FFC943"></stop></linearGradient></defs></svg>