<svg xmlns="http://www.w3.org/2000/svg" width="59" height="54" viewBox="0 0 59 54" fill="none"><path d="M11.0591 41.1661C10.9389 40.9882 10.7692 40.7312 10.5499 40.3953C10.3429 40.055 10.1103 39.6824 9.85207 39.2775C9.6061 38.8682 9.35345 38.4406 9.09411 37.9946C8.83033 37.5363 8.57934 37.0942 8.34115 36.6682C8.09851 36.23 7.88369 35.8301 7.6967 35.4686C7.51748 35.0904 7.38334 34.779 7.29427 34.5343C7.25419 34.4242 7.1974 34.2301 7.1239 33.952C7.05039 33.6739 6.98467 33.3791 6.92673 33.0676C6.86879 32.7562 6.81142 32.4653 6.7546 32.195C6.71002 31.9202 6.68827 31.7272 6.68935 31.616C6.72161 31.5904 6.78056 31.562 6.86621 31.5308C6.96409 31.4952 7.05975 31.4534 7.15318 31.4056C7.25885 31.3532 7.35451 31.3115 7.44015 31.2803C7.53359 31.2325 7.59865 31.2019 7.63536 31.1885C8.22267 30.9747 8.8217 30.8883 9.43244 30.9293C10.0432 30.9703 10.6517 31.0814 11.2581 31.2625C11.8644 31.4437 12.4741 31.6721 13.0871 31.9478C13.7002 32.2235 14.3087 32.487 14.9129 32.7382C15.5292 32.985 16.1384 33.1928 16.7403 33.3618C17.3377 33.5184 17.9368 33.5844 18.5375 33.5598C18.5152 33.4986 18.4818 33.4069 18.4373 33.2845C18.4005 33.1455 18.3554 33.0025 18.302 32.8557C18.2485 32.7089 18.1995 32.5743 18.155 32.4519C18.1183 32.3129 18.0888 32.2128 18.0665 32.1516C17.7859 31.3807 17.4631 30.6461 17.098 29.9476C16.7329 29.249 16.3556 28.555 15.966 27.8654C15.5765 27.1758 15.1992 26.4817 14.8341 25.7832C14.4645 25.0725 14.1372 24.3256 13.8522 23.5425C13.9379 23.5113 14.0441 23.4796 14.1709 23.4473C14.3055 23.3983 14.4468 23.3677 14.5947 23.3554C14.7382 23.3309 14.8784 23.3353 15.0152 23.3686C15.1476 23.3897 15.2567 23.4609 15.3424 23.5821C15.7119 24.4453 16.1449 25.2923 16.6413 26.1231C17.1333 26.9417 17.6336 27.7642 18.1422 28.5906C18.6464 29.4048 19.1283 30.234 19.588 31.0782C20.0555 31.9057 20.4473 32.7538 20.7635 33.6225C20.8214 33.7816 20.8776 33.9551 20.9322 34.1431C20.999 34.3267 21.0391 34.513 21.0525 34.7021C21.0737 34.8745 21.0554 35.0336 20.9976 35.1793C20.9398 35.3251 20.813 35.4336 20.6172 35.5048C19.9809 35.7364 19.3424 35.8095 18.7016 35.724C18.0564 35.6263 17.3989 35.4569 16.7291 35.2156C16.0716 34.97 15.4046 34.6793 14.7281 34.3435C14.0639 34.0033 13.3969 33.7126 12.7271 33.4714C12.0696 33.2257 11.4121 33.0563 10.7546 32.963C10.1094 32.8653 9.47475 32.93 8.85073 33.1572C9.10012 33.8424 9.38955 34.4853 9.71901 35.0859C10.044 35.6743 10.3751 36.2604 10.7124 36.8444C11.0619 37.4239 11.3991 38.0078 11.7241 38.5962C12.0447 39.1723 12.3207 39.7785 12.5523 40.4148C12.6369 40.6473 12.6092 40.8375 12.469 40.9855C12.3412 41.129 12.1793 41.2364 11.9836 41.3077C11.8245 41.3656 11.6671 41.409 11.5114 41.438C11.3634 41.4503 11.2126 41.3596 11.0591 41.1661ZM18.6394 22.8186C18.5782 22.8408 18.482 22.862 18.3508 22.882C18.2273 22.8854 18.0977 22.891 17.962 22.8989C17.8218 22.8944 17.69 22.8939 17.5665 22.8973C17.4386 22.8884 17.3518 22.8784 17.3062 22.8673C17.285 22.8473 17.27 22.8251 17.2611 22.8006C17.24 22.7806 17.2227 22.7522 17.2093 22.7155C17.147 22.5442 17.1609 22.3729 17.2509 22.2016C17.341 22.0302 17.4583 21.8767 17.6029 21.7409C17.7552 21.5885 17.9104 21.4627 18.0683 21.3636C18.2218 21.2524 18.3453 21.1728 18.4387 21.1249L18.6589 21.0448L18.8425 20.978C19.145 20.8955 19.5316 20.7964 20.0021 20.6806C20.4726 20.5648 20.9699 20.4461 21.4938 20.3247C22.0255 20.1866 22.5594 20.0546 23.0956 19.9288C23.6395 19.7862 24.1306 19.6698 24.5689 19.5796C25.015 19.4727 25.3854 19.3863 25.6802 19.3206C25.9827 19.2382 26.1585 19.1881 26.2074 19.1703C26.3098 19.1469 26.441 19.1268 26.6012 19.1101C26.7692 19.0767 26.9461 19.0677 27.1318 19.0832C27.3132 19.0865 27.4889 19.1126 27.6592 19.1615C27.8249 19.1982 27.9629 19.2727 28.0731 19.385C28.0464 19.6164 28.0164 19.8005 27.9831 19.9373C27.9453 20.062 27.8947 20.1704 27.8314 20.2628C27.7635 20.3429 27.6807 20.4008 27.5828 20.4364C27.4971 20.4676 27.387 20.5077 27.2524 20.5566C26.7385 20.7437 26.2118 20.9146 25.6723 21.0694C25.1451 21.2197 24.6178 21.3701 24.0906 21.5204C23.5633 21.6707 23.03 21.8233 22.4905 21.9781C21.9632 22.1284 21.4365 22.2993 20.9104 22.4908C20.9905 22.7111 21.0802 23.0526 21.1793 23.5153C21.2907 23.9736 21.4171 24.4541 21.5586 24.9569C21.7122 25.4553 21.9026 25.9402 22.1297 26.4118C22.3645 26.8668 22.6522 27.2193 22.9927 27.4695C23.3274 27.0567 23.725 26.7596 24.1855 26.5781C24.646 26.3966 25.1149 26.2191 25.592 26.0454C25.8 25.9697 26.0631 25.8739 26.3812 25.7581C26.6994 25.6423 27.0186 25.5677 27.339 25.5342C27.6716 25.4963 27.9731 25.5252 28.2434 25.6208C28.5138 25.7163 28.7113 25.9354 28.836 26.278C28.9251 26.5227 28.9429 26.7241 28.8896 26.8821C28.8362 27.0401 28.6321 27.1836 28.2773 27.3128C28.2406 27.3261 28.1544 27.3367 28.0187 27.3446C27.8952 27.3479 27.7572 27.3496 27.6048 27.3497C27.4647 27.3453 27.3328 27.3448 27.2094 27.3481C27.0859 27.3515 27.0058 27.3599 26.9691 27.3732C26.9568 27.3777 26.9079 27.3955 26.8223 27.4267C26.7444 27.4412 26.6504 27.4684 26.5403 27.5085C26.4302 27.5486 26.32 27.5887 26.2099 27.6288C26.1076 27.6522 26.0258 27.675 25.9646 27.6972C25.6832 27.7997 25.4146 27.9182 25.1588 28.0529C24.9152 28.1831 24.7156 28.3389 24.5599 28.5203C24.4042 28.7017 24.303 28.9186 24.2564 29.1712C24.2219 29.4193 24.2649 29.7085 24.3851 30.0389C24.4252 30.149 24.5064 30.3342 24.6289 30.5944C24.7513 30.8547 24.891 31.1434 25.048 31.4604C25.2127 31.7607 25.3941 32.0688 25.5922 32.3846C25.7904 32.7005 26.004 32.983 26.2333 33.2321C26.458 33.469 26.6795 33.6586 26.8976 33.801C27.1234 33.9266 27.3465 33.9493 27.5667 33.8692C27.5912 33.8603 27.6501 33.8319 27.7436 33.784C27.837 33.7362 27.896 33.7078 27.9204 33.6989C28.234 33.266 28.5387 32.8087 28.8344 32.327C29.1425 31.8407 29.4716 31.3745 29.8219 30.9283C30.1677 30.4699 30.5497 30.0537 30.9679 29.6798C31.3816 29.2937 31.8515 29.0049 32.3777 28.8134L32.705 29.7127C32.7228 29.7616 32.6494 29.9407 32.4849 30.2501C32.3326 30.5549 32.1141 30.9254 31.8294 31.3616C31.557 31.7933 31.2423 32.2612 30.8854 32.7652C30.5284 33.2692 30.1626 33.7488 29.7878 34.2039C29.4086 34.6468 29.0322 35.0401 28.6585 35.384C28.297 35.7234 27.9695 35.9465 27.6758 36.0534C27.2598 36.2048 26.8198 36.1571 26.3559 35.9103C25.8997 35.6468 25.4318 35.2559 24.9522 34.7377C24.4681 34.2072 23.9935 33.5693 23.5282 32.8241C23.063 32.0789 22.6072 31.3026 22.1609 30.4951C21.7268 29.6831 21.3133 28.8706 20.9204 28.0575C20.5352 27.2277 20.1868 26.4608 19.8751 25.7567C19.5634 25.0526 19.2996 24.442 19.0836 23.9247C18.8754 23.3908 18.7274 23.0221 18.6394 22.8186ZM30.909 22.3227C30.8377 22.1269 30.8099 21.9361 30.8254 21.7504C30.8487 21.5479 30.9766 21.4043 31.2091 21.3197C31.4048 21.2485 31.668 21.3813 31.9985 21.7183C32.3412 22.0508 32.7262 22.4996 33.1536 23.0646C33.5887 23.6129 34.0544 24.2263 34.5508 24.9047C35.0427 25.5709 35.5401 26.2143 36.0431 26.8349C36.5417 27.4433 37.028 27.9799 37.502 28.4447C37.9716 28.8974 38.3994 29.1781 38.7855 29.287C39.0346 29.0578 39.1891 28.7591 39.2491 28.3908C39.3169 28.0059 39.3279 27.5793 39.2821 27.111C39.2319 26.6304 39.14 26.1304 39.0063 25.6109C38.8805 25.0747 38.7507 24.5469 38.6171 24.0275C38.4912 23.4913 38.372 22.9735 38.2595 22.474C38.1426 21.9623 38.0723 21.5029 38.0489 21.0958C38.0376 20.6842 38.0837 20.3349 38.187 20.0478C38.2904 19.7608 38.4828 19.566 38.7642 19.4636C38.9355 19.4013 39.0952 19.3639 39.2431 19.3517C39.3866 19.3271 39.5474 19.4072 39.7254 19.5918C39.8323 19.7331 39.9964 19.9366 40.2179 20.2024C40.4393 20.4682 40.6908 20.7785 40.9724 21.1333C41.2662 21.4836 41.5833 21.8601 41.9238 22.2627C42.2722 22.6486 42.6182 23.0284 42.9621 23.4021C43.3182 23.7713 43.6615 24.1244 43.992 24.4614C44.318 24.7861 44.6179 25.058 44.8916 25.2771C44.9339 25.3171 45.024 25.3744 45.162 25.4489C45.3077 25.5067 45.4012 25.535 45.4424 25.5339L45.9443 24.4575C46.0766 24.1738 46.1243 23.81 46.0875 23.3661C46.0462 22.91 45.952 22.4039 45.805 21.8477C45.6703 21.2871 45.4977 20.6987 45.2872 20.0824C45.0846 19.4495 44.878 18.8249 44.6676 18.2087C44.4572 17.5925 44.2657 16.9901 44.0931 16.4017C43.9204 15.8133 43.799 15.2893 43.7288 14.8299C43.6541 14.3583 43.6496 13.965 43.7151 13.6502C43.7807 13.3353 43.9541 13.1267 44.2356 13.0243C44.2478 13.0198 44.2623 13.0215 44.2789 13.0293C44.3034 13.0204 44.3279 13.0115 44.3524 13.0025C44.3935 13.0014 44.4202 12.9986 44.4325 12.9942C44.4447 12.9897 44.4842 13.0031 44.5509 13.0342C44.6132 13.0531 44.6694 13.0742 44.7195 13.0976C44.7818 13.1164 44.8319 13.1398 44.8697 13.1676C44.9198 13.1909 44.9554 13.2126 44.9765 13.2326C45.0077 13.3183 45.0634 13.4712 45.1435 13.6915C45.2359 13.9073 45.3289 14.1436 45.4224 14.4006C45.5159 14.6575 45.605 14.9022 45.6896 15.1347C45.782 15.3505 45.8438 15.5012 45.8749 15.5869C45.964 15.8316 46.0804 16.1703 46.224 16.603C46.3799 17.0312 46.5397 17.5273 46.7033 18.0913C46.8748 18.6386 47.0435 19.2353 47.2095 19.8816C47.3832 20.5112 47.5263 21.1519 47.6389 21.8038C47.747 22.4434 47.8178 23.0758 47.8514 23.701C47.8927 24.3095 47.869 24.8724 47.7801 25.3897C47.6991 25.8903 47.5462 26.327 47.3216 26.6998C47.1048 27.0558 46.7823 27.3118 46.354 27.4676C45.938 27.619 45.5342 27.6136 45.1426 27.4513C44.7587 27.2723 44.3893 27.0188 44.0343 26.6907C43.6749 26.3504 43.335 25.9684 43.0145 25.5446C42.6895 25.1087 42.3718 24.7116 42.0613 24.3535C41.763 23.9909 41.4732 23.7085 41.1917 23.5061C40.9179 23.287 40.6526 23.2242 40.3957 23.3177C40.3712 23.3267 40.3367 23.3461 40.2922 23.3762C40.26 23.4018 40.2316 23.419 40.2071 23.4279C40.2127 23.4813 40.2539 23.7088 40.3308 24.1104C40.4077 24.512 40.4868 24.9958 40.5682 25.5621C40.6451 26.116 40.7132 26.7217 40.7723 27.3792C40.8315 28.0366 40.8483 28.654 40.8229 29.2314C40.8097 29.8043 40.7431 30.3066 40.6231 30.7382C40.5109 31.1532 40.3141 31.4119 40.0326 31.5143C39.4576 31.7237 38.8535 31.701 38.2204 31.4465C37.5829 31.1797 36.9498 30.7727 36.3211 30.2256C35.7002 29.6617 35.0954 29.0089 34.5067 28.2671C33.918 27.5253 33.3788 26.7862 32.8891 26.0499C32.4072 25.2969 31.9904 24.5895 31.6387 23.9277C31.2947 23.2492 31.0515 22.7142 30.909 22.3227ZM52.2438 25.2616C52.4028 25.2037 52.5736 25.197 52.756 25.2414C52.9507 25.2814 53.0932 25.3681 53.1833 25.5016C53.2812 25.6184 53.3002 25.7847 53.2402 26.0005C53.1802 26.2163 52.975 26.4712 52.6247 26.7649C52.2765 26.8362 52.009 26.8436 51.822 26.7869C51.6429 26.7135 51.5189 26.6201 51.4498 26.5066C51.3886 26.3765 51.3725 26.2369 51.4013 26.0878C51.438 25.9221 51.4958 25.7763 51.5747 25.6506C51.6615 25.5082 51.7677 25.4002 51.8934 25.3268C52.0146 25.2411 52.1314 25.2193 52.2438 25.2616ZM46.4317 13.576C46.6507 13.1498 46.8832 12.989 47.1291 13.0935C47.3749 13.198 47.6275 13.4733 47.8869 13.9193C48.1584 14.3608 48.4228 14.9159 48.68 15.5844C48.9327 16.2406 49.186 16.9175 49.4398 17.6149C49.7059 18.3079 49.9586 18.9642 50.198 19.5837C50.4496 20.1988 50.685 20.6743 50.9042 21.0102C50.971 21.1938 51.0167 21.3573 51.0412 21.5008C51.0657 21.6443 51.063 21.77 51.033 21.8779C51.003 21.9858 50.9296 22.0887 50.8128 22.1867C50.6916 22.2723 50.5208 22.3553 50.3006 22.4354C50.2639 22.4488 50.2205 22.4438 50.1704 22.4205C50.1204 22.3971 50.0458 22.3065 49.9468 22.1485C49.8433 21.9784 49.7063 21.7164 49.536 21.3627C49.3613 20.9968 49.1331 20.484 48.8514 19.8244C48.582 19.1604 48.2442 18.3272 47.8378 17.325C47.4437 16.3184 46.975 15.0687 46.4317 13.576Z" fill="white"></path><path d="M27.5768 43.6944C28.3503 44.1704 29.2459 44.605 30.0627 45.0178C31.7813 45.8866 33.2725 46.8101 34.8377 47.9329C35.743 48.5823 36.7911 49.2984 37.3952 50.2579C37.4751 50.3848 37.5246 50.732 37.574 50.4725C37.6926 49.8501 37.8393 49.2377 37.9496 48.6125C38.6018 44.9166 39.3042 41.4173 41.5801 38.3828" stroke="white" stroke-width="2" stroke-linecap="round"></path></svg>