<svg xmlns="http://www.w3.org/2000/svg" width="1440" height="820" viewBox="0 0 1440 820" fill="none"><path d="M771.002 758.217C775.815 753.174 781.037 758.646 785.849 753.603C790.662 748.561 785.44 743.089 790.252 738.046C795.065 733.003 800.287 738.475 805.1 733.433C809.913 728.39 804.69 722.918 809.503 717.875C814.316 712.833 819.538 718.305 824.35 713.262C829.163 708.219 823.941 702.747 828.753 697.705C833.566 692.662 838.788 698.134 843.601 693.091C848.413 688.049 843.191 682.577 848.004 677.534C852.816 672.492 858.039 677.963 862.851 672.921" stroke="#3AB446" stroke-width="2" stroke-miterlimit="10"></path><path d="M779.807 767.447C784.619 762.405 789.841 767.876 794.654 762.834C799.467 757.791 794.244 752.319 799.057 747.277C803.87 742.234 809.092 747.706 813.905 742.663C818.717 737.62 813.495 732.149 818.308 727.106C823.12 722.063 828.342 727.535 833.155 722.492C837.968 717.45 832.745 711.978 837.558 706.935C842.371 701.893 847.593 707.364 852.405 702.322C857.218 697.279 851.996 691.807 856.809 686.765C861.621 681.722 866.843 687.194 871.656 682.151" stroke="#3AB446" stroke-width="2" stroke-miterlimit="10"></path><path d="M788.511 776.564C793.323 771.522 798.546 776.994 803.358 771.951C808.171 766.908 802.949 761.436 807.761 756.394C812.574 751.351 817.796 756.823 822.609 751.78C827.421 746.738 822.199 741.266 827.012 736.223C831.824 731.18 837.046 736.652 841.859 731.61C846.672 726.567 841.45 721.095 846.262 716.052C851.075 711.01 856.297 716.482 861.11 711.439C865.922 706.396 860.7 700.924 865.513 695.882C870.325 690.839 875.547 696.311 880.36 691.268" stroke="#3AB446" stroke-width="2" stroke-miterlimit="10"></path><path d="M860.5 305V305C860.736 312.356 866.644 318.264 874 318.5V318.5V318.5C866.644 318.736 860.736 324.644 860.5 332V332V332C860.264 324.644 854.356 318.736 847 318.5V318.5V318.5C854.356 318.264 860.264 312.356 860.5 305V305Z" fill="#FFD75E"></path><path d="M1318.5 539V539C1318.51 546.454 1324.55 552.495 1332 552.5V552.5V552.5C1324.55 552.505 1318.51 558.546 1318.5 566V566V566C1318.49 558.546 1312.45 552.505 1305 552.5V552.5V552.5C1312.45 552.495 1318.49 546.454 1318.5 539V539Z" fill="#29D8FF"></path><path d="M1284.7 238.68L1279.14 244.641" stroke="white" stroke-width="1.1533" stroke-miterlimit="10" stroke-linecap="round" stroke-linejoin="round"></path><path d="M1303.93 218.527L1293.64 229.456" stroke="white" stroke-width="1.1533" stroke-miterlimit="10" stroke-linecap="round" stroke-linejoin="round"></path><path d="M1286.59 219.945L1247.72 260.538" stroke="white" stroke-width="1.1533" stroke-miterlimit="10" stroke-linecap="round" stroke-linejoin="round"></path><path d="M1306.37 199.221L1298.38 207.453" stroke="white" stroke-width="1.1533" stroke-miterlimit="10" stroke-linecap="round" stroke-linejoin="round"></path><path d="M1258.69 232.152L1224.55 267.919" stroke="#FFD75E" stroke-width="1.1533" stroke-miterlimit="10" stroke-linecap="round" stroke-linejoin="round"></path><path d="M1310.16 178.217L1273.72 216.255" stroke="#FFD75E" stroke-width="1.1533" stroke-miterlimit="10" stroke-linecap="round" stroke-linejoin="round"></path><path d="M1281.58 191.133L1221.44 254.151" stroke="white" stroke-width="1.1533" stroke-miterlimit="10" stroke-linecap="round" stroke-linejoin="round"></path><path d="M1306.51 165.016L1293.77 178.357" stroke="white" stroke-width="1.1533" stroke-miterlimit="10" stroke-linecap="round" stroke-linejoin="round"></path><path d="M1231.87 226.189L1217.51 241.376" stroke="white" stroke-width="1.1533" stroke-miterlimit="10" stroke-linecap="round" stroke-linejoin="round"></path><path d="M1321 132.939L1247.18 210.293" stroke="white" stroke-width="1.1533" stroke-miterlimit="10" stroke-linecap="round" stroke-linejoin="round"></path><path d="M1261.8 177.932L1189.61 253.582" stroke="#FFD75E" stroke-width="1.1533" stroke-miterlimit="10" stroke-linecap="round" stroke-linejoin="round"></path><path d="M1293.64 144.578L1276.84 162.178" stroke="#FFD75E" stroke-width="1.1533" stroke-miterlimit="10" stroke-linecap="round" stroke-linejoin="round"></path><path d="M1247.72 175.662L1201.12 224.487" stroke="white" stroke-width="1.1533" stroke-miterlimit="10" stroke-linecap="round" stroke-linejoin="round"></path><path d="M1295.26 125.844L1260.86 161.895" stroke="white" stroke-width="1.1533" stroke-miterlimit="10" stroke-linecap="round" stroke-linejoin="round"></path><path d="M1209.38 198.939L1185 224.487" stroke="#FFD75E" stroke-width="1.1533" stroke-miterlimit="10" stroke-linecap="round" stroke-linejoin="round"></path><path d="M1274.27 130.953L1226.99 180.346" stroke="#FFD75E" stroke-width="1.1533" stroke-miterlimit="10" stroke-linecap="round" stroke-linejoin="round"></path><path d="M1232.95 157.211L1200.04 191.701" stroke="white" stroke-width="1.1533" stroke-miterlimit="10" stroke-linecap="round" stroke-linejoin="round"></path><path d="M1270.34 118.037L1245.82 143.727" stroke="white" stroke-width="1.1533" stroke-miterlimit="10" stroke-linecap="round" stroke-linejoin="round"></path><path d="M1203.69 170.836L1190.96 184.32" stroke="#FFD75E" stroke-width="1.1533" stroke-miterlimit="10" stroke-linecap="round" stroke-linejoin="round"></path><path d="M1250.7 121.586L1218.32 155.65" stroke="#FFD75E" stroke-width="1.1533" stroke-miterlimit="10" stroke-linecap="round" stroke-linejoin="round"></path><path d="M1210.33 146.992L1202.47 155.224" stroke="white" stroke-width="1.1533" stroke-miterlimit="10" stroke-linecap="round" stroke-linejoin="round"></path><path d="M1224.15 132.514L1218.73 138.191" stroke="white" stroke-width="1.1533" stroke-miterlimit="10" stroke-linecap="round" stroke-linejoin="round"></path></svg>