<svg xmlns="http://www.w3.org/2000/svg" width="94" height="114" viewBox="0 0 94 114" fill="none"><path d="M41.4942 92.096C41.794 93.476 42.3856 95.7411 43.6927 98.3039C44.9918 100.851 47.0663 103.675 49.9643 105.835C50.34 106.089 50.7158 106.346 51.0955 106.604L51.6671 106.994L52.2787 107.324C52.6864 107.545 53.0981 107.771 53.5098 107.996C53.9375 108.189 54.3732 108.366 54.8089 108.551L55.4605 108.829C55.6803 108.921 55.9081 108.978 56.136 109.054L57.491 109.485C57.9467 109.613 58.4144 109.698 58.8741 109.806C59.3378 109.907 59.7934 110.028 60.2651 110.072C63.9905 110.635 67.7239 110.386 70.8417 109.593C74.4392 108.66 77.8848 107.055 80.7748 104.737L81.826 103.832C81.9979 103.679 82.1858 103.538 82.3457 103.369L82.8293 102.866L83.7966 101.865L84.672 100.778L85.1117 100.235C85.2556 100.054 85.3755 99.8529 85.5114 99.6598L86.2989 98.501C86.5587 98.1148 86.7666 97.6924 87.0024 97.29C87.2222 96.8797 87.4861 96.4894 87.6659 96.0549C90.9876 89.34 91.6991 81.2975 89.6246 74.0837L89.2128 72.74C89.0729 72.2934 88.8771 71.8669 88.7132 71.4284C88.3854 70.5513 87.9977 69.6944 87.566 68.8696C86.7026 67.22 85.6713 65.6711 84.4362 64.3474C83.2091 63.0278 81.7581 61.9173 80.1792 61.2133C78.5963 60.5092 76.8255 60.1632 75.1147 60.292C73.4079 60.4127 71.7651 61.0041 70.5099 62.0783C69.8664 62.5973 69.3348 63.2531 68.8991 63.9773C68.6672 64.3313 68.5033 64.7296 68.3155 65.1119C68.1676 65.5182 68.0077 65.9205 67.9078 66.347C67.6839 67.1878 67.548 68.073 67.532 68.9661C67.504 69.8593 67.56 70.7605 67.7239 71.6457C67.8758 72.5308 68.1116 73.4078 68.4474 74.2366C68.7712 75.0735 69.1869 75.9103 69.6625 76.6989C70.2501 77.6966 71.0536 78.8111 71.9609 79.8974C72.8643 80.9877 73.8756 82.0418 74.7909 82.9873C76.6297 84.8742 78.0607 86.3628 77.6929 86.6605C77.3212 86.9542 75.9821 86.3226 73.9595 84.8098C72.9522 84.0494 71.777 83.0517 70.5419 81.7562C69.9263 81.1084 69.2948 80.3842 68.6872 79.5594C68.0756 78.7427 67.4801 77.8335 66.9604 76.8196C66.3249 75.6086 65.8012 74.2688 65.4934 72.9009C65.1777 71.533 65.0378 70.1248 65.0937 68.7167C65.1497 67.3085 65.4055 65.8924 65.9092 64.5446C66.4088 63.2008 67.1723 61.9214 68.1916 60.8673C68.6952 60.3402 69.2668 59.8735 69.8744 59.4672C70.4899 59.0769 71.1415 58.7349 71.821 58.4935C73.1761 57.9866 74.6111 57.7653 76.0221 57.7975C77.4331 57.8257 78.8321 58.0711 80.1552 58.5458C81.4823 59.0125 82.7334 59.6925 83.8366 60.5213C86.075 62.1708 87.8098 64.3515 89.1649 66.6809C89.5006 67.2643 89.8204 67.8597 90.1122 68.4632C90.2641 68.765 90.396 69.0708 90.5399 69.3765C90.6718 69.6863 90.7877 70.0001 90.9157 70.3099L91.2874 71.2474L91.4713 71.714L91.6192 72.1928C91.815 72.8325 92.0229 73.4722 92.2068 74.116C92.8863 76.711 93.226 79.3824 93.282 82.0498L93.29 83.0516C93.298 83.3856 93.294 83.7195 93.266 84.0534L93.1381 86.053L92.8703 88.0365C92.8343 88.3704 92.7664 88.6963 92.6944 89.0222L92.4906 90.0039L92.3427 90.72C92.2907 90.9574 92.2147 91.1907 92.1508 91.4281L91.7471 92.8362C91.6232 93.311 91.4233 93.7576 91.2634 94.2203C91.0875 94.6749 90.9396 95.1456 90.7398 95.5922L90.1282 96.9279L89.8204 97.5958L89.4647 98.2395L88.7452 99.523C88.5013 99.9494 88.2096 100.344 87.9417 100.754C86.8785 102.408 85.5594 103.88 84.1804 105.28C83.8286 105.622 83.4409 105.932 83.0731 106.258L82.2337 106.982L81.9339 107.199L80.7348 108.06C80.5309 108.197 80.3431 108.358 80.1272 108.479L79.4956 108.853C72.7763 112.945 64.4582 114.107 56.8555 112.1C53.0701 111.046 49.4926 109.155 46.5427 106.483C43.6247 103.784 41.4183 100.372 40.0353 96.6785C38.6362 92.9851 38.0407 88.994 38.3045 85.0431C38.4484 83.0677 38.8041 81.1004 39.4037 79.2014C40.0113 77.3064 40.8587 75.4798 41.9339 73.7981C42.1857 73.428 42.4376 73.0578 42.6974 72.6877C42.9732 72.3256 43.253 71.9635 43.5568 71.6255C44.1564 70.9416 44.7999 70.2938 45.5114 69.7145C46.9184 68.5517 48.5653 67.5942 50.44 67.1235C51.3793 66.9022 52.3706 66.8137 53.3579 66.9062C54.3492 66.9947 55.3166 67.3086 56.2159 67.7672C58.0147 68.7167 59.3178 70.3622 60.0413 72.1365C60.7847 73.9148 61.0246 75.858 60.7967 77.757C60.6928 78.7105 60.413 79.652 60.0493 80.5451C59.6815 81.4142 59.1979 82.2269 58.6622 82.9873C58.1186 83.7477 57.491 84.4276 56.8275 85.0633C56.16 85.6949 55.4405 86.2501 54.697 86.7651C53.9495 87.2721 53.1701 87.7186 52.3746 88.129C51.5752 88.5233 50.7597 88.8814 49.9283 89.1912C49.1009 89.509 48.2455 89.7263 47.3941 89.9637C46.5507 90.2332 45.6753 90.3539 44.8119 90.5189C43.9485 90.712 43.0691 90.7401 42.1937 90.8327L41.5382 90.893C41.3184 90.9091 41.0985 90.9011 40.8787 90.9051L39.5596 90.9131C36.05 90.8689 32.5565 90.2211 29.2548 89.0463C25.9531 87.8715 22.8313 86.1737 20.0652 83.9971C17.2952 81.8245 14.8929 79.1531 13.0621 76.1115C11.3313 73.259 10.1282 70.1007 9.45665 66.8499C8.78112 63.5951 8.62123 60.2437 8.94501 56.9406C9.59256 50.3504 12.2067 43.881 16.6996 38.9082L17.539 37.9788L18.4623 37.0978L19.4377 36.277L20.457 35.5166C21.844 34.543 23.3469 33.7222 24.9498 33.1066C26.5527 32.4951 28.2675 32.0928 30.0502 32.0445C31.825 31.9922 33.6797 32.3301 35.3385 33.1509C36.154 33.5733 36.9454 34.0642 37.6369 34.6878C38.3324 35.3074 38.944 36.0275 39.4437 36.8161C40.447 38.3932 40.9786 40.1957 41.1465 41.974C41.4663 45.5507 40.4909 49.0791 38.5883 52.0362C38.1686 52.6719 37.7049 53.2794 37.1972 53.8507C36.6816 54.418 36.114 54.9571 35.5224 55.4037L34.639 56.0997L33.6957 56.7032C33.0801 57.1337 32.3926 57.4234 31.7291 57.7653C31.4013 57.9464 31.0455 58.051 30.7018 58.1918C30.354 58.3205 30.0103 58.4654 29.6585 58.5781L28.5913 58.8758L28.0556 59.0206C27.8758 59.0649 27.6959 59.089 27.516 59.1252L26.4288 59.3223C26.069 59.3948 25.7013 59.4028 25.3375 59.443C24.9738 59.4712 24.6061 59.5195 24.2423 59.5316L23.1471 59.5396C20.2211 59.5396 17.3192 58.9281 14.629 57.8015C14.2933 57.6567 13.9535 57.524 13.6217 57.3711L12.6504 56.8641C11.9909 56.5503 11.3913 56.1158 10.7717 55.7295C10.456 55.5445 10.1801 55.295 9.88435 55.0778C9.59655 54.8525 9.30076 54.6312 9.01696 54.4019L8.20952 53.6616C7.94171 53.4161 7.66991 53.1748 7.43008 52.8972C5.41149 50.797 3.78062 48.3508 2.58946 45.7236C1.41428 43.0884 0.646821 40.2882 0.263089 37.4478C-0.49638 31.7589 0.41098 25.8808 2.69338 20.6707C3.76064 18.2125 5.19963 15.6175 7.01036 13.1954C8.8131 10.7734 11.0196 8.57268 13.3699 6.79842C14.3372 6.05813 15.5284 5.28167 16.8475 4.51725C18.1826 3.78904 19.6375 3.06082 21.1605 2.50561C22.6674 1.91017 24.2263 1.48772 25.6933 1.14171C27.1723 0.831921 28.5593 0.618671 29.7544 0.522112C31.817 0.324972 33.9675 0.35718 35.9821 0.493971C36.5657 0.514087 37.1133 0.582485 37.6409 0.646858C37.9047 0.679044 38.1606 0.707199 38.4084 0.739385C38.6562 0.771571 38.8961 0.823849 39.1319 0.864081C39.5996 0.952593 40.0432 1.02501 40.459 1.11755C40.8707 1.22216 41.2584 1.32273 41.6182 1.41527C43.0571 1.82162 44.0684 2.22394 44.68 2.56592C45.9151 3.23378 45.6034 3.47923 44.0165 3.44302C43.325 3.43899 43.9405 3.93388 41.866 3.46718C41.782 3.45109 41.6102 3.40681 41.5302 3.39877C39.9353 3.14932 38.3404 2.92802 36.7336 2.81939C35.1267 2.72283 33.5078 2.65447 31.889 2.75505L31.2814 2.77917L30.6738 2.83147C30.2701 2.86768 29.8624 2.89585 29.4587 2.94011C28.6512 3.06081 27.8398 3.14125 27.0404 3.31827C26.2329 3.45506 25.4415 3.66834 24.646 3.86951C24.2503 3.97411 23.8626 4.11087 23.4708 4.23156L22.8833 4.4207C22.6874 4.48909 22.4995 4.5655 22.3077 4.63792C14.733 7.4341 8.49732 13.5052 5.14767 20.8759C3.44885 24.5491 2.48953 28.5684 2.40559 32.5997C2.31765 36.631 3.06513 40.7026 4.70398 44.3638C6.32285 48.0169 8.85707 51.2878 12.0908 53.5208C15.3405 55.7416 19.3138 56.8882 23.243 56.8882C25.2096 56.8842 27.1723 56.5825 29.023 55.9629C30.8737 55.3514 32.5925 54.3737 34.0594 53.1144C35.5304 51.9114 36.6376 50.2941 37.4051 48.5239C38.1686 46.7536 38.5563 44.8063 38.4963 42.9074C38.4284 40.5819 37.589 38.3168 35.9621 36.8201C34.3193 35.3355 32.0728 34.5591 29.7664 34.7482C28.6192 34.8206 27.4561 35.0459 26.3368 35.4442C25.2176 35.8425 24.1264 36.3494 23.0871 36.965C22.0598 37.5966 21.0805 38.3128 20.1732 39.1094C19.7375 39.5238 19.2898 39.9261 18.8901 40.4009C18.4863 40.8635 18.0546 41.2981 17.6709 41.7768C11.4712 49.4452 9.70449 60.5092 12.9502 69.7708C13.8416 72.3055 15.1127 74.6832 16.7196 76.8236C18.3584 78.9439 20.3051 80.8308 22.4636 82.4723L22.3876 82.416C24.67 84.0937 27.2002 85.4294 29.8624 86.403C32.5285 87.3565 35.3265 87.9319 38.1366 88.1129C40.7947 88.2819 43.4848 88.0848 46.095 87.4853C48.6972 86.8697 51.2194 85.8559 53.3579 84.3512C54.4172 83.5948 55.3925 82.7378 56.16 81.74C56.3518 81.4906 56.5437 81.2412 56.7076 80.9756C56.8875 80.7181 57.0314 80.4445 57.1833 80.175C57.3351 79.9054 57.4471 79.6158 57.579 79.3382C57.6669 79.0565 57.7948 78.791 57.8548 78.4973C58.4824 76.2081 58.0187 73.4843 56.6197 71.6657C55.9162 70.7686 55.0168 70.0967 53.9615 69.8231C53.4379 69.6501 52.8783 69.626 52.3227 69.6219C51.7631 69.6541 51.1954 69.7426 50.6318 69.9197C49.5046 70.2616 48.4214 70.8973 47.4301 71.6618C46.4468 72.4463 45.5594 73.3756 44.8079 74.3935C43.277 76.4856 42.2017 78.8835 41.5742 81.386C40.9386 83.8885 40.7827 86.4956 40.9906 89.0383C41.0625 89.8671 41.2584 90.9373 41.4942 92.096Z" fill="white"></path></svg>