<svg xmlns="http://www.w3.org/2000/svg" width="64" height="64" viewBox="0 0 64 64" fill="none"><path opacity="0.5" d="M26.9633 4.73906C28.2905 -0.620091 35.9085 -0.620087 37.2357 4.73906L40.9529 19.748C41.4327 21.6857 42.9622 23.1884 44.9081 23.6339L59.673 27.0147C65.1535 28.2696 65.1535 36.0756 59.673 37.3305L44.908 40.7113C42.9622 41.1569 41.4327 42.6596 40.9529 44.5972L37.2357 59.6062C35.9085 64.9653 28.2905 64.9653 26.9633 59.6062L23.2462 44.5972C22.7663 42.6596 21.2368 41.1569 19.291 40.7113L4.52606 37.3305C-0.954422 36.0756 -0.954411 28.2696 4.52607 27.0147L19.291 23.6339C21.2368 23.1884 22.7663 21.6857 23.2462 19.748L26.9633 4.73906Z" fill="#A4D8FD"></path></svg>