<svg xmlns="http://www.w3.org/2000/svg" width="150" height="108" viewBox="0 0 150 108" fill="none"><path d="M139.686 10.1875H120.544V27.2885H139.686V10.1875Z" fill="white"></path><path d="M139.691 27.5407H120.544C120.479 27.5407 120.416 27.5142 120.369 27.4669C120.323 27.4196 120.297 27.3555 120.297 27.2887V10.1876C120.297 10.1208 120.323 10.0567 120.369 10.0094C120.416 9.9621 120.479 9.93555 120.544 9.93555H139.691C139.756 9.93555 139.819 9.9621 139.866 10.0094C139.912 10.0567 139.938 10.1208 139.938 10.1876V27.2887C139.938 27.3555 139.912 27.4196 139.866 27.4669C139.819 27.5142 139.756 27.5407 139.691 27.5407ZM120.791 27.0366H139.444V10.4397H120.791V27.0366Z" fill="#D1D3D4"></path><path d="M139.691 12.0491H120.544C120.479 12.0491 120.416 12.0225 120.369 11.9752C120.323 11.928 120.297 11.8639 120.297 11.797C120.298 11.7305 120.325 11.6672 120.371 11.6202C120.417 11.5732 120.479 11.5462 120.544 11.5449H139.691C139.756 11.5462 139.818 11.5732 139.864 11.6202C139.91 11.6672 139.937 11.7305 139.938 11.797C139.938 11.8639 139.912 11.928 139.866 11.9752C139.819 12.0225 139.756 12.0491 139.691 12.0491Z" fill="#D1D3D4"></path><path d="M129.319 16.5254H124.173C124.108 16.5241 124.046 16.4972 124 16.4502C123.953 16.4032 123.927 16.3398 123.926 16.2734V13.3341C123.927 13.2677 123.953 13.2043 124 13.1573C124.046 13.1103 124.108 13.0833 124.173 13.082H129.319C129.384 13.0833 129.447 13.1103 129.493 13.1573C129.539 13.2043 129.565 13.2677 129.566 13.3341V16.2734C129.565 16.3398 129.539 16.4032 129.493 16.4502C129.447 16.4972 129.384 16.5241 129.319 16.5254ZM124.43 16.0213H129.082V13.5862H124.43V16.0213Z" fill="#D1D3D4"></path><path d="M136.552 23.3653H131.41C131.345 23.3653 131.282 23.3387 131.235 23.2914C131.189 23.2442 131.163 23.1801 131.163 23.1132V20.174C131.163 20.1071 131.189 20.043 131.235 19.9957C131.282 19.9484 131.345 19.9219 131.41 19.9219H136.552C136.617 19.9219 136.68 19.9484 136.726 19.9957C136.773 20.043 136.799 20.1071 136.799 20.174V23.1132C136.799 23.1801 136.773 23.2442 136.726 23.2914C136.68 23.3387 136.617 23.3653 136.552 23.3653ZM131.657 22.8611H136.295V20.426H131.648L131.657 22.8611Z" fill="#D1D3D4"></path><path d="M129.319 24.8321H124.173C124.108 24.8308 124.046 24.8038 124 24.7568C123.953 24.7098 123.927 24.6464 123.926 24.58V21.6408C123.927 21.5743 123.953 21.5109 124 21.4639C124.046 21.4169 124.108 21.39 124.173 21.3887H129.319C129.384 21.39 129.447 21.4169 129.493 21.4639C129.539 21.5109 129.565 21.5743 129.566 21.6408V24.5901C129.563 24.6548 129.535 24.7156 129.489 24.7605C129.444 24.8053 129.383 24.8309 129.319 24.8321ZM124.42 24.3279H129.072V21.8928H124.43L124.42 24.3279Z" fill="#D1D3D4"></path><path d="M133.981 20.427C133.915 20.427 133.852 20.4004 133.806 20.3532C133.76 20.3059 133.734 20.2418 133.734 20.1749V18.7834H126.743C126.678 18.7822 126.616 18.7552 126.57 18.7082C126.524 18.6612 126.497 18.5978 126.496 18.5314V16.2677C126.496 16.2008 126.522 16.1367 126.568 16.0895C126.615 16.0422 126.678 16.0156 126.743 16.0156C126.809 16.0156 126.872 16.0422 126.918 16.0895C126.964 16.1367 126.99 16.2008 126.99 16.2677V18.2843H133.981C134.046 18.2843 134.109 18.3109 134.156 18.3582C134.202 18.4054 134.228 18.4696 134.228 18.5364V20.18C134.227 20.2459 134.2 20.3088 134.154 20.355C134.108 20.4012 134.045 20.427 133.981 20.427Z" fill="#D1D3D4"></path><path d="M126.743 21.8938C126.678 21.8938 126.615 21.8672 126.568 21.82C126.522 21.7727 126.496 21.7086 126.496 21.6417V18.5411C126.496 18.4743 126.522 18.4102 126.568 18.3629C126.615 18.3156 126.678 18.2891 126.743 18.2891C126.809 18.2891 126.872 18.3156 126.918 18.3629C126.964 18.4102 126.99 18.4743 126.99 18.5411V21.6518C126.988 21.7169 126.961 21.7784 126.915 21.8236C126.869 21.8687 126.807 21.8938 126.743 21.8938Z" fill="#D1D3D4"></path><path d="M39.2128 36.2092H33.5177C33.4521 36.2092 33.3893 36.1827 33.3429 36.1354C33.2966 36.0881 33.2705 36.024 33.2705 35.9572C33.2705 35.8903 33.2966 35.8262 33.3429 35.7789C33.3893 35.7316 33.4521 35.7051 33.5177 35.7051H39.2128C39.2779 35.7064 39.3401 35.7333 39.3862 35.7803C39.4322 35.8273 39.4587 35.8907 39.4599 35.9572C39.4599 35.9903 39.4536 36.023 39.4411 36.0536C39.4287 36.0842 39.4105 36.112 39.3876 36.1354C39.3646 36.1588 39.3373 36.1774 39.3074 36.19C39.2774 36.2027 39.2452 36.2092 39.2128 36.2092Z" fill="#D1D3D4"></path><path d="M37.6904 39.1858H27.7389C27.6733 39.1858 27.6105 39.1592 27.5641 39.112C27.5177 39.0647 27.4917 39.0006 27.4917 38.9337C27.4917 38.8669 27.5177 38.8027 27.5641 38.7555C27.6105 38.7082 27.6733 38.6816 27.7389 38.6816H37.6904C37.756 38.6816 37.8189 38.7082 37.8652 38.7555C37.9116 38.8027 37.9376 38.8669 37.9376 38.9337C37.9376 39.0006 37.9116 39.0647 37.8652 39.112C37.8189 39.1592 37.756 39.1858 37.6904 39.1858Z" fill="#D1D3D4"></path><path d="M121.5 84.8256C121.5 84.8256 125.336 43.9888 119.522 37.8028C113.709 31.6168 95.3825 33.9712 86.0242 35.9223C75.1482 38.186 80.9668 85.3298 80.9668 85.3298L121.5 84.8256Z" fill="#231F20"></path><path d="M80.9818 85.5954C80.9224 85.5958 80.8649 85.574 80.8202 85.534C80.7755 85.4941 80.7468 85.4387 80.7395 85.3786C80.5023 83.4426 75.0395 37.9575 85.9897 35.6737C90.439 34.746 113.017 30.4707 119.715 37.6247C125.524 43.836 121.9 83.1754 121.742 84.8492C121.737 84.9112 121.709 84.969 121.665 85.011C121.62 85.0531 121.561 85.0763 121.5 85.0761L80.9867 85.5803L80.9818 85.5954ZM104.711 34.0553H104.133C96.6531 34.1259 89.03 35.5678 86.0985 36.1677C81.7925 37.0651 79.5778 45.8173 79.7014 61.4765C79.7854 72.4974 81.0164 83.4073 81.1845 85.0912L121.258 84.5871C121.549 81.3151 124.778 43.7956 119.34 37.9877C116.922 35.3712 111.993 34.0553 104.701 34.0553H104.711Z" fill="#231F20"></path><path d="M69.4927 50.2058L67.1642 73.0693C67.1642 73.0693 49.7033 75.8069 46.7569 75.5347C43.8105 75.2624 38.1302 76.5984 37.2947 77.3345C36.4593 78.0706 32.4747 82.7189 33.2854 82.724C34.0962 82.729 37.6358 79.3764 38.0017 79.3864C38.3675 79.3965 41.4227 80.2032 41.4227 80.2032C41.4227 80.2032 36.4395 83.0466 37.9226 83.1828C39.4057 83.3189 44.1417 80.9947 44.6558 80.8787C45.17 80.7628 69.374 84.7759 74.812 83.46C80.25 82.1442 79.4393 73.2861 79.4245 70.3519C79.4096 67.4177 78.6928 48.1992 78.6928 48.1992L69.4927 50.2058Z" fill="white"></path><path d="M71.445 83.9767C65.2309 83.9767 54.1175 82.4188 48.2099 81.5869C46.3313 81.3248 44.8482 81.108 44.6653 81.1282C44.5714 81.1282 44.0572 81.3702 43.5184 81.6021C41.2394 82.5801 38.9356 83.528 37.8777 83.4322C37.5267 83.4019 37.4179 83.2305 37.3833 83.0893C37.2795 82.5852 38.4165 81.6626 40.7598 80.2913C39.6129 79.9938 38.1941 79.6459 37.9864 79.6358C37.8678 79.6863 37.1312 80.2913 36.5379 80.7752C34.9708 82.0609 33.814 82.9734 33.2801 82.9734C33.2084 82.9766 33.1375 82.9563 33.0779 82.9155C33.0183 82.8746 32.9731 82.8154 32.9489 82.7465C32.6522 81.9247 36.7703 77.4528 37.1262 77.1403C38.0408 76.3387 43.7804 75.0026 46.7713 75.2799C49.4853 75.532 65.0331 73.1423 66.9315 72.8499L69.2401 50.1628C69.2454 50.1104 69.267 50.0611 69.3017 50.0221C69.3364 49.9831 69.3824 49.9565 69.4329 49.946L78.5886 47.9294C78.6239 47.9234 78.6601 47.9249 78.6949 47.9335C78.7298 47.9422 78.7625 47.9579 78.7913 47.9798C78.8199 48.0014 78.8433 48.0295 78.8596 48.0619C78.8758 48.0942 78.8846 48.13 78.8852 48.1663C78.8852 48.3629 79.5971 67.4151 79.6168 70.3241C79.6168 70.6013 79.6168 70.929 79.6168 71.3021C79.7108 74.922 79.9135 82.4491 74.7919 83.6893C73.6894 83.9061 72.5675 84.0025 71.445 83.9767ZM44.6604 80.624C44.9224 80.624 45.7282 80.7349 48.2742 81.0878C54.9431 82.0256 70.565 84.2136 74.7029 83.2154C79.4339 82.0709 79.2411 74.8161 79.1521 71.3324C79.1521 70.9543 79.1521 70.6215 79.1521 70.3241C79.1521 67.6218 78.5243 50.9392 78.4353 48.4839L69.7444 50.3896L67.4357 73.0768C67.4298 73.1319 67.4063 73.1835 67.3688 73.2236C67.3312 73.2637 67.2818 73.29 67.2281 73.2986C66.5113 73.4145 49.6979 76.0311 46.7565 75.769C43.815 75.5068 38.2188 76.8579 37.4822 77.5083C36.7456 78.1587 33.9673 81.4307 33.5273 82.3986C34.4982 81.8076 35.4178 81.133 36.2759 80.382C37.5168 79.3737 37.8282 79.1266 38.0458 79.1317C38.4165 79.1317 41.0119 79.8224 41.5063 79.9535C41.5538 79.9672 41.5963 79.9948 41.6285 80.033C41.6608 80.0711 41.6813 80.118 41.6876 80.1679C41.6939 80.2179 41.6858 80.2686 41.6641 80.3138C41.6424 80.359 41.6082 80.3968 41.5656 80.4223C39.9886 81.3197 38.2485 82.4793 37.9419 82.9431C38.9653 83.0339 41.8079 81.8088 43.3453 81.1483C43.7564 80.9573 44.1772 80.789 44.606 80.6442L44.6604 80.624Z" fill="#231F20"></path><path d="M68.4697 62.2818C70.9415 46.6176 73.5221 44.8984 73.5221 44.8984C77.9714 37.0537 92.2783 35.627 92.2783 35.627C92.2783 35.627 106.496 41.5911 109.418 52.2642C111.351 59.3224 110.787 87.1065 110.787 87.1065L75.0596 85.6848C75.0596 85.6848 73.9868 73.7615 75.3364 62.2566L68.4697 62.2818Z" fill="#007456"></path><path d="M86.4495 47.6835C86.4495 47.6835 84.1705 65.6971 89.6184 66.3374C95.0663 66.9776 98.2351 43.252 98.2351 43.252L86.1875 45.7727" fill="#231F20"></path><path d="M89.8307 66.6245C89.7483 66.6295 89.6658 66.6295 89.5835 66.6245C89.1903 66.5734 88.8116 66.44 88.4713 66.2326C88.1311 66.0253 87.8365 65.7484 87.606 65.4195C84.4915 61.3409 86.1229 48.2227 86.1773 47.6631C86.1859 47.5969 86.2199 47.537 86.2718 47.4963C86.3237 47.4557 86.3893 47.4377 86.4542 47.4463C86.519 47.4551 86.5778 47.4897 86.6177 47.5426C86.6575 47.5956 86.6752 47.6624 86.6667 47.7286C86.6667 47.8647 85.0057 61.1997 87.9966 65.112C88.1852 65.385 88.4269 65.6155 88.7068 65.789C88.9866 65.9624 89.2985 66.0752 89.623 66.1203C93.84 66.6245 96.994 50.3553 97.9382 43.5794L86.2317 46.0397C86.1661 46.0531 86.0981 46.0393 86.0424 46.0015C85.9868 45.9637 85.9482 45.9049 85.9351 45.838C85.922 45.7712 85.9354 45.7017 85.9725 45.645C86.0096 45.5883 86.0673 45.5489 86.1328 45.5355L98.1805 43.0147C98.2192 43.0048 98.2598 43.0056 98.298 43.0171C98.3363 43.0286 98.3708 43.0505 98.398 43.0803C98.4272 43.1073 98.4496 43.1412 98.4634 43.1789C98.4771 43.2166 98.4818 43.2571 98.4771 43.2971C98.3733 44.255 95.3033 66.6194 89.8307 66.6245Z" fill="#231F20"></path><path d="M149.753 86.3047H0.242188V89.8086H149.753V86.3047Z" fill="white"></path><path d="M149.753 90.0557H0.247182C0.181625 90.0557 0.118753 90.0292 0.0723978 89.9819C0.0260421 89.9346 0 89.8705 0 89.8037V86.3048C0 86.238 0.0260421 86.1738 0.0723978 86.1266C0.118753 86.0793 0.181625 86.0527 0.247182 86.0527H149.753C149.818 86.0527 149.881 86.0793 149.928 86.1266C149.974 86.1738 150 86.238 150 86.3048V89.8037C150 89.8705 149.974 89.9346 149.928 89.9819C149.881 90.0292 149.818 90.0557 149.753 90.0557ZM0.494364 89.5516H149.506V86.5569H0.494364V89.5516Z" fill="#231F20"></path><path d="M147.578 89.8047H2.42773V107.743H147.578V89.8047Z" fill="white"></path><path d="M147.573 108H2.42736C2.3618 108 2.29893 107.973 2.25257 107.926C2.20622 107.879 2.18018 107.815 2.18018 107.748V89.8048C2.18018 89.738 2.20622 89.6738 2.25257 89.6266C2.29893 89.5793 2.3618 89.5527 2.42736 89.5527H147.573C147.638 89.5527 147.701 89.5793 147.747 89.6266C147.794 89.6738 147.82 89.738 147.82 89.8048V107.748C147.82 107.815 147.794 107.879 147.747 107.926C147.701 107.973 147.638 108 147.573 108ZM2.67454 107.496H147.326V90.0569H2.67454V107.496Z" fill="#231F20"></path><path d="M80.2554 84.25H34.1855V86.307H80.2554V84.25Z" fill="#231F20"></path><path d="M80.255 86.5592H34.1852C34.1196 86.5592 34.0567 86.5326 34.0104 86.4853C33.964 86.4381 33.938 86.3739 33.938 86.3071V84.2501C33.938 84.1833 33.964 84.1191 34.0104 84.0719C34.0567 84.0246 34.1196 83.998 34.1852 83.998H80.255C80.3205 83.998 80.3834 84.0246 80.4298 84.0719C80.4761 84.1191 80.5022 84.1833 80.5022 84.2501V86.3071C80.5009 86.3735 80.4744 86.4369 80.4284 86.4839C80.3823 86.5309 80.3201 86.5579 80.255 86.5592ZM34.4324 86.055H80.0078V84.5022H34.4324V86.055Z" fill="#231F20"></path><path d="M105.74 60.066L112.275 75.4832C112.275 75.4832 101.33 77.641 94.9724 78.5434C94.9724 78.5434 87.6509 75.8462 85.1791 75.9319C82.7073 76.0176 79.1231 78.5585 78.2926 79.461C75.5439 82.3901 75.7466 83.9984 75.7862 84.8605C75.8653 86.6351 88.432 84.4269 90.1227 84.6034C91.8134 84.7798 121.164 87.467 123.631 85.2185C126.098 82.9699 117.985 57.3184 117.985 57.3184" fill="white"></path><path d="M115.751 86.3419C105.794 86.3419 90.2762 84.8647 90.0439 84.8294C88.7105 84.8645 87.3801 84.9773 86.0593 85.1672C80.9723 85.7319 76.6664 86.1352 75.732 85.3033C75.6635 85.2482 75.6073 85.1787 75.5673 85.0996C75.5272 85.0204 75.5041 84.9335 75.4997 84.8446V84.7488C75.4503 83.8413 75.3613 82.1574 78.0803 79.2585C79.0196 78.2502 82.6531 75.7596 85.1349 75.6689C87.5177 75.5781 94.2213 78.0031 94.9678 78.2754C100.683 77.4637 110.115 75.6386 111.92 75.2857L105.493 60.161C105.474 60.1301 105.463 60.0956 105.459 60.0598C105.454 60.0239 105.458 59.9876 105.469 59.9532C105.479 59.9188 105.497 59.8872 105.521 59.8605C105.545 59.8338 105.574 59.8126 105.607 59.7984C105.639 59.7842 105.674 59.7772 105.71 59.7781C105.745 59.7789 105.78 59.7875 105.812 59.8032C105.844 59.8189 105.872 59.8415 105.894 59.8693C105.917 59.8971 105.933 59.9295 105.943 59.9644L112.483 75.3815C112.499 75.4162 112.507 75.4541 112.507 75.4924C112.507 75.5308 112.499 75.5686 112.483 75.6033C112.465 75.6359 112.44 75.6641 112.41 75.6859C112.38 75.7076 112.346 75.7225 112.31 75.7294C112.201 75.7546 101.281 77.8973 94.9678 78.7947C94.9288 78.8045 94.8881 78.8045 94.8491 78.7947C94.7799 78.7695 87.5325 76.0924 85.1447 76.1982C82.757 76.3041 79.2124 78.7846 78.4313 79.6316C75.8655 82.3742 75.9595 83.9169 75.9891 84.7437V84.8446C75.9891 84.8446 75.9891 84.895 76.0484 84.9454C76.9136 85.7016 82.6037 85.0664 86 84.6883C87.3561 84.4885 88.7233 84.3774 90.0933 84.3555C93.7121 84.7437 121.164 87.078 123.413 85.0311C125.139 83.4581 120.942 67.6427 117.694 57.3932C117.684 57.3617 117.68 57.3286 117.683 57.2957C117.686 57.2628 117.695 57.2309 117.711 57.2017C117.726 57.1726 117.747 57.1469 117.772 57.1261C117.797 57.1052 117.826 57.0898 117.857 57.0806C117.887 57.0704 117.92 57.0665 117.951 57.0692C117.983 57.0718 118.015 57.0809 118.043 57.0959C118.072 57.1109 118.097 57.1315 118.118 57.1566C118.138 57.1817 118.154 57.2107 118.163 57.2419C119.004 59.8837 126.261 83.1153 123.745 85.4092C122.993 86.0949 119.839 86.3419 115.751 86.3419Z" fill="#231F20"></path><path d="M103.52 43.6836C107.327 44.8177 110.872 46.7189 113.946 49.2747C119.028 53.6911 121.134 64.7473 121.134 64.7473L102.536 68.221L103.52 43.6836Z" fill="#007456"></path><path d="M84.8876 44.033C86.2668 43.5288 87.5917 43.0247 89.1292 43.1659C91.4231 43.3524 93.5785 44.28 95.9267 44.391C98.4282 44.5069 101.048 44.028 103.525 43.6851C104.247 43.5793 103.639 44.6531 104.192 44.1893C106.13 42.455 105.755 39.4048 105.542 37.1059C105.128 31.7715 104 26.5199 102.19 21.4971C101.202 18.8957 97.4395 9.39735 93.5736 14.0154C94.4436 12.9769 89.6186 11.1821 88.9364 11.0611C82.7717 9.91663 77.7984 15.8405 76.9777 21.5476C76.3647 25.7069 76.6564 29.7603 75.0843 33.7583C74.3922 35.5228 73.4529 37.2874 73.5567 39.188C73.6754 41.4719 75.3809 43.4734 77.4622 44.3254C79.5435 45.1774 81.9115 45.0111 84.057 44.3254C84.3191 44.2296 84.6008 44.1288 84.8876 44.033Z" fill="white"></path><path d="M80.5322 45.1571C79.4413 45.168 78.3587 44.9643 77.3435 44.5571C75.0348 43.6143 73.3886 41.4616 73.2848 39.203C73.1958 37.5947 73.8286 36.0873 74.4366 34.6302C74.5701 34.3076 74.7036 33.9849 74.8321 33.6623C75.8802 30.9953 76.0829 28.3434 76.3152 25.5403C76.4191 24.2244 76.5229 22.8682 76.7256 21.507C77.2698 17.9157 79.1701 14.684 82.0202 12.5028C83.0049 11.7492 84.1305 11.2092 85.3276 10.9161C86.5247 10.6231 87.768 10.5831 88.9808 10.7987C89.3664 10.8693 93.1829 12.17 93.8256 13.3649C94.1225 13.0469 94.4896 12.8059 94.8964 12.662C95.3032 12.5182 95.7378 12.4757 96.164 12.538C98.7396 12.9867 100.989 17.5796 102.423 21.3911C104.123 25.8982 105.226 31.0154 105.784 37.02L105.809 37.3023C106.031 39.6466 106.303 42.5657 104.351 44.3151C104.252 44.4059 104.064 44.5722 103.856 44.4815C103.788 44.4418 103.733 44.3821 103.699 44.3102C103.664 44.2382 103.652 44.1574 103.663 44.0782C103.667 44.015 103.658 43.9517 103.639 43.8916H103.545L102.368 44.063C100.234 44.4453 98.0691 44.6259 95.9019 44.6025C94.6676 44.5061 93.4446 44.2934 92.2486 43.9673C91.2133 43.6897 90.159 43.4926 89.0945 43.3774C87.6807 43.2614 86.4546 43.695 85.1396 44.1588L84.9369 44.2294C84.6552 44.3302 84.3734 44.4311 84.0817 44.5218C82.9364 44.9137 81.7399 45.1278 80.5322 45.1571ZM87.3989 11.1718C85.558 11.1893 83.77 11.8018 82.2921 12.9212C79.5491 15.0187 77.7197 18.1274 77.1952 21.5826C77.0024 22.9237 76.8936 24.2748 76.7948 25.5806C76.5822 28.298 76.3647 31.1264 75.3117 33.8488C75.1831 34.1765 75.0447 34.4992 74.9112 34.8269C74.3229 36.2284 73.7198 37.6854 73.794 39.1778C73.9077 41.2398 75.4105 43.211 77.5462 44.0883C79.8796 45.0411 82.3316 44.5924 83.9729 44.0883L84.8183 43.8009L85.021 43.7253C86.3657 43.2211 87.6411 42.7926 89.1588 42.9186C90.2484 43.0366 91.3275 43.2388 92.387 43.5236C93.552 43.8427 94.7436 44.0503 95.9464 44.1437C98.0838 44.1654 100.219 43.9865 102.324 43.6093L103.5 43.4379C103.586 43.418 103.674 43.4177 103.76 43.4369C103.845 43.4561 103.925 43.4943 103.995 43.5488C104.087 43.6308 104.148 43.7432 104.168 43.8664C105.804 42.2733 105.547 39.571 105.339 37.388L105.315 37.1107C104.761 31.1314 103.673 26.0545 101.988 21.5927C100.01 16.4049 97.9387 13.3749 96.1046 13.0523C95.2988 12.9162 94.5375 13.2842 93.7861 14.1816C93.7668 14.2112 93.7416 14.2363 93.7122 14.2552C93.6827 14.2742 93.6497 14.2866 93.6152 14.2916C93.5808 14.2967 93.5456 14.2942 93.5122 14.2844C93.4787 14.2747 93.4476 14.2578 93.421 14.2349C93.3943 14.212 93.3727 14.1837 93.3576 14.1517C93.3425 14.1197 93.3341 14.0848 93.3331 14.0493C93.3321 14.0139 93.3385 13.9785 93.3518 13.9457C93.3651 13.9129 93.3851 13.8833 93.4104 13.8589C93.4317 13.8347 93.4458 13.8047 93.4511 13.7726C93.4563 13.7404 93.4525 13.7074 93.44 13.6774C93.1385 12.8204 89.6433 11.4491 88.9166 11.3129C88.4158 11.2197 87.9079 11.1724 87.3989 11.1718Z" fill="#231F20"></path><path d="M79.4495 23.5071C79.4495 23.5071 77.9961 29.9855 79.6176 34.5985C80.0346 35.8854 80.8103 37.0204 81.8498 37.8648C82.8894 38.7091 84.1477 39.2262 85.4708 39.3528L86.4596 47.7067C86.4596 47.7067 86.9243 51.9819 91.9816 50.6913C93.4479 50.3129 94.7949 49.5584 95.8947 48.4995C96.9945 47.4406 97.8104 46.1125 98.265 44.6414L97.0291 29.2041C97.0291 29.2041 90.8199 26.5068 90.6518 20.9258C90.6518 20.9258 84.1361 25.191 79.4495 23.5071Z" fill="white"></path><path d="M90.2064 51.1601C89.2332 51.2127 88.277 50.8847 87.5329 50.2429C86.7887 49.6012 86.3128 48.694 86.2021 47.7066L85.2381 39.5594C83.9084 39.3859 82.6533 38.8343 81.6165 37.9677C80.5797 37.1012 79.8029 35.9545 79.3749 34.659C77.7485 30.056 79.1376 23.7187 79.1969 23.4515C79.2044 23.417 79.2188 23.3844 79.2392 23.3557C79.2597 23.3271 79.2856 23.3031 79.3156 23.2852C79.3474 23.2702 79.3819 23.2625 79.4169 23.2625C79.4519 23.2625 79.4865 23.2702 79.5183 23.2852C84.0466 24.9086 90.4536 20.7644 90.5179 20.7291C90.5555 20.707 90.5981 20.6953 90.6415 20.6953C90.6849 20.6953 90.7275 20.707 90.7651 20.7291C90.8036 20.7506 90.8361 20.7818 90.8595 20.8197C90.8829 20.8577 90.8963 20.9011 90.8985 20.9459C91.0419 26.295 97.0583 28.9721 97.1176 29.0124C97.1596 29.0296 97.1958 29.0587 97.2221 29.0962C97.2484 29.1337 97.2636 29.1781 97.2659 29.2241L98.5019 44.6615C98.5067 44.6898 98.5067 44.7188 98.5019 44.7472C98.0222 46.2524 97.1784 47.6102 96.0482 48.6949C94.918 49.7796 93.538 50.5563 92.0356 50.9534C91.4363 51.0975 90.8221 51.1669 90.2064 51.1601ZM79.6221 23.8347C79.3749 25.1052 78.4504 30.5501 79.8396 34.4876C80.2349 35.7303 80.9791 36.8275 81.9801 37.643C82.981 38.4585 84.1946 38.9566 85.4704 39.0754C85.5289 39.0775 85.5846 39.1012 85.6273 39.1419C85.67 39.1827 85.6968 39.2379 85.7028 39.2972L86.6915 47.6511C86.839 48.6082 87.3439 49.47 88.1004 50.056C89.0298 50.7063 90.3053 50.8324 91.912 50.424C93.3233 50.0532 94.6209 49.3273 95.6858 48.3126C96.7508 47.2979 97.549 46.0269 98.0075 44.6161L96.7864 29.3704C95.8817 28.9368 90.854 26.2899 90.4289 21.3643C89.0101 22.2164 83.7649 25.1153 79.6221 23.8347Z" fill="#231F20"></path><path d="M83.4038 34.2635C83.1398 34.2692 82.8769 34.2265 82.6276 34.1375C82.552 34.1091 82.4837 34.0634 82.4281 34.004C82.3724 33.9446 82.3307 33.873 82.3063 33.7946C81.9454 32.7863 83.7894 29.4236 84.18 28.753C84.2121 28.695 84.2656 28.6523 84.3286 28.6343C84.3916 28.6163 84.4591 28.6246 84.5161 28.6573C84.5726 28.6919 84.6135 28.7477 84.6301 28.8127C84.6468 28.8777 84.6378 28.9468 84.6051 29.0051C83.7202 30.563 82.5634 33.0384 82.771 33.6081C82.771 33.6434 82.771 33.6484 82.8007 33.6484C83.6609 33.9812 85.228 33.351 85.2428 33.3459C85.273 33.3336 85.3053 33.3276 85.3378 33.328C85.3703 33.3285 85.4024 33.3354 85.4322 33.3486C85.4621 33.3617 85.4891 33.3806 85.5117 33.4044C85.5344 33.4282 85.5522 33.4563 85.5642 33.4871C85.5762 33.5179 85.5822 33.5508 85.5817 33.5839C85.5813 33.6171 85.5745 33.6498 85.5616 33.6802C85.5487 33.7107 85.5301 33.7382 85.5068 33.7613C85.4835 33.7844 85.456 33.8026 85.4257 33.8148C84.7802 34.0756 84.0972 34.2272 83.4038 34.2635Z" fill="#231F20"></path><path d="M85.5252 36.6251C84.1418 36.5778 82.8005 36.1282 81.6592 35.3294C81.6311 35.3124 81.6066 35.2898 81.5873 35.2628C81.568 35.2359 81.5542 35.2052 81.5468 35.1727C81.5394 35.1402 81.5385 35.1065 81.5443 35.0737C81.55 35.0408 81.5622 35.0095 81.5801 34.9816C81.5973 34.9534 81.6197 34.9289 81.6462 34.9096C81.6726 34.8903 81.7026 34.8765 81.7343 34.869C81.766 34.8615 81.7988 34.8605 81.8309 34.866C81.863 34.8714 81.8937 34.8833 81.9212 34.9009C83.7899 36.1109 85.5548 36.4134 87.1714 35.8235C88.3825 35.358 89.4 34.4823 90.0535 33.3431C90.074 33.2794 90.118 33.2264 90.1761 33.1954C90.2343 33.1643 90.3021 33.1576 90.365 33.1767C90.4261 33.1975 90.4768 33.2418 90.5064 33.3002C90.5359 33.3586 90.542 33.4264 90.5232 33.4893C89.8378 34.7799 88.7174 35.7738 87.3691 36.2873C86.7786 36.5092 86.1545 36.6235 85.5252 36.6251Z" fill="#231F20"></path><path d="M85.4604 39.3295C85.4604 39.3295 89.9097 39.3295 92.3371 38.3867C92.3371 38.3867 90.3596 45.3088 86.2069 45.7827L85.4604 39.3295Z" fill="#231F20"></path><path d="M86.2075 46.0348C86.1471 46.0342 86.0889 46.0115 86.0435 45.9707C85.9981 45.93 85.9686 45.874 85.9603 45.813L85.2138 39.3598C85.2095 39.3238 85.2125 39.2873 85.2228 39.2526C85.233 39.2179 85.2501 39.1857 85.2731 39.1581C85.2964 39.131 85.3254 39.1096 85.3579 39.0956C85.3905 39.0817 85.4257 39.0754 85.461 39.0774C85.5005 39.0774 89.9103 39.0774 92.2486 38.1548C92.2913 38.1361 92.3384 38.1303 92.3843 38.1382C92.4301 38.146 92.4728 38.1671 92.5072 38.199C92.5416 38.2309 92.5663 38.2722 92.5783 38.318C92.5903 38.3638 92.5891 38.4122 92.5749 38.4573C92.4909 38.7497 90.5134 45.5458 86.2322 46.0197L86.2075 46.0348ZM85.7378 39.5766L86.4201 45.4954C89.5988 44.9156 91.428 40.3025 91.9471 38.7951C89.8312 39.4808 86.687 39.5665 85.7378 39.5766Z" fill="#231F20"></path><path d="M87.2178 28.8237C87.5747 28.7998 87.8308 28.2625 87.7897 27.6234C87.7486 26.9844 87.426 26.4857 87.0691 26.5095C86.7122 26.5334 86.4561 27.0708 86.4972 27.7098C86.5383 28.3489 86.8609 28.8476 87.2178 28.8237Z" fill="#231F20"></path><path d="M81.2539 29.2221C81.6108 29.1983 81.8669 28.6609 81.8258 28.0219C81.7847 27.3828 81.4621 26.8841 81.1052 26.908C80.7483 26.9318 80.4923 27.4692 80.5334 28.1083C80.5744 28.7473 80.897 29.246 81.2539 29.2221Z" fill="#231F20"></path><path d="M105.181 34.0605C105.938 38.9509 107.159 47.9703 99.2883 46.4477C97.6396 46.1228 96.179 45.1576 95.2148 43.7555C93.4796 41.2347 97.1131 36.9645 98.8286 35.0386" fill="white"></path><path d="M100.925 46.871C100.36 46.8659 99.7975 46.8068 99.2439 46.6945C97.5313 46.3589 96.0138 45.3573 95.0121 43.9015C93.2967 41.3807 96.2629 37.5441 98.6457 34.872C98.6683 34.8485 98.6952 34.8299 98.7249 34.8172C98.7546 34.8044 98.7865 34.7979 98.8187 34.7979C98.851 34.7979 98.8829 34.8044 98.9126 34.8172C98.9423 34.8299 98.9692 34.8485 98.9918 34.872C99.0149 34.8955 99.0333 34.9233 99.0459 34.9541C99.0584 34.9848 99.0649 35.0177 99.0649 35.051C99.0649 35.0843 99.0584 35.1172 99.0459 35.1479C99.0333 35.1787 99.0149 35.2065 98.9918 35.23C97.6817 36.6971 93.707 41.1589 95.3977 43.6292C96.3228 44.9817 97.7297 45.9117 99.3181 46.2206C101.34 46.6139 102.873 46.3063 103.881 45.3081C106.284 42.9335 105.364 36.9794 104.914 34.1158C104.906 34.0498 104.922 33.983 104.961 33.9294C105 33.8758 105.058 33.8396 105.122 33.8284C105.187 33.8196 105.252 33.8368 105.305 33.8763C105.357 33.9158 105.393 33.9745 105.404 34.0402C105.898 37.2113 106.813 43.115 104.227 45.6711C103.781 46.0825 103.26 46.4003 102.693 46.6062C102.126 46.8121 101.525 46.9021 100.925 46.871Z" fill="#231F20"></path><path d="M88.0563 30.6929C86.0146 30.6929 84.3535 29.2762 84.3535 27.5368C84.3535 25.984 85.6685 25.127 88.0563 25.127C90.4441 25.127 91.7541 25.984 91.7541 27.5368C91.7541 29.2762 90.0931 30.6929 88.0563 30.6929ZM88.0563 25.6513C86.5732 25.6513 84.8479 25.984 84.8479 27.557C84.8479 29.0191 86.2865 30.2089 88.0563 30.2089C89.8261 30.2089 91.2598 29.0191 91.2598 27.557C91.2598 25.9639 89.5147 25.6311 88.0563 25.6311V25.6513Z" fill="#231F20"></path><path d="M80.5767 30.6929C78.54 30.6929 76.8789 29.2762 76.8789 27.5368C76.8789 25.984 78.1939 25.127 80.5767 25.127C82.9596 25.127 84.2795 25.984 84.2795 27.5368C84.2795 29.2762 82.6185 30.6929 80.5767 30.6929ZM80.5767 25.6513C79.1184 25.6513 77.3733 25.984 77.3733 27.557C77.3733 29.0191 78.8119 30.2089 80.5767 30.2089C82.3416 30.2089 83.7852 29.0191 83.7852 27.557C83.7852 25.9639 82.0401 25.6311 80.5767 25.6311V25.6513Z" fill="#231F20"></path><path d="M84.6009 27.7874H84.0323C83.9668 27.7874 83.9039 27.7608 83.8576 27.7135C83.8112 27.6663 83.7852 27.6021 83.7852 27.5353C83.7852 27.4684 83.8112 27.4043 83.8576 27.357C83.9039 27.3098 83.9668 27.2832 84.0323 27.2832H84.6009C84.6664 27.2832 84.7293 27.3098 84.7756 27.357C84.822 27.4043 84.848 27.4684 84.848 27.5353C84.848 27.6021 84.822 27.6663 84.7756 27.7135C84.7293 27.7608 84.6664 27.7874 84.6009 27.7874Z" fill="#231F20"></path><path d="M97.118 27.7874H91.5069C91.4414 27.7874 91.3785 27.7608 91.3322 27.7135C91.2858 27.6663 91.2598 27.6021 91.2598 27.5353C91.2598 27.4684 91.2858 27.4043 91.3322 27.357C91.3785 27.3098 91.4414 27.2832 91.5069 27.2832H97.118C97.1831 27.2845 97.2453 27.3115 97.2914 27.3585C97.3374 27.4055 97.3639 27.4688 97.3652 27.5353C97.3652 27.6021 97.3391 27.6663 97.2928 27.7135C97.2464 27.7608 97.1835 27.7874 97.118 27.7874Z" fill="#231F20"></path><path d="M94.3096 28.3887C94.3096 28.3887 95.8569 23.2765 98.6007 26.0443C101.344 28.8122 98.2645 32.5984 96.1288 32.5581" fill="white"></path><path d="M96.1393 32.8087C96.107 32.8087 96.0751 32.8021 96.0454 32.7894C96.0157 32.7767 95.9888 32.758 95.9662 32.7346C95.9437 32.7111 95.9259 32.6833 95.914 32.6527C95.9022 32.6221 95.8964 32.5895 95.897 32.5566C95.8964 32.5233 95.9023 32.4902 95.9145 32.4593C95.9267 32.4284 95.9448 32.4004 95.9679 32.3768C95.991 32.3533 96.0185 32.3347 96.0488 32.3223C96.0791 32.3099 96.1116 32.3038 96.1442 32.3045H96.1689C97.2763 32.3045 98.6408 31.2004 99.1895 29.8291C99.4571 29.2253 99.5299 28.5506 99.3975 27.9019C99.2652 27.2533 98.9344 26.6641 98.4529 26.2193C97.8498 25.6144 97.2714 25.3724 96.7375 25.5135C95.373 25.8614 94.5771 28.4326 94.5721 28.4628C94.5525 28.5297 94.5076 28.5859 94.4473 28.6189C94.3871 28.652 94.3164 28.6594 94.2508 28.6393C94.1853 28.6192 94.1302 28.5735 94.0977 28.512C94.0653 28.4505 94.0581 28.3785 94.0778 28.3116C94.1124 28.1956 94.9627 25.4429 96.599 25.0245C97.3109 24.838 98.0426 25.1203 98.7792 25.8614C99.3344 26.3736 99.7156 27.0527 99.8676 27.8003C100.02 28.548 99.9344 29.3256 99.6245 30.0207C98.9769 31.5937 97.4543 32.8087 96.1393 32.8087Z" fill="#231F20"></path><path d="M74.7627 53.6816H74.738C74.6729 53.6739 74.6132 53.6407 74.5716 53.5889C74.5301 53.5372 74.51 53.4709 74.5156 53.4043C74.7547 50.5161 75.4352 47.6838 76.5326 45.0101C76.5601 44.9492 76.6102 44.902 76.6719 44.8789C76.7335 44.8557 76.8017 44.8585 76.8613 44.8865C76.921 44.9146 76.9672 44.9657 76.99 45.0286C77.0127 45.0915 77.01 45.161 76.9824 45.2218C75.9075 47.8445 75.2403 50.6222 75.005 53.4547C74.9989 53.5162 74.9709 53.5733 74.9262 53.6152C74.8816 53.657 74.8234 53.6806 74.7627 53.6816Z" fill="#231F20"></path><path d="M75.0101 35.4121H28.3223C26.523 35.4121 25.0645 36.8996 25.0645 38.7345V68.132C25.0645 69.9669 26.523 71.4544 28.3223 71.4544H75.0101C76.8093 71.4544 78.2679 69.9669 78.2679 68.132V38.7345C78.2679 36.8996 76.8093 35.4121 75.0101 35.4121Z" fill="white"></path><path d="M75.0003 71.6996H28.3224C27.3932 71.6982 26.5025 71.3212 25.8454 70.6512C25.1884 69.9811 24.8187 69.0727 24.8174 68.1251V38.7327C24.8187 37.7851 25.1884 36.8767 25.8454 36.2066C26.5025 35.5366 27.3932 35.1595 28.3224 35.1582H75.0003C75.9295 35.1595 76.8203 35.5366 77.4773 36.2066C78.1343 36.8767 78.504 37.7851 78.5053 38.7327V68.1251C78.504 69.0727 78.1343 69.9811 77.4773 70.6512C76.8203 71.3212 75.9295 71.6982 75.0003 71.6996ZM28.3125 35.6624C27.5141 35.6624 26.7483 35.9858 26.1837 36.5616C25.6191 37.1374 25.3019 37.9184 25.3019 38.7327V68.1251C25.3019 68.9394 25.6191 69.7203 26.1837 70.2961C26.7483 70.8719 27.5141 71.1954 28.3125 71.1954H75.0003C75.7988 71.1954 76.5646 70.8719 77.1292 70.2961C77.6938 69.7203 78.011 68.9394 78.011 68.1251V38.7327C78.011 37.9184 77.6938 37.1374 77.1292 36.5616C76.5646 35.9858 75.7988 35.6624 75.0003 35.6624H28.3125Z" fill="#231F20"></path><path d="M55.7988 59.2227V71.4485L48.0273 71.0956L55.7988 59.2227Z" fill="#231F20"></path><path d="M55.7993 71.7004L48.0328 71.3474C47.9885 71.3442 47.9458 71.3295 47.9086 71.3048C47.8715 71.2802 47.841 71.2462 47.8202 71.2063C47.7985 71.168 47.7871 71.1245 47.7871 71.0802C47.7871 71.036 47.7985 70.9925 47.8202 70.9542L55.5916 59.0813C55.6206 59.0358 55.6633 59.0014 55.7133 58.9831C55.7634 58.9649 55.8179 58.964 55.8685 58.9804C55.9198 58.9957 55.9649 59.0276 55.997 59.0712C56.0291 59.1148 56.0464 59.1679 56.0464 59.2224V71.4483C56.0466 71.4825 56.0396 71.5164 56.026 71.5477C56.0124 71.579 55.9924 71.6069 55.9673 71.6298C55.9453 71.6522 55.919 71.67 55.8902 71.6821C55.8614 71.6942 55.8305 71.7004 55.7993 71.7004ZM48.4777 70.8634L55.5521 71.1861V60.0543L48.4777 70.8634Z" fill="#231F20"></path><path d="M46.0892 59.3386C46.0892 59.3386 39.9739 83.9012 39.6921 84.9902C39.3807 86.1598 40.3249 86.3413 41.8525 86.3413H56.4214V85.2725H50.2072C50.2072 85.2725 52.862 72.9105 55.7985 59.2227L46.0892 59.3386Z" fill="white"></path><path d="M56.4218 86.5936H41.8776C40.7406 86.5936 39.9644 86.4979 39.6035 86.0139C39.4995 85.8555 39.4337 85.6743 39.4113 85.4851C39.389 85.2958 39.4108 85.1039 39.475 84.9249C39.7568 83.8712 45.8128 59.5254 45.877 59.2784C45.8893 59.225 45.919 59.1776 45.9612 59.1437C46.0034 59.1098 46.0557 59.0915 46.1094 59.0918L55.8187 58.9708C55.8548 58.9696 55.8907 58.9772 55.9234 58.993C55.9561 59.0088 55.9846 59.0323 56.0066 59.0616C56.0306 59.0904 56.048 59.1245 56.0575 59.1611C56.0669 59.1978 56.0681 59.2361 56.0609 59.2733L50.5339 85.0207H56.4416C56.5072 85.0207 56.57 85.0472 56.6164 85.0945C56.6627 85.1418 56.6888 85.2059 56.6888 85.2727V86.3416C56.6889 86.3764 56.6819 86.4109 56.6683 86.4429C56.6546 86.4749 56.6346 86.5036 56.6095 86.5273C56.5844 86.551 56.5548 86.5692 56.5225 86.5806C56.4902 86.592 56.4559 86.5964 56.4218 86.5936ZM46.2824 59.5909C45.7139 61.8748 40.1968 84.0476 39.9298 85.056C39.8874 85.1603 39.8689 85.2731 39.8758 85.3858C39.8826 85.4985 39.9146 85.6082 39.9694 85.7063C40.2215 86.0441 41.0619 86.0895 41.8529 86.0895H56.1895V85.5248H50.2077C50.1709 85.5253 50.1346 85.5173 50.1012 85.5016C50.0679 85.4859 50.0384 85.4629 50.0149 85.4341C49.9925 85.4043 49.9766 85.37 49.968 85.3336C49.9595 85.2971 49.9586 85.2592 49.9654 85.2223L55.4875 59.475L46.2824 59.5909Z" fill="#231F20"></path><path d="M109.195 68.474C109.147 68.4731 109.099 68.4579 109.059 68.4301C109.019 68.4024 108.987 68.3634 108.968 68.3177C106.99 63.4274 103.629 55.1642 103.644 54.7811C103.65 54.7155 103.679 54.6546 103.727 54.6099C103.774 54.5652 103.836 54.54 103.901 54.5391C103.962 54.5415 104.02 54.567 104.064 54.6108C104.108 54.6546 104.134 54.7135 104.138 54.776C104.247 55.3255 107.356 63.0493 109.428 68.1261C109.451 68.1878 109.45 68.2562 109.425 68.3172C109.4 68.3782 109.353 68.4272 109.294 68.4538C109.263 68.4677 109.229 68.4746 109.195 68.474Z" fill="#231F20"></path><path d="M71.2776 76.0369C71.2331 76.0376 71.1892 76.0257 71.1508 76.0026C71.1124 75.9794 71.081 75.946 71.0601 75.9058C70.1653 74.1665 67.1299 73.3195 67.1052 73.3094C67.0727 73.3008 67.0423 73.2858 67.0155 73.2651C66.9887 73.2445 66.9662 73.2187 66.9492 73.1892C66.9322 73.1597 66.9211 73.1271 66.9165 73.0932C66.9119 73.0594 66.9138 73.0249 66.9223 72.9918C66.9307 72.9587 66.9455 72.9276 66.9657 72.9003C66.9859 72.873 67.0112 72.8501 67.0401 72.8327C67.069 72.8154 67.101 72.8041 67.1342 72.7994C67.1675 72.7946 67.2013 72.7966 67.2337 72.8053C67.3672 72.8405 70.5064 73.7127 71.505 75.6487C71.5346 75.709 71.5397 75.7787 71.5194 75.8428C71.499 75.9069 71.4548 75.9603 71.3963 75.9915C71.3617 76.0178 71.3206 76.0335 71.2776 76.0369Z" fill="#231F20"></path><path d="M23.7198 83.7409C24.7328 83.7409 25.5539 82.9034 25.5539 81.8704C25.5539 80.8374 24.7328 80 23.7198 80C22.7069 80 21.8857 80.8374 21.8857 81.8704C21.8857 82.9034 22.7069 83.7409 23.7198 83.7409Z" fill="#231F20"></path><path d="M23.7199 83.9931C23.3083 83.9931 22.9059 83.8686 22.5637 83.6354C22.2214 83.4021 21.9546 83.0706 21.7971 82.6828C21.6396 82.295 21.5984 81.8682 21.6787 81.4565C21.759 81.0447 21.9572 80.6666 22.2483 80.3697C22.5393 80.0729 22.9102 79.8707 23.3139 79.7888C23.7176 79.7069 24.1361 79.749 24.5164 79.9096C24.8967 80.0703 25.2218 80.3423 25.4505 80.6913C25.6792 81.0404 25.8012 81.4508 25.8012 81.8706C25.7999 82.4331 25.5802 82.9722 25.1902 83.3699C24.8002 83.7677 24.2715 83.9917 23.7199 83.9931ZM23.7199 80.2522C23.4067 80.2522 23.1005 80.3468 22.8399 80.5239C22.5792 80.7011 22.3758 80.953 22.2553 81.2478C22.1348 81.5426 22.1025 81.8672 22.1625 82.1808C22.2226 82.4943 22.3722 82.7826 22.5927 83.0096C22.8131 83.2365 23.0945 83.3918 23.4014 83.4559C23.7082 83.5201 24.0268 83.4902 24.317 83.37C24.6072 83.2498 24.8561 83.0448 25.0322 82.7806C25.2084 82.5165 25.3039 82.2051 25.3069 81.8857C25.3088 81.6719 25.2692 81.4598 25.1903 81.2617C25.1115 81.0636 24.9949 80.8834 24.8473 80.7315C24.6998 80.5797 24.5242 80.4591 24.3307 80.3768C24.1372 80.2946 23.9296 80.2522 23.7199 80.2522Z" fill="#231F20"></path><path d="M31.4465 86.3054H18.771C18.4244 86.3054 18.0919 86.1653 17.8464 85.9158C17.6008 85.6664 17.4622 85.3278 17.4609 84.9744C17.4622 83.8775 17.8904 82.826 18.6515 82.0508C19.4125 81.2757 20.4441 80.8403 21.5197 80.8403C21.5197 80.8403 26.8242 80.6033 29.5333 82.2217C32.2424 83.84 32.806 86.3054 31.4465 86.3054Z" fill="white"></path><path d="M31.4466 86.5569H18.7711C18.359 86.5569 17.9636 86.3903 17.6717 86.0936C17.3798 85.7968 17.2152 85.3942 17.2139 84.9739C17.2152 83.8101 17.6694 82.6945 18.4768 81.8721C19.2842 81.0497 20.3786 80.5877 21.5198 80.5877C21.7274 80.5877 26.9182 80.3709 29.662 81.9994C31.679 83.2043 32.6281 84.9184 32.3661 85.8814C32.3155 86.0864 32.1954 86.2666 32.0272 86.3902C31.859 86.5138 31.6534 86.5729 31.4466 86.5569ZM22.202 81.0767C21.7917 81.0767 21.5396 81.0767 21.5297 81.0767C21.0285 81.0748 20.5319 81.1737 20.0684 81.3679C19.6048 81.5621 19.1834 81.8477 18.8284 82.2084C18.4734 82.5691 18.1916 82.9977 17.9994 83.4697C17.8072 83.9417 17.7082 84.4477 17.7082 84.9588C17.7095 85.2454 17.8221 85.5198 18.0213 85.722C18.2205 85.9242 18.4901 86.0377 18.7711 86.0377H31.4466C31.7729 86.0377 31.852 85.8662 31.8866 85.7352C32.0646 85.0697 31.3032 83.5471 29.4148 82.4229C27.3582 81.2129 23.7049 81.0767 22.202 81.0767Z" fill="#231F20"></path><path d="M19.4828 84.33C19.4583 84.3349 19.4331 84.3349 19.4086 84.33C19.3464 84.3093 19.2947 84.2642 19.2651 84.2046C19.2354 84.1451 19.2301 84.0759 19.2504 84.0124C19.7505 82.5689 20.7534 81.3631 22.0683 80.6245C22.1267 80.5946 22.1943 80.5895 22.2563 80.6102C22.3184 80.631 22.3699 80.676 22.3995 80.7354C22.4147 80.7647 22.424 80.7969 22.4267 80.83C22.4294 80.863 22.4256 80.8963 22.4155 80.9278C22.4053 80.9594 22.3891 80.9885 22.3676 81.0134C22.3462 81.0384 22.3201 81.0587 22.2908 81.0732C21.0989 81.7588 20.187 82.8569 19.7201 84.1687C19.7017 84.2173 19.669 84.2589 19.6265 84.2878C19.584 84.3167 19.5338 84.3314 19.4828 84.33Z" fill="#231F20"></path><path d="M23.4967 86.5568C23.4464 86.5563 23.3974 86.5401 23.3563 86.5105C23.3153 86.4808 23.284 86.4391 23.2668 86.3909C23.2496 86.3426 23.2473 86.2902 23.2601 86.2406C23.2729 86.1909 23.3003 86.1465 23.3385 86.1131C23.3385 86.1131 24.9007 84.7368 24.9551 83.1537C24.9965 82.7458 24.926 82.3341 24.7514 81.9647C24.5769 81.5952 24.305 81.2825 23.9663 81.0615C23.937 81.047 23.9109 81.0267 23.8895 81.0017C23.8681 80.9768 23.8518 80.9476 23.8416 80.9161C23.8315 80.8846 23.8277 80.8513 23.8304 80.8182C23.8331 80.7852 23.8424 80.753 23.8576 80.7237C23.8872 80.6643 23.9387 80.6193 24.0008 80.5985C24.0628 80.5777 24.1304 80.5829 24.1888 80.6128C24.6141 80.8753 24.958 81.255 25.181 81.708C25.404 82.1611 25.4971 82.6692 25.4494 83.1739C25.3901 84.9788 23.729 86.4358 23.6549 86.4963C23.611 86.5351 23.5548 86.5566 23.4967 86.5568Z" fill="#231F20"></path><path d="M62.0757 0.251953H45.0498V15.7548H62.0757V0.251953Z" fill="white"></path><path d="M62.0758 16.0322H45.0499C44.9848 16.0309 44.9226 16.004 44.8765 15.957C44.8304 15.91 44.804 15.8466 44.8027 15.7801V0.252079C44.804 0.185628 44.8304 0.122256 44.8765 0.0752591C44.9226 0.028262 44.9848 0.00129068 45.0499 0H62.0758C62.1414 0 62.2042 0.0265581 62.2506 0.073832C62.297 0.121106 62.323 0.185223 62.323 0.252079V15.7549C62.3265 15.7901 62.3226 15.8256 62.3118 15.8592C62.3009 15.8927 62.2833 15.9236 62.26 15.9497C62.2367 15.9759 62.2082 15.9967 62.1765 16.0109C62.1448 16.0251 62.1105 16.0324 62.0758 16.0322ZM45.2971 15.5281H61.8286V0.504158H45.2971V15.5281Z" fill="#D1D3D4"></path><path d="M50.5527 11.1908C50.4929 11.1914 50.4349 11.1699 50.3895 11.1303L47.4382 8.4683C47.3892 8.42248 47.3592 8.35941 47.3541 8.29185C47.3517 8.2575 47.3566 8.22301 47.3686 8.19079C47.3805 8.15858 47.3992 8.1294 47.4233 8.10531L50.3895 4.91399C50.4121 4.89052 50.439 4.87187 50.4687 4.85913C50.4984 4.8464 50.5303 4.83984 50.5626 4.83984C50.5948 4.83984 50.6267 4.8464 50.6564 4.85913C50.6861 4.87187 50.713 4.89052 50.7356 4.91399C50.7587 4.93743 50.7771 4.96531 50.7897 4.99602C50.8022 5.02674 50.8087 5.05969 50.8087 5.09297C50.8087 5.12624 50.8022 5.15919 50.7897 5.18991C50.7771 5.22063 50.7587 5.24851 50.7356 5.27194L47.9375 8.29689L50.7207 10.8177C50.7575 10.8517 50.7833 10.8962 50.7949 10.9455C50.8065 10.9947 50.8032 11.0463 50.7856 11.0936C50.768 11.141 50.7369 11.1818 50.6962 11.2108C50.6555 11.2398 50.6072 11.2557 50.5576 11.2563L50.5527 11.1908Z" fill="#D1D3D4"></path><path d="M55.9903 11.1928C55.9549 11.1924 55.9199 11.1847 55.8876 11.1699C55.8552 11.1552 55.8262 11.1338 55.8024 11.107C55.7571 11.0599 55.7317 10.9966 55.7317 10.9306C55.7317 10.8646 55.7571 10.8013 55.8024 10.7541L58.5857 8.23334L55.7876 5.2084C55.7423 5.15959 55.718 5.09446 55.7198 5.02733C55.7217 4.9602 55.7496 4.89657 55.7975 4.85044C55.8453 4.80431 55.9092 4.77946 55.975 4.78135C56.0408 4.78324 56.1032 4.81172 56.1485 4.86053L59.1146 8.05185C59.1371 8.07692 59.1544 8.10637 59.1655 8.13842C59.1765 8.17048 59.1811 8.20448 59.1789 8.23839C59.1784 8.27177 59.1711 8.30468 59.1575 8.33505C59.1438 8.36542 59.1242 8.39259 59.0998 8.41484L56.1336 11.097C56.0975 11.1441 56.0471 11.1778 55.9903 11.1928Z" fill="#D1D3D4"></path><path d="M51.3331 12.0291C51.2933 12.0287 51.2542 12.0183 51.2194 11.9988C51.1616 11.9668 51.1185 11.913 51.0991 11.849C51.0797 11.7849 51.0856 11.7157 51.1155 11.656L54.8233 4.43648C54.8538 4.37798 54.9056 4.33409 54.9676 4.31427C55.0296 4.29446 55.0967 4.30033 55.1545 4.3306C55.1835 4.346 55.2093 4.36712 55.2303 4.39275C55.2512 4.41837 55.267 4.44799 55.2767 4.47989C55.2863 4.51178 55.2897 4.54531 55.2865 4.57854C55.2834 4.61176 55.2738 4.64402 55.2583 4.67343L51.5555 11.9131C51.5315 11.9505 51.4984 11.9809 51.4594 12.0012C51.4204 12.0215 51.3768 12.0311 51.3331 12.0291Z" fill="#D1D3D4"></path><path d="M62.0758 2.59205H45.0499C44.9848 2.59076 44.9226 2.56378 44.8765 2.51679C44.8304 2.46979 44.804 2.40642 44.8027 2.33997C44.8027 2.27311 44.8288 2.209 44.8751 2.16172C44.9215 2.11445 44.9844 2.08789 45.0499 2.08789H62.0758C62.1414 2.08789 62.2042 2.11445 62.2506 2.16172C62.297 2.209 62.323 2.27311 62.323 2.33997C62.323 2.40683 62.297 2.47094 62.2506 2.51822C62.2042 2.56549 62.1414 2.59205 62.0758 2.59205Z" fill="#D1D3D4"></path><path d="M33.2479 4.22461H5.59814V30.3753H33.2479V4.22461Z" fill="white"></path><path d="M33.2476 30.6275H5.59777C5.53221 30.6275 5.46934 30.6009 5.42299 30.5537C5.37663 30.5064 5.35059 30.4423 5.35059 30.3754V4.22474C5.35059 4.15788 5.37663 4.09376 5.42299 4.04649C5.46934 3.99921 5.53221 3.97266 5.59777 3.97266H33.2476C33.3131 3.97266 33.376 3.99921 33.4224 4.04649C33.4687 4.09376 33.4947 4.15788 33.4947 4.22474V30.3754C33.4947 30.4423 33.4687 30.5064 33.4224 30.5537C33.376 30.6009 33.3131 30.6275 33.2476 30.6275ZM5.84495 30.1233H33.0004V4.47681H5.84495V30.1233Z" fill="#D1D3D4"></path><path d="M33.2476 7.06275H5.59777C5.53221 7.06275 5.46934 7.03619 5.42299 6.98892C5.37663 6.94165 5.35059 6.87753 5.35059 6.81067C5.35059 6.74382 5.37663 6.6797 5.42299 6.63243C5.46934 6.58515 5.53221 6.55859 5.59777 6.55859H33.2476C33.3127 6.55988 33.3749 6.58686 33.421 6.63385C33.467 6.68085 33.4935 6.74422 33.4947 6.81067C33.4947 6.87753 33.4687 6.94165 33.4224 6.98892C33.376 7.03619 33.3131 7.06275 33.2476 7.06275Z" fill="#D1D3D4"></path><path d="M11.3771 9.1565H8.0006C7.93504 9.1565 7.87216 9.12994 7.8258 9.08267C7.77945 9.0354 7.75342 8.97128 7.75342 8.90442C7.75342 8.83757 7.77945 8.77345 7.8258 8.72618C7.87216 8.6789 7.93504 8.65234 8.0006 8.65234H11.3771C11.4427 8.65234 11.5055 8.6789 11.5519 8.72618C11.5982 8.77345 11.6243 8.83757 11.6243 8.90442C11.6243 8.97128 11.5982 9.0354 11.5519 9.08267C11.5055 9.12994 11.4427 9.1565 11.3771 9.1565Z" fill="#D1D3D4"></path><path d="M19.9146 9.1565H13.1764C13.1108 9.1565 13.0479 9.12994 13.0016 9.08267C12.9552 9.0354 12.9292 8.97128 12.9292 8.90442C12.9292 8.83757 12.9552 8.77345 13.0016 8.72618C13.0479 8.6789 13.1108 8.65234 13.1764 8.65234H19.9146C19.9801 8.65234 20.043 8.6789 20.0893 8.72618C20.1357 8.77345 20.1617 8.83757 20.1617 8.90442C20.1617 8.97128 20.1357 9.0354 20.0893 9.08267C20.043 9.12994 19.9801 9.1565 19.9146 9.1565Z" fill="#D1D3D4"></path><path d="M21.9414 11.4866H15.2032C15.1377 11.4866 15.0748 11.46 15.0285 11.4127C14.9821 11.3655 14.9561 11.3014 14.9561 11.2345C14.9561 11.1676 14.9821 11.1035 15.0285 11.0563C15.0748 11.009 15.1377 10.9824 15.2032 10.9824H21.9414C22.007 10.9824 22.0698 11.009 22.1162 11.0563C22.1626 11.1035 22.1886 11.1676 22.1886 11.2345C22.1886 11.3014 22.1626 11.3655 22.1162 11.4127C22.0698 11.46 22.007 11.4866 21.9414 11.4866Z" fill="#D1D3D4"></path><path d="M12.1877 11.4866H8.81115C8.74599 11.4853 8.68385 11.4583 8.63777 11.4113C8.59169 11.3643 8.56523 11.301 8.56396 11.2345C8.56396 11.1676 8.59001 11.1035 8.63637 11.0563C8.68272 11.009 8.74559 10.9824 8.81115 10.9824H12.1877C12.2532 10.9824 12.3161 11.009 12.3624 11.0563C12.4088 11.1035 12.4348 11.1676 12.4348 11.2345C12.4348 11.3014 12.4088 11.3655 12.3624 11.4127C12.3161 11.46 12.2532 11.4866 12.1877 11.4866Z" fill="#D1D3D4"></path><path d="M12.3166 13.8069H9.60753C9.54198 13.8069 9.47909 13.7803 9.43274 13.7331C9.38638 13.6858 9.36035 13.6217 9.36035 13.5548C9.36035 13.488 9.38638 13.4238 9.43274 13.3766C9.47909 13.3293 9.54198 13.3027 9.60753 13.3027H12.3166C12.3822 13.3027 12.4451 13.3293 12.4914 13.3766C12.5378 13.4238 12.5638 13.488 12.5638 13.5548C12.5638 13.6217 12.5378 13.6858 12.4914 13.7331C12.4451 13.7803 12.3822 13.8069 12.3166 13.8069Z" fill="#D1D3D4"></path><path d="M23.1478 13.8069H14.714C14.6484 13.8069 14.5856 13.7803 14.5392 13.7331C14.4928 13.6858 14.4668 13.6217 14.4668 13.5548C14.4668 13.488 14.4928 13.4238 14.5392 13.3766C14.5856 13.3293 14.6484 13.3027 14.714 13.3027H23.1478C23.2134 13.3027 23.2763 13.3293 23.3226 13.3766C23.369 13.4238 23.395 13.488 23.395 13.5548C23.395 13.6217 23.369 13.6858 23.3226 13.7331C23.2763 13.7803 23.2134 13.8069 23.1478 13.8069Z" fill="#D1D3D4"></path><path d="M13.7742 16.137H10.3878C10.3223 16.137 10.2594 16.1104 10.213 16.0631C10.1667 16.0159 10.1406 15.9517 10.1406 15.8849C10.1406 15.818 10.1667 15.7539 10.213 15.7066C10.2594 15.6594 10.3223 15.6328 10.3878 15.6328H13.7643C13.8299 15.6328 13.8927 15.6594 13.9391 15.7066C13.9855 15.7539 14.0115 15.818 14.0115 15.8849C14.0115 15.95 13.9869 16.0127 13.9426 16.0597C13.8984 16.1067 13.838 16.1344 13.7742 16.137Z" fill="#D1D3D4"></path><path d="M24.8931 16.137H14.8624C14.7973 16.1357 14.7351 16.1087 14.689 16.0617C14.643 16.0147 14.6165 15.9513 14.6152 15.8849C14.6152 15.818 14.6413 15.7539 14.6876 15.7066C14.734 15.6594 14.7969 15.6328 14.8624 15.6328H24.8931C24.9586 15.6328 25.0215 15.6594 25.0679 15.7066C25.1142 15.7539 25.1403 15.818 25.1403 15.8849C25.1403 15.918 25.1339 15.9508 25.1214 15.9814C25.109 16.0119 25.0908 16.0397 25.0679 16.0631C25.0449 16.0865 25.0177 16.1051 24.9877 16.1178C24.9577 16.1304 24.9255 16.137 24.8931 16.137Z" fill="#D1D3D4"></path><path d="M12.86 18.467H9.48351C9.41795 18.467 9.35507 18.4405 9.30871 18.3932C9.26236 18.3459 9.23633 18.2818 9.23633 18.215C9.23633 18.1481 9.26236 18.084 9.30871 18.0367C9.35507 17.9894 9.41795 17.9629 9.48351 17.9629H12.86C12.9256 17.9629 12.9884 17.9894 13.0348 18.0367C13.0811 18.084 13.1072 18.1481 13.1072 18.215C13.1072 18.2818 13.0811 18.3459 13.0348 18.3932C12.9884 18.4405 12.9256 18.467 12.86 18.467Z" fill="#D1D3D4"></path><path d="M19.6129 18.467H14.1749C14.1094 18.467 14.0465 18.4405 14.0001 18.3932C13.9538 18.3459 13.9277 18.2818 13.9277 18.215C13.9277 18.1481 13.9538 18.084 14.0001 18.0367C14.0465 17.9894 14.1094 17.9629 14.1749 17.9629H19.6129C19.6785 17.9629 19.7413 17.9894 19.7877 18.0367C19.8341 18.084 19.8601 18.1481 19.8601 18.215C19.8588 18.2814 19.8324 18.3448 19.7863 18.3918C19.7402 18.4388 19.6781 18.4658 19.6129 18.467Z" fill="#D1D3D4"></path><path d="M27.1276 18.467H21.6896C21.624 18.467 21.5611 18.4405 21.5148 18.3932C21.4684 18.3459 21.4424 18.2818 21.4424 18.215C21.4424 18.1481 21.4684 18.084 21.5148 18.0367C21.5611 17.9894 21.624 17.9629 21.6896 17.9629H27.1276C27.1931 17.9629 27.256 17.9894 27.3024 18.0367C27.3487 18.084 27.3748 18.1481 27.3748 18.215C27.3748 18.2818 27.3487 18.3459 27.3024 18.3932C27.256 18.4405 27.1931 18.467 27.1276 18.467Z" fill="#D1D3D4"></path><path d="M10.6648 20.7913H9.50304C9.43748 20.7913 9.37462 20.7647 9.32826 20.7174C9.28191 20.6702 9.25586 20.606 9.25586 20.5392C9.25586 20.4723 9.28191 20.4082 9.32826 20.3609C9.37462 20.3137 9.43748 20.2871 9.50304 20.2871H10.6648C10.7304 20.2871 10.7932 20.3137 10.8396 20.3609C10.8859 20.4082 10.912 20.4723 10.912 20.5392C10.912 20.606 10.8859 20.6702 10.8396 20.7174C10.7932 20.7647 10.7304 20.7913 10.6648 20.7913Z" fill="#D1D3D4"></path><path d="M19.6132 20.7913H12.6476C12.582 20.7913 12.5191 20.7647 12.4728 20.7174C12.4264 20.6702 12.4004 20.606 12.4004 20.5392C12.4017 20.4727 12.4281 20.4094 12.4742 20.3624C12.5203 20.3154 12.5824 20.2884 12.6476 20.2871H19.6132C19.6783 20.2884 19.7405 20.3154 19.7865 20.3624C19.8326 20.4094 19.8591 20.4727 19.8603 20.5392C19.8603 20.606 19.8343 20.6702 19.7879 20.7174C19.7416 20.7647 19.6787 20.7913 19.6132 20.7913Z" fill="#D1D3D4"></path><path d="M22.3565 20.7913H20.4137C20.3481 20.7913 20.2853 20.7647 20.2389 20.7174C20.1925 20.6702 20.1665 20.606 20.1665 20.5392C20.1665 20.4723 20.1925 20.4082 20.2389 20.3609C20.2853 20.3137 20.3481 20.2871 20.4137 20.2871H22.3565C22.4217 20.2884 22.4838 20.3154 22.5299 20.3624C22.576 20.4094 22.6025 20.4727 22.6037 20.5392C22.6037 20.606 22.5777 20.6702 22.5313 20.7174C22.485 20.7647 22.4221 20.7913 22.3565 20.7913Z" fill="#D1D3D4"></path><path d="M11.3272 23.1213H9.50304C9.43748 23.1213 9.37462 23.0948 9.32826 23.0475C9.28191 23.0002 9.25586 22.9361 9.25586 22.8693C9.25586 22.8024 9.28191 22.7383 9.32826 22.691C9.37462 22.6437 9.43748 22.6172 9.50304 22.6172H11.3272C11.3928 22.6172 11.4557 22.6437 11.502 22.691C11.5484 22.7383 11.5744 22.8024 11.5744 22.8693C11.5744 22.9361 11.5484 23.0002 11.502 23.0475C11.4557 23.0948 11.3928 23.1213 11.3272 23.1213Z" fill="#D1D3D4"></path><path d="M21.3186 23.1213H13.0528C12.9873 23.1213 12.9244 23.0948 12.8781 23.0475C12.8317 23.0002 12.8057 22.9361 12.8057 22.8693C12.8057 22.8024 12.8317 22.7383 12.8781 22.691C12.9244 22.6437 12.9873 22.6172 13.0528 22.6172H21.3186C21.3842 22.6172 21.447 22.6437 21.4934 22.691C21.5398 22.7383 21.5658 22.8024 21.5658 22.8693C21.5658 22.9361 21.5398 23.0002 21.4934 23.0475C21.447 23.0948 21.3842 23.1213 21.3186 23.1213Z" fill="#D1D3D4"></path><path d="M25.5104 23.1213H22.1339C22.0683 23.1213 22.0055 23.0948 21.9591 23.0475C21.9127 23.0002 21.8867 22.9361 21.8867 22.8693C21.8867 22.8024 21.9127 22.7383 21.9591 22.691C22.0055 22.6437 22.0683 22.6172 22.1339 22.6172H25.5104C25.576 22.6172 25.6388 22.6437 25.6852 22.691C25.7315 22.7383 25.7576 22.8024 25.7576 22.8693C25.7576 22.9361 25.7315 23.0002 25.6852 23.0475C25.6388 23.0948 25.576 23.1213 25.5104 23.1213Z" fill="#D1D3D4"></path><path d="M10.5017 25.4514H8.70714C8.64198 25.4501 8.57983 25.4232 8.53375 25.3762C8.48767 25.3292 8.46123 25.2658 8.45996 25.1993C8.45996 25.1325 8.48601 25.0684 8.53236 25.0211C8.57872 24.9738 8.64159 24.9473 8.70714 24.9473H10.5017C10.5672 24.9473 10.6301 24.9738 10.6765 25.0211C10.7228 25.0684 10.7489 25.1325 10.7489 25.1993C10.7476 25.2658 10.7211 25.3292 10.6751 25.3762C10.629 25.4232 10.5668 25.4501 10.5017 25.4514Z" fill="#D1D3D4"></path><path d="M20.4138 25.4514H12.588C12.5224 25.4514 12.4596 25.4249 12.4132 25.3776C12.3669 25.3303 12.3408 25.2662 12.3408 25.1993C12.3408 25.1325 12.3669 25.0684 12.4132 25.0211C12.4596 24.9738 12.5224 24.9473 12.588 24.9473H20.4138C20.4793 24.9473 20.5422 24.9738 20.5886 25.0211C20.6349 25.0684 20.661 25.1325 20.661 25.1993C20.6597 25.2658 20.6332 25.3292 20.5872 25.3762C20.5411 25.4232 20.4789 25.4501 20.4138 25.4514Z" fill="#D1D3D4"></path><path d="M12.0836 27.7737H8.70714C8.64159 27.7737 8.57872 27.7471 8.53236 27.6999C8.48601 27.6526 8.45996 27.5885 8.45996 27.5216C8.46123 27.4552 8.48767 27.3918 8.53375 27.3448C8.57983 27.2978 8.64198 27.2708 8.70714 27.2695H12.0836C12.1492 27.2695 12.2121 27.2961 12.2584 27.3434C12.3048 27.3906 12.3308 27.4548 12.3308 27.5216C12.3308 27.5885 12.3048 27.6526 12.2584 27.6999C12.2121 27.7471 12.1492 27.7737 12.0836 27.7737Z" fill="#D1D3D4"></path><path d="M30.8249 16.137H26.2569C26.1914 16.137 26.1285 16.1104 26.0822 16.0631C26.0358 16.0159 26.0098 15.9517 26.0098 15.8849C26.0098 15.818 26.0358 15.7539 26.0822 15.7066C26.1285 15.6594 26.1914 15.6328 26.2569 15.6328H30.8249C30.8904 15.6328 30.9533 15.6594 30.9996 15.7066C31.046 15.7539 31.0721 15.818 31.0721 15.8849C31.0708 15.9513 31.0443 16.0147 30.9983 16.0617C30.9522 16.1087 30.89 16.1357 30.8249 16.137Z" fill="#D1D3D4"></path><path d="M23.9882 9.1668C21.6993 9.1668 21.6548 9.1668 21.6251 9.1668C21.5624 9.1491 21.509 9.10687 21.4766 9.04929C21.4442 8.99171 21.4354 8.92343 21.4521 8.85926C21.4663 8.79909 21.5021 8.74653 21.5524 8.71199C21.6028 8.67745 21.664 8.66343 21.724 8.67272C21.991 8.67272 26.4106 8.67272 29.3323 8.67272C29.3967 8.67635 29.4575 8.70407 29.5031 8.75058C29.5487 8.79709 29.5759 8.85912 29.5794 8.9248C29.5794 8.99166 29.5534 9.05577 29.507 9.10305C29.4607 9.15032 29.3978 9.17688 29.3323 9.17688C26.816 9.1668 25.1252 9.1668 23.9882 9.1668Z" fill="#D1D3D4"></path><path d="M24.7248 25.4514H21.3087C21.2431 25.4514 21.1803 25.4249 21.1339 25.3776C21.0876 25.3303 21.0615 25.2662 21.0615 25.1993C21.0615 25.1325 21.0876 25.0684 21.1339 25.0211C21.1803 24.9738 21.2431 24.9473 21.3087 24.9473H24.7248C24.7903 24.9473 24.8532 24.9738 24.8995 25.0211C24.9459 25.0684 24.9719 25.1325 24.9719 25.1993C24.9719 25.2662 24.9459 25.3303 24.8995 25.3776C24.8532 25.4249 24.7903 25.4514 24.7248 25.4514Z" fill="#D1D3D4"></path><path d="M16.8939 27.7737H14.3776C14.312 27.7737 14.2491 27.7471 14.2028 27.6999C14.1564 27.6526 14.1304 27.5885 14.1304 27.5216C14.1316 27.4552 14.1581 27.3918 14.2042 27.3448C14.2502 27.2978 14.3124 27.2708 14.3776 27.2695H16.8939C16.959 27.2708 17.0212 27.2978 17.0672 27.3448C17.1133 27.3918 17.1398 27.4552 17.141 27.5216C17.141 27.5885 17.115 27.6526 17.0686 27.6999C17.0223 27.7471 16.9594 27.7737 16.8939 27.7737Z" fill="#D1D3D4"></path><path d="M23.8202 27.7737H17.8483C17.7827 27.7737 17.7198 27.7471 17.6735 27.6999C17.6271 27.6526 17.6011 27.5885 17.6011 27.5216C17.6011 27.4548 17.6271 27.3906 17.6735 27.3434C17.7198 27.2961 17.7827 27.2695 17.8483 27.2695H23.8202C23.8857 27.2695 23.9486 27.2961 23.995 27.3434C24.0413 27.3906 24.0674 27.4548 24.0674 27.5216C24.0674 27.5885 24.0413 27.6526 23.995 27.6999C23.9486 27.7471 23.8857 27.7737 23.8202 27.7737Z" fill="#D1D3D4"></path></svg>