<svg xmlns="http://www.w3.org/2000/svg" width="84" height="73" viewBox="0 0 84 73" fill="none"><g opacity="0.3"><path d="M82.6466 36.2985L41.8236 36.2985L21.4121 1L62.2351 1L82.6466 36.2985Z" stroke="white" stroke-miterlimit="10" stroke-linejoin="round"></path><path d="M82.6461 36.2988L41.8231 36.2988L21.4116 71.6555H62.2346L82.6461 36.2988Z" stroke="white" stroke-miterlimit="10" stroke-linejoin="round"></path><path d="M29.7273 15.4238L53.8605 15.4238L65.9562 36.3005L53.8605 57.2354L29.7273 57.2354L17.6316 36.3005L29.7273 15.4238Z" fill="#FFD75E"></path><path d="M21.4117 1L62.2347 1L82.6462 36.2985L62.2347 71.6552L21.4117 71.6552L1.00024 36.2985L21.4117 1Z" stroke="white" stroke-miterlimit="10" stroke-linejoin="round"></path><path d="M62.2343 1L41.8228 36.2985L62.2343 71.6552L82.6458 36.2985L62.2343 1Z" stroke="white" stroke-miterlimit="10" stroke-linejoin="round"></path><path d="M41.823 36.2988L1 36.2988L21.4115 71.6555L62.2345 71.6555L41.823 36.2988Z" stroke="white" stroke-miterlimit="10" stroke-linecap="round" stroke-linejoin="round"></path></g></svg>