<svg xmlns="http://www.w3.org/2000/svg" width="70" height="51" viewBox="0 0 70 51" fill="none"><g opacity="0.3"><path d="M70.0001 10.7098C66.0134 13.9596 62.2079 13.5019 59.3991 13.1815C56.9074 12.9069 55.7296 12.8153 54.144 14.0969C52.5583 15.3786 52.3771 16.5686 52.1053 19.0861C51.7882 21.8782 51.3805 25.7231 47.3938 28.9729C43.4071 32.2227 39.6017 31.765 36.7929 31.4446C34.3012 31.1699 33.1233 31.0784 31.5377 32.36C29.9521 33.6416 29.7709 34.8317 29.499 37.3492C29.1819 40.1413 28.7742 43.9862 24.7875 47.236C20.8009 50.4858 16.9954 50.0281 14.1866 49.7077C11.6949 49.4331 10.517 49.3415 8.93144 50.6231L4.40112 44.9016C8.3878 41.6518 12.1932 42.1095 15.002 42.4299C17.4937 42.7045 18.6716 42.7961 20.2572 41.5145C21.8428 40.2328 22.024 39.0428 22.2959 36.5253C22.613 33.7332 23.0207 29.8883 27.0074 26.6385C30.994 23.3887 34.7995 23.8464 37.6083 24.1668C40.1 24.4414 41.2779 24.533 42.8635 23.2514C44.4491 21.9697 44.6303 20.7797 44.9021 18.2622C45.2192 15.4701 45.627 11.6252 49.6136 8.37542C53.6003 5.12559 57.4058 5.58332 60.2146 5.90372C62.7063 6.17836 63.8841 6.2699 65.4697 4.98828L70.0001 10.7098Z" fill="white"></path><path d="M67.5989 7.69027C63.6123 10.9401 59.8068 10.4824 56.998 10.162C54.5063 9.88733 53.3284 9.79579 51.7428 11.0774C50.1572 12.359 49.976 13.5491 49.7042 16.0666C49.3871 18.8587 48.9793 22.7035 44.9927 25.9534C41.006 29.2032 37.2005 28.7455 34.3917 28.4251C31.9001 28.1504 30.7222 28.0589 29.1366 29.3405C27.551 30.6221 27.3697 31.8122 27.0979 34.3297C26.7808 37.1218 26.3731 40.9666 22.3864 44.2164C18.3997 47.4663 14.5943 47.0085 11.7855 46.6881C9.29379 46.4135 8.11592 46.322 6.53031 47.6036L2 41.8821C5.98668 38.6322 9.79212 39.09 12.6009 39.4104C15.0926 39.685 16.2705 39.7765 17.8561 38.4949C19.4417 37.2133 19.6229 36.0232 19.8947 33.5058C20.2119 30.7137 20.6196 26.8688 24.6062 23.619C28.5929 20.3692 32.3984 20.8269 35.2072 21.1473C37.6989 21.4219 38.8767 21.5135 40.4623 20.2318C42.048 18.9502 42.2292 17.7601 42.501 15.2427C42.8181 12.4506 43.2258 8.60571 47.2125 5.35589C51.1992 2.10606 55.0046 2.56379 57.8134 2.88419C60.3051 3.15883 61.483 3.25037 63.0686 1.96875L67.5989 7.69027Z" stroke="#FFD75E" stroke-width="2" stroke-miterlimit="10"></path></g></svg>