<svg xmlns="http://www.w3.org/2000/svg" width="160" height="102" viewBox="0 0 160 102" fill="none"><path d="M65.1738 32.7946C65.3317 29.977 65.9351 27.2094 66.9578 24.6117C67.1077 24.2231 67.4575 23.7589 67.8023 23.9586C67.6025 25.1569 67.4009 26.3516 67.1977 27.5427C69.2483 26.0756 71.0277 24.2085 72.4447 22.0371C72.5647 21.813 72.737 21.6269 72.9444 21.4973C73.0489 21.434 73.172 21.4171 73.2878 21.4504C73.4035 21.4837 73.5026 21.5644 73.5641 21.6754C73.5889 21.7795 73.5919 21.8883 73.5729 21.9938C73.5538 22.0993 73.5133 22.1989 73.4542 22.2854C72.8493 23.4567 72.1467 24.566 71.3553 25.5995C72.3548 23.9802 73.4492 22.2962 75.0383 21.3516C74.8726 23.2273 74.2195 25.0142 73.1543 26.5063L75.6979 23.4512C75.9278 23.1706 76.3125 22.8737 76.5824 23.1058C76.8522 23.3379 76.6723 23.7967 76.4874 24.099L74.7184 26.9489C75.6179 26.0961 76.5524 25.29 77.5219 24.5308C77.352 26.2688 76.1226 27.6614 74.8134 28.6816C73.5041 29.7017 72.03 30.5222 70.9556 31.823C70.3112 32.6758 69.7611 33.6069 69.3165 34.5974" fill="white"></path><path d="M69.311 34.8451C69.2747 34.8525 69.2374 34.8525 69.2011 34.8451C69.1484 34.8132 69.1095 34.7603 69.0926 34.6977C69.0758 34.6351 69.0825 34.5678 69.1112 34.5104C69.5607 33.5006 70.1211 32.5527 70.7802 31.6875C71.5887 30.7868 72.5046 30.0063 73.5037 29.3665C73.8985 29.0858 74.2932 28.8267 74.673 28.5083C76.0422 27.4287 76.8868 26.306 77.1716 25.1293C76.3771 25.7771 75.5975 26.4572 74.8529 27.1588C74.8138 27.2075 74.7584 27.2374 74.6989 27.242C74.6394 27.2465 74.5807 27.2254 74.5356 27.1831C74.4905 27.1409 74.4628 27.0811 74.4586 27.0168C74.4544 26.9525 74.474 26.8891 74.5131 26.8404L76.2821 23.9904C76.432 23.7421 76.542 23.4507 76.422 23.3265C76.3021 23.2024 76.0472 23.4075 75.8524 23.6396L73.3088 26.7001C73.2653 26.7437 73.2082 26.7679 73.1489 26.7679C73.0895 26.7679 73.0324 26.7437 72.989 26.7001C72.9428 26.6598 72.9132 26.6015 72.9066 26.5378C72.9001 26.4741 72.9171 26.4102 72.954 26.36C73.8951 25.0387 74.5091 23.4801 74.738 21.8314C74.0906 22.3164 73.5116 22.9 73.019 23.564C72.5602 24.3262 72.0595 25.0579 71.5198 25.7555C71.4818 25.8039 71.4284 25.8352 71.3702 25.8432C71.3119 25.8512 71.2529 25.8353 71.205 25.7986C71.1589 25.7601 71.1282 25.7041 71.1189 25.642C71.1096 25.5798 71.1225 25.5162 71.155 25.464C71.6192 24.7042 72.1195 23.9709 72.6542 23.2671C72.869 22.9055 73.0689 22.5385 73.2638 22.1876C73.3288 22.0527 73.4037 21.8908 73.3638 21.7936C73.3564 21.777 73.3459 21.7622 73.333 21.7501C73.3201 21.7381 73.3051 21.729 73.2888 21.7234C73.2133 21.6912 73.1294 21.6912 73.0539 21.7234C72.8869 21.8368 72.748 21.9924 72.6492 22.1768C71.214 24.3752 69.4127 26.266 67.3372 27.7526C67.2992 27.7791 67.2549 27.7932 67.2097 27.7932C67.1645 27.7932 67.1203 27.7791 67.0823 27.7526C67.0451 27.7264 67.0161 27.6887 66.9992 27.6443C66.9823 27.6 66.9781 27.5512 66.9874 27.5043C67.1722 26.4248 67.3621 25.3021 67.542 24.2009C67.3742 24.3372 67.2487 24.5255 67.1822 24.7407C66.1696 27.3106 65.5729 30.0492 65.4182 32.8372C65.4143 32.903 65.3862 32.9645 65.3403 33.008C65.2944 33.0515 65.2343 33.0736 65.1734 33.0693C65.1124 33.065 65.0555 33.0347 65.0152 32.9851C64.9749 32.9355 64.9545 32.8706 64.9585 32.8048C65.1161 29.9587 65.7263 27.1633 66.7625 24.541C66.8818 24.1852 67.1259 23.8944 67.4421 23.7313C67.5226 23.6965 67.6094 23.6818 67.696 23.6883C67.7825 23.6949 67.8666 23.7225 67.9418 23.7691C67.9845 23.7928 68.0189 23.831 68.0397 23.8778C68.0604 23.9246 68.0664 23.9774 68.0568 24.0282C67.8918 25.0322 67.7219 26.0307 67.557 27.0347C69.3953 25.6384 70.9977 23.9112 72.2944 21.9285C72.4366 21.6661 72.6398 21.4484 72.884 21.297C73.073 21.2136 73.2847 21.2136 73.4737 21.297C73.5474 21.3257 73.6151 21.3701 73.6726 21.4276C73.7301 21.4851 73.7763 21.5545 73.8085 21.6317C73.859 21.7575 73.8713 21.8973 73.8435 22.0311C74.1882 21.7088 74.5634 21.4265 74.9629 21.1891C74.998 21.1651 75.0387 21.1523 75.0803 21.1523C75.1219 21.1523 75.1626 21.1651 75.1977 21.1891C75.2325 21.2132 75.2605 21.247 75.279 21.2869C75.2975 21.3267 75.3056 21.3713 75.3027 21.4158C75.2052 22.4963 74.9488 23.5531 74.5431 24.5464L75.5425 23.3265C75.9623 22.8191 76.422 22.6788 76.7419 22.9595C77.0617 23.2402 77.0317 23.726 76.6919 24.2819L75.8174 25.6853C76.3171 25.2319 76.8668 24.7947 77.4015 24.3737C77.4381 24.3487 77.4806 24.3355 77.5239 24.3355C77.5672 24.3355 77.6097 24.3487 77.6463 24.3737C77.685 24.3967 77.7164 24.4315 77.7369 24.4737C77.7573 24.516 77.7658 24.5638 77.7613 24.6112C77.6114 26.1441 76.6719 27.6015 74.9579 28.9293C74.5731 29.2315 74.1733 29.5122 73.7735 29.7983C72.8076 30.4156 71.922 31.1688 71.14 32.0383C70.5084 32.8673 69.9684 33.7731 69.5309 34.7371C69.5072 34.7754 69.474 34.8058 69.4352 34.8248C69.3963 34.8439 69.3534 34.8509 69.311 34.8451Z" fill="#231F20"></path><path d="M2.26912 36.9187C4.26799 34.5168 7.43621 32.9299 10.0897 32.2605C16.611 30.6035 23.842 29.9935 30.2933 32.4225C40.3626 36.2008 38.2538 49.7273 39.1583 59.0437C39.6231 63.826 39.693 69.0563 41.3321 73.5525C43.1461 78.5238 42.1766 82.9228 38.0739 86.5069C34.9907 89.2057 30.883 90.2097 26.9202 90.1341C22.5277 90.0477 15.4967 91.9477 11.7738 89.1085C6.46675 85.0603 5.48731 76.1056 4.05311 69.8066C2.17575 61.5446 0.928941 53.1303 0.325216 44.6481C0.137337 43.1485 0.20679 41.6243 0.5301 40.1519C0.874272 38.9452 1.46907 37.8393 2.26912 36.9187Z" fill="#231F20"></path><path d="M17.9703 90.9213C15.5716 90.9213 13.2979 90.5705 11.6438 89.3021C7.1014 85.8368 5.71718 79.0141 4.49787 72.9904C4.27799 71.9108 4.06311 70.8313 3.84324 69.8651C1.9609 61.5892 0.710743 53.1604 0.105347 44.6635C-0.0868097 43.1351 -0.0156538 41.5814 0.315228 40.0809C0.674909 38.841 1.28607 37.7032 2.10422 36.7506C3.9082 34.5915 6.87653 32.8211 10.0397 32.0223C17.9153 30.0251 24.7564 30.0791 30.3683 32.1896C38.5537 35.2716 38.8285 44.6959 39.0734 53.0083C39.1383 55.135 39.1983 57.1483 39.3782 59.0159C39.4731 60.0144 39.5531 61.04 39.638 62.0709C39.9379 65.9357 40.2527 69.9353 41.537 73.46C43.4309 78.6525 42.3115 83.1056 38.2089 86.6896C35.4004 89.1509 31.3927 90.468 26.9152 90.3708C25.6859 90.3438 24.2467 90.4787 22.7276 90.6191C21.2084 90.7594 19.5494 90.9213 17.9703 90.9213ZM20.7687 31.0453C17.186 31.084 13.6193 31.5694 10.1397 32.4919C7.05643 33.2691 4.17805 34.991 2.42904 37.0745C1.65347 37.9723 1.07603 39.0482 0.739989 40.2213C0.426582 41.666 0.358851 43.1603 0.540101 44.6312C1.14992 53.1018 2.39666 61.5049 4.268 69.7572C4.49287 70.745 4.70775 71.7921 4.93262 72.8986C6.13195 78.836 7.49618 85.5615 11.8987 88.9188C14.5072 90.9052 18.8548 90.5057 22.6876 90.1495C24.2217 90.0092 25.6859 89.8742 26.9202 89.9012C31.3077 89.993 35.2055 88.7137 37.914 86.328C41.8468 82.8843 42.9112 78.6147 41.1072 73.6381C39.803 70.0487 39.4831 66.0166 39.1783 62.1141C39.0984 61.0886 39.0184 60.0684 38.9185 59.0699C38.7336 57.1861 38.6786 55.1674 38.6136 53.0299C38.3738 44.8687 38.1139 35.6171 30.2034 32.6484C27.1639 31.5467 23.9745 31.0048 20.7687 31.0453Z" fill="#231F20"></path><path d="M21.8829 24.769L23.3021 18.6264C24.8363 11.9819 26.9501 5.13233 33.6813 3.05963C35.6801 2.4497 37.679 2.69259 39.0233 4.64114C40.3825 3.40508 42.5213 4.06899 43.9205 5.24028C45.8694 6.85957 47.1537 9.25073 48.0032 11.7175C49.5023 16.1003 49.7672 20.8395 51.5012 25.2116C42.9161 32.0558 30.653 33.022 21.2383 27.5973L21.8829 24.769Z" fill="white"></path><path d="M34.5059 31.4076C29.8402 31.4281 25.2413 30.2103 21.1135 27.8613C21.0684 27.8362 21.0324 27.7953 21.0116 27.7453C20.9907 27.6954 20.9861 27.6392 20.9985 27.5861L21.6632 24.7361L23.0824 18.5936C24.5815 12.0786 26.7653 4.94834 33.6164 2.85405C35.9101 2.14696 37.834 2.67053 39.0633 4.32221C40.5325 3.2103 42.6563 3.90659 44.0605 5.07248C45.8145 6.52445 47.2137 8.74828 48.2182 11.6792C48.8704 13.7237 49.393 15.8139 49.7823 17.9351C50.216 20.4014 50.8549 22.8203 51.6912 25.1625C51.7106 25.214 51.7137 25.271 51.7002 25.3246C51.6866 25.3783 51.6571 25.4256 51.6163 25.4594C46.6426 29.355 40.6495 31.4384 34.5059 31.4076ZM21.4833 27.5159C26.1612 30.0996 31.4057 31.2474 36.6457 30.8343C41.8858 30.4213 46.9204 28.4632 51.2015 25.1733C50.39 22.8594 49.7663 20.4737 49.3375 18.043C48.9509 15.9334 48.4334 13.8542 47.7884 11.8195C46.819 8.98038 45.4697 6.83211 43.7907 5.43412C42.4664 4.3546 40.4526 3.6745 39.1783 4.82959C39.1544 4.85155 39.1264 4.86772 39.0962 4.87703C39.0661 4.88634 39.0344 4.88857 39.0034 4.88357C38.9727 4.88002 38.943 4.86954 38.9163 4.8528C38.8897 4.83606 38.8665 4.81344 38.8485 4.78641C37.4343 2.70292 35.3005 2.82706 33.7513 3.29666C27.1201 5.30458 25.0462 12.0139 23.5471 18.6853L21.4833 27.5159Z" fill="#231F20"></path><path d="M48.5334 32.5363C50.2674 34.2851 54.1402 40.8757 57.6682 47.7846L64.9791 31.2139L70.9158 33.1246C70.9158 33.1246 65.5438 63.7239 60.2468 64.9707C54.9498 66.2176 47.7288 52.5562 47.7288 52.5562L39.6284 28.5312C39.6284 28.5312 45.9449 29.9184 48.5334 32.5363Z" fill="#007456"></path><path d="M39.0382 31.4353C39.0382 31.4353 47.0337 36.2932 48.6078 44.6973C50.1819 53.1014 47.1086 78.7996 47.1086 78.7996L27.2698 77.909C27.2698 77.909 30.503 47.2828 28.5641 40.6167C26.6252 33.9506 26.6852 32.0992 28.5641 31.4407C30.443 30.7822 35.5402 27.2683 39.0382 31.4353Z" fill="white"></path><path d="M47.1135 79.0479L27.2647 78.1735C27.2021 78.1708 27.1429 78.1418 27.0998 78.0926C27.0798 78.0666 27.065 78.0363 27.0563 78.0038C27.0477 77.9713 27.0455 77.9371 27.0498 77.9036C27.0798 77.596 30.253 47.2504 28.3541 40.7139C26.3952 33.9938 26.4252 31.9535 28.499 31.2248C28.7939 31.1222 29.1836 30.9387 29.6334 30.7282C31.9121 29.6487 36.1297 27.6839 39.173 31.268C39.7427 31.6242 47.3184 36.5415 48.8226 44.6703C50.3667 53.0043 47.3684 78.5945 47.3234 78.8536C47.3134 78.9066 47.2874 78.9545 47.2494 78.9897C47.2113 79.0249 47.1635 79.0454 47.1135 79.0479ZM27.5446 77.6715L46.9286 78.546C47.2234 75.9929 49.842 52.5833 48.3928 44.7459C46.8936 36.5577 39.0081 31.6998 38.9331 31.6512C38.9093 31.6415 38.8885 31.6246 38.8732 31.6026C36.0647 28.2453 32.1619 30.0697 29.8283 31.16C29.3685 31.3759 28.9737 31.5595 28.6539 31.6728C27.0998 32.2126 26.775 33.5728 28.8038 40.5465C30.6478 46.9265 27.8594 74.4707 27.5446 77.6715Z" fill="#231F20"></path><path d="M43.9659 83.2525C43.4362 69.6396 42.2219 58.6176 41.967 54.7637C41.6822 50.5428 40.6777 38.2901 39.5983 32.9302C38.1991 29.5945 38.8038 28.6121 38.8038 28.6121C38.8038 28.6121 46.6993 27.4138 49.048 40.1415C49.7426 43.8928 51.5066 65.7587 53.2057 82.7451L43.9659 83.2525Z" fill="#007456"></path><path d="M39.6181 26.3557L39.6531 32.9085C39.6531 32.9085 39.0384 36.6113 35.3505 35.4778C34.2619 35.1354 33.2574 34.536 32.4095 33.723C31.5617 32.9099 30.8918 31.9034 30.4482 30.7764L30.868 19.4414C31.3532 17.4583 31.5588 15.4075 31.4777 13.3582C35.9751 13.2773 39.4732 9.62305 39.4732 9.62305C39.4732 9.62305 41.0123 12.1276 41.6819 12.9156C42.2188 13.5096 42.6854 14.1731 43.0711 14.8911C43.6908 16.1542 43.6658 17.7249 43.6358 19.1229C43.6221 20.7788 43.4699 22.43 43.1811 24.0563C42.6014 27.1384 39.6181 26.3557 39.6181 26.3557Z" fill="white"></path><path d="M36.6596 35.9357C36.1961 35.9289 35.7355 35.8545 35.2904 35.7144C34.164 35.3665 33.1245 34.7492 32.2491 33.9082C31.3736 33.0673 30.6847 32.0243 30.2333 30.8565C30.2263 30.8264 30.2263 30.7949 30.2333 30.7647C30.2333 30.7647 30.648 19.4891 30.648 19.4297C30.6675 19.2462 30.7043 19.0653 30.758 18.8899C31.1737 17.0912 31.3421 15.2361 31.2577 13.3843C31.2565 13.3514 31.2616 13.3186 31.2728 13.2879C31.284 13.2572 31.301 13.2294 31.3226 13.2062C31.3429 13.1822 31.3676 13.1631 31.3952 13.1501C31.4227 13.1371 31.4525 13.1305 31.4826 13.1306C35.8201 13.0551 39.3031 9.50342 39.3381 9.46564C39.3629 9.44156 39.392 9.42344 39.4238 9.41247C39.4555 9.40151 39.489 9.39795 39.522 9.40203C39.5551 9.40611 39.587 9.41775 39.6156 9.43616C39.6442 9.45457 39.6689 9.47934 39.6879 9.50882C39.6879 9.53581 41.2271 12.0025 41.8767 12.7474C42.4262 13.3574 42.9029 14.0392 43.2959 14.7769C43.9505 16.1047 43.9205 17.778 43.8906 19.1274C43.8792 20.798 43.7253 22.464 43.4308 24.1041C43.3682 24.527 43.2259 24.9316 43.0128 25.2927C42.7996 25.6539 42.5201 25.9639 42.1915 26.2037C41.4845 26.6389 40.6625 26.8043 39.8578 26.6733L39.8928 32.9346C39.7147 33.9487 39.1767 34.8475 38.3937 35.4391C37.8728 35.7836 37.2701 35.9562 36.6596 35.9357ZM30.663 30.7378C31.1023 31.8149 31.7536 32.7757 32.5718 33.5532C33.39 34.3307 34.3552 34.9061 35.4004 35.2394C35.8398 35.4115 36.308 35.4808 36.7741 35.4427C37.2402 35.4045 37.6934 35.2598 38.1038 35.0181C38.7799 34.5058 39.2484 33.7331 39.4131 32.859L39.3881 26.3549C39.3879 26.3177 39.3954 26.2809 39.4101 26.2473C39.4248 26.2136 39.4463 26.184 39.4731 26.1606C39.5005 26.1381 39.5321 26.1222 39.5657 26.1138C39.5993 26.1054 39.6341 26.1048 39.6679 26.112C40.4388 26.2893 41.2429 26.165 41.9367 25.7611C42.2134 25.556 42.4481 25.2915 42.6261 24.9842C42.8041 24.6768 42.9215 24.3331 42.9711 23.9745C43.2603 22.3737 43.4125 20.7476 43.4258 19.1166C43.4258 17.7618 43.4858 16.2235 42.8811 15.0036C42.5089 14.3035 42.0574 13.6562 41.5369 13.0767C40.9822 12.4182 39.8578 10.6423 39.4531 9.99461C38.6535 10.7557 35.5802 13.4221 31.7174 13.5894C31.7915 15.4052 31.6232 17.2231 31.2177 18.9871C31.1745 19.1366 31.1444 19.2902 31.1278 19.4459C31.1278 19.4459 31.0878 19.624 30.678 30.7378H30.663Z" fill="#231F20"></path><path d="M39.5828 29.595C39.5828 29.595 37.1192 29.7137 35.5401 27.9433C33.961 26.1729 34.1909 24.3809 34.1909 24.3809C34.1909 24.3809 36.8544 26.3132 39.6178 26.378L39.5828 29.595Z" fill="#231F20"></path><path d="M39.4735 29.8382C38.9438 29.8382 36.83 29.7302 35.3808 28.1055C33.7417 26.2703 33.9616 24.4297 33.9716 24.3272C33.977 24.2872 33.9918 24.2493 34.0145 24.2172C34.0372 24.1851 34.0672 24.1598 34.1015 24.1437C34.1334 24.1238 34.1696 24.1133 34.2065 24.1133C34.2433 24.1133 34.2795 24.1238 34.3114 24.1437C34.3114 24.1437 36.9549 26.0328 39.6234 26.0976C39.6809 26.099 39.7355 26.1247 39.7757 26.169C39.8158 26.2134 39.8383 26.273 39.8383 26.3351L39.8033 29.5737C39.8021 29.6339 39.7797 29.6914 39.7408 29.7345C39.7018 29.7776 39.6491 29.8031 39.5934 29.8058L39.4735 29.8382ZM34.4014 24.8076C34.4882 25.933 34.9477 26.987 35.6956 27.7763C36.9299 29.1581 38.7539 29.3362 39.3636 29.3578L39.3935 26.605C37.6254 26.4196 35.9188 25.8052 34.4014 24.8076Z" fill="#231F20"></path><path d="M37.4694 16.9629C37.4694 16.9629 39.4233 20.1097 38.9686 20.6603C38.5139 21.2108 37.2046 20.8438 37.2046 20.8438" fill="white"></path><path d="M38.0388 21.2012C37.7289 21.1976 37.4205 21.156 37.1193 21.0771C37.0628 21.0606 37.0144 21.0209 36.9845 20.9664C36.9547 20.912 36.9457 20.8471 36.9594 20.7856C36.9664 20.755 36.979 20.7262 36.9964 20.7009C37.0138 20.6755 37.0357 20.6542 37.0608 20.6381C37.0859 20.6221 37.1138 20.6115 37.1427 20.6072C37.1716 20.6029 37.201 20.6048 37.2293 20.6129C37.5341 20.6939 38.4686 20.8558 38.7734 20.4995C38.9383 20.2459 38.2337 18.6589 37.2742 17.099C37.2494 17.0462 37.2433 16.9855 37.257 16.9281C37.2707 16.8708 37.3034 16.8209 37.3488 16.7877C37.3942 16.7546 37.4493 16.7405 37.5037 16.7481C37.558 16.7557 37.6079 16.7846 37.644 16.8291C38.2587 17.8277 39.6429 20.2027 39.1082 20.8234C38.9632 20.9618 38.7935 21.0667 38.6096 21.1317C38.4257 21.1967 38.2315 21.2203 38.0388 21.2012Z" fill="#231F20"></path><path d="M41.4743 17.1047C41.6591 17.0969 41.7978 16.7863 41.7842 16.4109C41.7705 16.0356 41.6097 15.7377 41.4249 15.7456C41.2401 15.7534 41.1014 16.064 41.1151 16.4393C41.1287 16.8147 41.2896 17.1126 41.4743 17.1047Z" fill="#231F20"></path><path d="M35.9782 16.5871C36.163 16.5793 36.3017 16.2687 36.2881 15.8934C36.2744 15.5181 36.1136 15.2201 35.9288 15.228C35.744 15.2358 35.6053 15.5464 35.619 15.9218C35.6326 16.2971 35.7935 16.595 35.9782 16.5871Z" fill="#231F20"></path><path d="M38.7987 22.508L37.2446 22.0762C37.2446 22.0762 36.9298 24.5267 37.8043 24.7426C38.6788 24.9585 38.7987 22.508 38.7987 22.508Z" fill="white"></path><path d="M37.909 24.9972C37.8577 25.0051 37.8055 25.0051 37.7541 24.9972C36.7097 24.7381 36.9896 22.32 37.0395 22.0393C37.0447 22.0062 37.0562 21.9747 37.0734 21.9467C37.0907 21.9188 37.1132 21.8952 37.1395 21.8773C37.1644 21.8578 37.1931 21.8447 37.2234 21.839C37.2538 21.8334 37.2849 21.8355 37.3144 21.845L38.8685 22.2714C38.9178 22.285 38.9611 22.3167 38.9912 22.361C39.0212 22.4053 39.0362 22.4594 39.0334 22.5143C39.0334 22.7032 38.9285 24.3495 38.3238 24.8407C38.2062 24.9425 38.0598 24.9977 37.909 24.9972ZM37.4343 22.3793C37.3693 23.162 37.3993 24.398 37.8541 24.5384C37.887 24.548 37.9216 24.5486 37.9547 24.5401C37.9879 24.5316 38.0186 24.5143 38.044 24.4898C38.3438 24.2469 38.5137 23.3455 38.5437 22.7194L37.4343 22.3793Z" fill="#231F20"></path><path d="M32.8919 16.1006C32.4871 14.9509 31.1329 14.5245 30.1035 14.7458C29.7639 14.8061 29.4484 14.9736 29.1967 15.2271C28.9451 15.4807 28.7685 15.809 28.6892 16.1708C28.6068 16.6198 28.6068 17.0819 28.6892 17.531C28.8063 18.3552 29.0584 19.1503 29.4338 19.879C29.6076 20.259 29.8671 20.5857 30.1884 20.8289C30.3951 20.9622 30.6344 21.0243 30.8746 21.0069C31.1147 20.9896 31.3443 20.8936 31.5326 20.7318" fill="white"></path><path d="M30.7728 21.2668C30.5212 21.2653 30.2751 21.1867 30.0632 21.0401C29.7109 20.7749 29.4257 20.4186 29.2337 20.0037C28.8384 19.2409 28.5742 18.4069 28.4541 17.5424C28.3655 17.0613 28.3655 16.5661 28.4541 16.085C28.5416 15.6775 28.7394 15.3074 29.0225 15.0218C29.3055 14.7363 29.6609 14.5483 30.0432 14.4819C31.1926 14.2336 32.6468 14.7302 33.0915 15.9879C33.1128 16.0487 33.1112 16.1162 33.0869 16.1758C33.0626 16.2354 33.0176 16.2822 32.9616 16.3063C32.9046 16.329 32.8416 16.3265 32.7863 16.2992C32.7311 16.2719 32.6881 16.222 32.6668 16.1606C32.307 15.1512 31.0976 14.7572 30.1332 14.9623C29.835 15.0106 29.5572 15.1549 29.3361 15.3764C29.115 15.5979 28.9609 15.8862 28.8939 16.2038C28.8179 16.6208 28.8179 17.0498 28.8939 17.4668C29.0081 18.2742 29.2552 19.0529 29.6235 19.7662C29.7799 20.1076 30.0116 20.4023 30.2981 20.6244C30.4673 20.7319 30.6629 20.7807 30.8586 20.7643C31.0543 20.7479 31.2407 20.667 31.3925 20.5327C31.4174 20.5142 31.4455 20.5013 31.475 20.4946C31.5046 20.4879 31.5351 20.4875 31.5648 20.4935C31.5945 20.4995 31.6228 20.5118 31.6481 20.5296C31.6734 20.5475 31.6952 20.5705 31.7123 20.5975C31.7294 20.6244 31.7413 20.6547 31.7476 20.6866C31.7538 20.7186 31.7541 20.7515 31.7486 20.7836C31.743 20.8157 31.7316 20.8462 31.7151 20.8736C31.6986 20.9009 31.6773 20.9245 31.6523 20.9429C31.3962 21.1443 31.0895 21.2572 30.7728 21.2668Z" fill="#231F20"></path><path d="M18.4302 83.2516C19.1616 79.979 19.7024 76.6602 20.0493 73.3145C20.6889 65.5527 20.0493 39.1312 21.5784 33.8739C22.318 31.364 30.1386 29.5234 30.1386 29.5234C30.1386 29.5234 37.6343 72.3591 37.6343 83.9317L18.4302 83.2516Z" fill="#007456"></path><path d="M31.6874 61.0306C33.5264 60.6905 35.1854 59.7675 36.9095 58.9848C37.5991 58.6718 38.3037 58.3857 39.0183 58.1482C39.8578 57.8675 40.6624 57.3278 41.5619 57.3008C42.1215 57.3008 41.9766 58.1374 41.7667 58.4451C41.5515 58.7251 41.2928 58.9626 41.0022 59.1468C40.4775 59.5354 39.3681 60.2263 39.1782 60.928C39.8764 61.0567 40.5838 61.1181 41.292 61.1115C42.0516 61.2033 42.7912 61.3274 43.5507 61.484C44.3103 61.6405 45.0099 61.824 45.7295 62.0237C46.3732 62.1484 47.0066 62.3289 47.6234 62.5635C47.7683 62.6444 47.9233 62.7632 47.9333 62.9359C47.9682 63.5513 46.689 63.4757 46.3691 63.4433L40.4775 62.8064C42.5403 63.0159 44.5831 63.4132 46.584 63.9939C46.7787 64.0269 46.956 64.1341 47.0837 64.2961C47.5835 65.1112 45.4746 65.1544 45.2398 65.1597C44.153 65.1885 43.0655 65.1579 41.9816 65.068L44.6301 65.543C45.2198 65.6509 45.8145 65.7535 46.3991 65.9154C46.7231 65.9821 47.0248 66.1404 47.2736 66.3742C47.3076 66.4058 47.3291 66.4502 47.3336 66.4984C47.3336 66.5631 47.2686 66.6063 47.2137 66.6333C46.7146 66.8528 46.1781 66.9558 45.6396 66.9356C44.5359 66.9592 43.4324 66.8797 42.3414 66.6981L45.6096 67.0759C45.902 67.0747 46.1854 67.1856 46.4091 67.389C46.4346 67.4896 46.4294 67.5965 46.3943 67.6937C46.3592 67.7909 46.2961 67.8733 46.2142 67.9287C46.0442 68.0381 45.8521 68.101 45.6545 68.1123C44.4497 68.1932 43.2414 68.1932 42.0366 68.1123C40.7215 68.1195 39.4075 68.0293 38.1038 67.8424C35.5256 67.4949 33.0192 66.6849 30.688 65.4458" fill="white"></path><path d="M44.3702 68.4573C43.9804 68.4573 43.6007 68.4573 43.2209 68.425C42.8411 68.3926 42.4313 68.3926 42.0315 68.425C40.7066 68.4294 39.3827 68.3392 38.0688 68.1551C35.4627 67.8034 32.9293 66.9843 30.573 65.7315C30.5187 65.7014 30.4773 65.6496 30.4577 65.5872C30.4381 65.5247 30.4418 65.4564 30.4681 65.3969C30.4968 65.3391 30.5451 65.2956 30.6028 65.2755C30.6606 65.2554 30.7233 65.2602 30.7779 65.2889C33.0846 66.5187 35.566 67.3215 38.1187 67.6639C39.4175 67.8484 40.7267 67.9332 42.0365 67.9176C42.4413 67.9176 42.8461 67.9176 43.2459 67.95C44.0385 68.006 44.8341 67.9916 45.6245 67.9068C45.7853 67.8959 45.942 67.8481 46.0843 67.7664C46.1191 67.7425 46.1481 67.7099 46.169 67.6714C46.1898 67.633 46.2019 67.5897 46.2042 67.5451C46.0205 67.4188 45.8073 67.3514 45.5895 67.3508L44.0554 67.1727C43.4707 67.1349 42.8861 67.0647 42.3064 66.973C42.2476 66.9611 42.1952 66.9255 42.1599 66.8733C42.1246 66.8211 42.1091 66.7564 42.1165 66.6923C42.1252 66.6293 42.156 66.5723 42.2025 66.5331C42.249 66.4939 42.3077 66.4756 42.3664 66.4818L44.0904 66.6815C44.6034 66.7139 45.1181 66.7247 45.6345 66.7139C46.1033 66.7317 46.5711 66.6548 47.0137 66.4872C46.8098 66.3376 46.5806 66.233 46.3391 66.1795C45.7644 66.023 45.1698 65.915 44.5901 65.8125L41.9466 65.3375C41.9171 65.334 41.8885 65.3242 41.8624 65.3087C41.8364 65.2932 41.8135 65.2723 41.7949 65.2473C41.7763 65.2222 41.7625 65.1934 41.7543 65.1626C41.746 65.1318 41.7434 65.0995 41.7467 65.0676C41.75 65.0357 41.759 65.0048 41.7734 64.9767C41.7877 64.9486 41.807 64.9238 41.8302 64.9038C41.8534 64.8837 41.8801 64.8688 41.9086 64.8599C41.9371 64.8509 41.967 64.8482 41.9966 64.8517C43.071 64.9381 44.1603 64.9651 45.2347 64.9381C46.3091 64.9111 46.8588 64.7006 46.9238 64.5656C46.9238 64.5386 46.9238 64.4847 46.8938 64.4577C46.7935 64.35 46.6639 64.28 46.524 64.258C44.5354 63.6728 42.5041 63.2719 40.4524 63.0597C40.3967 63.0531 40.3452 63.0248 40.3075 62.9801C40.2697 62.9354 40.2484 62.8773 40.2475 62.8168V62.7898C40.2551 62.7254 40.2852 62.6665 40.3316 62.6254C40.3781 62.5842 40.4374 62.5638 40.4974 62.5685L46.3891 63.2108C46.8231 63.2937 47.2701 63.2355 47.6734 63.0435C47.7033 63.0111 47.7083 62.9895 47.7033 62.9625C47.6983 62.9355 47.6634 62.8708 47.5234 62.8006C47.1486 62.6284 46.756 62.5052 46.3541 62.4336C46.1192 62.3796 45.8844 62.331 45.6645 62.2608C44.9549 62.0449 44.2303 61.856 43.5057 61.7211C42.7811 61.5861 42.0066 61.4404 41.267 61.354C41.0112 61.3275 40.7543 61.3149 40.4974 61.3163C40.0332 61.3311 39.5694 61.2784 39.1182 61.1597C39.0885 61.1515 39.0607 61.1368 39.0366 61.1163C39.0125 61.0959 38.9926 61.0702 38.9783 61.041C38.9557 60.9803 38.9557 60.9127 38.9783 60.8521C39.1682 60.172 40.0327 59.5566 40.6623 59.1032L40.9721 58.8765C41.2116 58.7251 41.4247 58.5297 41.6018 58.299C41.6643 58.1967 41.7064 58.0815 41.7254 57.9607C41.7443 57.8398 41.7396 57.7161 41.7117 57.5973C41.7117 57.5973 41.6717 57.5379 41.5868 57.5433C41.0182 57.5936 40.4636 57.7603 39.9527 58.0345C39.6779 58.1532 39.393 58.2828 39.1032 58.3799C38.3952 58.6161 37.6995 58.8936 37.0194 59.2112C36.7045 59.3515 36.3897 59.5026 36.0799 59.6484C34.7013 60.379 33.2444 60.9229 31.7423 61.2677C31.6865 61.2699 31.6319 61.2501 31.5886 61.2119C31.5453 61.1738 31.5164 61.1199 31.5072 61.0604C31.498 61.0008 31.5092 60.9398 31.5387 60.8885C31.5682 60.8372 31.6139 60.7993 31.6674 60.7819C33.1308 60.4422 34.5505 59.9111 35.895 59.2004L36.8395 58.7524C37.5355 58.4317 38.246 58.1488 38.9683 57.9049C39.2431 57.81 39.5133 57.7001 39.7778 57.5757C40.3426 57.2806 40.952 57.0978 41.5768 57.0359C41.6858 57.0301 41.7941 57.0574 41.8894 57.1146C41.9848 57.1719 42.0635 57.2568 42.1165 57.3598C42.1856 57.5597 42.2085 57.7748 42.1833 57.9864C42.158 58.198 42.0854 58.3998 41.9716 58.5743C41.766 58.8542 41.5155 59.0918 41.232 59.2759L40.9122 59.508C40.3911 59.8353 39.9235 60.2529 39.528 60.7441C39.8589 60.7954 40.1931 60.8188 40.5274 60.8143C40.7977 60.8108 41.0679 60.8234 41.3369 60.8521C42.0965 60.9384 42.8361 61.068 43.6156 61.2245C44.3952 61.381 45.0898 61.5699 45.8094 61.7912C46.0193 61.856 46.2442 61.9046 46.464 61.9532C46.9024 62.032 47.3303 62.1679 47.7383 62.358C47.8546 62.4005 47.9577 62.477 48.0362 62.5789C48.1147 62.6809 48.1656 62.8043 48.1831 62.9355C48.1888 63.023 48.1761 63.1108 48.1458 63.1921C48.1155 63.2735 48.0684 63.3463 48.0082 63.4051C47.6584 63.7668 46.8088 63.7452 46.469 63.7128L46.6639 63.7722C46.9107 63.8209 47.1327 63.9647 47.2886 64.177C47.3503 64.2626 47.3883 64.3654 47.398 64.4734C47.4078 64.5813 47.3889 64.6901 47.3435 64.7869C47.1536 65.1756 46.454 65.3915 45.2697 65.4185C45.6695 65.494 46.0793 65.575 46.479 65.6883C46.8529 65.762 47.1996 65.9492 47.4785 66.2281C47.5164 66.267 47.5467 66.3139 47.5673 66.3659C47.5879 66.4179 47.5985 66.4738 47.5984 66.5304C47.5928 66.6087 47.5662 66.6837 47.5218 66.746C47.4774 66.8083 47.4172 66.8553 47.3485 66.8812C47.0835 67.0109 46.8024 67.0981 46.514 67.1403C46.5514 67.1734 46.5865 67.2095 46.6189 67.2483C46.6369 67.2682 46.6505 67.2921 46.6589 67.3184C46.7073 67.4726 46.7065 67.6397 46.6567 67.7933C46.6069 67.9469 46.5109 68.078 46.3841 68.1659C46.183 68.2982 45.9546 68.3743 45.7195 68.3872C45.2718 68.4449 44.8209 68.4683 44.3702 68.4573Z" fill="#231F20"></path><path d="M21.5481 33.8652C21.5481 33.8652 6.1718 64.092 11.6837 66.1216C13.9424 66.9528 34.171 68.232 34.171 68.232L36.3148 58.8077L21.1634 56.2762L21.5481 33.8652Z" fill="#007456"></path><path d="M41.4522 20.2616C40.7457 20.2595 40.0557 20.0312 39.4693 19.6056C38.883 19.18 38.4266 18.5761 38.1578 17.8705C37.8891 17.1648 37.82 16.3888 37.9594 15.6408C38.0988 14.8927 38.4404 14.2061 38.941 13.6676C39.4416 13.1292 40.0787 12.7631 40.7718 12.6157C41.465 12.4683 42.183 12.5461 42.8352 12.8393C43.4874 13.1326 44.0445 13.6281 44.4361 14.2632C44.8276 14.8983 45.0361 15.6446 45.0351 16.4077C45.0345 16.9149 44.9412 17.4171 44.7608 17.8854C44.5803 18.3537 44.3161 18.779 43.9833 19.1369C43.6506 19.4949 43.2557 19.7785 42.8214 19.9714C42.3871 20.1644 41.9218 20.263 41.4522 20.2616ZM41.4522 13.0449C40.8364 13.0449 40.2345 13.2422 39.7225 13.6117C39.2106 13.9812 38.8115 14.5063 38.5759 15.1208C38.3403 15.7353 38.2786 16.4114 38.3987 17.0637C38.5189 17.716 38.8154 18.3152 39.2508 18.7855C39.6862 19.2558 40.2409 19.576 40.8448 19.7058C41.4487 19.8355 42.0747 19.7689 42.6435 19.5144C43.2124 19.2599 43.6986 18.8289 44.0407 18.2759C44.3828 17.7229 44.5654 17.0728 44.5654 16.4077C44.5641 15.5163 44.2356 14.6618 43.6521 14.0314C43.0685 13.4011 42.2774 13.0464 41.4522 13.0449Z" fill="#231F20"></path><path d="M34.5406 19.6414C33.835 19.6414 33.1451 19.4154 32.5584 18.9919C31.9716 18.5685 31.5143 17.9666 31.2443 17.2623C30.9742 16.5581 30.9035 15.7832 31.0412 15.0357C31.1789 14.2881 31.5187 13.6014 32.0177 13.0624C32.5167 12.5234 33.1524 12.1564 33.8446 12.0076C34.5367 11.8589 35.2541 11.9353 35.9061 12.227C36.558 12.5187 37.1153 13.0126 37.5073 13.6464C37.8994 14.2802 38.1086 15.0253 38.1086 15.7875C38.1073 16.8092 37.731 17.7886 37.0621 18.5111C36.3933 19.2335 35.4865 19.64 34.5406 19.6414ZM34.5406 12.4248C33.9247 12.4237 33.3223 12.62 32.8097 12.9889C32.297 13.3577 31.8972 13.8825 31.6608 14.4969C31.4244 15.1113 31.3621 15.7876 31.4816 16.4402C31.6012 17.0929 31.8973 17.6926 32.3325 18.1634C32.7677 18.6342 33.3224 18.955 33.9264 19.0852C34.5305 19.2154 35.1567 19.1491 35.7259 18.8948C36.295 18.6404 36.7816 18.2094 37.1239 17.6563C37.4662 17.1032 37.6489 16.4528 37.6489 15.7875C37.6476 14.897 37.3198 14.0434 36.7374 13.4132C36.1549 12.783 35.3651 12.4276 34.5406 12.4248Z" fill="#231F20"></path><path d="M36.3196 59.0498H36.2846L21.1332 56.5183C21.1017 56.5135 21.0715 56.5014 21.0448 56.4827C21.018 56.4641 20.9953 56.4394 20.9783 56.4104C20.9601 56.3825 20.9477 56.3507 20.9416 56.3173C20.9356 56.2838 20.9362 56.2493 20.9433 56.2161L24.5912 39.2135C24.6032 39.1484 24.6386 39.091 24.6896 39.0541C24.7407 39.0171 24.8033 39.0036 24.8636 39.0165C24.9239 39.0294 24.977 39.0676 25.0112 39.1228C25.0454 39.1779 25.0579 39.2455 25.046 39.3106L21.453 56.0433L36.3646 58.5317C36.3945 58.5369 36.4231 58.5485 36.4489 58.5657C36.4746 58.5829 36.497 58.6055 36.5146 58.6321C36.5322 58.6587 36.5449 58.6887 36.5517 58.7206C36.5585 58.7525 36.5595 58.7855 36.5545 58.8177C36.5532 58.8496 36.5461 58.881 36.5336 58.9099C36.5211 58.9388 36.5034 58.9648 36.4816 58.9864C36.4598 59.008 36.4343 59.0247 36.4065 59.0355C36.3787 59.0464 36.3492 59.0513 36.3196 59.0498Z" fill="#231F20"></path><path d="M51.3566 63.476C51.301 63.4763 51.2473 63.4545 51.2058 63.4146C51.1643 63.3747 51.1379 63.3197 51.1317 63.26L48.7481 41.9178C48.2833 37.74 48.2833 37.74 48.4932 37.6914L48.5832 38.1772L48.5382 37.9343H48.7681C48.798 38.3013 51.5565 62.9686 51.5865 63.2169C51.5935 63.282 51.5765 63.3474 51.539 63.399C51.5016 63.4506 51.4468 63.484 51.3866 63.4921L51.3566 63.476Z" fill="#231F20"></path><path d="M54.7644 53.7207C54.7256 53.7203 54.6876 53.7093 54.6539 53.6888C54.6201 53.6683 54.5917 53.6389 54.5712 53.6034C54.5508 53.5679 54.539 53.5273 54.5369 53.4855C54.5349 53.4438 54.5426 53.4021 54.5595 53.3644L63.6144 33.7548C63.6413 33.6965 63.6883 33.6519 63.7453 33.6307C63.8023 33.6095 63.8648 33.6134 63.9192 33.6414C63.9735 33.6715 64.0149 33.7233 64.0345 33.7858C64.0541 33.8483 64.0504 33.9165 64.0242 33.9761L54.9693 53.5857C54.9504 53.6268 54.9211 53.6613 54.8849 53.6852C54.8486 53.7091 54.8068 53.7214 54.7644 53.7207Z" fill="#231F20"></path><path d="M9.71515 54.1498H9.68516C9.61967 54.1417 9.5598 54.1059 9.51862 54.0503C9.47743 53.9947 9.45826 53.9238 9.46529 53.853C9.46529 53.7612 10.4347 44.6068 9.46529 39.9972C8.96557 37.5413 8.22599 36.6345 7.70628 36.3052C7.6032 36.2281 7.48687 36.174 7.36414 36.1462C7.24141 36.1184 7.11477 36.1174 6.99168 36.1433C6.92807 36.1637 6.85958 36.1565 6.80079 36.1233C6.74199 36.09 6.69753 36.0333 6.67686 35.9652C6.65788 35.8979 6.66398 35.8252 6.69384 35.7627C6.72371 35.7002 6.775 35.6528 6.83677 35.6305C7.02185 35.5809 7.21432 35.5726 7.40248 35.606C7.59063 35.6394 7.77051 35.7139 7.93115 35.8248C8.82065 36.3646 9.50027 37.7302 9.93003 39.8839C10.9295 44.5744 9.975 53.5345 9.93003 53.9177C9.92364 53.9769 9.89895 54.032 9.85995 54.0741C9.82096 54.1163 9.76993 54.1429 9.71515 54.1498Z" fill="white"></path><path d="M31.2075 50.2124C31.1741 50.2095 31.1418 50.1982 31.1132 50.1795C31.0846 50.1607 31.0604 50.135 31.0426 50.1044L26.4202 44.3829C26.3805 44.3378 26.3583 44.2779 26.3583 44.2156C26.3583 44.1533 26.3805 44.0934 26.4202 44.0483L29.4185 40.7395L26.4202 37.7114C26.3817 37.6717 26.3572 37.6188 26.3508 37.5617C26.3444 37.5046 26.3566 37.4468 26.3852 37.3984C26.8849 36.6049 29.3036 32.6376 29.5084 32.4163C29.5515 32.3699 29.61 32.3438 29.6709 32.3438C29.7317 32.3438 29.7902 32.3699 29.8333 32.4163C29.8544 32.4389 29.8712 32.4658 29.8827 32.4955C29.8941 32.5251 29.9 32.5569 29.9 32.5891C29.9 32.6212 29.8941 32.653 29.8827 32.6826C29.8712 32.7123 29.8544 32.7392 29.8333 32.7618C29.6734 32.9561 28.0143 35.6333 26.8749 37.4955L29.8732 40.5506C29.8956 40.5735 29.9133 40.6011 29.9253 40.6318C29.9374 40.6624 29.9435 40.6954 29.9432 40.7287C29.942 40.7946 29.9189 40.8578 29.8782 40.9068L26.8799 44.2318L31.3774 49.8021C31.416 49.8528 31.435 49.9176 31.4304 49.983C31.4257 50.0484 31.3978 50.1093 31.3524 50.153C31.3115 50.1896 31.2605 50.2104 31.2075 50.2124Z" fill="#231F20"></path><path d="M42.5366 48.8319C42.4889 48.831 42.4422 48.816 42.4017 48.7888C42.3531 48.7499 42.3203 48.6923 42.3101 48.6279C42.2998 48.5636 42.313 48.4975 42.3467 48.4433L45.9697 42.8675L42.1918 39.629C42.1672 39.6071 42.147 39.58 42.1324 39.5493C42.1178 39.5187 42.1091 39.4852 42.1069 39.4508C42.1036 39.4174 42.1073 39.3835 42.1177 39.3518C42.128 39.32 42.1448 39.2912 42.1668 39.2673L44.4555 36.6765L40.4578 32.7848C40.4159 32.7375 40.3926 32.6747 40.3926 32.6093C40.3926 32.544 40.4159 32.4811 40.4578 32.4339C40.5009 32.3874 40.5593 32.3613 40.6202 32.3613C40.6811 32.3613 40.7395 32.3874 40.7826 32.4339L44.9303 36.4983C44.9531 36.52 44.9716 36.5465 44.9845 36.5762C44.9974 36.6059 45.0045 36.6382 45.0052 36.6711C45.0071 36.7041 45.0022 36.7371 44.991 36.7679C44.9798 36.7987 44.9625 36.8264 44.9403 36.8492L42.6665 39.4239L46.4194 42.6624C46.4657 42.701 46.4963 42.7575 46.5047 42.8199C46.5131 42.8824 46.4986 42.9459 46.4644 42.9971L42.7165 48.7672C42.6923 48.7909 42.6639 48.8089 42.6329 48.82C42.6019 48.8312 42.5691 48.8353 42.5366 48.8319Z" fill="#231F20"></path><path d="M131.347 26.7118C132.401 26.6632 133.45 26.4689 134.675 26.3555C135.814 26.2476 137.278 25.8158 137.298 24.5581C137.298 23.4786 136.144 22.6366 136.404 21.6164C136.493 21.3425 136.631 21.0896 136.808 20.8715C138.435 18.514 139.155 15.5683 138.817 12.6508C138.479 9.73326 137.109 7.07002 134.995 5.21836C135.076 5.23372 135.16 5.23028 135.24 5.20828C135.321 5.18628 135.396 5.14621 135.461 5.09068C135.526 5.03516 135.58 4.96544 135.618 4.88606C135.657 4.80668 135.679 4.71943 135.684 4.63002C135.689 4.25986 135.558 3.90268 135.319 3.63686C134.475 2.62543 133.375 1.90149 132.156 1.55337C128.304 0.271274 124.185 0.271274 120.333 1.55337C117.374 2.48716 113.836 5.02945 114.221 8.88337C114.361 10.2652 115.366 11.62 116.655 11.6793C117.314 15.8085 119.318 18.6261 121.837 21.6164C123.524 23.6644 125.655 25.2294 128.038 26.172C129.097 26.587 130.222 26.7705 131.347 26.7118Z" fill="white"></path><path d="M130.882 26.9929C129.885 26.9995 128.896 26.8168 127.958 26.4532C125.533 25.4985 123.366 23.907 121.652 21.822C119.323 19.0638 117.179 16.2246 116.445 11.9605C115.066 11.7662 114.111 10.3088 113.971 8.93781C113.591 5.15946 116.854 2.39586 120.263 1.32173C124.162 0.0281731 128.331 0.0281731 132.231 1.32173C133.493 1.68884 134.632 2.43792 135.514 3.48079C135.653 3.63914 135.761 3.82555 135.833 4.02933C135.905 4.2331 135.94 4.45024 135.934 4.66827C135.919 4.81067 135.876 4.948 135.808 5.07094C135.74 5.19388 135.648 5.29954 135.539 5.38076C137.55 7.31988 138.816 10.002 139.088 12.8991C139.36 15.7962 138.618 18.6983 137.008 21.0339L136.973 21.0825C136.832 21.2624 136.721 21.4668 136.643 21.687C136.623 21.9307 136.647 22.1763 136.715 22.4097C136.783 22.6431 136.893 22.8598 137.038 23.0473C137.334 23.4917 137.507 24.0176 137.538 24.564C137.538 25.6921 136.453 26.4586 134.684 26.6205C134.185 26.6691 133.685 26.7338 133.24 26.7878C132.586 26.8742 131.971 26.9551 131.346 26.9821L130.882 26.9929ZM126.429 0.895318C124.389 0.900055 122.359 1.21995 120.402 1.8453C117.994 2.60637 114.066 4.93275 114.496 8.88383C114.616 10.0713 115.495 11.3883 116.69 11.4477C116.746 11.4494 116.801 11.4724 116.844 11.5128C116.887 11.5532 116.915 11.6084 116.924 11.669C117.539 15.5067 119.268 18.1462 122.047 21.4657C123.707 23.4818 125.803 25.0227 128.148 25.9512C129.176 26.3449 130.267 26.5119 131.356 26.4424C131.966 26.4424 132.571 26.3344 133.215 26.2534C133.68 26.1941 134.165 26.1347 134.679 26.0861C135.194 26.0375 137.053 25.7731 137.073 24.5532C137.032 24.1076 136.88 23.6823 136.633 23.3225C136.334 22.7828 136.019 22.2052 136.189 21.5467C136.278 21.2583 136.417 20.9908 136.598 20.7586L136.633 20.7101C138.218 18.4111 138.919 15.5391 138.588 12.695C138.258 9.85095 136.921 7.25518 134.859 5.45093C134.814 5.41083 134.783 5.35481 134.772 5.29266C134.761 5.2305 134.771 5.16616 134.799 5.11088C134.826 5.05488 134.871 5.01105 134.925 4.9873C134.979 4.96355 135.039 4.96144 135.094 4.98133C135.125 4.99145 135.157 4.9933 135.189 4.98671C135.22 4.98012 135.249 4.9653 135.274 4.94355C135.324 4.90784 135.367 4.86093 135.399 4.80599C135.43 4.75105 135.451 4.68937 135.459 4.62509C135.455 4.32571 135.344 4.03967 135.149 3.82624C134.33 2.74671 133.015 2.15837 132.101 1.83451C130.269 1.19723 128.354 0.880171 126.429 0.895318Z" fill="#231F20"></path><path d="M115.635 17.7188C115.635 17.7188 112.907 22.5766 113.542 23.5266C114.176 24.4766 116.145 23.7479 116.145 23.7479" fill="white"></path><path d="M114.721 24.2768C114.461 24.3005 114.2 24.2566 113.959 24.1485C113.718 24.0405 113.504 23.8716 113.337 23.656C112.662 22.6359 114.761 18.728 115.42 17.5513C115.436 17.5179 115.458 17.4883 115.484 17.4645C115.511 17.4406 115.542 17.423 115.575 17.4127C115.608 17.4025 115.643 17.3998 115.677 17.4048C115.712 17.4098 115.745 17.4225 115.774 17.442C115.804 17.4615 115.829 17.4874 115.849 17.5181C115.869 17.5487 115.882 17.5835 115.889 17.6201C115.896 17.6568 115.895 17.6946 115.888 17.731C115.88 17.7675 115.866 17.8019 115.845 17.832C114.576 20.0936 113.412 22.841 113.746 23.3376C114.176 23.9907 115.56 23.6506 116.06 23.4671C116.123 23.4445 116.192 23.4494 116.251 23.4806C116.311 23.5119 116.357 23.5671 116.38 23.6344C116.401 23.7017 116.396 23.7751 116.367 23.8388C116.338 23.9024 116.287 23.9512 116.225 23.9745C115.74 24.1562 115.233 24.2581 114.721 24.2768Z" fill="#231F20"></path><path d="M116.03 11.4367C114.246 13.1423 114.901 16.5482 114.996 18.799C115.129 21.9405 115.331 25.0765 115.6 28.2071C115.77 30.1935 120.548 30.0369 121.367 29.4054L120.902 37.3022C120.902 37.3022 123.216 37.8851 126.999 35.8016C130.782 33.7181 130.782 32.7304 130.782 32.7304L130.137 23.6569C130.137 23.6569 126.989 23.8027 124.99 19.8246C122.991 15.8465 122.821 9.62305 122.821 9.62305C122.821 9.62305 117.769 9.77958 116.03 11.4367Z" fill="white"></path><path d="M121.762 37.637C121.453 37.6451 121.145 37.6161 120.842 37.5507C120.784 37.5376 120.732 37.5017 120.697 37.4498C120.662 37.398 120.646 37.3339 120.652 37.27L121.092 29.8159C120.023 30.1775 117.714 30.2261 116.41 29.5784C116.133 29.4809 115.888 29.3019 115.7 29.0615C115.513 28.8212 115.392 28.529 115.35 28.2181C115.086 25.0983 114.881 21.9299 114.746 18.7939C114.746 18.4214 114.701 18.0166 114.666 17.5848C114.496 15.4257 114.286 12.7269 115.865 11.2372C117.654 9.5315 122.606 9.34258 122.816 9.33718C122.848 9.33352 122.881 9.33795 122.911 9.35012C122.942 9.3623 122.969 9.38188 122.991 9.40735C123.016 9.43118 123.036 9.46027 123.049 9.49278C123.063 9.52529 123.071 9.56053 123.071 9.59627C123.071 9.66104 123.241 15.8198 125.195 19.6953C127.099 23.4736 130.007 23.3819 130.127 23.3765C130.159 23.3743 130.192 23.379 130.222 23.3903C130.253 23.4016 130.281 23.4193 130.305 23.4423C130.329 23.4654 130.349 23.4934 130.363 23.5247C130.377 23.556 130.385 23.59 130.387 23.6248L131.027 32.6928C131.027 32.9087 130.842 33.9666 127.109 36.0231C125.469 37.0084 123.637 37.5614 121.762 37.637ZM121.162 37.0595C121.802 37.1351 123.871 37.2052 126.884 35.5427C130.332 33.6428 130.532 32.6982 130.532 32.6874L129.907 23.9108C129.103 23.8676 126.514 23.4358 124.755 19.9544C122.996 16.4729 122.636 11.1562 122.581 9.88774C121.557 9.94712 117.634 10.271 116.195 11.642C114.806 12.9644 115.006 15.5013 115.166 17.5416C115.201 17.9788 115.231 18.389 115.246 18.7723C115.38 21.8975 115.585 25.0551 115.85 28.1642C115.88 28.542 116.14 28.8497 116.62 29.0872C118.014 29.7835 120.687 29.5837 121.222 29.1735C121.262 29.1461 121.308 29.1315 121.355 29.1315C121.402 29.1315 121.447 29.1461 121.487 29.1735C121.529 29.1981 121.563 29.235 121.586 29.2799C121.609 29.3249 121.62 29.376 121.617 29.4272L121.162 37.0595Z" fill="#231F20"></path><path d="M115.585 25.8475C115.585 25.8475 117.894 27.2509 119.003 24.6816L115.585 25.8475Z" fill="white"></path><path d="M116.994 26.5006C116.471 26.4882 115.958 26.344 115.495 26.0796C115.466 26.0627 115.44 26.0397 115.42 26.012C115.399 25.9842 115.384 25.9522 115.375 25.9179C115.366 25.8836 115.364 25.8478 115.368 25.8125C115.373 25.7772 115.383 25.7432 115.4 25.7126C115.433 25.6504 115.487 25.6047 115.55 25.5854C115.614 25.5662 115.682 25.5751 115.74 25.61C116.307 25.9352 116.964 26.0254 117.589 25.8637C117.865 25.7529 118.117 25.5802 118.327 25.357C118.537 25.1337 118.701 24.8649 118.808 24.5683C118.822 24.5359 118.842 24.5068 118.866 24.4827C118.891 24.4586 118.919 24.44 118.95 24.4279C118.982 24.4159 119.015 24.4106 119.048 24.4125C119.081 24.4143 119.113 24.4233 119.143 24.4387C119.202 24.4692 119.248 24.5236 119.271 24.5903C119.293 24.657 119.29 24.7305 119.263 24.795C119.128 25.1608 118.922 25.4913 118.659 25.764C118.397 26.0368 118.083 26.2457 117.739 26.3765C117.498 26.4597 117.247 26.5016 116.994 26.5006Z" fill="#231F20"></path><path d="M121.377 20.4887C121.46 19.8365 121.733 19.2298 122.157 18.756C122.445 18.3105 122.794 17.9139 123.191 17.5793C123.638 17.2205 124.189 17.0463 124.745 17.0881C124.971 17.1141 125.19 17.1891 125.388 17.3088C125.587 17.4285 125.76 17.5903 125.899 17.7844C126.13 18.1363 126.264 18.5519 126.284 18.9827C126.444 20.8179 125.335 22.7611 123.501 23.8406L123.656 23.6841" fill="white"></path><path d="M123.491 24.0942C123.451 24.0936 123.412 24.083 123.376 24.0634C123.341 24.0437 123.31 24.0155 123.286 23.9809C123.25 23.9271 123.234 23.8612 123.241 23.7956C123.247 23.7299 123.276 23.6691 123.321 23.6246L123.481 23.4681C123.506 23.4423 123.536 23.4226 123.569 23.4105C123.601 23.3984 123.636 23.3941 123.671 23.3979C125.23 22.3508 126.169 20.6235 126.029 19.0096C126.014 18.622 125.896 18.2473 125.69 17.9301C125.569 17.7633 125.418 17.625 125.246 17.5238C125.074 17.4226 124.885 17.3606 124.69 17.3418C124.195 17.306 123.704 17.463 123.306 17.7844C122.924 18.1038 122.587 18.482 122.306 18.9071C121.922 19.3371 121.668 19.8829 121.577 20.4724C121.577 20.544 121.551 20.6126 121.504 20.6632C121.457 20.7138 121.393 20.7423 121.327 20.7423C121.261 20.7423 121.197 20.7138 121.15 20.6632C121.103 20.6126 121.077 20.544 121.077 20.4724C121.158 19.7584 121.451 19.092 121.912 18.5724C122.214 18.1074 122.58 17.6944 122.996 17.3472C123.493 16.9465 124.107 16.7547 124.725 16.8074C124.985 16.8379 125.236 16.925 125.463 17.0632C125.691 17.2014 125.89 17.388 126.049 17.6116C126.31 18.0038 126.461 18.4684 126.484 18.9503C126.649 20.8772 125.485 22.9283 123.571 24.051C123.547 24.0702 123.52 24.0848 123.491 24.0942Z" fill="#231F20"></path><path d="M121.367 29.3903C121.367 29.3903 123.811 28.4619 124.9 26.5781C124.9 26.5781 124.9 31.3658 121.162 32.9096L121.367 29.3903Z" fill="#231F20"></path><path d="M121.162 33.1785C121.108 33.1798 121.055 33.1607 121.012 33.1246C120.978 33.0985 120.951 33.0635 120.934 33.0228C120.916 32.9821 120.909 32.9372 120.912 32.8925L121.117 29.3732C121.12 29.3205 121.137 29.27 121.166 29.2278C121.196 29.1855 121.236 29.1535 121.282 29.1357C121.307 29.1357 123.66 28.2127 124.685 26.4369C124.713 26.3858 124.756 26.3462 124.807 26.3241C124.858 26.302 124.914 26.2987 124.967 26.3147C125.02 26.3306 125.066 26.365 125.099 26.4125C125.132 26.46 125.15 26.5179 125.15 26.5772C125.15 26.6258 125.11 31.57 121.247 33.1623C121.22 33.1734 121.191 33.1788 121.162 33.1785ZM121.607 29.5837L121.437 32.493C123.71 31.3379 124.375 28.828 124.57 27.4786C123.728 28.3976 122.719 29.1181 121.607 29.5945V29.5837Z" fill="#231F20"></path><path d="M117.426 16.5663C117.647 16.5163 117.732 15.9837 117.614 15.3768C117.497 14.7698 117.222 14.3184 117 14.3684C116.779 14.4184 116.694 14.951 116.812 15.5579C116.929 16.1649 117.204 16.6163 117.426 16.5663Z" fill="#231F20"></path><path d="M103.747 65.2183C102.443 66.0388 100.749 65.5044 99.4994 64.5814C98.4546 63.793 97.5858 62.7627 96.9564 61.5656C96.3271 60.3685 95.953 59.0348 95.8615 57.6616C95.7664 56.7426 95.9283 55.814 96.3262 54.9952C99.7093 48.8797 109.074 61.8718 103.747 65.2183Z" fill="white"></path><path d="M102.293 65.887C101.242 65.8438 100.225 65.4685 99.3695 64.8075C98.2991 63.996 97.409 62.9377 96.7634 61.7093C96.1179 60.4809 95.733 59.1129 95.6366 57.7042C95.535 56.7355 95.7093 55.7564 96.1363 54.8974C96.8909 53.5318 97.9853 52.9543 99.3195 53.2188C101.928 53.7585 104.931 57.5369 105.496 60.9914C105.821 63.0047 105.241 64.5862 103.867 65.4552C103.388 65.751 102.844 65.9003 102.293 65.887ZM98.7049 53.6344C98.249 53.6468 97.8051 53.7937 97.421 54.0591C97.037 54.3246 96.7275 54.6985 96.5261 55.1403C96.1455 55.9126 95.9937 56.7925 96.0913 57.661C96.1834 58.9958 96.5484 60.2919 97.1602 61.4558C97.772 62.6197 98.6154 63.6225 99.6293 64.3919C100.739 65.2177 102.373 65.8115 103.627 65.018C105.161 64.0518 105.241 62.3192 105.036 61.0669C104.507 57.8284 101.633 54.1687 99.2246 53.6884C99.053 53.6551 98.8792 53.6371 98.7049 53.6344Z" fill="#231F20"></path><path d="M79.0908 67.3516L102.393 67.0439L91.5987 37.373L68.2969 37.6753L79.0908 67.3516Z" fill="white"></path><path d="M79.0909 67.5953C79.0451 67.5968 78.9999 67.5824 78.9622 67.5543C78.9244 67.5261 78.896 67.4856 78.881 67.4387L68.0821 37.7517C68.0651 37.7168 68.0562 37.6779 68.0562 37.6383C68.0562 37.5988 68.0651 37.5599 68.0821 37.525C68.1018 37.4914 68.1292 37.4638 68.1615 37.4449C68.1939 37.426 68.2302 37.4164 68.267 37.417L91.5689 37.1094C91.6139 37.1144 91.657 37.1313 91.6945 37.1586C91.732 37.1859 91.7626 37.2227 91.7838 37.2659L102.583 66.953C102.595 66.99 102.6 67.0298 102.595 67.0691C102.591 67.1084 102.578 67.1459 102.558 67.1786C102.537 67.2114 102.51 67.2383 102.477 67.2573C102.445 67.2763 102.409 67.2866 102.373 67.2876L79.0709 67.5899L79.0909 67.5953ZM68.6268 37.9082L79.2458 67.0933L102.063 66.791L91.444 37.6114L68.6268 37.9082Z" fill="#231F20"></path><path d="M79.8852 66.6274L103.187 66.3251L92.3932 36.6543L69.0913 36.9566L79.8852 66.6274Z" fill="white"></path><path d="M79.8855 66.8765C79.8398 66.8772 79.795 66.8625 79.7574 66.8345C79.7198 66.8064 79.6912 66.7664 79.6756 66.72L68.8767 37.0329C68.8608 36.9976 68.8525 36.9589 68.8525 36.9196C68.8525 36.8803 68.8608 36.8416 68.8767 36.8062C68.8968 36.7727 68.9241 36.7448 68.9563 36.7251C68.9885 36.7054 69.0246 36.6943 69.0616 36.6929L92.3685 36.3906C92.4138 36.3941 92.4576 36.4104 92.4953 36.4379C92.533 36.4654 92.5633 36.503 92.5833 36.5472L103.377 66.2342C103.391 66.2713 103.395 66.3114 103.391 66.3509C103.387 66.3904 103.373 66.4282 103.352 66.4609C103.332 66.4945 103.305 66.5223 103.273 66.5421C103.24 66.5618 103.204 66.5728 103.167 66.5742L79.8655 66.8765H79.8855ZM69.4264 37.1895L80.0404 66.3691L102.858 66.0723L92.2385 36.8926L69.4264 37.1895Z" fill="#231F20"></path><path d="M77.7215 52.0233C77.6557 52.0219 77.5929 51.993 77.5463 51.9427C77.4997 51.8924 77.473 51.8245 77.4717 51.7534C77.4717 51.6818 77.498 51.6131 77.5449 51.5625C77.5917 51.5119 77.6553 51.4835 77.7215 51.4835L94.3522 51.2676C94.4176 51.2676 94.4804 51.2953 94.5271 51.3447C94.5738 51.3942 94.6007 51.4614 94.602 51.5321C94.602 51.6041 94.5759 51.6734 94.5291 51.7248C94.4824 51.7763 94.4189 51.8059 94.3522 51.8073L77.7215 52.0233Z" fill="#D1D3D4"></path><path d="M78.8211 55.0437C78.7549 55.0437 78.6913 55.0153 78.6445 54.9647C78.5976 54.9141 78.5713 54.8454 78.5713 54.7738C78.5713 54.7023 78.5976 54.6336 78.6445 54.583C78.6913 54.5324 78.7549 54.504 78.8211 54.504L95.4518 54.2881C95.4851 54.2849 95.5187 54.2896 95.5502 54.3016C95.5818 54.3136 95.6106 54.3328 95.6347 54.3579C95.6589 54.3829 95.6778 54.4132 95.6902 54.4468C95.7026 54.4804 95.7082 54.5164 95.7066 54.5525C95.7073 54.588 95.7015 54.6232 95.6895 54.6562C95.6776 54.6893 95.6597 54.7194 95.637 54.745C95.6143 54.7705 95.5871 54.791 95.557 54.8052C95.5269 54.8194 95.4946 54.8271 95.4618 54.8278L78.8261 55.0437H78.8211Z" fill="#D1D3D4"></path><path d="M79.9256 58.0662C79.8594 58.0662 79.7958 58.0378 79.749 57.9872C79.7021 57.9366 79.6758 57.8679 79.6758 57.7963C79.6758 57.7248 79.7021 57.6561 79.749 57.6055C79.7958 57.5549 79.8594 57.5264 79.9256 57.5264L96.5613 57.3105C96.6275 57.3105 96.6911 57.339 96.7379 57.3896C96.7848 57.4402 96.8111 57.5089 96.8111 57.5804C96.8111 57.652 96.7848 57.7206 96.7379 57.7713C96.6911 57.8219 96.6275 57.8503 96.5613 57.8503L79.9256 58.0662Z" fill="#D1D3D4"></path><path d="M87.1112 61.016C87.0453 61.0147 86.9825 60.9858 86.9359 60.9355C86.8893 60.8851 86.8626 60.8173 86.8613 60.7462C86.8613 60.6746 86.8877 60.6059 86.9345 60.5553C86.9814 60.5047 87.0449 60.4763 87.1112 60.4763L97.6552 60.3359C97.7215 60.3359 97.7851 60.3644 97.8319 60.415C97.8788 60.4656 97.9051 60.5342 97.9051 60.6058C97.9051 60.6774 97.8788 60.746 97.8319 60.7967C97.7851 60.8473 97.7215 60.8757 97.6552 60.8757L87.1112 61.016Z" fill="#D1D3D4"></path><path d="M76.8419 49.5944C76.7916 49.5959 76.742 49.5807 76.7 49.5508C76.658 49.5208 76.6255 49.4776 76.607 49.427L73.019 39.5386C73.0057 39.4979 73.0014 39.4545 73.0064 39.4117C73.0115 39.3689 73.0258 39.328 73.0482 39.2923C73.0705 39.2566 73.1003 39.2271 73.1352 39.2061C73.1701 39.1851 73.209 39.1733 73.2489 39.1715L82.3138 39.0528C82.364 39.052 82.4132 39.0675 82.4551 39.0973C82.497 39.1272 82.5296 39.17 82.5487 39.2201L86.1416 49.1086C86.1563 49.1491 86.1617 49.1928 86.1573 49.236C86.153 49.2793 86.139 49.3207 86.1167 49.3569C86.0946 49.3938 86.0643 49.4241 86.0284 49.4448C85.9926 49.4656 85.9524 49.4762 85.9118 49.4756L76.8469 49.5944H76.8419ZM73.6087 39.7059L77.0068 49.0546L85.542 48.9412L82.1389 39.5925L73.6087 39.7059Z" fill="#D1D3D4"></path><path d="M90.7592 42.3436H90.2045L89.7548 41.1021H89.35L89.0802 42.349H88.4105L88.7653 41.0428C88.538 41.0219 88.3202 40.9342 88.1357 40.7891C87.9626 40.6535 87.8305 40.4657 87.7559 40.2493C87.6995 40.1218 87.6803 39.9787 87.701 39.8391C87.7243 39.7336 87.783 39.6413 87.8659 39.58C87.9637 39.509 88.0744 39.4611 88.1907 39.4397C88.329 39.4109 88.4696 39.3965 88.6104 39.3965H89.6948L90.7592 42.3436ZM89.5899 40.6649L89.3 39.8661H88.8003H88.5854C88.5217 39.8744 88.4595 39.8926 88.4006 39.9201C88.3524 39.9458 88.315 39.9901 88.2956 40.0442C88.2827 40.0766 88.276 40.1115 88.276 40.1468C88.276 40.182 88.2827 40.2169 88.2956 40.2493C88.3235 40.3366 88.3717 40.4146 88.4355 40.476C88.497 40.528 88.5663 40.5682 88.6404 40.5948C88.7172 40.6174 88.7959 40.6319 88.8753 40.6379H89.1201L89.5899 40.6649Z" fill="#D1D3D4"></path><path d="M88.0108 42.3811L85.867 42.4081L85.6971 41.9385H87.2862L86.9964 41.145H85.5672L85.3923 40.6754H86.8265L86.5616 39.9575H85.0625L84.8926 39.4879L86.9564 39.4609L88.0108 42.3811Z" fill="#D1D3D4"></path><path d="M89.1753 43.3274C89.2627 43.2142 89.3792 43.1315 89.5101 43.0899C89.6571 43.039 89.8105 43.0135 89.9648 43.0143C90.1125 43.0104 90.26 43.0249 90.4046 43.0575C90.5515 43.0935 90.6941 43.1478 90.8294 43.2194C90.9616 43.2885 91.083 43.3796 91.1892 43.4893C91.2968 43.5994 91.3805 43.734 91.434 43.8833C91.494 44.0119 91.5082 44.1598 91.474 44.2989C91.4409 44.4022 91.3778 44.4912 91.2941 44.5526C91.2005 44.62 91.0976 44.671 90.9893 44.7038C90.8825 44.7375 90.7775 44.7772 90.6744 44.8225C90.5926 44.8567 90.5179 44.9081 90.4546 44.9736C90.4316 45.0103 90.4193 45.0535 90.4193 45.0978C90.4193 45.1421 90.4316 45.1853 90.4546 45.2219C90.4805 45.2896 90.5197 45.3503 90.5695 45.4001C90.6218 45.4506 90.6807 45.4925 90.7444 45.5242C90.8081 45.5564 90.8752 45.58 90.9443 45.5944C91.0122 45.6048 91.0812 45.6048 91.1492 45.5944C91.2604 45.5969 91.3704 45.5691 91.469 45.5134C91.5534 45.4612 91.6187 45.3793 91.6539 45.2813L92.2086 45.6591C92.1303 45.8053 92.0062 45.9163 91.8588 45.9722C91.6896 46.0338 91.5126 46.0666 91.3341 46.0694C91.1794 46.0701 91.0252 46.052 90.8743 46.0154C90.7266 45.98 90.5837 45.9237 90.4496 45.8481C90.3178 45.7717 90.1981 45.6733 90.0948 45.5566C89.9889 45.4386 89.9057 45.2992 89.8499 45.1464C89.7925 45.017 89.7784 44.8701 89.8099 44.7307C89.8439 44.6265 89.9067 44.5361 89.9898 44.4717C90.0835 44.4043 90.1863 44.3533 90.2947 44.3205C90.4096 44.2827 90.5145 44.2396 90.6095 44.2018C90.6911 44.1688 90.7671 44.1214 90.8344 44.0614C90.8599 44.0301 90.876 43.9911 90.8804 43.9496C90.8849 43.9081 90.8775 43.8662 90.8593 43.8293C90.8344 43.7669 90.7988 43.7102 90.7544 43.662C90.7065 43.6146 90.6526 43.5746 90.5945 43.5433C90.533 43.516 90.4694 43.4944 90.4046 43.4785H90.2097C90.1105 43.4779 90.012 43.4981 89.9199 43.5379C89.8815 43.553 89.8466 43.5766 89.8173 43.6073C89.788 43.638 89.7651 43.6751 89.75 43.716L89.1753 43.3274Z" fill="#D1D3D4"></path><path d="M86.0122 43.1365H86.5669L87.2365 44.9717C87.265 45.0526 87.3037 45.1288 87.3514 45.1984C87.4073 45.2794 87.4728 45.352 87.5463 45.4143C87.6322 45.482 87.7264 45.5365 87.8262 45.5762C87.9402 45.619 88.0604 45.6391 88.181 45.6356C88.288 45.6395 88.3943 45.6154 88.4908 45.5654C88.5575 45.5287 88.6117 45.4701 88.6457 45.3981C88.6755 45.331 88.6876 45.2563 88.6807 45.1822C88.6764 45.1046 88.6612 45.0282 88.6357 44.9555L87.9561 43.0879H88.5108L89.1854 44.9447C89.2457 45.0961 89.273 45.2604 89.2654 45.4251C89.2586 45.5584 89.2112 45.6856 89.1305 45.7867C89.0479 45.8958 88.9389 45.9781 88.8156 46.0242C88.6669 46.0836 88.5094 46.1129 88.3509 46.1106C88.1734 46.1154 87.9963 46.0899 87.8262 46.035C87.6499 45.9901 87.4812 45.9155 87.3265 45.8137C87.1792 45.7125 87.0448 45.5909 86.9267 45.4521C86.8115 45.3122 86.7201 45.1514 86.6568 44.9771L86.0122 43.1365Z" fill="#D1D3D4"></path><path d="M93.2628 49.1405H92.8381L92.1235 47.1811L92.0735 49.1513H91.7637L90.2895 47.2027L90.9991 49.1621H90.5744L89.7148 46.8033H90.3895L91.6687 48.4496L91.7337 46.7871H92.4133L93.2628 49.1405Z" fill="#D1D3D4"></path><path d="M90.0098 49.1835H88.2858L88.1458 48.8056H89.4251L89.1952 48.1687H88.0409L87.906 47.7909H89.0553L88.8454 47.2133H87.6311L87.4912 46.8301H89.1503L90.0098 49.1835Z" fill="#D1D3D4"></path><path d="M76.987 46.6082C76.4873 45.9713 76.6572 45.2264 76.6222 44.5031C76.5872 43.7798 76.3223 43.0782 76.2974 42.3873C76.3167 41.9237 76.4453 41.4732 76.6709 41.0784C76.8965 40.6836 77.2117 40.3575 77.5866 40.131C77.8141 39.9661 78.0839 39.8831 78.3576 39.8938C78.6313 39.9044 78.895 40.0083 79.1108 40.1904C79.3556 39.7748 79.9653 39.8072 80.435 40.0231C81.0813 40.3457 81.643 40.8374 82.0691 41.4535C82.6121 42.1537 82.9864 42.9881 83.1585 43.8824C83.2421 44.2979 83.2431 44.7279 83.1612 45.1439C83.0794 45.5599 82.9166 45.9523 82.6838 46.2952C82.197 46.8945 81.5226 47.2789 80.7898 47.3747C80.0256 47.4788 79.2515 47.4642 78.4911 47.3315C78.0051 47.2985 77.5391 47.1107 77.1519 46.7917C77.0932 46.7346 77.0381 46.6733 76.987 46.6082Z" fill="white"></path><path d="M79.9101 47.6994C79.4251 47.6945 78.941 47.6548 78.4609 47.5806C77.9263 47.5514 77.4124 47.3481 76.9867 46.9977C76.9168 46.9312 76.8516 46.859 76.7918 46.7818C76.4471 46.2716 76.2984 45.6372 76.3771 45.0113C76.3771 44.844 76.3771 44.6821 76.3771 44.5202C76.3503 44.178 76.2985 43.8387 76.2221 43.5054C76.1348 43.152 76.078 42.7906 76.0522 42.4259C76.0684 41.9122 76.2071 41.4118 76.4548 40.973C76.7026 40.5342 77.051 40.172 77.4664 39.9214C77.7036 39.7526 77.9794 39.6577 78.2633 39.6472C78.5471 39.6368 78.8282 39.7111 79.0755 39.862C79.2917 39.7126 79.5407 39.6279 79.797 39.6166C80.0534 39.6052 80.308 39.6675 80.5347 39.7972C81.2209 40.1359 81.8172 40.6557 82.2687 41.3086C82.8389 42.0428 83.2321 42.918 83.4131 43.8562C83.5024 44.3099 83.5013 44.7789 83.41 45.2321C83.3187 45.6853 83.1392 46.1124 82.8834 46.4849C82.3557 47.1314 81.6266 47.5463 80.8345 47.6508C80.5281 47.6941 80.2189 47.7103 79.9101 47.6994ZM77.1766 46.4363C77.221 46.4943 77.2694 46.5484 77.3215 46.5982C77.6727 46.8738 78.0921 47.0298 78.5258 47.0463C79.2612 47.1764 80.01 47.1928 80.7496 47.0948C81.4198 47.0115 82.0384 46.6659 82.4886 46.1233C82.7005 45.8121 82.848 45.4554 82.9213 45.0774C82.9946 44.6993 82.9919 44.3086 82.9134 43.9318C82.7465 43.0817 82.3897 42.2886 81.874 41.6216C81.4729 41.0426 80.946 40.5792 80.3398 40.2722C79.965 40.1049 79.4803 40.0671 79.3404 40.337C79.3231 40.3691 79.2993 40.3964 79.2707 40.417C79.2421 40.4376 79.2095 40.4509 79.1755 40.4557C79.1417 40.4629 79.1068 40.4623 79.0732 40.4539C79.0396 40.4455 79.0081 40.4296 78.9806 40.4072C78.8045 40.2554 78.5877 40.1692 78.3626 40.1614C78.1374 40.1536 77.916 40.2247 77.7313 40.364C77.3955 40.5659 77.1126 40.8565 76.909 41.2086C76.7053 41.5607 76.5877 41.9628 76.567 42.3773C76.5889 42.7183 76.6408 43.0563 76.7219 43.3867C76.807 43.7406 76.8638 44.1018 76.8918 44.4662C76.8918 44.6389 76.8918 44.817 76.8918 45.0059C76.8179 45.5015 76.9254 46.0087 77.1916 46.4201L77.1766 46.4363Z" fill="#D1D3D4"></path><path d="M81.4593 47.1745L81.4943 47.2177C81.5786 47.3413 81.6686 47.4602 81.7641 47.5739C82.12 48.0875 82.4201 48.6435 82.6586 49.231H84.5426H85.0423C84.9673 49.0637 84.9024 48.9395 84.8524 48.8478C84.0378 47.3526 83.1733 46.7481 82.4937 46.5214C82.1367 46.4001 81.7577 46.3742 81.3893 46.4458C81.3179 46.4588 81.2476 46.4787 81.1795 46.5052C81.1795 46.5052 81.1295 46.6887 81.4593 47.1745Z" fill="#D1D3D4"></path><path d="M81.1894 45.8526L81.7791 47.569C81.7791 47.569 81.944 48.5676 80.8896 48.5244C80.5674 48.5007 80.2527 48.4083 79.9637 48.2527C79.6747 48.0971 79.417 47.8812 79.2055 47.6176L78.3061 44.6111C78.2533 44.0542 78.1253 43.5087 77.9263 42.9918C78.6636 42.7443 79.2868 42.2043 79.6703 41.4805C79.6703 41.4805 80.2949 42.0202 80.5348 42.1984C80.7281 42.317 80.9076 42.4602 81.0695 42.6248C81.3123 42.9372 81.4835 43.307 81.5692 43.7043C81.7096 44.1366 81.8166 44.5807 81.889 45.0321C82.014 45.8526 81.1894 45.8526 81.1894 45.8526Z" fill="white"></path><path d="M80.9596 48.7928H80.8796C80.5227 48.7653 80.1743 48.662 79.8545 48.4888C79.5346 48.3156 79.2496 48.0759 79.0157 47.7834C78.9994 47.7564 78.986 47.7274 78.9757 47.6971C78.3061 45.4571 78.1312 44.8687 78.0862 44.696C78.0673 44.6332 78.0572 44.5677 78.0562 44.5017C78.0022 44.0095 77.8845 43.528 77.7064 43.0713C77.6917 43.0375 77.6841 43.0007 77.6841 42.9633C77.6841 42.926 77.6917 42.8892 77.7064 42.8554C77.722 42.8209 77.7444 42.7904 77.772 42.7662C77.7996 42.7419 77.8318 42.7245 77.8663 42.7151C78.5352 42.4865 79.1004 41.9954 79.4504 41.3387C79.4684 41.303 79.4934 41.272 79.5236 41.2477C79.5538 41.2235 79.5885 41.2066 79.6253 41.1983C79.6614 41.1906 79.6986 41.1919 79.7342 41.2022C79.7697 41.2125 79.8026 41.2315 79.8302 41.2577C80.0001 41.4088 80.4798 41.7975 80.6697 41.954C80.8771 42.0824 81.0699 42.2363 81.2444 42.4128C81.5225 42.7497 81.7229 43.1529 81.8291 43.5895C81.9777 44.0346 82.0881 44.4935 82.1589 44.9605C82.1862 45.0997 82.1842 45.2437 82.1531 45.382C82.122 45.5203 82.0625 45.6492 81.979 45.7593C81.86 45.9058 81.7035 46.011 81.5292 46.0616L82.029 47.4704C82.063 47.6378 82.0623 47.8112 82.0268 47.9783C81.9914 48.1453 81.9222 48.3018 81.8241 48.4366C81.7141 48.5624 81.5792 48.6598 81.4295 48.7215C81.2799 48.7831 81.1192 48.8075 80.9596 48.7928ZM79.4254 47.4812C79.8144 47.9375 80.3515 48.214 80.9246 48.253C81.0188 48.2678 81.1149 48.2604 81.2063 48.2316C81.2977 48.2027 81.3823 48.153 81.4543 48.0857C81.5439 47.9475 81.5814 47.7777 81.5592 47.6107L80.9796 45.9428C80.9672 45.9016 80.9634 45.858 80.9686 45.815C80.9738 45.7721 80.9878 45.7309 81.0095 45.6946C81.0333 45.6599 81.0642 45.6317 81.0997 45.612C81.1353 45.5924 81.1745 45.5818 81.2144 45.5812C81.3679 45.5821 81.516 45.5204 81.6292 45.4085C81.6633 45.3557 81.6863 45.2955 81.6967 45.2321C81.707 45.1687 81.7045 45.1036 81.6892 45.0414C81.6222 44.6063 81.5202 44.1782 81.3843 43.7622C81.2979 43.4084 81.1391 43.0801 80.9196 42.8014C80.7681 42.6507 80.6003 42.5202 80.4199 42.4128C80.26 42.3048 79.9551 42.0457 79.7453 41.873C79.3738 42.4503 78.852 42.8955 78.2461 43.1523C78.3902 43.5697 78.4859 44.0048 78.5309 44.4477C78.5309 44.4909 78.5309 44.5179 78.5309 44.5395C78.5309 44.561 79.3055 47.0871 79.4254 47.4812Z" fill="#D1D3D4"></path><path d="M78.0463 43.0899C77.956 43.0249 77.85 42.9902 77.7415 42.9902C77.633 42.9902 77.5269 43.0249 77.4367 43.0899C77.3658 43.1887 77.3229 43.3075 77.3132 43.432C77.3034 43.5565 77.3272 43.6814 77.3817 43.7916C77.4834 44.0749 77.6231 44.3404 77.7964 44.5796C77.8891 44.7313 78.012 44.8586 78.1562 44.9521C78.2233 44.9985 78.3026 45.0199 78.382 45.0131C78.4614 45.0063 78.5366 44.9716 78.596 44.9143" fill="white"></path><path d="M78.3762 45.2791C78.2615 45.2787 78.1485 45.2492 78.0464 45.1928C77.866 45.0812 77.7121 44.926 77.5966 44.7394C77.4094 44.4781 77.2579 44.189 77.1469 43.8811C77.0719 43.7205 77.0437 43.5392 77.066 43.3609C77.0883 43.1827 77.1601 43.0159 77.2718 42.8826C77.4013 42.7797 77.5569 42.7219 77.7176 42.7171C77.8784 42.7123 78.0367 42.7606 78.1713 42.8556C78.2289 42.8914 78.2711 42.9504 78.2884 43.0198C78.3057 43.0891 78.2969 43.1631 78.2637 43.2253C78.2306 43.2876 78.1759 43.3331 78.1117 43.3518C78.0475 43.3706 77.9791 43.361 77.9214 43.3252C77.876 43.2889 77.8224 43.2663 77.7662 43.2597C77.7101 43.2531 77.6533 43.2626 77.6016 43.2874C77.5466 43.3414 77.5566 43.5141 77.6016 43.6976C77.6944 43.956 77.8224 44.198 77.9814 44.4155C78.0516 44.5351 78.1455 44.6365 78.2562 44.7124C78.2996 44.7307 78.3478 44.7307 78.3912 44.7124C78.4115 44.6846 78.4369 44.6616 78.4656 44.6446C78.4944 44.6276 78.526 44.6171 78.5587 44.6135C78.5913 44.61 78.6242 44.6136 78.6555 44.6241C78.6869 44.6346 78.7159 44.6518 78.741 44.6746C78.792 44.7209 78.8243 44.7869 78.8308 44.8585C78.8374 44.9301 78.8177 45.0017 78.7759 45.0578C78.7299 45.1259 78.6698 45.1813 78.6004 45.2197C78.531 45.2582 78.4542 45.2785 78.3762 45.2791Z" fill="#D1D3D4"></path><path d="M77.1717 48.2202C77.208 48.5854 77.2732 48.9465 77.3666 49.2997H78.9357H79.9002C79.6004 48.6358 79.3355 48.0421 79.1406 47.621C79.1006 47.5401 79.0657 47.4591 79.0357 47.3943L78.8258 46.9355C78.5768 47.0275 78.3331 47.1357 78.0962 47.2594C77.6465 47.4807 77.1567 47.8316 77.1717 48.2202Z" fill="#D1D3D4"></path><path d="M81.529 43.7618C81.8266 43.3662 81.7328 42.7513 81.3195 42.3885C80.9061 42.0256 80.3297 42.0522 80.0321 42.4478C79.7344 42.8434 79.8283 43.4582 80.2416 43.8211C80.655 44.1839 81.2314 44.1574 81.529 43.7618Z" fill="white"></path><path d="M80.8997 44.3578C80.6338 44.3525 80.3754 44.2612 80.158 44.0957C79.9407 43.9302 79.7743 43.6981 79.6803 43.4294C79.6254 43.2724 79.6019 43.1047 79.6114 42.9372C79.6209 42.7698 79.6631 42.6064 79.7353 42.4578C79.8043 42.321 79.8998 42.2019 80.0154 42.1087C80.131 42.0155 80.2639 41.9505 80.4049 41.918C80.7129 41.8467 81.0343 41.8982 81.3098 42.0628C81.5854 42.2275 81.7965 42.4944 81.9041 42.814C81.9582 42.971 81.9817 43.1383 81.9731 43.3055C81.9645 43.4727 81.924 43.6361 81.8541 43.7856C81.7846 43.923 81.6883 44.0425 81.5718 44.1357C81.4553 44.2289 81.3215 44.2936 81.1795 44.3254C81.0878 44.3488 80.9938 44.3597 80.8997 44.3578ZM80.1501 43.2458C80.2202 43.4322 80.347 43.5872 80.5096 43.6853C80.6722 43.7834 80.8609 43.8188 81.0446 43.7856C81.1175 43.767 81.1862 43.7326 81.2463 43.6843C81.3065 43.636 81.3569 43.575 81.3944 43.5049C81.43 43.4202 81.4484 43.3281 81.4484 43.2351C81.4484 43.142 81.43 43.0499 81.3944 42.9652C81.3266 42.7769 81.2002 42.6201 81.037 42.5216C80.8737 42.4231 80.6838 42.3891 80.4999 42.4254C80.4266 42.4414 80.3576 42.4749 80.298 42.5234C80.2383 42.572 80.1895 42.6344 80.1551 42.7061C80.1195 42.7909 80.101 42.8829 80.101 42.976C80.101 43.0691 80.1195 43.1611 80.1551 43.2458H80.1501Z" fill="#D1D3D4"></path><path d="M79.8901 43.5848C80.1874 43.1872 80.0916 42.5711 79.6761 42.2086C79.2607 41.8462 78.6828 41.8746 78.3855 42.2722C78.0882 42.6699 78.184 43.286 78.5994 43.6485C79.0149 44.011 79.5927 43.9825 79.8901 43.5848Z" fill="white"></path><path d="M79.0559 44.6527C78.79 44.6474 78.5317 44.5562 78.3143 44.3907C78.0969 44.2252 77.9305 43.993 77.8366 43.7243C77.7817 43.5673 77.7582 43.3996 77.7677 43.2321C77.7771 43.0647 77.8194 42.9013 77.8916 42.7527C77.9605 42.6159 78.0561 42.4968 78.1716 42.4036C78.2872 42.3104 78.4201 42.2454 78.5612 42.2129C78.8691 42.1416 79.1905 42.1931 79.4661 42.3578C79.7416 42.5225 79.9527 42.7893 80.0603 43.109C80.1145 43.2659 80.138 43.4332 80.1294 43.6004C80.1208 43.7676 80.0803 43.9311 80.0104 44.0805C79.9409 44.218 79.8446 44.3374 79.7281 44.4306C79.6116 44.5238 79.4777 44.5886 79.3357 44.6203C79.244 44.6434 79.1501 44.6543 79.0559 44.6527ZM78.3063 43.5408C78.3757 43.7277 78.5024 43.8833 78.6652 43.9816C78.828 44.0798 79.017 44.1148 79.2008 44.0805C79.2738 44.062 79.3424 44.0275 79.4026 43.9792C79.4627 43.931 79.5131 43.8699 79.5506 43.7999C79.5862 43.7151 79.6047 43.6231 79.6047 43.53C79.6047 43.4369 79.5862 43.3449 79.5506 43.2601C79.482 43.0725 79.3555 42.9163 79.1925 42.8179C79.0295 42.7195 78.84 42.6851 78.6561 42.7203C78.5836 42.7383 78.5155 42.7726 78.456 42.821C78.3966 42.8694 78.3473 42.9307 78.3113 43.001C78.2757 43.0858 78.2573 43.1778 78.2573 43.2709C78.2573 43.364 78.2757 43.456 78.3113 43.5408H78.3063Z" fill="#D1D3D4"></path><path d="M79.8008 43.5254C79.8008 43.5254 80.5853 44.2217 80.5154 44.3944C80.4454 44.5671 80.0706 44.5617 80.0706 44.5617" fill="white"></path><path d="M80.09 44.8319H80.065C79.9988 44.8319 79.9352 44.8034 79.8883 44.7528C79.8415 44.7022 79.8152 44.6336 79.8152 44.562C79.8152 44.4904 79.8415 44.4218 79.8883 44.3712C79.9352 44.3205 79.9988 44.2921 80.065 44.2921H80.175C80.0056 44.0983 79.8236 43.918 79.6303 43.7523C79.5786 43.7065 79.5459 43.6404 79.5393 43.5685C79.5327 43.4967 79.5529 43.4249 79.5953 43.3691C79.6377 43.3133 79.6989 43.2779 79.7654 43.2708C79.832 43.2638 79.8984 43.2855 79.9501 43.3313C80.8796 44.1626 80.7846 44.4109 80.7296 44.5242C80.6197 44.7995 80.2399 44.8319 80.09 44.8319Z" fill="#D1D3D4"></path><path d="M80.2898 45.452C80.1364 45.4513 79.9842 45.4221 79.84 45.3656C79.8083 45.3543 79.779 45.3362 79.7538 45.3125C79.7287 45.2887 79.7082 45.2598 79.6936 45.2273C79.679 45.1949 79.6706 45.1596 79.6688 45.1235C79.667 45.0875 79.672 45.0515 79.6834 45.0175C79.6947 44.9836 79.7123 44.9525 79.735 44.926C79.7577 44.8995 79.785 44.8782 79.8155 44.8634C79.8459 44.8485 79.8788 44.8404 79.9122 44.8395C79.9456 44.8387 79.9788 44.845 80.0099 44.8582C80.1667 44.9101 80.3332 44.9175 80.4933 44.8797C80.6535 44.8419 80.802 44.7601 80.9244 44.6423C80.9476 44.617 80.9753 44.597 81.0057 44.5833C81.0362 44.5696 81.0688 44.5625 81.1018 44.5625C81.1348 44.5625 81.1674 44.5696 81.1979 44.5833C81.2283 44.597 81.256 44.617 81.2792 44.6423C81.3031 44.6666 81.3222 44.6958 81.3352 44.7283C81.3482 44.7608 81.3549 44.7958 81.3549 44.8312C81.3549 44.8667 81.3482 44.9017 81.3352 44.9342C81.3222 44.9667 81.3031 44.9959 81.2792 45.0202C81.0074 45.2865 80.6566 45.4396 80.2898 45.452Z" fill="#D1D3D4"></path><path d="M73.0196 42.8464C72.7573 42.8408 72.5016 42.7559 72.2817 42.6013C72.0618 42.4468 71.8863 42.2288 71.7753 41.972L70.1412 37.4704C70.0766 37.3153 70.0487 37.1453 70.0601 36.9757C70.0714 36.8061 70.1216 36.6422 70.2062 36.4988C70.3108 36.3497 70.4472 36.2301 70.6038 36.1502C70.7604 36.0703 70.9326 36.0325 71.1057 36.04C71.4702 36.0472 71.8257 36.1642 72.1321 36.3779C72.4384 36.5915 72.6835 36.8932 72.8397 37.2491L73.3394 38.674C73.3516 38.707 73.3576 38.7422 73.3572 38.7777C73.3567 38.8132 73.3498 38.8482 73.3368 38.8808C73.3238 38.9134 73.305 38.9429 73.2814 38.9676C73.2579 38.9923 73.23 39.0118 73.1995 39.0249C73.1378 39.05 73.0694 39.0483 73.0089 39.0201C72.9483 38.9919 72.9002 38.9395 72.8747 38.8738L72.375 37.4434C72.2564 37.1892 72.0762 36.9746 71.8535 36.8225C71.6308 36.6704 71.3741 36.5865 71.1107 36.5798C71.0169 36.5686 70.922 36.583 70.8347 36.6217C70.7474 36.6604 70.6705 36.722 70.6109 36.8011C70.5774 36.875 70.56 36.9562 70.56 37.0386C70.56 37.1209 70.5774 37.2021 70.6109 37.2761L72.25 41.7723C72.3219 41.9317 72.4333 42.0665 72.5718 42.1618C72.7102 42.257 72.8704 42.3091 73.0346 42.3121C73.0839 42.317 73.1335 42.3093 73.1796 42.2896C73.2256 42.2699 73.2666 42.2388 73.2994 42.1987C73.3178 42.1613 73.3274 42.1196 73.3274 42.0773C73.3274 42.0349 73.3178 41.9932 73.2994 41.9558L72.0202 38.3772C71.9947 38.3251 71.9566 38.2815 71.9099 38.2511C71.8633 38.2206 71.8098 38.2045 71.7553 38.2044L72.9246 41.443C72.9394 41.4766 72.9476 41.513 72.9487 41.5501C72.9498 41.5872 72.9438 41.6242 72.9311 41.6587C72.9184 41.6932 72.8992 41.7245 72.8748 41.7506C72.8504 41.7767 72.8212 41.7971 72.7892 41.8105C72.7571 41.8239 72.7228 41.8301 72.6885 41.8285C72.6541 41.8269 72.6205 41.8178 72.5896 41.8015C72.5587 41.7852 72.5312 41.7623 72.5089 41.734C72.4866 41.7058 72.4699 41.6729 72.4599 41.6374L71.2756 38.3988C71.243 38.32 71.2296 38.2335 71.2366 38.1476C71.2436 38.0616 71.2708 37.979 71.3155 37.9076C71.3638 37.8322 71.4291 37.7714 71.5051 37.7307C71.5812 37.6901 71.6656 37.6711 71.7503 37.6755C71.907 37.6807 72.059 37.7343 72.1883 37.83C72.3176 37.9256 72.4188 38.0593 72.4799 38.2152L73.7792 41.7885C73.8265 41.9073 73.8462 42.0367 73.8366 42.1656C73.827 42.2945 73.7884 42.4189 73.7242 42.528C73.6474 42.6422 73.5456 42.734 73.4278 42.7953C73.3101 42.8565 73.1801 42.8852 73.0496 42.8788L73.0196 42.8464Z" fill="#231F20"></path><path d="M104.741 59.2263C104.026 57.1426 102.728 55.3507 101.028 54.0985C100.217 53.4295 99.2863 52.9482 98.295 52.6843C97.2356 52.49 97.0207 53.6181 97.8502 54.2334L99.934 55.7664C100.084 55.8797 100.264 55.9823 100.404 56.1118C100.644 56.3439 100.609 56.2198 100.559 56.5166C100.387 57.442 100.43 58.3987 100.684 59.3018C100.898 59.9783 101.162 60.6353 101.473 61.2666" fill="white"></path><path d="M101.504 61.5164C101.461 61.5171 101.419 61.5048 101.383 61.4809C101.347 61.457 101.318 61.4225 101.299 61.3814C100.982 60.7374 100.711 60.0679 100.489 59.3789C100.228 58.4367 100.183 57.44 100.359 56.475V56.3886L100.264 56.3022C100.176 56.2212 100.08 56.1489 99.9795 56.0863L99.8146 55.973L97.7258 54.4239C97.4958 54.2859 97.3161 54.0675 97.2162 53.8046C97.1163 53.5418 97.1022 53.25 97.1761 52.9773C97.2823 52.757 97.4557 52.583 97.6669 52.4847C97.8781 52.3863 98.1142 52.3697 98.3354 52.4375C99.3585 52.7083 100.319 53.2024 101.159 53.8895C102.896 55.173 104.222 57.0057 104.957 59.136C104.978 59.1976 104.975 59.2656 104.95 59.3253C104.925 59.385 104.879 59.4314 104.822 59.4545C104.765 59.4772 104.702 59.4746 104.647 59.4473C104.591 59.42 104.548 59.3702 104.527 59.3087C103.829 57.271 102.561 55.5185 100.899 54.2943C100.113 53.6489 99.2134 53.1825 98.2555 52.9233C97.9257 52.8639 97.6808 52.9557 97.6009 53.1662C97.5209 53.3767 97.6009 53.7437 97.9806 54.0244L100.064 55.5574L100.214 55.6653C100.335 55.7399 100.449 55.8267 100.554 55.9244L100.664 56.0216C100.73 56.0634 100.781 56.1291 100.806 56.2072C100.832 56.2852 100.831 56.3705 100.804 56.448V56.5559C100.641 57.4416 100.68 58.3569 100.919 59.2224C101.134 59.8867 101.394 60.5326 101.699 61.1547C101.713 61.1832 101.722 61.2146 101.725 61.2469C101.727 61.2793 101.724 61.3119 101.715 61.3427C101.705 61.3736 101.69 61.402 101.67 61.4263C101.65 61.4506 101.626 61.4703 101.599 61.484C101.57 61.5035 101.537 61.5146 101.504 61.5164Z" fill="#231F20"></path><path d="M92.3685 99.2246H117.829V76.6517H92.3685V99.2246Z" fill="#D1D3D4"></path><path d="M117.829 99.494H92.3431C92.2769 99.494 92.2133 99.4656 92.1664 99.415C92.1196 99.3644 92.0933 99.2957 92.0933 99.2242V76.6566C92.0933 76.585 92.1196 76.5164 92.1664 76.4658C92.2133 76.4151 92.2769 76.3867 92.3431 76.3867H117.829C117.895 76.3867 117.959 76.4151 118.005 76.4658C118.052 76.5164 118.079 76.585 118.079 76.6566V99.2242C118.079 99.2957 118.052 99.3644 118.005 99.415C117.959 99.4656 117.895 99.494 117.829 99.494ZM92.618 98.9543H117.604V76.9265H92.618V98.9543Z" fill="#D1D3D4"></path><path d="M94.7671 76.6504H116.4V73.5737H94.7671V76.6504Z" fill="white"></path><path d="M116.4 76.8999H94.767C94.7069 76.8999 94.6491 76.8745 94.6062 76.8291C94.5632 76.7837 94.5384 76.7219 94.5371 76.657V73.5749C94.5384 73.51 94.5632 73.4482 94.6062 73.4028C94.6491 73.3574 94.7069 73.332 94.767 73.332H116.4C116.46 73.332 116.518 73.3574 116.561 73.4028C116.604 73.4482 116.628 73.51 116.63 73.5749V76.657C116.628 76.7219 116.604 76.7837 116.561 76.8291C116.518 76.8745 116.46 76.8999 116.4 76.8999ZM95.0068 76.4087H116.18V73.8232H95.0068V76.4087Z" fill="#231F20"></path><path d="M63.6693 73.4512L119.553 73.4512V68.3126H63.6693V73.4512Z" fill="white"></path><path d="M119.553 73.6981H63.6693C63.6393 73.6981 63.6097 73.6917 63.582 73.6791C63.5544 73.6666 63.5294 73.6482 63.5085 73.6251C63.4875 73.6019 63.4711 73.5745 63.4601 73.5444C63.4491 73.5143 63.4437 73.4822 63.4444 73.4498V68.3167C63.4437 68.2843 63.4491 68.2521 63.4601 68.222C63.4711 68.1919 63.4875 68.1645 63.5085 68.1414C63.5294 68.1183 63.5544 68.0999 63.582 68.0874C63.6097 68.0748 63.6393 68.0684 63.6693 68.0684H119.553C119.614 68.0684 119.672 68.0945 119.715 68.1411C119.758 68.1876 119.783 68.2508 119.783 68.3167V73.4498C119.783 73.5157 119.758 73.5788 119.715 73.6254C119.672 73.6719 119.614 73.6981 119.553 73.6981ZM63.8991 73.2069H119.328V68.5595H63.8991V73.2069Z" fill="#231F20"></path><path d="M6.40165 73.4512L67.5771 73.4512V68.3126L6.40165 68.3126V73.4512Z" fill="white"></path><path d="M67.5773 73.6981H6.3968C6.36685 73.6981 6.33719 73.6917 6.30958 73.6791C6.28196 73.6666 6.25695 73.6482 6.236 73.6251C6.21505 73.6019 6.19859 73.5745 6.18759 73.5444C6.17659 73.5143 6.17126 73.4822 6.17193 73.4498V68.3167C6.17126 68.2843 6.17659 68.2521 6.18759 68.222C6.19859 68.1919 6.21505 68.1645 6.236 68.1414C6.25695 68.1183 6.28196 68.0999 6.30958 68.0874C6.33719 68.0748 6.36685 68.0684 6.3968 68.0684H67.5773C67.6383 68.0684 67.6967 68.0945 67.7398 68.1411C67.7829 68.1876 67.8072 68.2508 67.8072 68.3167V73.4498C67.8072 73.5157 67.7829 73.5788 67.7398 73.6254C67.6967 73.6719 67.6383 73.6981 67.5773 73.6981ZM6.61168 73.2069H67.3474V68.5595H6.62667L6.61168 73.2069Z" fill="#231F20"></path><path d="M117.754 38.7796L118.894 33.6734L135.255 30.5859L135.679 36.7447L117.754 38.7796Z" fill="white"></path><path d="M117.754 39.0516C117.716 39.051 117.679 39.0412 117.645 39.0232C117.612 39.0051 117.582 38.9791 117.558 38.947C117.535 38.915 117.518 38.8777 117.51 38.8379C117.501 38.7981 117.501 38.7568 117.509 38.7169L118.649 33.6108C118.66 33.5592 118.685 33.5122 118.72 33.4757C118.756 33.4393 118.8 33.4149 118.849 33.4057L135.214 30.3236C135.249 30.3178 135.284 30.3197 135.317 30.3289C135.351 30.3382 135.382 30.3548 135.409 30.3776C135.436 30.4014 135.459 30.4309 135.475 30.4643C135.491 30.4977 135.501 30.5343 135.504 30.5719L135.929 36.7252C135.933 36.7957 135.912 36.8652 135.871 36.9195C135.829 36.9737 135.769 37.0085 135.704 37.0167L117.779 39.0462L117.754 39.0516ZM119.094 33.913L118.094 38.474L135.424 36.5093L135.04 30.9119L119.094 33.913Z" fill="#231F20"></path><path d="M148.247 40.3899C148.247 40.3899 140.871 32.9358 126.299 35.0463C111.727 37.1568 113.096 44.762 112.047 52.2378C110.998 59.7135 112.047 86.8097 112.047 86.8097C112.047 86.8097 92.668 83.258 90.5592 86.8097C88.4503 90.3613 90.2193 99.9421 90.2193 99.9421H112.647L143.894 97.184L148.247 40.3899Z" fill="#007456"></path><path d="M121.662 91.6668C121.662 91.6668 125.939 39.8495 132.485 33.9984C139.032 28.1474 156.972 30.2201 159.47 37.237C161.969 44.2539 150.76 89.2649 148.277 95.348C145.793 101.431 144.778 101.15 132.955 101.15C125.459 101.15 97.6701 103.342 95.6412 99.2019C93.6124 95.062 100.029 91.1918 121.662 91.6668Z" fill="#231F20"></path><path d="M111.432 101.982C102.937 101.982 96.4408 101.394 95.4163 99.3371C95.1644 98.8888 95.0312 98.3744 95.0312 97.85C95.0312 97.3256 95.1644 96.8113 95.4163 96.363C97.4152 92.8707 106.65 91.1219 121.437 91.4403C121.791 87.268 125.934 39.515 132.316 33.8151C136.698 29.8964 145.563 29.6373 151.675 31.3808C155.917 32.5898 158.741 34.6193 159.625 37.1724C162.194 44.4862 150.8 89.6483 148.431 95.467C146.003 101.404 144.908 101.404 134.404 101.404H132.905C131.351 101.404 128.877 101.502 126.009 101.615C120.962 101.815 115.92 101.982 111.432 101.982ZM118.228 91.8775C105.641 91.8775 97.5451 93.5724 95.8111 96.6113C95.5962 96.9877 95.4824 97.4213 95.4824 97.8635C95.4824 98.3058 95.5962 98.7393 95.8111 99.1158C97.3552 102.257 116 101.534 126.019 101.145C128.887 101.032 131.366 100.935 132.93 100.935H134.429C144.878 100.935 145.743 100.935 148.052 95.2727C150.6 89.0168 161.644 44.1948 159.24 37.3398C158.406 34.9648 155.687 33.0216 151.59 31.8396C143.539 29.5402 135.809 31.3322 132.6 34.1821C126.209 39.8928 121.906 91.1866 121.866 91.6994C121.86 91.7587 121.835 91.8136 121.795 91.8543C121.754 91.8949 121.702 91.9185 121.647 91.9207C120.474 91.8955 119.335 91.8811 118.228 91.8775Z" fill="#231F20"></path><path d="M109.319 78.7135C106.321 79.1507 103.117 80.106 101.288 82.7077C99.0197 85.9463 99.6393 90.4749 100.364 94.453C101.78 94.5969 103.177 94.9138 104.527 95.3976C103.709 93.0951 103.505 90.5915 103.937 88.1701C104.065 87.0315 104.558 85.9772 105.331 85.1906C106.114 84.6181 107.026 84.286 107.97 84.2298C113.966 83.35 119.403 84.3324 125.29 85.1421C126.239 81.4177 124.945 79.3504 121.667 78.843C117.576 78.1847 113.421 78.1411 109.319 78.7135Z" fill="#231F20"></path><path d="M104.527 95.6081H104.457C103.123 95.1285 101.743 94.8152 100.344 94.6743C100.297 94.6695 100.253 94.6486 100.218 94.6146C100.182 94.5806 100.158 94.5353 100.149 94.4854C99.4094 90.4317 98.8098 85.8491 101.113 82.5512C103.142 79.658 106.75 78.8322 109.289 78.4598C113.411 77.8882 117.586 77.9336 121.697 78.5947C123.391 78.8538 124.575 79.5285 125.225 80.5972C125.875 81.666 125.989 83.2475 125.49 85.1906C125.474 85.2446 125.442 85.2912 125.398 85.3227C125.354 85.3541 125.302 85.3684 125.25 85.3634L123.386 85.0989C118.204 84.3648 113.312 83.6685 107.99 84.4512C107.086 84.5007 106.212 84.8141 105.461 85.358C104.816 85.8977 104.387 86.8477 104.142 88.2025C103.724 90.5791 103.925 93.0342 104.721 95.295C104.737 95.3367 104.741 95.3823 104.733 95.4264C104.725 95.4704 104.705 95.5111 104.676 95.5433C104.636 95.5842 104.582 95.6073 104.527 95.6081ZM100.529 94.2101C101.756 94.3456 102.967 94.6095 104.147 94.9981C103.45 92.7788 103.295 90.4029 103.697 88.1C103.962 86.6318 104.447 85.6116 105.171 84.9801C105.987 84.3818 106.936 84.0313 107.92 83.9654C113.297 83.1773 118.219 83.8736 123.411 84.6185L125.085 84.8506C125.49 83.1557 125.4 81.8063 124.815 80.8509C124.23 79.8955 123.156 79.2964 121.597 79.0535C117.526 78.3969 113.391 78.3533 109.309 78.924C106.85 79.2802 103.357 80.0791 101.423 82.8265C99.3045 85.9031 99.8392 90.2968 100.549 94.2101H100.529Z" fill="#231F20"></path><path d="M119.633 90.5885C119.6 90.5966 119.566 90.5966 119.533 90.5885L111.947 87.0746C111.889 87.0449 111.843 86.9919 111.82 86.9268C111.797 86.8616 111.798 86.7893 111.824 86.7251C111.849 86.6609 111.896 86.6097 111.955 86.5823C112.015 86.5548 112.082 86.5533 112.142 86.5781L119.728 90.0973C119.758 90.1103 119.786 90.1298 119.81 90.1547C119.833 90.1795 119.851 90.2092 119.864 90.2419C119.877 90.2746 119.883 90.3097 119.883 90.3452C119.883 90.3806 119.876 90.4156 119.863 90.4482C119.84 90.4924 119.807 90.529 119.766 90.5538C119.726 90.5786 119.68 90.5906 119.633 90.5885Z" fill="#231F20"></path><path d="M63.6696 101.756H94.7671V73.456H63.6696V101.756Z" fill="white"></path><path d="M94.7667 102H63.6693C63.6393 102 63.6097 101.994 63.582 101.981C63.5544 101.968 63.5294 101.95 63.5085 101.927C63.4875 101.904 63.4711 101.876 63.4601 101.846C63.4491 101.816 63.4437 101.784 63.4444 101.752V73.4519C63.4444 73.3875 63.4681 73.3257 63.5103 73.2801C63.5524 73.2346 63.6096 73.209 63.6693 73.209H94.7667C94.8268 73.209 94.8846 73.2344 94.9275 73.2798C94.9705 73.3252 94.9953 73.387 94.9966 73.4519V101.752C94.9966 101.818 94.9724 101.881 94.9293 101.927C94.8862 101.974 94.8277 102 94.7667 102ZM63.8991 101.509H94.5369V73.7002H63.8991V101.509Z" fill="#231F20"></path><path d="M9.07022 101.756L63.6694 101.756V73.456H9.07022V101.756Z" fill="white"></path><path d="M63.6693 102H9.05512C9.02475 102.001 8.99455 101.995 8.96635 101.983C8.93815 101.97 8.91254 101.952 8.89106 101.929C8.86958 101.906 8.85267 101.878 8.84136 101.848C8.83005 101.817 8.82457 101.785 8.82525 101.752V73.4519C8.82524 73.4196 8.83122 73.3876 8.84283 73.3577C8.85445 73.3279 8.87146 73.3009 8.89287 73.2782C8.91429 73.2556 8.93967 73.2378 8.96753 73.226C8.99539 73.2141 9.02517 73.2083 9.05512 73.209H63.6693C63.7294 73.209 63.7872 73.2344 63.8301 73.2799C63.8731 73.3253 63.8979 73.387 63.8992 73.4519V101.752C63.8992 101.818 63.875 101.881 63.8319 101.927C63.7888 101.974 63.7303 102 63.6693 102ZM9.29998 101.509H63.4444V73.7002H9.29998V101.509Z" fill="#231F20"></path><path d="M91.6138 97.9228H67.3075C67.2412 97.9228 67.1777 97.8943 67.1308 97.8437C67.0839 97.7931 67.0576 97.7245 67.0576 97.6529V77.5629C67.0576 77.4913 67.0839 77.4226 67.1308 77.372C67.1777 77.3214 67.2412 77.293 67.3075 77.293H91.6138C91.6796 77.2944 91.7424 77.3232 91.789 77.3735C91.8356 77.4239 91.8623 77.4917 91.8636 77.5629V97.6529C91.8636 97.7245 91.8373 97.7931 91.7904 97.8437C91.7436 97.8943 91.68 97.9228 91.6138 97.9228ZM67.5573 97.383H91.3639V77.8327H67.5573V97.383Z" fill="#D1D3D4"></path><path d="M79.3608 84.408C78.9821 84.4091 78.6115 84.2888 78.2961 84.0623C77.9807 83.8357 77.7347 83.5133 77.589 83.1356C77.4434 82.7579 77.4048 82.3421 77.4781 81.9407C77.5513 81.5394 77.7332 81.1705 78.0007 80.8808C78.2682 80.5912 78.6092 80.3938 78.9806 80.3136C79.352 80.2334 79.7371 80.274 80.0871 80.4303C80.4371 80.5866 80.7363 80.8516 80.9468 81.1916C81.1574 81.5317 81.2697 81.9316 81.2697 82.3407C81.2684 82.8876 81.067 83.4118 80.7095 83.7991C80.3519 84.1863 79.8671 84.4052 79.3608 84.408ZM79.3608 80.8186C79.0807 80.8175 78.8066 80.9063 78.5732 81.0738C78.3399 81.2412 78.1579 81.4797 78.0502 81.7591C77.9426 82.0384 77.9141 82.346 77.9686 82.6428C78.023 82.9396 78.1578 83.2123 78.3558 83.4262C78.5539 83.6402 78.8064 83.7858 79.0811 83.8446C79.3559 83.9033 79.6407 83.8726 79.8993 83.7563C80.1579 83.6401 80.3788 83.4434 80.5338 83.1914C80.6888 82.9394 80.771 82.6433 80.77 82.3407C80.7687 81.9375 80.6198 81.5511 80.3558 81.266C80.0918 80.9808 79.7342 80.82 79.3608 80.8186Z" fill="#D1D3D4"></path><path d="M76.4276 56.1512C76.7075 57.1282 77.0223 58.089 77.3871 59.0282C76.2975 58.0391 75.1527 57.1234 73.959 56.2862C73.747 56.0974 73.4791 55.9977 73.2044 56.0055C73.0491 56.0549 72.9065 56.1426 72.7877 56.2615C72.6689 56.3804 72.5772 56.5274 72.5198 56.691C71.4904 58.85 71.9851 61.592 73.2294 63.6324C75.2283 66.8709 78.6514 69.6885 82.3543 69.4672C82.5947 69.4721 82.8317 69.4049 83.0389 69.2729C83.1896 69.1342 83.3121 68.9633 83.3987 68.7709C84.025 67.5618 84.5997 66.3258 85.1227 65.0627C85.2365 64.8647 85.2759 64.6272 85.2327 64.3988C85.144 64.2022 84.9959 64.0442 84.8129 63.9508C82.1644 62.148 80.6952 59.5086 78.9612 56.8367C78.6114 56.297 77.8118 54.343 77.0573 54.3754C76.2127 54.424 76.2327 55.4657 76.4276 56.1512Z" fill="white"></path><path d="M81.949 69.7246C78.0862 69.7246 74.7631 66.5561 73.0491 63.7872C71.6398 61.477 71.355 58.654 72.3295 56.5975C72.3975 56.3981 72.5095 56.2197 72.6558 56.0777C72.8021 55.9356 72.9782 55.8343 73.169 55.7824C73.4997 55.7633 73.8254 55.8767 74.0835 56.1009C75.0329 56.7648 75.9574 57.4881 76.8469 58.26C76.612 57.5961 76.4022 56.9213 76.2123 56.252C76.1185 55.979 76.0781 55.6879 76.0936 55.3971C76.1091 55.1064 76.1801 54.8222 76.3022 54.5626C76.3891 54.4347 76.5027 54.3308 76.6339 54.2595C76.765 54.1882 76.91 54.1515 77.0568 54.1524C77.7614 54.1524 78.406 55.3182 78.8658 56.1927C78.9554 56.3779 79.0538 56.5581 79.1606 56.7324L79.7903 57.7202C81.2894 60.0358 82.6636 62.2218 84.9423 63.7764C85.0663 63.8281 85.1777 63.9097 85.2681 64.0149C85.3585 64.1201 85.4255 64.2461 85.4641 64.3835C85.5026 64.5209 85.5116 64.6659 85.4905 64.8076C85.4694 64.9493 85.4186 65.084 85.3421 65.2013C84.8424 66.4644 84.2327 67.7166 83.6081 68.9257C83.5064 69.1519 83.3596 69.3509 83.1783 69.5087C82.937 69.6701 82.6576 69.7526 82.3738 69.7462C82.2339 69.7192 82.089 69.7246 81.949 69.7246ZM73.2939 56.2305H73.2389C73.059 56.2574 72.8941 56.441 72.7392 56.7702C71.8397 58.6702 72.1146 61.2988 73.4388 63.4579C75.1429 66.2485 78.506 69.3953 82.3538 69.1848C82.5514 69.192 82.7469 69.1397 82.9185 69.0337C83.0438 68.918 83.1444 68.7744 83.2133 68.6126C83.833 67.4198 84.4076 66.1783 84.9323 64.9315C85.013 64.7853 85.0481 64.615 85.0323 64.4457C84.9923 64.3161 84.8374 64.2136 84.7025 64.1218C82.3438 62.5025 80.9246 60.2895 79.4205 57.9307L78.7908 56.9429C78.7059 56.8188 78.6009 56.6137 78.476 56.4032C78.1412 55.7717 77.5465 54.595 77.0818 54.6112C77.005 54.6099 76.9291 54.6277 76.8597 54.6633C76.7904 54.6989 76.7296 54.7512 76.682 54.8163C76.5996 55.0131 76.5545 55.2258 76.5493 55.4418C76.5442 55.6578 76.5791 55.8727 76.652 56.0739C76.9219 57.0347 77.2417 57.9955 77.6015 58.9293C77.6199 58.9806 77.6221 59.037 77.6076 59.0898C77.5932 59.1425 77.5629 59.1886 77.5215 59.2207C77.4821 59.2558 77.4327 59.275 77.3816 59.275C77.3305 59.275 77.2811 59.2558 77.2417 59.2207C76.1619 58.2434 75.0252 57.342 73.8386 56.5219C73.684 56.3777 73.4955 56.2825 73.2939 56.2466V56.2305Z" fill="#231F20"></path><path d="M124.99 41.0547C124.99 41.0547 121.991 74.1692 111.707 73.9803C101.423 73.7914 79.7251 70.3153 79.7251 69.8295C79.7251 69.3437 82.3986 60.6535 82.3986 60.6535C82.3986 60.6535 105.461 63.2498 107.714 59.3527C109.968 55.4556 113.461 43.1922 113.461 43.1922" fill="#007456"></path><path d="M112.497 73.8559C103.897 73.8559 88.4352 71.6969 87.5807 71.5781C87.5152 71.5687 87.4557 71.5316 87.4155 71.475C87.3752 71.4183 87.3573 71.3467 87.3658 71.2759C87.3746 71.2047 87.4088 71.14 87.461 71.0956C87.5133 71.0512 87.5796 71.0307 87.6457 71.0384C97.0454 72.3662 115.41 74.4065 117.599 72.6576C120.347 70.4716 124.675 51.1049 124.715 50.9051C124.732 50.8361 124.774 50.777 124.83 50.7399C124.887 50.7028 124.955 50.6905 125.02 50.7054C125.083 50.7245 125.138 50.7692 125.173 50.8304C125.207 50.8916 125.218 50.9647 125.204 51.0347C125.025 51.8389 120.792 70.7901 117.899 73.0949C117.209 73.6238 115.19 73.8559 112.497 73.8559Z" fill="#231F20"></path><path d="M127.529 92.4496H127.489C127.457 92.4426 127.426 92.4287 127.399 92.4088C127.372 92.3889 127.349 92.3633 127.331 92.3337C127.314 92.304 127.302 92.2708 127.296 92.236C127.291 92.2012 127.291 92.1656 127.299 92.1312C130.917 74.4053 137.663 40.3138 137.328 38.1547C136.778 34.6031 133.615 35.1105 133.48 35.1321C133.414 35.1435 133.346 35.1261 133.292 35.0836C133.237 35.041 133.201 34.9769 133.19 34.9054C133.18 34.8338 133.196 34.7606 133.235 34.7019C133.275 34.6432 133.334 34.6038 133.4 34.5923C133.44 34.5923 137.183 33.9716 137.818 38.0576C138.258 40.859 128.213 90.1503 127.788 92.2445C127.774 92.3058 127.74 92.3596 127.692 92.397C127.645 92.4344 127.587 92.453 127.529 92.4496Z" fill="white"></path></svg>