<svg width="25" height="24" viewBox="0 0 25 24" fill="none" xmlns="http://www.w3.org/2000/svg">
<path d="M12.5022 0C14.2886 0 16.751 6.56474 17.0238 6.74261C17.2966 6.92092 23.9102 7.75949 24.4587 9.10828C25.0071 10.4571 19.9185 15.3363 19.7922 15.6686C19.666 16.0005 20.9376 22.9382 19.8916 23.8465C18.8456 24.7544 12.8667 21.2041 12.5022 21.2019C12.1377 21.1997 6.4004 24.7734 5.11278 23.8465C3.82516 22.9197 5.30514 16.0442 5.21212 15.6686C5.11909 15.2935 -0.0356034 10.8944 0.545699 9.10828C1.127 7.32255 7.74316 6.92754 7.98057 6.74261C8.21797 6.55768 10.7158 0 12.5022 0Z" fill="#FFBD39"/>
<path d="M12.5022 0.816406C14.1674 0.816406 16.3504 7.17018 16.6046 7.33613C16.8588 7.50208 23.1349 8.04892 23.6463 9.30635C24.1577 10.5633 19.3023 14.9941 19.1853 15.3035C19.0679 15.6129 20.3648 22.1971 19.3899 23.0431C18.415 23.8897 12.8423 20.463 12.5022 20.4608C12.1621 20.4586 6.81463 23.9073 5.61456 23.0431C4.4145 22.1794 6.01781 15.7709 5.9311 15.4209C5.84439 15.0713 0.815975 10.9711 1.35771 9.30635C1.89945 7.64155 8.29041 7.5087 8.51182 7.33613C8.73281 7.16356 10.837 0.816406 12.5022 0.816406Z" fill="url(#paint0_linear_6575_37490)"/>
<path d="M2.81467 9.61219C2.69891 8.42847 6.40224 7.73157 6.56599 9.11699C6.72889 10.502 2.97294 11.2249 2.81467 9.61219Z" fill="white"/>
<path d="M7.51419 8.73008C7.4864 7.96874 8.59345 7.92239 8.65112 8.54691C8.71594 9.24646 7.53986 9.44243 7.51419 8.73008Z" fill="white"/>
<g opacity="0.6">
<g opacity="0.6">
<path d="M9.30906 14.9294C9.30906 15.6996 8.6642 16.3241 7.86864 16.3241C7.07308 16.3241 6.42822 15.6996 6.42822 14.9294C6.42822 14.1592 7.07351 13.5352 7.86864 13.5352C8.6642 13.5352 9.30906 14.1592 9.30906 14.9294Z" fill="#FF5F82"/>
</g>
<g opacity="0.6">
<path d="M18.8594 14.9294C18.8594 15.6996 18.2145 16.3241 17.4189 16.3241C16.6234 16.3241 15.9785 15.6996 15.9785 14.9294C15.9785 14.1592 16.6234 13.5352 17.4189 13.5352C18.2141 13.5352 18.8594 14.1592 18.8594 14.9294Z" fill="#FF5F82"/>
</g>
</g>
<path d="M9.21539 14.7029C9.36945 14.5811 11.0763 14.6747 12.72 14.6795C14.2358 14.6839 15.6977 14.5908 15.8412 14.7029C16.1409 14.9373 15.0991 17.6088 12.5298 17.6088C9.96001 17.6088 8.91947 14.9373 9.21539 14.7029Z" fill="#872A2A"/>
<path d="M8.09422 9.75042C4.20526 8.03531 4.61566 12.6484 8.95796 13.3766C12.2547 10.6477 11.1939 6.66049 8.09422 9.75042Z" fill="#FF5F5F"/>
<path d="M16.886 9.75092C20.7173 7.89766 20.4564 12.5231 16.1406 13.4058C12.7576 10.7969 13.6878 6.77397 16.886 9.75092Z" fill="#FF5F5F"/>
<defs>
<linearGradient id="paint0_linear_6575_37490" x1="6.93416" y1="6.48046" x2="20.8171" y2="22.3853" gradientUnits="userSpaceOnUse">
<stop offset="0.043" stop-color="#FFF466"/>
<stop offset="0.0753" stop-color="#FFF466"/>
<stop offset="0.3152" stop-color="#FFEC5F"/>
<stop offset="0.6922" stop-color="#FFD54D"/>
<stop offset="0.8602" stop-color="#FFC943"/>
</linearGradient>
</defs>
</svg>
