<svg width="911" height="609" viewBox="0 0 911 609" fill="none" xmlns="http://www.w3.org/2000/svg">
<g clip-path="url(#clip0_6381_34998)">
<mask id="mask0_6381_34998" style="mask-type:luminance" maskUnits="userSpaceOnUse" x="0" y="0" width="979" height="609">
<path d="M979 0H0V609H979V0Z" fill="white"/>
</mask>
<g mask="url(#mask0_6381_34998)">
<mask id="mask1_6381_34998" style="mask-type:luminance" maskUnits="userSpaceOnUse" x="0" y="-161" width="979" height="980">
<path d="M0 -160.574H979V818.525H0V-160.574Z" fill="white"/>
</mask>
<g mask="url(#mask1_6381_34998)">
<mask id="mask2_6381_34998" style="mask-type:luminance" maskUnits="userSpaceOnUse" x="303" y="97" width="537" height="307">
<path d="M839.977 97.9062H303.485V403.385H839.977V97.9062Z" fill="white"/>
</mask>
<g mask="url(#mask2_6381_34998)">
<path d="M516.959 134.418L514.033 141.159L509.656 135.254L516.959 134.418Z" stroke="#0E1740" stroke-width="0.928764" stroke-linecap="round" stroke-linejoin="round"/>
<path d="M751.548 235.355L752.246 228.041L745.56 231.09L751.548 235.355Z" stroke="#0E1740" stroke-width="0.928764" stroke-linecap="round" stroke-linejoin="round"/>
<path d="M374.461 272.641L369.245 275.716" stroke="#0E1740" stroke-width="0.928764" stroke-linecap="round" stroke-linejoin="round"/>
<path d="M373.392 276.788L370.314 271.571" stroke="#0E1740" stroke-width="0.928764" stroke-linecap="round" stroke-linejoin="round"/>
<path d="M730.865 320.484L725.649 323.56" stroke="#0E1740" stroke-width="0.928764" stroke-linecap="round" stroke-linejoin="round"/>
<path d="M729.796 324.63L726.718 319.412" stroke="#0E1740" stroke-width="0.928764" stroke-linecap="round" stroke-linejoin="round"/>
<path d="M478.738 254.279C478.738 256.864 476.645 258.96 474.057 258.96C471.475 258.96 469.376 256.864 469.376 254.279C469.376 251.694 471.475 249.598 474.057 249.598C476.645 249.598 478.738 251.694 478.738 254.279Z" stroke="#0E1740" stroke-width="1.41502" stroke-linecap="round" stroke-linejoin="round"/>
<path d="M673.425 294.786C673.425 297.372 671.329 299.467 668.744 299.467C666.16 299.467 664.064 297.372 664.064 294.786C664.064 292.201 666.16 290.105 668.744 290.105C671.329 290.105 673.425 292.201 673.425 294.786Z" stroke="#0E1740" stroke-width="1.41502" stroke-linecap="round" stroke-linejoin="round"/>
<path d="M603.587 166.233L602.451 165.503C599.755 163.764 599.751 162.493 599.747 162.015C599.743 160.865 600.673 159.932 601.824 159.932C602.548 159.932 603.186 160.302 603.562 160.865C603.933 160.302 604.572 159.932 605.294 159.932C606.446 159.932 607.381 160.865 607.387 162.015C607.389 162.493 607.393 163.764 604.714 165.503L603.587 166.233Z" stroke="#0E1740" stroke-width="0.928764" stroke-linecap="round" stroke-linejoin="round"/>
<path d="M668.255 248.521C670.663 248.521 670.663 250.325 673.07 250.325C675.48 250.325 675.481 248.521 677.891 248.521C680.301 248.521 680.301 250.325 682.714 250.325C685.124 250.325 685.125 248.521 687.535 248.521C689.951 248.521 689.951 250.325 692.369 250.325C694.781 250.325 694.781 248.521 697.198 248.521" stroke="#0E1740" stroke-width="0.928764" stroke-linecap="round" stroke-linejoin="round"/>
<path d="M422.06 188.4C422.416 188.257 422.839 188.164 423.385 188.164C425.797 188.164 425.797 189.968 428.205 189.968C430.618 189.968 430.619 188.164 433.031 188.164C435.446 188.164 435.445 189.968 437.86 189.968C440.277 189.968 440.277 188.164 442.692 188.164M413.747 188.164C416.087 188.164 416.153 189.868 418.366 189.964" stroke="#0E1740" stroke-width="0.928764" stroke-linecap="round" stroke-linejoin="round"/>
</g>
</g>
<path d="M874.497 542.502L104.497 542.502" stroke="#1A1B1F" stroke-width="1.85838" stroke-miterlimit="10" stroke-linecap="round"/>
<path d="M690.124 497.617C680.109 492.563 684.224 481.404 679.04 475.093C673.856 468.785 675.618 461.341 679.339 456.207C683.059 451.069 683.619 447.197 679.673 441.183C675.73 435.166 678.112 426.832 680.501 422.841C682.89 418.849 689.15 412.948 689.871 397.317C690.595 381.686 710.234 371.893 710.234 371.893C710.234 371.893 725.838 387.324 721.65 402.4C717.463 417.472 721.564 425.032 722.593 429.571C723.617 434.11 723.28 442.772 717.657 447.257C712.033 451.741 711.357 455.597 713.29 461.635C715.223 467.677 714.579 475.297 707.682 479.673C700.79 484.052 701.222 495.94 690.124 497.617Z" fill="white"/>
<path d="M690.124 497.617C680.109 492.563 684.224 481.404 679.04 475.093C673.856 468.785 675.618 461.341 679.339 456.207C683.059 451.069 683.619 447.197 679.673 441.183C675.73 435.166 678.112 426.832 680.501 422.841C682.89 418.849 689.15 412.948 689.871 397.317C690.595 381.686 710.234 371.893 710.234 371.893C710.234 371.893 725.838 387.324 721.65 402.4C717.463 417.472 721.564 425.032 722.593 429.571C723.617 434.11 723.28 442.772 717.657 447.257C712.033 451.741 711.357 455.597 713.29 461.635C715.223 467.677 714.579 475.297 707.682 479.673C700.79 484.052 701.222 495.94 690.124 497.617Z" stroke="#0E1740" stroke-width="1.85838" stroke-miterlimit="10"/>
<path d="M690.124 497.616L710.236 371.892" stroke="#0E1740" stroke-width="1.85838" stroke-miterlimit="10" stroke-linecap="round"/>
<path d="M693.626 475.732L684.199 462.281" stroke="#0E1740" stroke-width="1.85838" stroke-miterlimit="10" stroke-linecap="round"/>
<path d="M694.404 471.421L708.722 463.377" stroke="#0E1740" stroke-width="1.85838" stroke-miterlimit="10" stroke-linecap="round"/>
<path d="M705.284 403.51L717.035 396.912" stroke="#0E1740" stroke-width="1.85838" stroke-miterlimit="10" stroke-linecap="round"/>
<path d="M699.476 439.513L718.418 428.876" stroke="#0E1740" stroke-width="1.85838" stroke-miterlimit="10" stroke-linecap="round"/>
<path d="M698.899 442.789L687.025 425.834" stroke="#0E1740" stroke-width="1.85838" stroke-miterlimit="10" stroke-linecap="round"/>
<path d="M704.349 408.707L697.071 398.33" stroke="#0E1740" stroke-width="1.85838" stroke-miterlimit="10" stroke-linecap="round"/>
<path d="M687.764 491.89C697.115 487.477 693.593 477.102 698.521 471.416C703.449 465.73 702.006 458.832 698.704 454.015C695.402 449.194 694.982 445.614 698.759 440.171C702.537 434.726 700.547 426.994 698.441 423.256C696.338 419.522 690.719 413.934 690.433 399.524C690.145 385.111 672.295 375.614 672.295 375.614C672.295 375.614 657.55 389.445 661.04 403.43C664.531 417.416 660.571 424.28 659.516 428.433C658.46 432.589 658.559 440.573 663.631 444.841C668.701 449.109 669.23 452.673 667.304 458.189C665.376 463.704 665.784 470.74 672.029 474.939C678.273 479.138 677.584 490.073 687.764 491.89Z" fill="white"/>
<path d="M687.764 491.89C697.115 487.477 693.593 477.102 698.521 471.416C703.449 465.73 702.006 458.832 698.704 454.015C695.402 449.194 694.982 445.614 698.759 440.171C702.537 434.726 700.547 426.994 698.441 423.256C696.338 419.522 690.719 413.934 690.433 399.524C690.145 385.111 672.295 375.614 672.295 375.614C672.295 375.614 657.55 389.445 661.04 403.43C664.531 417.416 660.571 424.28 659.516 428.433C658.46 432.589 658.559 440.573 663.631 444.841C668.701 449.109 669.23 452.673 667.304 458.189C665.376 463.704 665.784 470.74 672.029 474.939C678.273 479.138 677.584 490.073 687.764 491.89Z" stroke="#0E1740" stroke-width="1.85838" stroke-miterlimit="10"/>
<path d="M687.766 491.893L672.297 375.615" stroke="#0E1740" stroke-width="1.85838" stroke-miterlimit="10" stroke-linecap="round"/>
<path d="M685.072 471.65L694.08 459.492" stroke="#0E1740" stroke-width="1.85838" stroke-miterlimit="10" stroke-linecap="round"/>
<path d="M684.463 467.663L671.47 459.906" stroke="#0E1740" stroke-width="1.85838" stroke-miterlimit="10" stroke-linecap="round"/>
<path d="M676.087 404.856L665.427 398.492" stroke="#0E1740" stroke-width="1.85838" stroke-miterlimit="10" stroke-linecap="round"/>
<path d="M680.568 438.151L663.384 427.895" stroke="#0E1740" stroke-width="1.85838" stroke-miterlimit="10" stroke-linecap="round"/>
<path d="M681.018 441.181L692.362 425.854" stroke="#0E1740" stroke-width="1.85838" stroke-miterlimit="10" stroke-linecap="round"/>
<path d="M676.827 409.66L683.781 400.282" stroke="#0E1740" stroke-width="1.85838" stroke-miterlimit="10" stroke-linecap="round"/>
<path d="M679.243 492.876C681.181 487.344 675.588 484.64 675.254 480.385C674.918 476.131 671.561 473.971 668.301 473.389C665.04 472.804 663.426 471.549 662.732 467.858C662.037 464.166 658.123 461.894 655.776 461.257C653.43 460.62 648.938 460.667 643.004 455.05C637.068 449.43 626.133 452.864 626.133 452.864C626.133 452.864 625.852 464.321 632.886 468.475C639.923 472.63 641.121 476.961 642.379 479.04C643.637 481.118 646.898 484.254 650.639 483.904C654.381 483.554 656.034 484.761 657.493 487.733C658.951 490.704 661.957 493.339 666.136 492.488C670.316 491.635 674.456 496.265 679.243 492.876Z" fill="white"/>
<path d="M679.243 492.876C681.181 487.344 675.588 484.64 675.254 480.385C674.918 476.131 671.561 473.971 668.301 473.389C665.04 472.804 663.426 471.549 662.732 467.858C662.037 464.166 658.123 461.894 655.776 461.257C653.43 460.62 648.938 460.667 643.004 455.05C637.068 449.43 626.133 452.864 626.133 452.864C626.133 452.864 625.852 464.321 632.886 468.475C639.923 472.63 641.121 476.961 642.379 479.04C643.637 481.118 646.898 484.254 650.639 483.904C654.381 483.554 656.034 484.761 657.493 487.733C658.951 490.704 661.957 493.339 666.136 492.488C670.316 491.635 674.456 496.265 679.243 492.876Z" stroke="#0E1740" stroke-width="1.85838" stroke-miterlimit="10"/>
<path d="M679.239 492.877L626.129 452.865" stroke="#0E1740" stroke-width="1.85838" stroke-miterlimit="10" stroke-linecap="round"/>
<path d="M669.994 485.914L668.667 477.438" stroke="#0E1740" stroke-width="1.85838" stroke-miterlimit="10" stroke-linecap="round"/>
<path d="M668.142 484.574L659.841 486.734" stroke="#0E1740" stroke-width="1.85838" stroke-miterlimit="10" stroke-linecap="round"/>
<path d="M639.45 462.966L632.639 464.741" stroke="#0E1740" stroke-width="1.85838" stroke-miterlimit="10" stroke-linecap="round"/>
<path d="M654.675 474.404L643.698 477.263" stroke="#0E1740" stroke-width="1.85838" stroke-miterlimit="10" stroke-linecap="round"/>
<path d="M656.079 475.428L654.403 464.746" stroke="#0E1740" stroke-width="1.85838" stroke-miterlimit="10" stroke-linecap="round"/>
<path d="M641.681 464.58L640.659 458.04" stroke="#0E1740" stroke-width="1.85838" stroke-miterlimit="10" stroke-linecap="round"/>
<path d="M698.684 493.627C695.839 488.502 700.895 484.891 700.505 480.641C700.118 476.391 703.062 473.695 706.177 472.571C709.292 471.442 710.671 469.932 710.731 466.178C710.793 462.421 714.266 459.52 716.471 458.495C718.676 457.47 723.111 456.758 728.011 450.218C732.912 443.676 744.269 445.212 744.269 445.212C744.269 445.212 746.482 456.458 740.251 461.741C734.017 467.026 733.568 471.497 732.679 473.759C731.791 476.02 729.106 479.662 725.36 479.95C721.612 480.237 720.187 481.705 719.252 484.882C718.317 488.057 715.799 491.162 711.537 491.03C707.272 490.895 703.974 496.158 698.684 493.627Z" fill="white"/>
<path d="M698.684 493.627C695.839 488.502 700.895 484.891 700.505 480.641C700.118 476.391 703.062 473.695 706.177 472.571C709.292 471.442 710.671 469.932 710.731 466.178C710.793 462.421 714.266 459.52 716.471 458.495C718.676 457.47 723.111 456.758 728.011 450.218C732.912 443.676 744.269 445.212 744.269 445.212C744.269 445.212 746.482 456.458 740.251 461.741C734.017 467.026 733.568 471.497 732.679 473.759C731.791 476.02 729.106 479.662 725.36 479.95C721.612 480.237 720.187 481.705 719.252 484.882C718.317 488.057 715.799 491.162 711.537 491.03C707.272 490.895 703.974 496.158 698.684 493.627Z" stroke="#0E1740" stroke-width="1.85838" stroke-miterlimit="10"/>
<path d="M698.682 493.625L744.268 445.211" stroke="#0E1740" stroke-width="1.85838" stroke-miterlimit="10" stroke-linecap="round"/>
<path d="M706.62 485.198L706.496 476.619" stroke="#0E1740" stroke-width="1.85838" stroke-miterlimit="10" stroke-linecap="round"/>
<path d="M708.219 483.566L716.766 484.292" stroke="#0E1740" stroke-width="1.85838" stroke-miterlimit="10" stroke-linecap="round"/>
<path d="M732.851 457.418L739.863 458.017" stroke="#0E1740" stroke-width="1.85838" stroke-miterlimit="10" stroke-linecap="round"/>
<path d="M719.773 471.27L731.077 472.232" stroke="#0E1740" stroke-width="1.85838" stroke-miterlimit="10" stroke-linecap="round"/>
<path d="M718.566 472.513L718.413 461.701" stroke="#0E1740" stroke-width="1.85838" stroke-miterlimit="10" stroke-linecap="round"/>
<path d="M730.919 459.388L730.821 452.77" stroke="#0E1740" stroke-width="1.85838" stroke-miterlimit="10" stroke-linecap="round"/>
<path d="M714.021 529.994H663.264L655.073 485.467H722.213L714.021 529.994Z" fill="white"/>
<path d="M714.021 529.994H663.264L655.073 485.467H722.213L714.021 529.994Z" stroke="#0E1740" stroke-width="1.85838" stroke-miterlimit="10"/>
<path d="M654.38 549.939H660.753V516.221H654.38V549.939Z" fill="white"/>
<path d="M654.38 549.939H660.753V516.221H654.38V549.939Z" stroke="#0E1740" stroke-width="1.85838" stroke-miterlimit="10"/>
<path d="M716.539 549.939H722.912V516.221H716.539V549.939Z" fill="white"/>
<path d="M716.539 549.939H722.912V516.221H716.539V549.939Z" stroke="#0E1740" stroke-width="1.85838" stroke-miterlimit="10"/>
<path d="M716.531 535.873H660.75V529.994H716.531V535.873Z" fill="white"/>
<path d="M716.531 535.873H660.75V529.994H716.531V535.873Z" stroke="#0E1740" stroke-width="1.85838" stroke-miterlimit="10"/>
<path d="M685.456 549.941H691.829V516.223H685.456V549.941Z" fill="white"/>
<path d="M685.456 549.941H691.829V516.223H685.456V549.941Z" stroke="#0E1740" stroke-width="1.85838" stroke-miterlimit="10"/>
<path d="M544.817 296.663C509.304 290.151 483.854 301.418 464 318.757C444.144 336.097 437.858 363.275 377.518 375.556C317.178 387.839 296.55 416.647 292.321 453.005C288.095 489.365 316.684 542.503 383.629 542.503C450.576 542.503 491.964 542.503 516.292 542.503C540.622 542.503 595.436 536.911 618.927 483.212C642.419 429.511 645.496 315.12 544.817 296.663Z" fill="#007456"/>
<path d="M544.817 296.663C509.304 290.151 483.854 301.418 464 318.757C444.144 336.097 437.858 363.275 377.518 375.556C317.178 387.839 296.55 416.647 292.321 453.005C288.095 489.365 316.684 542.503 383.629 542.503C450.576 542.503 491.964 542.503 516.292 542.503C540.622 542.503 595.436 536.911 618.928 483.212C642.419 429.511 645.496 315.12 544.817 296.663Z" stroke="#1A1B1F" stroke-width="1.85838" stroke-miterlimit="10"/>
<path d="M571.99 324.469C565.749 314.382 562.151 310.785 547.75 307.429C533.345 304.073 480.213 321.831 467.267 329.662C454.324 337.494 435.189 364.344 412.537 378.351C389.885 392.36 334.232 402.29 325.362 464.565C318.8 510.659 344.583 532.428 371.134 541.846C375.141 542.27 379.299 542.501 383.623 542.501C408.225 542.501 429.362 542.501 447.486 542.501C454.344 522.28 473.996 488.154 515.823 452.258C573.617 402.661 578.232 334.557 571.99 324.469Z" fill="#007456"/>
<path d="M544.817 296.663C509.304 290.151 483.854 301.418 464 318.757C444.144 336.097 437.858 363.275 377.518 375.556C317.178 387.839 296.55 416.647 292.321 453.005C288.095 489.365 316.684 542.503 383.629 542.503C450.576 542.503 491.964 542.503 516.292 542.503C540.622 542.503 595.436 536.911 618.928 483.212C642.419 429.511 645.496 315.12 544.817 296.663Z" stroke="#1A1B1F" stroke-width="1.39357" stroke-linecap="round" stroke-linejoin="round"/>
<path d="M277.733 461.359L245.696 490.849L246.519 503.526L258.155 511.705C258.155 511.705 260.522 506.863 264.791 502.962C269.06 499.06 292.197 478.821 292.197 478.821L277.733 461.359Z" fill="white"/>
<path d="M277.733 461.359L245.696 490.849L246.519 503.526L258.155 511.705C258.155 511.705 260.522 506.863 264.791 502.962C269.06 499.06 292.197 478.821 292.197 478.821L277.733 461.359Z" stroke="#1A1B1F" stroke-width="1.39357" stroke-linecap="round" stroke-linejoin="round"/>
<path d="M248.696 529.708L242.984 535.64L178.877 481.239L184.586 475.305L204.792 492.462L248.696 529.708Z" fill="white"/>
<path d="M248.696 529.708L242.984 535.64L178.877 481.239L184.586 475.305L204.792 492.462L248.696 529.708Z" stroke="#1A1B1F" stroke-width="1.85838" stroke-miterlimit="10"/>
<path d="M236.859 482.572C243.211 482.972 245.778 480.98 247.531 482.709C249.305 484.46 249.349 488.764 244.911 490.71C243.878 489.778 242.514 489.091 240.466 488.405C236.2 486.973 218.86 481.658 214.967 480.622C211.076 479.585 209.896 482.148 209.896 482.148C210.316 479.874 210.181 478.233 210.07 477.484C210.07 477.484 211.444 475.707 214.843 476.901C218.223 478.09 230.531 482.171 236.859 482.572Z" fill="#EFEFEF"/>
<path d="M214.968 480.621C218.862 481.656 236.19 487.005 240.467 488.405C242.52 489.075 243.867 489.79 244.912 490.71C246.045 491.706 246.768 492.989 247.482 494.882C248.859 498.534 251.195 502.529 254.59 505.272C257.981 508.013 260.107 507.897 259.727 511.219C259.345 514.539 255.482 523.698 248.696 529.708L204.792 492.462C208.031 488.51 209.373 484.891 209.897 482.148C209.897 482.148 211.076 479.586 214.968 480.621Z" fill="white"/>
<path d="M214.968 480.621C218.862 481.656 236.19 487.005 240.467 488.405C242.52 489.075 243.867 489.79 244.912 490.71C246.045 491.706 246.768 492.989 247.482 494.882C248.859 498.534 251.195 502.529 254.59 505.272C257.981 508.013 260.107 507.897 259.727 511.219C259.345 514.539 255.482 523.698 248.696 529.708L204.792 492.462C208.031 488.51 209.373 484.891 209.897 482.148C209.897 482.148 211.076 479.586 214.968 480.621Z" stroke="#1A1B1F" stroke-width="1.85838" stroke-miterlimit="10"/>
<path d="M210.068 477.483C210.179 478.232 210.326 479.876 209.893 482.148C209.369 484.891 208.028 488.51 204.789 492.462L184.583 475.304C184.583 475.304 192.1 466.522 209.988 477.05C209.988 477.05 210.026 477.209 210.068 477.483Z" fill="white"/>
<path d="M210.068 477.483C210.179 478.232 210.326 479.876 209.893 482.148C209.369 484.891 208.028 488.51 204.789 492.462L184.583 475.304C184.583 475.304 192.1 466.522 209.988 477.05C209.988 477.05 210.026 477.209 210.068 477.483Z" stroke="#1A1B1F" stroke-width="1.85838" stroke-miterlimit="10"/>
<path d="M248.696 529.708L204.792 492.462L184.586 475.305L178.877 481.239L242.984 535.64L248.696 529.708Z" stroke="#1A1B1F" stroke-width="1.39357" stroke-linecap="round" stroke-linejoin="round"/>
<path d="M184.583 475.304C184.583 475.304 192.1 466.522 209.988 477.05C209.988 477.05 210.026 477.209 210.068 477.483C210.179 478.232 210.326 479.876 209.893 482.148C209.369 484.891 208.028 488.51 204.789 492.462" stroke="#1A1B1F" stroke-width="1.39357" stroke-linecap="round" stroke-linejoin="round"/>
<path d="M209.896 482.148C209.896 482.148 211.076 479.586 214.968 480.621C218.862 481.656 236.189 487.005 240.466 488.405C242.519 489.075 243.866 489.79 244.911 490.71C246.045 491.706 246.767 492.989 247.482 494.882C248.858 498.534 251.194 502.529 254.589 505.272C257.981 508.013 260.106 507.897 259.726 511.219C259.344 514.539 255.482 523.698 248.696 529.708" stroke="#1A1B1F" stroke-width="1.39357" stroke-linecap="round" stroke-linejoin="round"/>
<path d="M210.069 477.484C210.069 477.484 211.443 475.707 214.841 476.901C218.221 478.09 230.53 482.171 236.858 482.572C243.21 482.972 245.777 480.98 247.529 482.709C249.303 484.46 249.348 488.764 244.909 490.71" stroke="#1A1B1F" stroke-width="1.39357" stroke-linecap="round" stroke-linejoin="round"/>
<path d="M218.56 485.468C218.48 486.394 217.665 487.081 216.739 487.001C215.814 486.921 215.128 486.108 215.21 485.181L215.949 476.58C216.028 475.655 216.843 474.968 217.767 475.047C218.692 475.129 219.378 475.942 219.3 476.866L218.56 485.468Z" fill="white"/>
<path d="M218.56 485.468C218.48 486.394 217.665 487.081 216.739 487.001C215.814 486.921 215.128 486.108 215.21 485.181L215.949 476.58C216.028 475.655 216.843 474.968 217.767 475.047C218.692 475.129 219.378 475.942 219.3 476.866L218.56 485.468Z" stroke="#1A1B1F" stroke-width="1.39357" stroke-linecap="round" stroke-linejoin="round"/>
<path d="M225.258 487.942C225.179 488.867 224.364 489.556 223.439 489.477C222.512 489.393 221.825 488.579 221.907 487.654L222.643 478.304C222.722 477.379 223.535 476.694 224.461 476.769C225.385 476.855 226.073 477.667 225.993 478.592L225.258 487.942Z" fill="white"/>
<path d="M225.258 487.942C225.179 488.867 224.364 489.556 223.439 489.477C222.512 489.393 221.825 488.579 221.907 487.654L222.643 478.304C222.722 477.379 223.535 476.694 224.461 476.769C225.385 476.855 226.073 477.667 225.993 478.592L225.258 487.942Z" stroke="#1A1B1F" stroke-width="1.39357" stroke-linecap="round" stroke-linejoin="round"/>
<path d="M231.959 490.413C231.877 491.34 231.063 492.027 230.138 491.946C229.213 491.866 228.526 491.05 228.607 490.124L229.337 480.027C229.417 479.102 230.229 478.417 231.156 478.494C232.082 478.576 232.768 479.39 232.688 480.315L231.959 490.413Z" fill="white"/>
<path d="M231.959 490.413C231.877 491.34 231.063 492.027 230.138 491.946C229.213 491.866 228.526 491.05 228.607 490.124L229.337 480.027C229.417 479.102 230.229 478.417 231.156 478.494C232.082 478.576 232.768 479.39 232.688 480.315L231.959 490.413Z" stroke="#1A1B1F" stroke-width="1.39357" stroke-linecap="round" stroke-linejoin="round"/>
<path d="M238.656 492.892C238.577 493.813 237.763 494.502 236.837 494.422C235.913 494.345 235.225 493.529 235.306 492.601L236.031 481.756C236.11 480.83 236.924 480.143 237.851 480.223C238.775 480.305 239.461 481.119 239.381 482.042L238.656 492.892Z" fill="white"/>
<path d="M238.656 492.892C238.577 493.813 237.763 494.502 236.837 494.422C235.913 494.345 235.225 493.529 235.306 492.601L236.031 481.756C236.11 480.83 236.924 480.143 237.851 480.223C238.775 480.305 239.461 481.119 239.381 482.042L238.656 492.892Z" stroke="#1A1B1F" stroke-width="1.39357" stroke-linecap="round" stroke-linejoin="round"/>
<path d="M352.806 381.062L273.347 463.429L294.142 489.561L362.094 429.441C362.094 429.441 402.976 442.379 411.182 442.379C419.384 442.379 448.657 442.379 452.572 442.379C456.487 442.379 472.351 439.737 478.25 423.36C481.226 415.084 485.847 394.323 459.663 381.152L352.806 381.062Z" fill="white"/>
<path d="M352.806 381.062L273.347 463.429L294.142 489.561L362.094 429.441C362.094 429.441 402.976 442.379 411.182 442.379C419.384 442.379 448.657 442.379 452.572 442.379C456.487 442.379 472.351 439.737 478.25 423.36C481.226 415.084 485.847 394.323 459.663 381.152L352.806 381.062Z" stroke="#1A1B1F" stroke-width="1.85838" stroke-miterlimit="10"/>
<path d="M459.664 381.152L352.808 381.062L324.141 410.778L348.801 441.201L362.095 429.441C362.095 429.441 402.977 442.379 411.183 442.379C419.385 442.379 448.657 442.379 452.572 442.379C456.487 442.379 472.353 439.737 478.251 423.36C481.227 415.084 485.848 394.323 459.664 381.152Z" fill="#EFEFEF"/>
<path d="M352.806 381.062L273.347 463.429L294.142 489.561L362.094 429.441C362.094 429.441 402.976 442.379 411.182 442.379C419.384 442.379 448.657 442.379 452.572 442.379C456.487 442.379 472.351 439.737 478.25 423.36C481.226 415.084 485.847 394.323 459.663 381.152L352.806 381.062Z" stroke="#1A1B1F" stroke-width="1.39357" stroke-linecap="round" stroke-linejoin="round"/>
<path d="M362.101 429.438C362.101 429.438 369.712 415.32 366.994 402.512" stroke="#1A1B1F" stroke-width="1.39357" stroke-linecap="round" stroke-linejoin="round"/>
<path d="M280.373 456.15L301.23 483.294" stroke="#1A1B1F" stroke-width="1.39357" stroke-linecap="round" stroke-linejoin="round"/>
<path d="M344.598 557.977L340.381 565.027L265.837 526.546L270.055 519.494L293.549 531.633L344.598 557.977Z" fill="white"/>
<path d="M344.598 557.977L340.381 565.027L265.837 526.546L270.055 519.494L293.549 531.633L344.598 557.977Z" stroke="#1A1B1F" stroke-width="1.85838" stroke-miterlimit="10"/>
<path d="M322.503 514.814C328.764 513.777 330.817 511.263 332.906 512.55C335.023 513.854 336.035 518.029 332.156 520.918C330.945 520.244 329.461 519.883 327.316 519.675C322.849 519.241 304.798 517.971 300.781 517.838C296.764 517.704 296.196 520.462 296.196 520.462C296.093 518.156 295.591 516.592 295.316 515.888C295.316 515.888 296.251 513.852 299.825 514.25C303.378 514.646 316.26 515.849 322.503 514.814Z" fill="#EFEFEF"/>
<path d="M300.788 517.837C304.806 517.968 322.852 519.278 327.323 519.674C329.469 519.864 330.942 520.26 332.162 520.917C333.488 521.631 334.478 522.715 335.598 524.395C337.759 527.635 340.925 530.998 344.84 532.899C348.757 534.801 350.795 534.211 351.172 537.526C351.548 540.839 349.852 550.61 344.602 557.978L293.553 531.634C295.817 527.064 296.307 523.246 296.202 520.461C296.202 520.461 296.77 517.705 300.788 517.837Z" fill="white"/>
<path d="M300.788 517.837C304.806 517.968 322.852 519.278 327.323 519.674C329.469 519.864 330.942 520.26 332.162 520.917C333.488 521.631 334.478 522.715 335.598 524.395C337.759 527.635 340.925 530.998 344.84 532.899C348.757 534.801 350.795 534.211 351.172 537.526C351.548 540.839 349.852 550.61 344.602 557.978L293.553 531.634C295.817 527.064 296.307 523.246 296.202 520.461C296.202 520.461 296.77 517.705 300.788 517.837Z" stroke="#1A1B1F" stroke-width="1.85838" stroke-miterlimit="10"/>
<path d="M295.321 515.886C295.596 516.59 296.114 518.154 296.201 520.46C296.305 523.245 295.816 527.063 293.551 531.633L270.057 519.494C270.057 519.494 275.391 509.267 295.145 515.483C295.145 515.483 295.22 515.629 295.321 515.886Z" fill="white"/>
<path d="M295.321 515.886C295.596 516.59 296.114 518.154 296.201 520.46C296.305 523.245 295.816 527.063 293.551 531.633L270.057 519.494C270.057 519.494 275.391 509.267 295.145 515.483C295.145 515.483 295.22 515.629 295.321 515.886Z" stroke="#1A1B1F" stroke-width="1.85838" stroke-miterlimit="10"/>
<path d="M344.598 557.977L293.549 531.633L270.055 519.494L265.837 526.546L340.381 565.027L344.598 557.977Z" stroke="#1A1B1F" stroke-width="1.39357" stroke-linecap="round" stroke-linejoin="round"/>
<path d="M270.057 519.494C270.057 519.494 275.391 509.267 295.145 515.483C295.145 515.483 295.22 515.629 295.321 515.886C295.596 516.59 296.114 518.154 296.201 520.46C296.305 523.245 295.816 527.063 293.551 531.633" stroke="#1A1B1F" stroke-width="1.39357" stroke-linecap="round" stroke-linejoin="round"/>
<path d="M296.2 520.461C296.2 520.461 296.767 517.705 300.785 517.837C304.803 517.968 322.849 519.278 327.32 519.674C329.466 519.864 330.94 520.261 332.16 520.917C333.486 521.631 334.475 522.715 335.595 524.395C337.756 527.635 340.922 530.998 344.837 532.899C348.754 534.801 350.792 534.211 351.169 537.526C351.545 540.839 349.849 550.61 344.599 557.978" stroke="#1A1B1F" stroke-width="1.39357" stroke-linecap="round" stroke-linejoin="round"/>
<path d="M295.316 515.888C295.316 515.888 296.251 513.852 299.825 514.25C303.378 514.646 316.26 515.849 322.503 514.814C328.764 513.777 330.817 511.263 332.906 512.55C335.023 513.854 336.035 518.029 332.156 520.918" stroke="#1A1B1F" stroke-width="1.39357" stroke-linecap="round" stroke-linejoin="round"/>
<path d="M342.046 483.936L330.22 521.017L335.704 533.057L349.753 538.344C349.753 538.344 350.201 533.149 352.792 528.432C355.382 523.717 364.491 493.562 364.491 493.562L342.046 483.936Z" fill="white"/>
<path d="M342.046 483.936L330.22 521.017L335.704 533.057L349.753 538.344C349.753 538.344 350.201 533.149 352.792 528.432C355.382 523.717 364.491 493.562 364.491 493.562L342.046 483.936Z" stroke="#1A1B1F" stroke-width="1.39357" stroke-linecap="round" stroke-linejoin="round"/>
<path d="M365.02 383.304L339.274 487.5L372.111 502.242L399.772 422.227C399.772 422.227 434.346 442.374 442.55 442.374C450.752 442.374 480.025 442.374 483.94 442.374C487.855 442.374 503.328 439.731 506.776 423.354C508.521 415.078 510.041 394.317 481.889 381.146L365.02 383.304Z" fill="white"/>
<path d="M365.02 383.304L339.274 487.5L372.111 502.242L399.772 422.227C399.772 422.227 434.346 442.374 442.55 442.374C450.752 442.374 480.025 442.374 483.94 442.374C487.855 442.374 503.328 439.731 506.776 423.354C508.521 415.078 510.041 394.317 481.889 381.146L365.02 383.304Z" stroke="#1A1B1F" stroke-width="1.39357" stroke-linecap="round" stroke-linejoin="round"/>
<path d="M399.777 422.228C399.777 422.228 398.836 406.762 389.401 396.561" stroke="#1A1B1F" stroke-width="1.39357" stroke-linecap="round" stroke-linejoin="round"/>
<path d="M341.549 478.291L374.991 493.901" stroke="#1A1B1F" stroke-width="1.39357" stroke-linecap="round" stroke-linejoin="round"/>
<path d="M554.509 225.112C555.575 244.492 555.458 250.498 563.203 258.821C570.944 267.145 579.924 280.357 571.024 292.487L520.374 302.335L506.877 232.877L554.509 225.112Z" fill="#1A1B1F"/>
<path d="M554.509 225.112C555.575 244.492 555.458 250.498 563.203 258.821C570.944 267.145 579.924 280.357 571.024 292.487L520.374 302.335L506.877 232.877L554.509 225.112Z" stroke="#1A1B1F" stroke-width="1.85838" stroke-miterlimit="10"/>
<path d="M493.945 278.975C490.562 281.932 479.097 287.244 476.58 288.922C474.063 290.6 461.664 306.451 459.986 313.441C458.308 320.434 459.895 334.232 458.588 343.368C457.286 352.504 444.701 388.398 444.701 388.398L506.781 423.357C506.781 423.357 510.421 411.236 511.164 401.355C511.911 391.474 514.332 383.082 521.979 372.827C529.621 362.572 553.066 322.811 554.882 312.185C556.702 301.557 555.358 296.942 548.638 290.88C544.41 287.067 531.205 280.533 531.205 280.533L493.945 278.975Z" fill="white"/>
<path d="M493.945 278.975C490.562 281.932 479.097 287.244 476.58 288.922C474.063 290.6 461.664 306.451 459.986 313.441C458.308 320.434 459.895 334.232 458.588 343.368C457.286 352.504 444.701 388.398 444.701 388.398L506.781 423.357C506.781 423.357 510.421 411.236 511.164 401.355C511.911 391.474 514.332 383.082 521.979 372.827C529.621 362.572 553.066 322.811 554.882 312.185C556.702 301.557 555.358 296.942 548.638 290.88C544.41 287.067 531.205 280.533 531.205 280.533L493.945 278.975Z" stroke="#1A1B1F" stroke-width="1.39357" stroke-linecap="round" stroke-linejoin="round"/>
<path d="M458.605 375.551H409.385L413.722 381.145H462.94L458.605 375.551Z" fill="#DAECFF"/>
<path d="M458.605 375.551H409.385L413.722 381.145H462.94L458.605 375.551Z" stroke="#0E1740" stroke-width="1.39357" stroke-linecap="round" stroke-linejoin="round"/>
<path d="M413.722 381.145H327.026L303.956 308.707H390.647L413.722 381.145Z" fill="white"/>
<path d="M413.722 381.145H327.026L303.956 308.707H390.647L413.722 381.145Z" stroke="#0E1740" stroke-width="1.39357" stroke-linecap="round" stroke-linejoin="round"/>
<path d="M356.457 353.247L353.163 351.435C345.324 347.129 344.468 343.984 344.143 342.8C343.366 339.951 345.044 337.639 347.895 337.639C349.69 337.639 351.522 338.557 352.824 339.949C353.372 338.557 354.701 337.639 356.494 337.639C359.345 337.639 362.288 339.951 363.064 342.8C363.39 343.984 364.246 347.129 358.765 351.435L356.457 353.247Z" fill="#0E1740"/>
<path d="M520.38 334.545L514.9 357.88L461.045 363.084C461.045 363.084 449.438 361.039 448.669 360.2C447.9 359.36 439.177 357.163 438.062 357.066C436.948 356.968 427.429 360.696 425.874 361.611C424.32 362.529 414.571 371.436 414.082 372.236C413.589 373.035 413.14 374.961 414.882 375.113C416.625 375.266 429.781 374.776 430.824 374.868C431.87 374.959 440.008 373.624 441.824 375.327C443.641 377.03 451.265 377.808 461.122 376.635C469.31 377.704 512.616 381.312 519.319 381.71C526.022 382.108 531.243 381.257 533.561 375.096C535.877 368.934 547.289 336.9 547.289 336.9L520.38 334.545Z" fill="white"/>
<path d="M520.38 334.545L514.9 357.88L461.045 363.084C461.045 363.084 449.438 361.039 448.669 360.2C447.9 359.36 439.177 357.163 438.062 357.066C436.948 356.968 427.429 360.696 425.874 361.611C424.32 362.529 414.571 371.436 414.082 372.236C413.589 373.035 413.14 374.961 414.882 375.113C416.625 375.266 429.781 374.776 430.824 374.868C431.87 374.959 440.008 373.624 441.824 375.327C443.641 377.03 451.265 377.808 461.122 376.635C469.31 377.704 512.616 381.312 519.319 381.71C526.022 382.108 531.243 381.257 533.561 375.096C535.877 368.934 547.289 336.9 547.289 336.9L520.38 334.545Z" stroke="#1A1B1F" stroke-width="1.85838" stroke-miterlimit="10"/>
<path d="M517.832 345.408C521.124 347.318 528.163 350.718 541.117 354.19C544.328 345.217 547.292 336.899 547.292 336.899L520.385 334.544L517.832 345.408Z" fill="#EFEFEF"/>
<path d="M520.38 334.545L514.9 357.88L461.045 363.084C461.045 363.084 449.438 361.039 448.669 360.2C447.9 359.36 439.177 357.163 438.062 357.066C436.948 356.968 427.429 360.696 425.874 361.611C424.32 362.529 414.571 371.436 414.082 372.236C413.589 373.035 413.14 374.961 414.882 375.113C416.625 375.266 429.781 374.776 430.824 374.868C431.87 374.959 437.038 375.978 441.824 375.327C444.291 374.992 451.265 377.808 461.122 376.635C469.31 377.704 512.616 381.312 519.319 381.71C526.022 382.108 531.243 381.257 533.561 375.096C535.877 368.934 547.289 336.9 547.289 336.9L520.38 334.545Z" stroke="#1A1B1F" stroke-width="1.39357" stroke-linecap="round" stroke-linejoin="round"/>
<path d="M522.26 313.039L517.587 339.443C517.587 339.443 538.723 342.791 552.688 342.516C552.688 342.516 557.867 316.153 553.968 297.778C549.871 297.725 525.824 290.193 522.26 313.039Z" fill="white"/>
<path d="M522.26 313.039L517.587 339.443C517.587 339.443 538.723 342.791 552.688 342.516C552.688 342.516 557.867 316.153 553.968 297.778C549.871 297.725 525.824 290.193 522.26 313.039Z" stroke="#1A1B1F" stroke-width="1.85838" stroke-miterlimit="10"/>
<path d="M522.257 313.038L517.584 339.443C517.584 339.443 538.72 342.791 552.685 342.516C552.685 342.516 557.864 316.153 553.966 297.777" stroke="#1A1B1F" stroke-width="1.39357" stroke-linecap="round" stroke-linejoin="round"/>
<path d="M562.428 305.598L557.1 310.033C557.1 310.033 580.327 319.127 571.937 343.739C562.766 370.639 522.157 380.101 483.006 394.086C443.856 408.07 414.655 433.983 404.131 470.157C394.33 503.841 409.582 537.527 438.15 542.001C445.153 541.048 567.183 520.685 567.183 520.685L598.972 363.08C600.462 320.514 562.428 305.598 562.428 305.598Z" fill="#007456"/>
<path d="M444.695 542.499C411.975 542.499 393.605 506.329 404.132 470.155C414.655 433.981 443.857 408.068 483.007 394.084C522.157 380.1 562.766 370.638 571.937 343.738C580.327 319.125 557.1 310.031 557.1 310.031" stroke="#1A1B1F" stroke-width="1.39357" stroke-linecap="round" stroke-linejoin="round"/>
<path d="M699.501 179.749C699.405 187.544 693.009 193.786 685.215 193.691C677.421 193.596 671.179 187.199 671.274 179.404C671.369 171.609 677.765 165.366 685.56 165.462C693.354 165.557 699.596 171.954 699.501 179.749Z" fill="white"/>
<path d="M699.501 179.749C699.405 187.544 693.009 193.786 685.215 193.691C677.421 193.596 671.179 187.199 671.274 179.404C671.369 171.609 677.765 165.366 685.56 165.462C693.354 165.557 699.596 171.954 699.501 179.749Z" stroke="#0E1740" stroke-width="1.39357" stroke-linejoin="round"/>
<path d="M685.151 198.59L685.087 203.844" stroke="#0E1740" stroke-width="1.39357" stroke-linecap="round" stroke-linejoin="round"/>
<path d="M694.692 196.158L697.263 200.74" stroke="#0E1740" stroke-width="1.39357" stroke-linecap="round" stroke-linejoin="round"/>
<path d="M701.737 189.285L706.253 191.967" stroke="#0E1740" stroke-width="1.39357" stroke-linecap="round" stroke-linejoin="round"/>
<path d="M704.401 179.809L709.653 179.873" stroke="#0E1740" stroke-width="1.39357" stroke-linecap="round" stroke-linejoin="round"/>
<path d="M701.967 170.267L706.548 167.696" stroke="#0E1740" stroke-width="1.39357" stroke-linecap="round" stroke-linejoin="round"/>
<path d="M695.096 163.225L697.778 158.708" stroke="#0E1740" stroke-width="1.39357" stroke-linecap="round" stroke-linejoin="round"/>
<path d="M685.619 160.561L685.683 155.307" stroke="#0E1740" stroke-width="1.39357" stroke-linecap="round" stroke-linejoin="round"/>
<path d="M676.082 162.992L673.512 158.41" stroke="#0E1740" stroke-width="1.39357" stroke-linecap="round" stroke-linejoin="round"/>
<path d="M669.034 169.867L664.522 167.184" stroke="#0E1740" stroke-width="1.39357" stroke-linecap="round" stroke-linejoin="round"/>
<path d="M666.373 179.344L661.121 179.277" stroke="#0E1740" stroke-width="1.39357" stroke-linecap="round" stroke-linejoin="round"/>
<path d="M668.808 188.884L664.228 191.452" stroke="#0E1740" stroke-width="1.39357" stroke-linecap="round" stroke-linejoin="round"/>
<path d="M675.676 195.929L672.994 200.444" stroke="#0E1740" stroke-width="1.39357" stroke-linecap="round" stroke-linejoin="round"/>
<path d="M687.137 36.6582L685.79 146.828" stroke="#0E1740" stroke-width="1.39357" stroke-linejoin="round"/>
<path d="M641.808 182.295C633.582 182.195 632.407 178.312 639.2 173.669L673.5 150.222C680.294 145.58 691.313 145.715 697.991 150.522L731.707 174.802C738.385 179.61 737.117 183.462 728.89 183.361L641.808 182.295Z" fill="white"/>
<path d="M641.808 182.295C633.582 182.195 632.407 178.312 639.2 173.669L673.5 150.222C680.294 145.58 691.313 145.715 697.991 150.522L731.707 174.802C738.385 179.61 737.117 183.462 728.89 183.361L641.808 182.295Z" stroke="#0E1740" stroke-width="1.39357" stroke-linejoin="round"/>
<path d="M532.253 250.326C532.253 250.326 531.045 261.885 531.508 268.506C531.973 275.127 537.567 280.532 537.567 280.532C537.567 280.532 528.62 295.17 508.109 291.348C499.208 289.689 498.323 281.651 499.627 279.787C500.933 277.923 508.856 271.898 508.856 250.326H532.253Z" fill="white"/>
<path d="M532.253 250.326C532.253 250.326 531.045 261.885 531.508 268.506C531.973 275.127 537.567 280.532 537.567 280.532C537.567 280.532 528.62 295.17 508.109 291.348C499.208 289.689 498.323 281.651 499.627 279.787C500.933 277.923 508.856 271.898 508.856 250.326H532.253Z" stroke="#1A1B1F" stroke-width="1.85838" stroke-miterlimit="10"/>
<path d="M531.404 264.599C531.438 258.14 532.254 250.326 532.254 250.326H508.856C508.856 271.898 500.933 277.923 499.627 279.787C499.005 280.676 498.898 282.967 499.899 285.304C514.888 282.987 526.475 270.71 531.404 264.599Z" fill="#EFEFEF"/>
<path d="M490.405 203.484C476.048 216.172 465.06 243.682 494.793 242.259L503.763 240.515L496.343 202.33L490.405 203.484Z" fill="#1A1B1F"/>
<path d="M490.405 203.484C476.048 216.172 465.06 243.682 494.793 242.259L503.763 240.515L496.343 202.33L490.405 203.484Z" stroke="#1A1B1F" stroke-width="1.85838" stroke-miterlimit="10"/>
<path d="M496.978 208.305C487.595 217.443 487.271 227.996 489.351 238.704C491.432 249.411 491.566 249.742 492.084 255.339C492.602 260.936 500.506 273.905 507.454 273.707C515.388 273.482 531.844 266.411 537.089 253.069C545.064 248.669 550.624 240.483 547.864 222.628C544.527 201.056 515.124 190.63 496.978 208.305Z" fill="white"/>
<path d="M496.978 208.305C487.595 217.443 487.271 227.996 489.351 238.704C491.432 249.411 491.566 249.742 492.084 255.339C492.602 260.936 500.506 273.905 507.454 273.706C515.388 273.482 531.844 266.411 537.089 253.069C545.064 248.669 550.624 240.483 547.864 222.628C544.527 201.056 515.124 190.63 496.978 208.305Z" stroke="#1A1B1F" stroke-width="1.39357" stroke-linecap="round" stroke-linejoin="round"/>
<path d="M489.437 204.453C486.359 207.854 494.57 225.484 513.397 232.935C530.764 239.808 544.012 238 544.012 238C544.012 238 554.282 236.456 554.59 228.914C555.034 218.001 549.548 201.501 530.02 195.327C512.987 189.941 495.066 198.232 489.437 204.453Z" fill="#1A1B1F"/>
<path d="M489.437 204.453C486.359 207.854 494.57 225.484 513.397 232.935C530.764 239.808 544.012 238 544.012 238C544.012 238 554.282 236.456 554.59 228.914C555.034 218.001 549.548 201.501 530.02 195.327C512.987 189.941 495.066 198.232 489.437 204.453Z" stroke="#1A1B1F" stroke-width="1.85838" stroke-miterlimit="10"/>
<path d="M537.249 239.933C537.249 239.933 539.439 233.24 544.857 232.543C550.279 231.844 549.928 240.674 547.391 245.584C544.856 250.493 539.482 252.891 537.097 253.069C537.097 253.069 535.814 246.838 537.249 239.933Z" fill="white"/>
<path d="M537.249 239.933C537.249 239.933 539.439 233.24 544.857 232.543C550.279 231.844 549.928 240.674 547.391 245.584C544.856 250.493 539.482 252.891 537.097 253.069C537.097 253.069 535.814 246.838 537.249 239.933Z" stroke="#1A1B1F" stroke-width="1.85838" stroke-miterlimit="10"/>
<path d="M537.249 239.933C537.249 239.933 539.439 233.24 544.857 232.543C550.279 231.844 549.928 240.674 547.391 245.584C544.856 250.493 539.481 252.891 537.096 253.069" stroke="#1A1B1F" stroke-width="1.39357" stroke-linecap="round" stroke-linejoin="round"/>
<path d="M501.902 255.64C501.902 255.64 500.151 255.055 500.468 252.286" stroke="#1A1B1F" stroke-width="1.39357" stroke-linecap="round" stroke-linejoin="round"/>
<path d="M502.82 263.009C502.82 263.009 507.798 263.61 512.123 259.849" stroke="#1A1B1F" stroke-width="1.39357" stroke-linecap="round" stroke-linejoin="round"/>
<path d="M494.654 270.564C494.654 270.564 501.836 271.193 503.732 271.359C505.628 271.525 507.348 272.188 508.623 273.657C509.898 275.126 513.07 277.929 513.801 278.649C514.533 279.368 515.824 280.136 515.579 280.77C515.339 281.405 513.054 282.769 510.325 281.397C507.6 280.026 506.345 278.838 505.444 278.432C504.543 278.026 501.991 277.804 501.991 277.804C501.991 277.804 500.983 289.321 500.902 290.248C500.821 291.176 494.248 297.341 493.126 297.85C492.005 298.359 488.786 297.705 488.064 297.407C487.343 297.109 482.355 295.299 482.355 295.299C482.355 295.299 469.466 328.157 466.799 335.129C464.128 342.1 453.542 346.537 447.379 345.33C441.214 344.12 441.303 333.457 442.469 328.694C443.636 323.932 474.981 283.309 476.614 281.738C478.247 280.169 493.29 270.445 494.654 270.564Z" fill="white"/>
<path d="M494.654 270.564C494.654 270.564 501.836 271.193 503.732 271.359C505.628 271.525 507.348 272.188 508.623 273.657C509.898 275.126 513.07 277.929 513.801 278.649C514.533 279.368 515.824 280.136 515.579 280.77C515.339 281.405 513.054 282.769 510.325 281.397C507.6 280.026 506.345 278.838 505.444 278.432C504.543 278.026 501.991 277.804 501.991 277.804C501.991 277.804 500.983 289.321 500.902 290.248C500.821 291.176 494.248 297.341 493.126 297.85C492.005 298.359 488.786 297.705 488.064 297.407C487.343 297.109 482.355 295.299 482.355 295.299C482.355 295.299 469.466 328.157 466.799 335.129C464.128 342.1 453.542 346.537 447.379 345.33C441.214 344.12 441.303 333.457 442.469 328.694C443.636 323.932 474.981 283.309 476.614 281.738C478.247 280.169 493.29 270.445 494.654 270.564Z" stroke="#1A1B1F" stroke-width="1.39357" stroke-linecap="round" stroke-linejoin="round"/>
<path d="M515.256 240.047C515.883 241.601 515.405 243.258 514.186 243.75C512.97 244.241 511.475 243.382 510.847 241.828C510.22 240.276 510.698 238.617 511.914 238.126C513.133 237.633 514.628 238.494 515.256 240.047Z" fill="#1A1B1F"/>
<path d="M495.883 243.902C496.435 245.266 496.077 246.694 495.086 247.094C494.096 247.494 492.848 246.715 492.297 245.351C491.747 243.99 492.102 242.559 493.092 242.159C494.083 241.758 495.333 242.541 495.883 243.902Z" fill="#1A1B1F"/>
<path d="M508.063 234.956C508.063 234.956 509.899 232.78 515.904 231.788" stroke="#1A1B1F" stroke-width="1.39357" stroke-linecap="round" stroke-linejoin="round"/>
<path d="M494.395 235.846C494.395 235.846 492.641 235.604 490.763 236.365" stroke="#1A1B1F" stroke-width="1.39357" stroke-linecap="round" stroke-linejoin="round"/>
</g>
</g>
<defs>
<clipPath id="clip0_6381_34998">
<rect width="979" height="609" fill="white"/>
</clipPath>
</defs>
</svg>
