<svg xmlns="http://www.w3.org/2000/svg" width="210" height="9" viewBox="0 0 210 9" fill="none"><path d="M209.712 2.19899C209.638 2.15426 209.559 2.12407 209.478 2.10962C209.441 2.10648 209.405 2.10648 209.368 2.10962H209.199C208.78 2.08281 208.407 2.0828 208.019 2.07834C206.485 2.07834 204.966 2.07834 203.447 2.07834H201.124C201.143 2.00235 201.155 1.92459 201.162 1.84597C201.026 1.19357 200.812 1.28743 200.755 1.19806C200.646 1.14542 200.532 1.10647 200.416 1.08187L200.152 1.02825C199.986 1.00144 199.824 0.983563 199.662 0.965689C198.384 0.853978 197.144 0.836092 195.892 0.813749L192.157 0.778021H185.666C199.364 0.214993 187.867 0.0317627 145.467 0.112195L116.762 0.08094L35.3817 0.0139019H14.8339C11.3659 0.0139019 7.89043 -0.0173774 4.4036 0.0139019C3.53284 0.0139019 2.66208 0.0139128 1.76493 0.08094C1.5463 0.08094 1.32389 0.0809291 1.09395 0.125614C0.977093 0.125614 0.864007 0.125603 0.716995 0.170288C0.623312 0.181916 0.531017 0.205911 0.44182 0.241799C0.415373 0.251425 0.390045 0.26492 0.366428 0.282C0.318595 0.309441 0.273144 0.342381 0.230724 0.38032C0.154272 0.457472 0.0937836 0.554401 0.0539176 0.663636C0.0140515 0.772872 -0.00412488 0.891486 0.00078478 1.01036C0.0912537 1.50636 0.377738 1.60915 0.321195 1.58234C0.360464 1.60886 0.402213 1.62986 0.44559 1.64491H0.505902H0.581291C0.822421 1.68546 1.06534 1.70932 1.30881 1.71639L1.96848 1.74767C3.71755 1.79683 5.44776 1.79683 7.17798 1.80577H9.57918C9.56077 1.96054 9.58736 2.11814 9.65457 2.25261L9.71488 2.37324H8.88935C8.38047 2.37324 7.87158 2.37325 7.34761 2.43134L6.9405 2.47156C6.77597 2.49419 6.61331 2.53306 6.45423 2.58775C6.37564 2.61925 6.30087 2.6628 6.23183 2.71732C6.11672 2.80402 6.02727 2.93109 5.97592 3.08085C5.92458 3.23062 5.91389 3.39563 5.94534 3.55293C6.02074 3.84785 6.09613 3.94169 6.3713 4.12043C6.45102 4.14996 6.53315 4.16943 6.61632 4.17852C6.78595 4.17852 6.89904 4.17852 7.0272 4.17852L17.842 4.29915H17.6761L17.4274 4.33938L17.2653 4.38853C17.1365 4.42562 17.019 4.50454 16.926 4.61643C16.8683 4.69676 16.8252 4.79032 16.7993 4.89126C16.7735 4.99221 16.7654 5.09839 16.7757 5.20319C16.7859 5.30798 16.8143 5.40914 16.8589 5.50038C16.9036 5.59163 16.9637 5.671 17.0353 5.73355C17.0959 5.78119 17.1603 5.82161 17.2276 5.8542L17.4877 5.97039C17.7582 6.05701 18.0343 6.11678 18.3132 6.14911H18.0795C17.8797 6.17145 17.6837 6.1938 17.4688 6.23401L17.2954 6.27424C17.1854 6.29743 17.0811 6.34931 16.9901 6.42615C16.8808 6.35019 16.632 7.20813 16.8657 7.28857C16.9247 7.38367 17.0023 7.46034 17.0919 7.51199C17.167 7.55817 17.2468 7.59273 17.3293 7.61478C17.7352 7.71573 18.1476 7.77551 18.562 7.79351C20.1226 7.89181 21.653 7.88736 23.1947 7.89183L27.8011 7.8516L37.0063 7.75331C40.071 7.75331 43.1469 7.75331 46.2153 7.75331L57.3807 7.80245H56.8605C50.9461 7.90523 46.2794 7.94098 43.0338 8.20015L42.7285 8.23144L42.5664 8.25825H42.5325C42.4997 8.27232 42.4709 8.2971 42.4496 8.32973C42.4313 8.3778 42.4266 8.43157 42.4361 8.48306C42.4456 8.53455 42.4688 8.58106 42.5023 8.61572L42.5476 8.63805H42.5664C43.0083 8.74148 43.458 8.7909 43.9084 8.78552C45.8874 8.74977 48.2848 8.78552 50.98 8.78552L59.8535 8.82128L99.9953 8.89276L155.988 8.97766L169.992 9C174.662 9 179.337 8.95979 184.007 8.94638L191.018 8.91063H194.524C194.814 8.91063 195.105 8.91063 195.402 8.91063H195.851H196.092C196.256 8.88432 196.415 8.82699 196.563 8.74082C197.189 8.15992 197.117 7.9499 196.872 7.84713C198.953 7.87841 201.06 7.92758 203.224 7.89183C203.767 7.89183 204.314 7.86053 204.871 7.82032C205.15 7.79797 205.429 7.77563 205.72 7.73541L206.161 7.65946C206.323 7.61924 206.485 7.57903 206.647 7.52541C206.748 7.4876 206.846 7.44131 206.941 7.38689C207.055 7.32859 207.154 7.23796 207.232 7.12302C207.309 7.00808 207.361 6.87235 207.383 6.72788C207.406 6.58341 207.398 6.43464 207.36 6.29472C207.322 6.1548 207.256 6.02805 207.167 5.92569C207.11 5.86015 207.044 5.80719 206.971 5.7693L207.092 5.73355L207.276 5.67098L207.371 5.6397L207.518 5.55927C207.593 5.47437 207.646 5.55929 207.895 5.13479C207.938 5.02681 207.963 4.9096 207.967 4.79013C207.971 4.67067 207.956 4.55137 207.921 4.43929C207.885 4.3272 207.832 4.22462 207.762 4.13761C207.693 4.05061 207.61 3.98095 207.518 3.93276L207.42 3.89254C207.857 3.85679 208.298 3.80764 208.754 3.7272C208.958 3.68252 209.154 3.66466 209.365 3.59763L209.546 3.53954C209.583 3.53954 209.625 3.50824 209.696 3.46803C209.693 3.80316 210.371 2.56541 209.712 2.19899ZM209.165 2.16771C209.15 2.13196 209.154 2.1409 209.165 2.16771V2.16771Z" fill="#FFD75E"></path></svg>