<svg xmlns="http://www.w3.org/2000/svg" width="32" height="32" viewBox="0 0 32 32" fill="none"><g id="cash-payment-wallet" clip-path="url(#clip0_8809_5629)"><path id="Vector" d="M6.73468 12.9138L5.69335 9.6778C5.53093 9.17318 5.57551 8.62472 5.81727 8.15295C6.05903 7.68117 6.47821 7.32468 6.98268 7.1618L25.524 1.1898C26.0288 1.02745 26.5774 1.07221 27.0492 1.31424C27.521 1.55626 27.8774 1.97575 28.04 2.48047L30.8133 11.0885C30.8939 11.3385 30.9245 11.602 30.9032 11.8638C30.882 12.1257 30.8094 12.3807 30.6895 12.6145C30.5696 12.8483 30.4049 13.0561 30.2047 13.2262C30.0045 13.3963 29.7727 13.5253 29.5227 13.6058L23.0893 15.6778" stroke="#007456" stroke-width="1.5" stroke-linecap="round" stroke-linejoin="round"></path><path id="Vector_2" d="M23.0894 24.9141V28.3421C23.0883 28.6809 23.0205 29.0162 22.8899 29.3288C22.7593 29.6414 22.5684 29.9252 22.328 30.1641C22.0877 30.4029 21.8027 30.5921 21.4893 30.7208C21.1759 30.8494 20.8402 30.9151 20.5014 30.9141H3.67736C3.33854 30.9151 3.00284 30.8494 2.68942 30.7208C2.376 30.5921 2.09099 30.4029 1.85067 30.1641C1.61035 29.9252 1.41943 29.6414 1.2888 29.3288C1.15818 29.0162 1.0904 28.6809 1.08936 28.3421V15.4847C1.0904 15.146 1.15819 14.8108 1.28883 14.4982C1.41947 14.1857 1.61042 13.9019 1.85075 13.6632C2.09109 13.4245 2.37611 13.2355 2.68952 13.1069C3.00294 12.9784 3.33861 12.9129 3.67736 12.9141H20.5014C20.8401 12.9129 21.1758 12.9784 21.4892 13.1069C21.8026 13.2355 22.0876 13.4245 22.328 13.6632C22.5683 13.9019 22.7592 14.1857 22.8899 14.4982C23.0205 14.8108 23.0883 15.146 23.0894 15.4847V18.9141" stroke="#007456" stroke-width="1.5" stroke-linecap="round" stroke-linejoin="round"></path><path id="Vector_3" d="M6.08936 12.9297V30.9097" stroke="#007456" stroke-width="1.5" stroke-linecap="round" stroke-linejoin="round"></path><path id="Vector_4" d="M18.8586 18.9141C18.094 18.946 17.3732 19.2796 16.8541 19.8419C16.3351 20.4042 16.06 21.1494 16.0893 21.9141C16.06 22.6788 16.3351 23.4239 16.8541 23.9862C17.3732 24.5485 18.094 24.8822 18.8586 24.9141H23.7053C24.0874 24.8978 24.4475 24.7308 24.7069 24.4497C24.9662 24.1686 25.1037 23.7963 25.0893 23.4141V20.4141C25.1041 20.0318 24.9667 19.6592 24.7073 19.378C24.4478 19.0969 24.0875 18.93 23.7053 18.9141H18.8586Z" stroke="#007456" stroke-width="1.5" stroke-linecap="round" stroke-linejoin="round"></path><path id="Vector_5" d="M21.6333 21.2812C21.7322 21.2812 21.8289 21.3106 21.9111 21.3655C21.9933 21.4205 22.0574 21.4985 22.0952 21.5899C22.1331 21.6813 22.143 21.7818 22.1237 21.8788C22.1044 21.9758 22.0568 22.0649 21.9869 22.1348C21.9169 22.2047 21.8278 22.2524 21.7308 22.2716C21.6339 22.2909 21.5333 22.281 21.442 22.2432C21.3506 22.2053 21.2725 22.1413 21.2176 22.059C21.1626 21.9768 21.1333 21.8801 21.1333 21.7812C21.1333 21.6486 21.186 21.5215 21.2797 21.4277C21.3735 21.3339 21.5007 21.2813 21.6333 21.2812Z" stroke="#007456" stroke-width="1.5" stroke-linecap="round" stroke-linejoin="round"></path><path id="Vector_6" d="M16.3053 10.0015C16.4873 9.6426 16.7734 9.347 17.1261 9.15328C17.4788 8.95956 17.8817 8.87673 18.2822 8.91561C18.6827 8.9545 19.0622 9.11328 19.371 9.37123C19.6798 9.62918 19.9037 9.97428 20.0133 10.3615" stroke="#007456" stroke-width="1.5" stroke-linecap="round" stroke-linejoin="round"></path></g><defs><clipPath id="clip0_8809_5629"><rect width="32" height="32" fill="white"></rect></clipPath></defs></svg>