<svg xmlns="http://www.w3.org/2000/svg" width="32" height="32" viewBox="0 0 32 32" fill="none"><g id="single-neutral-shopping-bag" clip-path="url(#clip0_8809_6466)"><path id="Vector" d="M31 31H15L17 17H29L31 31Z" stroke="#007456" stroke-width="1.5" stroke-linecap="round" stroke-linejoin="round"></path><path id="Vector_2" d="M20 21V14C20 13.2044 20.3161 12.4413 20.8787 11.8787C21.4413 11.3161 22.2044 11 23 11C23.7956 11 24.5587 11.3161 25.1213 11.8787C25.6839 12.4413 26 13.2044 26 14V21" stroke="#007456" stroke-width="1.5" stroke-linecap="round" stroke-linejoin="round"></path><path id="Vector_3" d="M7 9C9.20914 9 11 7.20914 11 5C11 2.79086 9.20914 1 7 1C4.79086 1 3 2.79086 3 5C3 7.20914 4.79086 9 7 9Z" stroke="#007456" stroke-width="1.5" stroke-linecap="round" stroke-linejoin="round"></path><path id="Vector_4" d="M12.2533 14.1013C11.6104 12.936 10.5982 12.0176 9.37616 11.4906C8.1541 10.9635 6.79148 10.8577 5.50271 11.1898C4.21394 11.5219 3.07217 12.2731 2.25704 13.3252C1.44192 14.3772 0.999713 15.6704 1 17.0013V21.0013H3L4 31.0013H10L10.68 24.2013" stroke="#007456" stroke-width="1.5" stroke-linecap="round" stroke-linejoin="round"></path></g><defs><clipPath id="clip0_8809_6466"><rect width="32" height="32" fill="white"></rect></clipPath></defs></svg>