<svg xmlns="http://www.w3.org/2000/svg" width="32" height="32" viewBox="0 0 32 32" fill="none"><g id="single-neutral-actions-text" clip-path="url(#clip0_8809_6931)"><path id="Vector" d="M29 15H17C15.8954 15 15 15.8954 15 17V29C15 30.1046 15.8954 31 17 31H29C30.1046 31 31 30.1046 31 29V17C31 15.8954 30.1046 15 29 15Z" stroke="#007456" stroke-width="1.5" stroke-linecap="round" stroke-linejoin="round"></path><path id="Vector_2" d="M19 19H27" stroke="#007456" stroke-width="1.5" stroke-linecap="round" stroke-linejoin="round"></path><path id="Vector_3" d="M19 23H27" stroke="#007456" stroke-width="1.5" stroke-linecap="round" stroke-linejoin="round"></path><path id="Vector_4" d="M19 27H22" stroke="#007456" stroke-width="1.5" stroke-linecap="round" stroke-linejoin="round"></path><path id="Vector_5" d="M8 9C10.2091 9 12 7.20914 12 5C12 2.79086 10.2091 1 8 1C5.79086 1 4 2.79086 4 5C4 7.20914 5.79086 9 8 9Z" stroke="#007456" stroke-width="1.5" stroke-linecap="round" stroke-linejoin="round"></path><path id="Vector_6" d="M12.656 12.773C11.6479 11.875 10.4016 11.2877 9.06736 11.0819C7.73309 10.876 6.36777 11.0604 5.1359 11.6128C3.90402 12.1651 2.85817 13.062 2.12435 14.1952C1.39053 15.3284 1.00007 16.6496 1 17.9997V20.9997H4L5 30.9997H11L11.344 27.553" stroke="#007456" stroke-width="1.5" stroke-linecap="round" stroke-linejoin="round"></path></g><defs><clipPath id="clip0_8809_6931"><rect width="32" height="32" fill="white"></rect></clipPath></defs></svg>