<svg xmlns="http://www.w3.org/2000/svg" width="142" height="108" viewBox="0 0 142 108" fill="none"><path d="M96.3337 104.175L95.4535 107.424L81.7437 102.461L86.6179 101.271" fill="white"></path><path d="M95.4536 107.659C95.4273 107.664 95.4003 107.664 95.374 107.659L81.6642 102.695C81.6166 102.678 81.5758 102.646 81.548 102.604C81.5201 102.562 81.5067 102.512 81.5097 102.461C81.5115 102.411 81.5299 102.362 81.5621 102.323C81.5943 102.285 81.6384 102.257 81.6876 102.246L86.5619 101.061C86.624 101.046 86.6895 101.057 86.7439 101.09C86.7983 101.124 86.8373 101.177 86.8522 101.239C86.8671 101.301 86.8567 101.367 86.8234 101.421C86.79 101.476 86.7364 101.515 86.6743 101.53L82.5492 102.532L95.2944 107.148L96.1044 104.142C96.1209 104.082 96.1606 104.03 96.215 103.998C96.2693 103.967 96.3339 103.958 96.3947 103.974C96.4539 103.992 96.5037 104.033 96.5342 104.086C96.5646 104.14 96.5733 104.204 96.5586 104.264L95.6784 107.514C95.6603 107.577 95.6183 107.631 95.5613 107.663C95.5254 107.669 95.4888 107.667 95.4536 107.659Z" fill="#231F20"></path><path d="M47.0383 98.6076C46.9762 98.6076 46.9167 98.5829 46.8728 98.539C46.8289 98.4951 46.8042 98.4355 46.8042 98.3735V0.288802C46.8042 0.226711 46.8289 0.167163 46.8728 0.123258C46.9167 0.0793529 46.9762 0.0546875 47.0383 0.0546875C47.1004 0.0546875 47.16 0.0793529 47.2039 0.123258C47.2478 0.167163 47.2724 0.226711 47.2724 0.288802V98.3735C47.2724 98.4355 47.2478 98.4951 47.2039 98.539C47.16 98.5829 47.1004 98.6076 47.0383 98.6076Z" fill="#D1D3D4"></path><path d="M55.9159 107.748C55.8527 107.748 55.792 107.722 55.7474 107.677L47.0804 98.725L38.4135 107.677C38.3917 107.699 38.3658 107.717 38.3373 107.729C38.3088 107.741 38.2782 107.747 38.2472 107.747C38.2163 107.747 38.1857 107.741 38.1572 107.729C38.1287 107.717 38.1028 107.699 38.081 107.677C38.0378 107.633 38.0137 107.573 38.0137 107.511C38.0137 107.449 38.0378 107.39 38.081 107.345L46.9165 98.2239C46.9613 98.1793 47.0219 98.1543 47.0851 98.1543C47.1483 98.1543 47.2089 98.1793 47.2537 98.2239L56.0892 107.345C56.1111 107.367 56.1285 107.393 56.1404 107.421C56.1523 107.45 56.1584 107.48 56.1584 107.511C56.1584 107.542 56.1523 107.573 56.1404 107.601C56.1285 107.63 56.1111 107.656 56.0892 107.677C56.0668 107.701 56.0399 107.719 56.01 107.731C55.9802 107.743 55.9481 107.749 55.9159 107.748Z" fill="#D1D3D4"></path><path d="M47.0383 98.6076C46.9762 98.6076 46.9167 98.5829 46.8728 98.539C46.8289 98.4951 46.8042 98.4355 46.8042 98.3735V0.288802C46.8042 0.226711 46.8289 0.167163 46.8728 0.123258C46.9167 0.0793529 46.9762 0.0546875 47.0383 0.0546875C47.1004 0.0546875 47.16 0.0793529 47.2039 0.123258C47.2478 0.167163 47.2724 0.226711 47.2724 0.288802V98.3735C47.2724 98.4355 47.2478 98.4951 47.2039 98.539C47.16 98.5829 47.1004 98.6076 47.0383 98.6076Z" fill="#231F20"></path><path d="M55.9159 107.748C55.8527 107.748 55.792 107.722 55.7474 107.677L47.0804 98.725L38.4135 107.677C38.3917 107.699 38.3658 107.717 38.3373 107.729C38.3088 107.741 38.2782 107.747 38.2472 107.747C38.2163 107.747 38.1857 107.741 38.1572 107.729C38.1287 107.717 38.1028 107.699 38.081 107.677C38.0378 107.633 38.0137 107.573 38.0137 107.511C38.0137 107.449 38.0378 107.39 38.081 107.345L46.9165 98.2239C46.9613 98.1793 47.0219 98.1543 47.0851 98.1543C47.1483 98.1543 47.2089 98.1793 47.2537 98.2239L56.0892 107.345C56.1111 107.367 56.1285 107.393 56.1404 107.421C56.1523 107.45 56.1584 107.48 56.1584 107.511C56.1584 107.542 56.1523 107.573 56.1404 107.601C56.1285 107.63 56.1111 107.656 56.0892 107.677C56.0668 107.701 56.0399 107.719 56.01 107.731C55.9802 107.743 55.9481 107.749 55.9159 107.748Z" fill="#231F20"></path><path d="M85.2741 2.38672H8.8916V58.8411H85.2741V2.38672Z" fill="white"></path><path d="M85.2694 59.0832H8.87287C8.8083 59.0832 8.74637 59.0575 8.70071 59.0119C8.65504 58.9662 8.62939 58.9043 8.62939 58.8397V2.38533C8.62939 2.35357 8.63571 2.32213 8.64801 2.29285C8.6603 2.26357 8.67831 2.23703 8.70098 2.2148C8.72366 2.19256 8.75054 2.17507 8.78005 2.16335C8.80956 2.15162 8.84112 2.14591 8.87287 2.14653H85.2694C85.3012 2.14591 85.3327 2.15162 85.3623 2.16335C85.3918 2.17507 85.4186 2.19256 85.4413 2.2148C85.464 2.23703 85.482 2.26357 85.4943 2.29285C85.5066 2.32213 85.5129 2.35357 85.5129 2.38533V58.8397C85.5129 58.8717 85.5066 58.9033 85.4944 58.9329C85.4821 58.9624 85.4642 58.9893 85.4416 59.0119C85.419 59.0345 85.3921 59.0524 85.3626 59.0647C85.3331 59.0769 85.3014 59.0832 85.2694 59.0832ZM9.1304 58.615H85.0306V2.62881H9.1304V58.615Z" fill="#231F20"></path><path d="M25.7573 27.8867C26.4374 27.8867 26.9888 27.3354 26.9888 26.6553C26.9888 25.9752 26.4374 25.4238 25.7573 25.4238C25.0772 25.4238 24.5259 25.9752 24.5259 26.6553C24.5259 27.3354 25.0772 27.8867 25.7573 27.8867Z" fill="white"></path><path d="M40.0806 23.2266C40.7607 23.2266 41.312 22.6752 41.312 21.9951C41.312 21.315 40.7607 20.7637 40.0806 20.7637C39.4005 20.7637 38.8491 21.315 38.8491 21.9951C38.8491 22.6752 39.4005 23.2266 40.0806 23.2266Z" fill="white"></path><path d="M48.958 28.7656C49.6381 28.7656 50.1895 28.2143 50.1895 27.5342C50.1895 26.8541 49.6381 26.3027 48.958 26.3027C48.2779 26.3027 47.7266 26.8541 47.7266 27.5342C47.7266 28.2143 48.2779 28.7656 48.958 28.7656Z" fill="white"></path><path d="M33.5767 34.0391C34.2568 34.0391 34.8081 33.4877 34.8081 32.8076C34.8081 32.1275 34.2568 31.5762 33.5767 31.5762C32.8966 31.5762 32.3452 32.1275 32.3452 32.8076C32.3452 33.4877 32.8966 34.0391 33.5767 34.0391Z" fill="white"></path><path d="M97.4246 47.2046C97.4246 47.2046 89.3383 72.1658 86.5991 101.271L96.3102 104.174L109.421 61.9865L114.342 104.595L124.619 104.815C124.619 104.815 124.713 79.3672 122.077 47.2233C116.753 47.1109 97.4246 47.2046 97.4246 47.2046Z" fill="#231F20"></path><path d="M71.897 34.3253C71.897 34.3253 82.4368 47.4919 87.2971 47.0705C92.1573 46.6491 98.1834 36.7133 98.1834 36.7133L93.2155 27.9434C93.2155 27.9434 86.8757 35.6551 85.7238 35.1307C84.572 34.6063 76.7432 28.8939 76.7432 28.8939" fill="white"></path><path d="M87.0675 47.3133C82.0528 47.3133 72.1403 35.0035 71.7143 34.4698C71.692 34.4462 71.6749 34.4183 71.664 34.3877C71.6531 34.3572 71.6487 34.3247 71.651 34.2924C71.6533 34.26 71.6623 34.2285 71.6774 34.1999C71.6925 34.1712 71.7135 34.146 71.7388 34.1258C71.7642 34.1056 71.7935 34.0909 71.8248 34.0827C71.8562 34.0744 71.8889 34.0728 71.9209 34.0778C71.953 34.0828 71.9836 34.0945 72.0109 34.112C72.0382 34.1295 72.0615 34.1525 72.0795 34.1795C72.1872 34.3059 82.6006 47.2384 87.2782 46.8216C91.6843 46.4377 97.2141 37.8036 97.9071 36.6939L93.178 28.336C92.6816 28.9306 91.4127 30.4336 90.0689 31.8805C86.4916 35.7293 85.8782 35.4484 85.616 35.3266C84.4455 34.7928 76.9116 29.3005 76.5885 29.0664C76.5391 29.0291 76.5062 28.9741 76.4966 28.9129C76.487 28.8518 76.5015 28.7893 76.537 28.7386C76.5743 28.689 76.6298 28.6561 76.6912 28.6473C76.7527 28.6386 76.8151 28.6546 76.8648 28.6918C76.9444 28.748 84.6796 34.3902 85.808 34.9005C86.2762 35.1112 89.1886 32.4611 93.0328 27.7788C93.0567 27.7491 93.0877 27.7259 93.1228 27.7112C93.158 27.6964 93.1962 27.6907 93.2342 27.6945C93.272 27.697 93.3086 27.7091 93.3405 27.7295C93.3724 27.75 93.3987 27.7782 93.4168 27.8115L98.3847 36.5815C98.4066 36.6174 98.4182 36.6588 98.4182 36.7009C98.4182 36.743 98.4066 36.7843 98.3847 36.8203C98.1365 37.2323 92.2462 46.8591 87.3204 47.2899L87.0675 47.3133Z" fill="#231F20"></path><path d="M120.841 32.1286L127.335 29.455C125.027 24.5292 122.428 21.6028 120.635 20.4603C118.345 18.5546 112.675 18.4235 107.464 18.2222C105.799 18.1187 104.129 18.2767 102.514 18.6904C96.4274 20.3714 90.8086 29.16 90.8086 29.16L96.2448 32.4002C96.2448 32.4002 95.6407 44.3587 96.4227 48.4042C96.4227 48.4042 110.521 54.4912 122.358 51.1621C122.349 51.1762 120.7 33.6737 120.841 32.1286Z" fill="#007456"></path><path d="M108.367 16.6201L107.557 20.5252C107.557 20.5252 108.423 23.1191 111.045 22.8663C111.822 22.7773 112.568 22.5168 113.232 22.1039C113.895 21.6909 114.458 21.1356 114.88 20.4783L115.817 13.3004C115.817 13.3004 114.065 12.0408 115.17 8.02344C112.97 8.63911 110.644 8.65043 108.437 8.05621C108.437 8.05621 106.686 12.3405 106.728 14.3539C106.77 16.3673 108.367 16.6201 108.367 16.6201Z" fill="white"></path><path d="M110.666 23.1151C108.194 23.1151 107.337 20.6334 107.328 20.61C107.316 20.5687 107.316 20.525 107.328 20.4836L108.096 16.794C107.602 16.6112 107.179 16.2746 106.891 15.8337C106.603 15.3929 106.464 14.871 106.494 14.3451C106.452 12.3036 108.147 8.12704 108.218 7.94912C108.24 7.89469 108.281 7.85027 108.334 7.82436C108.386 7.79845 108.447 7.79285 108.503 7.80865C110.664 8.38455 112.94 8.37486 115.096 7.78056C115.137 7.76645 115.182 7.76379 115.225 7.77285C115.267 7.78191 115.307 7.80237 115.339 7.83206C115.371 7.86207 115.394 7.9002 115.405 7.9423C115.417 7.9844 115.417 8.02887 115.405 8.07086C114.37 11.8541 115.948 13.0809 115.962 13.0903C115.997 13.1164 116.025 13.1514 116.042 13.1917C116.059 13.232 116.066 13.2762 116.06 13.3197L115.124 20.4977C115.12 20.5287 115.11 20.5587 115.096 20.5866C114.656 21.2783 114.067 21.8624 113.372 22.296C112.677 22.7295 111.893 23.0014 111.078 23.0916C110.947 23.1057 110.797 23.1151 110.666 23.1151ZM107.805 20.5117C107.951 20.891 108.807 22.8529 111.022 22.6094C111.753 22.5218 112.456 22.2758 113.082 21.8884C113.708 21.501 114.242 20.9816 114.646 20.3666L115.555 13.3431C115.175 12.9826 114.047 11.5873 114.824 8.31434C112.77 8.80575 110.628 8.79612 108.578 8.28624C108.241 9.1431 106.93 12.5939 106.967 14.2889C107.005 16.0682 108.372 16.3351 108.409 16.3445C108.442 16.3501 108.473 16.3621 108.5 16.3798C108.528 16.3976 108.551 16.4207 108.57 16.4478C108.588 16.4749 108.601 16.5054 108.607 16.5376C108.613 16.5697 108.613 16.6027 108.606 16.6348L107.805 20.5117Z" fill="#231F20"></path><path d="M114.337 12.963C114.47 12.6239 114.71 12.3377 115.021 12.1483C115.313 11.9887 115.629 11.878 115.957 11.8205C116.137 11.7786 116.325 11.7786 116.505 11.8205C116.631 11.8579 116.748 11.9182 116.852 11.9985C117.108 12.1699 117.296 12.4272 117.381 12.7242C117.417 12.9694 117.395 13.2199 117.315 13.4546C117.246 13.7158 117.146 13.9674 117.015 14.2038C116.877 14.4347 116.695 14.636 116.479 14.7959C116.262 14.9559 116.016 15.0715 115.755 15.1359C115.494 15.2003 115.223 15.2124 114.957 15.1713C114.691 15.1303 114.436 15.037 114.206 14.8968" fill="white"></path><path d="M115.288 15.4126C114.867 15.4132 114.454 15.2982 114.094 15.0802C114.039 15.0463 114.001 14.9925 113.986 14.9303C113.971 14.8681 113.981 14.8025 114.014 14.7477C114.03 14.7204 114.052 14.6966 114.078 14.6777C114.103 14.6588 114.133 14.6453 114.163 14.6379C114.194 14.6305 114.227 14.6293 114.258 14.6345C114.289 14.6397 114.32 14.6511 114.347 14.6681C114.549 14.7918 114.773 14.8742 115.008 14.9103C115.242 14.9464 115.481 14.9356 115.711 14.8785C115.941 14.8215 116.157 14.7193 116.348 14.5778C116.538 14.4364 116.698 14.2586 116.819 14.0547C116.942 13.8392 117.035 13.6075 117.095 13.3664C117.163 13.1696 117.184 12.9595 117.156 12.7531C117.084 12.5141 116.93 12.3083 116.72 12.1725C116.645 12.1083 116.558 12.0604 116.463 12.032C116.318 12 116.168 12 116.023 12.032C115.716 12.0822 115.42 12.1835 115.147 12.3317C114.882 12.4934 114.677 12.7365 114.562 13.0246C114.539 13.0848 114.493 13.1334 114.434 13.1597C114.375 13.186 114.308 13.188 114.248 13.1651C114.19 13.1402 114.143 13.0937 114.118 13.0354C114.092 12.977 114.09 12.9111 114.112 12.8514C114.265 12.4629 114.539 12.1343 114.894 11.9149C115.215 11.7386 115.563 11.6168 115.924 11.5544C116.14 11.5027 116.365 11.5027 116.58 11.5544C116.737 11.5977 116.884 11.6726 117.011 11.7745C117.314 11.9797 117.533 12.2872 117.629 12.6407C117.675 12.9247 117.651 13.2157 117.559 13.4882C117.489 13.7705 117.38 14.0416 117.235 14.2935C116.924 14.8139 116.419 15.1894 115.831 15.3377C115.654 15.3861 115.471 15.4112 115.288 15.4126Z" fill="#231F20"></path><path d="M116.173 17.1729C116.119 17.1658 116.07 17.141 116.032 17.1026C115.994 17.0642 115.97 17.0142 115.963 16.9606C115.957 16.907 115.968 16.8527 115.996 16.8064C116.024 16.7601 116.066 16.7243 116.117 16.7047C116.851 16.5178 117.54 16.183 118.14 15.7209C118.741 15.2588 119.241 14.679 119.61 14.0171C120.751 12.0016 121.115 9.63853 120.635 7.37288C120.321 6.12271 119.914 5.76685 119.624 5.68726C119.483 5.66912 119.339 5.6833 119.205 5.72873C119.07 5.77416 118.948 5.84964 118.846 5.94946C118.811 5.98554 118.766 6.00987 118.716 6.01909C118.667 6.02832 118.616 6.02198 118.57 6.00097C118.526 5.97865 118.489 5.94351 118.465 5.9001C118.441 5.85669 118.43 5.807 118.434 5.75749C118.434 5.69194 118.57 4.18424 117.03 2.66718C115.882 1.55747 112.127 0.176197 109.285 0.546098C107.824 0.738072 106.775 1.35145 106.167 2.36751C105.516 3.46317 105.324 4.47454 105.595 5.37822C105.933 6.29302 106.601 7.04809 107.468 7.49462C107.497 7.50815 107.523 7.52717 107.544 7.55061C107.565 7.57405 107.581 7.60145 107.592 7.63123C107.603 7.66101 107.607 7.6926 107.606 7.7242C107.604 7.75579 107.597 7.78676 107.583 7.81536C107.57 7.84395 107.551 7.8696 107.527 7.89084C107.504 7.91207 107.476 7.92849 107.446 7.93914C107.386 7.96066 107.32 7.95739 107.262 7.93007C106.265 7.43386 105.499 6.57157 105.123 5.52337C104.804 4.48391 105.01 3.33674 105.741 2.11935C106.424 0.972187 107.59 0.279209 109.205 0.0685062C112.291 -0.338853 116.154 1.1548 117.353 2.32069C118.208 3.10479 118.759 4.1663 118.907 5.31735C119.165 5.17672 119.466 5.13827 119.75 5.20966C120.349 5.37354 120.804 6.05716 121.103 7.24646C121.615 9.64107 121.23 12.1401 120.022 14.2699C119.619 14.9857 119.076 15.6128 118.425 16.1133C117.774 16.6138 117.029 16.9774 116.234 17.1823L116.173 17.1729Z" fill="#231F20"></path><path d="M108.054 18.5766C108.516 18.6924 108.998 18.7081 109.468 18.6225C109.937 18.5369 110.382 18.352 110.774 18.0803C112.038 17.1438 112.024 16.5117 112.024 16.5117C112.024 16.5117 110.086 17.2562 108.466 16.699L108.054 18.5766Z" fill="#231F20"></path><path d="M108.883 18.9152C108.581 18.9177 108.28 18.8799 107.988 18.8028C107.932 18.7864 107.884 18.7491 107.855 18.6986C107.825 18.6481 107.816 18.5882 107.829 18.5312L108.236 16.6583C108.244 16.6262 108.257 16.5959 108.276 16.5693C108.296 16.5427 108.32 16.5204 108.349 16.5038C108.379 16.491 108.412 16.4845 108.445 16.4845C108.478 16.4845 108.51 16.491 108.541 16.5038C110.058 17.0282 111.921 16.3258 111.94 16.3165C111.975 16.3029 112.013 16.298 112.051 16.3023C112.088 16.3065 112.124 16.3198 112.156 16.341C112.187 16.3621 112.213 16.3905 112.231 16.4238C112.248 16.457 112.258 16.4941 112.259 16.5319C112.259 16.6068 112.235 17.3185 110.91 18.2924C110.318 18.7118 109.608 18.9301 108.883 18.9152ZM108.335 18.4001C109.138 18.543 109.965 18.3611 110.634 17.8944C111.032 17.623 111.376 17.2782 111.645 16.8784C110.67 17.1747 109.635 17.2166 108.639 17.0001L108.335 18.4001Z" fill="#231F20"></path><path d="M96.4322 48.6517C96.3727 48.6508 96.3158 48.6277 96.2725 48.587C96.2293 48.5463 96.2027 48.4909 96.198 48.4317C95.9589 40.2667 96.6295 32.1004 98.1974 24.0838C98.203 24.0538 98.2145 24.0253 98.2312 23.9998C98.248 23.9744 98.2696 23.9525 98.2949 23.9355C98.3202 23.9185 98.3486 23.9067 98.3785 23.9008C98.4084 23.8949 98.4391 23.895 98.469 23.9012C98.4995 23.9068 98.5286 23.9184 98.5547 23.9354C98.5807 23.9523 98.603 23.9743 98.6205 24C98.6379 24.0258 98.6501 24.0547 98.6562 24.0851C98.6623 24.1156 98.6624 24.1469 98.6563 24.1774C97.0976 32.151 96.4302 40.2731 96.6663 48.3942C96.6682 48.425 96.664 48.4558 96.6539 48.4849C96.6439 48.5141 96.6282 48.5409 96.6078 48.564C96.5873 48.5871 96.5625 48.6058 96.5348 48.6193C96.5071 48.6327 96.477 48.6406 96.4462 48.6424L96.4322 48.6517Z" fill="#231F20"></path><path d="M109.14 46.461C109.14 46.0958 107.211 31.4777 107.211 31.4777L93.0796 30.752L95.4957 45.2671L109.14 46.461Z" fill="#231F20"></path><path d="M126.83 28.1055C126.83 28.1055 137.772 47.4855 130.786 48.6701C125.922 49.4989 116.215 47.2654 112.591 45.3925C108.967 43.5196 107.464 42.1523 107.464 42.1523C107.464 42.1523 103.418 41.8527 103.901 40.8881C104.036 40.6163 104.259 40.3975 104.532 40.266C104.806 40.1346 105.116 40.0982 105.413 40.1624C105.413 40.1624 103.479 39.9798 103.723 39.0761C103.966 38.1724 105.535 38.4721 105.535 38.4721C105.535 38.4721 102.814 37.5028 103.54 36.9597C104.266 36.4165 105.652 36.8379 105.652 36.8379C105.652 36.8379 103.779 36.5008 103.844 35.6908C103.957 34.3189 109.819 35.8125 110.966 36.8988C112.113 37.9851 119.099 39.0761 120.368 39.1978L117.091 32.2118" fill="white"></path><path d="M128.342 49.0828C123.131 49.0828 115.634 47.2099 112.483 45.5851C110.666 44.706 108.951 43.6287 107.37 42.3731C106.677 42.3169 104.13 42.0641 103.704 41.3055C103.658 41.2241 103.634 41.1321 103.634 41.0386C103.634 40.9451 103.658 40.8532 103.704 40.7717C103.83 40.5044 104.032 40.2798 104.284 40.1256C104.021 40.0364 103.789 39.8739 103.615 39.6574C103.548 39.5661 103.504 39.4608 103.484 39.3497C103.465 39.2385 103.471 39.1243 103.503 39.0159C103.563 38.8166 103.678 38.6386 103.836 38.5026C103.993 38.3666 104.186 38.2783 104.392 38.248C103.812 37.9671 103.254 37.6065 103.198 37.2366C103.184 37.1465 103.196 37.0542 103.234 36.971C103.271 36.8879 103.332 36.8174 103.409 36.7684C103.612 36.6257 103.844 36.5297 104.088 36.4874C103.944 36.4045 103.825 36.285 103.743 36.141C103.661 35.9971 103.618 35.8339 103.62 35.668C103.635 35.5211 103.695 35.3823 103.791 35.2702C103.887 35.158 104.015 35.078 104.158 35.0406C105.563 34.4975 110.067 35.7102 111.139 36.7262C112.118 37.6627 117.957 38.66 119.989 38.9129L116.871 32.3062C116.857 32.2782 116.849 32.2479 116.848 32.2169C116.846 32.186 116.851 32.155 116.861 32.1258C116.872 32.0966 116.888 32.0698 116.909 32.0469C116.93 32.024 116.955 32.0055 116.983 31.9924C117.04 31.9666 117.104 31.9639 117.163 31.9849C117.221 32.0059 117.269 32.0489 117.297 32.1048L120.574 39.0955C120.595 39.1311 120.606 39.1714 120.606 39.2125C120.606 39.2536 120.595 39.294 120.574 39.3296C120.55 39.3623 120.518 39.3884 120.481 39.4055C120.445 39.4227 120.404 39.4304 120.364 39.4279C119.198 39.3155 112.057 38.2339 110.821 37.0868C109.885 36.1878 105.572 35.0219 104.327 35.4948C104.102 35.5838 104.092 35.6868 104.088 35.7289C104.064 36.0567 104.711 36.3657 105.315 36.5343C105.457 36.5567 105.598 36.5895 105.736 36.6326C105.793 36.649 105.842 36.687 105.871 36.7386C105.901 36.7901 105.91 36.8512 105.895 36.9089C105.882 36.9669 105.847 37.0176 105.797 37.0507C105.747 37.0838 105.687 37.0967 105.628 37.0868C105.572 37.0868 105.413 37.0446 105.207 36.9885C104.699 36.8593 104.16 36.9209 103.695 37.1617C103.695 37.3911 104.631 37.9109 105.624 38.2667C105.68 38.2851 105.727 38.3246 105.755 38.377C105.783 38.4294 105.79 38.4905 105.773 38.5477C105.758 38.6049 105.721 38.6542 105.671 38.6855C105.62 38.7168 105.56 38.7278 105.502 38.7162C105.502 38.7162 104.139 38.4774 103.961 39.147C103.947 39.1901 103.943 39.2361 103.951 39.2809C103.958 39.3258 103.976 39.3682 104.004 39.4045C104.345 39.7016 104.774 39.8805 105.226 39.9149C105.311 39.9194 105.395 39.9303 105.478 39.9477C105.541 39.9576 105.596 39.9918 105.633 40.0427C105.67 40.0936 105.685 40.1571 105.675 40.2192C105.665 40.2813 105.631 40.3369 105.58 40.3738C105.529 40.4107 105.466 40.4258 105.404 40.4159L105.198 40.3878C104.979 40.3645 104.759 40.4075 104.565 40.511C104.371 40.6145 104.213 40.7739 104.111 40.9684C104.102 40.9823 104.097 40.9986 104.097 41.0152C104.097 41.0319 104.102 41.0482 104.111 41.062C104.35 41.4834 106.228 41.8018 107.482 41.9002C107.534 41.9017 107.584 41.9216 107.623 41.9564C107.623 41.9564 109.154 43.333 112.699 45.1637C116.243 46.9945 125.964 49.2467 130.744 48.4413C131.125 48.3953 131.488 48.2523 131.798 48.0261C132.108 47.7998 132.354 47.4978 132.514 47.149C134.682 42.5885 126.708 28.3637 126.624 28.2185C126.597 28.1648 126.592 28.103 126.61 28.0458C126.628 27.9886 126.667 27.9404 126.719 27.911C126.771 27.8816 126.832 27.8733 126.891 27.8879C126.949 27.9024 126.999 27.9386 127.031 27.9891C127.368 28.5837 135.211 42.5744 132.936 47.3504C132.744 47.7666 132.449 48.1272 132.08 48.3983C131.711 48.6694 131.278 48.8421 130.824 48.9002C130.003 49.0303 129.173 49.0914 128.342 49.0828Z" fill="#231F20"></path><path d="M77.9603 29.8612C77.9603 29.8612 75.1509 22.3695 74.5375 22.6317C73.9242 22.8939 75.0058 27.5435 75.0058 27.5435C75.0058 27.5435 70.5154 22.6551 69.9348 22.9735C69.3542 23.2919 69.7194 24.5 71.4098 26.9816C71.4098 26.9816 68.4271 23.5401 67.9542 24.2565C67.4813 24.9729 70.4077 28.0585 70.4077 28.0585C70.4077 28.0585 67.5984 25.0852 67.2004 25.6799C66.8024 26.2745 69.8552 29.3649 69.8552 29.3649C69.8552 29.3649 66.999 26.0404 66.8024 27.0705C66.6057 28.1006 72.2666 34.8057 73.8914 36.6505" fill="white"></path><path d="M73.8961 36.8853C73.8631 36.8862 73.8302 36.8795 73.8002 36.8657C73.7702 36.8519 73.7437 36.8313 73.7229 36.8057C73.648 36.7214 66.3155 28.3775 66.5777 27.0244C66.5871 26.9377 66.6226 26.856 66.6794 26.79C66.7363 26.7239 66.8118 26.6767 66.8961 26.6545C67.0379 26.6291 67.1841 26.6504 67.3128 26.7153C66.9991 26.2143 66.8446 25.7789 67.0084 25.5541C67.0428 25.5012 67.0891 25.4572 67.1436 25.4255C67.198 25.3937 67.2592 25.3753 67.3222 25.3715C67.6577 25.4079 67.9744 25.545 68.2305 25.7648C67.7951 25.0859 67.5375 24.4631 67.7623 24.126C67.8025 24.0677 67.8554 24.0193 67.9171 23.9845C67.9787 23.9496 68.0475 23.9291 68.1181 23.9247C68.5583 23.8966 69.3121 24.4959 70.0238 25.1748C69.4198 24.023 69.4058 23.5267 69.476 23.2364C69.4968 23.1374 69.5391 23.0443 69.5997 22.9634C69.6604 22.8825 69.738 22.8159 69.8272 22.7682C70.2954 22.5153 71.8874 23.8544 74.5891 26.7434C74.1536 24.7347 73.854 22.6371 74.4533 22.4123C74.4955 22.3941 74.5409 22.3848 74.5868 22.3848C74.6326 22.3848 74.6781 22.3941 74.7202 22.4123C75.5162 22.7728 77.5717 28.1341 78.1804 29.7682C78.1945 29.824 78.1876 29.883 78.1609 29.934C78.1343 29.985 78.0898 30.0244 78.0359 30.0446C77.9821 30.0649 77.9226 30.0646 77.869 30.0439C77.8153 30.0231 77.7712 29.9833 77.745 29.9321C76.5603 26.7668 75.0995 23.3769 74.5891 22.9086C74.4393 23.3488 74.7811 25.5728 75.2399 27.4973C75.252 27.5471 75.247 27.5995 75.2258 27.6462C75.2046 27.6929 75.1684 27.7311 75.1229 27.7548C75.0769 27.7801 75.0238 27.7893 74.972 27.7808C74.9202 27.7723 74.8727 27.7467 74.8373 27.708C72.8473 25.5167 70.5249 23.2832 70.0238 23.1755C69.9743 23.2134 69.9409 23.2686 69.9302 23.33C69.8459 23.6765 70.066 24.5708 71.6065 26.8324C71.6399 26.8817 71.6533 26.9419 71.6439 27.0008C71.6344 27.0596 71.6029 27.1127 71.5558 27.1491C71.5086 27.1855 71.4493 27.2026 71.39 27.1968C71.3307 27.191 71.2758 27.1628 71.2366 27.118C69.8974 25.5728 68.4553 24.3086 68.1416 24.3742C67.9543 24.6645 69.078 26.2939 70.5717 27.8672C70.6145 27.9125 70.6376 27.973 70.6358 28.0353C70.6341 28.0977 70.6076 28.1568 70.5623 28.1996C70.517 28.2425 70.4565 28.2655 70.3941 28.2638C70.3318 28.262 70.2727 28.2356 70.2299 28.1902C69.0171 26.9073 67.7576 25.8491 67.4205 25.8491C67.4205 26.1113 67.9777 26.9167 68.8252 27.8765C69.2934 28.3448 69.7616 28.8832 70.0754 29.225C70.1158 29.2691 70.1383 29.3267 70.1383 29.3866C70.1383 29.4464 70.1158 29.5041 70.0754 29.5481C70.0316 29.591 69.9728 29.615 69.9115 29.615C69.8502 29.615 69.7913 29.591 69.7476 29.5481C69.3683 29.1595 68.9095 28.6772 68.4787 28.1809C67.8044 27.5254 67.2426 27.0899 67.074 27.118C66.9616 27.8391 71.1055 33.0739 74.1349 36.5107C74.1751 36.5582 74.1952 36.6196 74.1908 36.6817C74.1864 36.7438 74.158 36.8017 74.1115 36.8431C74.0818 36.8672 74.0466 36.8836 74.0091 36.891C73.9715 36.8983 73.9327 36.8964 73.8961 36.8853Z" fill="#231F20"></path><path d="M75.0107 27.5449C74.5804 27.821 74.2604 28.2393 74.1064 28.7269C73.9524 29.2145 73.9742 29.7406 74.1679 30.2138" fill="white"></path><path d="M74.1676 30.4478C74.119 30.4474 74.0716 30.4325 74.0316 30.4049C73.9915 30.3774 73.9606 30.3385 73.9428 30.2933C73.7337 29.7691 73.7126 29.1887 73.8834 28.6508C74.0542 28.1129 74.4061 27.6509 74.8793 27.3434C74.9056 27.3276 74.9349 27.3172 74.9653 27.3128C74.9957 27.3085 75.0266 27.3103 75.0563 27.3182C75.086 27.326 75.1138 27.3398 75.1381 27.3586C75.1624 27.3774 75.1827 27.4009 75.1977 27.4277C75.2288 27.4806 75.2379 27.5436 75.223 27.6032C75.2081 27.6627 75.1705 27.714 75.1181 27.7461C74.7327 27.9928 74.4467 28.3675 74.3105 28.8044C74.1744 29.2412 74.1967 29.7121 74.3736 30.1341C74.3932 30.1931 74.389 30.2574 74.3619 30.3134C74.3348 30.3693 74.2869 30.4125 74.2285 30.4337C74.209 30.4414 74.1885 30.4461 74.1676 30.4478Z" fill="#231F20"></path><path d="M114.347 104.615L114.642 107.766H129.293C127.826 106.646 126.259 105.665 124.61 104.835" fill="white"></path><path d="M129.292 108H114.641C114.583 107.999 114.526 107.976 114.483 107.937C114.44 107.897 114.413 107.843 114.407 107.784L114.117 104.633C114.114 104.603 114.117 104.572 114.126 104.542C114.135 104.513 114.149 104.486 114.169 104.462C114.189 104.438 114.213 104.419 114.24 104.405C114.267 104.391 114.297 104.383 114.328 104.38C114.358 104.377 114.389 104.38 114.418 104.389C114.448 104.398 114.475 104.412 114.499 104.432C114.522 104.452 114.542 104.476 114.556 104.503C114.57 104.53 114.578 104.56 114.581 104.591L114.857 107.531H128.595C127.297 106.604 125.934 105.771 124.516 105.04C124.461 105.012 124.419 104.962 124.401 104.903C124.382 104.844 124.387 104.78 124.416 104.724C124.444 104.669 124.494 104.627 124.553 104.609C124.612 104.59 124.677 104.595 124.732 104.624C126.388 105.463 127.964 106.453 129.438 107.583C129.476 107.612 129.504 107.653 129.518 107.699C129.531 107.746 129.529 107.795 129.512 107.84C129.496 107.886 129.467 107.926 129.427 107.954C129.388 107.983 129.341 107.999 129.292 108Z" fill="#231F20"></path><path d="M141.542 107.972H0.234115C0.172399 107.971 0.113546 107.946 0.0698978 107.902C0.0262497 107.859 0.00119871 107.8 0 107.738C0 107.676 0.0246655 107.616 0.0685706 107.572C0.112476 107.529 0.172024 107.504 0.234115 107.504H141.542C141.604 107.504 141.663 107.529 141.707 107.572C141.751 107.616 141.776 107.676 141.776 107.738C141.776 107.8 141.751 107.86 141.707 107.904C141.663 107.947 141.604 107.972 141.542 107.972Z" fill="#231F20"></path><path d="M113.644 63.8044C113.62 63.8089 113.594 63.8089 113.57 63.8044L106.186 61.1636C106.128 61.1431 106.081 61.1005 106.054 61.0452C106.028 60.9899 106.025 60.9264 106.045 60.8686C106.066 60.8109 106.108 60.7636 106.163 60.7373C106.219 60.7109 106.282 60.7077 106.34 60.7281L113.724 63.3643C113.755 63.3695 113.784 63.3807 113.811 63.3973C113.837 63.4139 113.86 63.4355 113.878 63.461C113.896 63.4864 113.909 63.5152 113.916 63.5456C113.923 63.576 113.924 63.6074 113.918 63.6382C113.913 63.6689 113.902 63.6983 113.885 63.7247C113.869 63.7512 113.847 63.774 113.822 63.7921C113.796 63.8101 113.767 63.823 113.737 63.8299C113.707 63.8368 113.675 63.8377 113.644 63.8325V63.8044Z" fill="white"></path><path d="M95.8047 56.5937C95.7426 56.5968 95.6818 56.5751 95.6357 56.5334C95.5896 56.4917 95.562 56.4334 95.5589 56.3713C95.5558 56.3092 95.5775 56.2484 95.6192 56.2023C95.6609 56.1562 95.7192 56.1286 95.7813 56.1255C99.0823 55.7977 99.7847 51.7897 99.794 51.7475C99.8044 51.6869 99.8382 51.6327 99.8881 51.5968C99.9381 51.5609 100 51.546 100.061 51.5555C100.122 51.567 100.176 51.6017 100.212 51.6524C100.248 51.7031 100.262 51.7658 100.253 51.8271C100.253 51.8693 99.4803 56.2238 95.8281 56.589L95.8047 56.5937Z" fill="white"></path><path d="M121.82 56.5938C121.798 56.5984 121.776 56.5984 121.754 56.5938C120.888 56.3703 120.122 55.8608 119.582 55.1477C119.041 54.4347 118.757 53.56 118.776 52.6654C118.777 52.635 118.785 52.6052 118.798 52.5778C118.811 52.5503 118.829 52.5258 118.852 52.5056C118.875 52.4855 118.901 52.4702 118.93 52.4606C118.959 52.4511 118.989 52.4475 119.02 52.45C119.05 52.4512 119.08 52.4585 119.108 52.4714C119.136 52.4844 119.161 52.5027 119.181 52.5254C119.202 52.5481 119.217 52.5747 119.227 52.6035C119.237 52.6324 119.242 52.663 119.24 52.6935C119.22 53.4851 119.471 54.2597 119.952 54.8884C120.434 55.5171 121.116 55.962 121.885 56.149C121.947 56.1577 122.004 56.1907 122.041 56.2408C122.079 56.2908 122.095 56.3538 122.087 56.4159C122.078 56.478 122.045 56.5341 121.995 56.5719C121.945 56.6096 121.882 56.6259 121.82 56.6173V56.5938Z" fill="white"></path><path d="M110.713 10.7812C110.713 10.7812 109.051 12.5324 109.308 12.9304C109.566 13.3284 110.488 13.2535 110.488 13.2535" fill="white"></path><path d="M110.296 13.4922C110.078 13.5135 109.858 13.4855 109.652 13.4101C109.446 13.3347 109.26 13.214 109.107 13.0568C108.812 12.5885 109.725 11.4788 110.54 10.622C110.562 10.6 110.587 10.5826 110.616 10.5707C110.644 10.5589 110.675 10.5527 110.706 10.5527C110.737 10.5527 110.767 10.5589 110.796 10.5707C110.825 10.5826 110.85 10.6 110.872 10.622C110.894 10.6433 110.911 10.6688 110.923 10.697C110.935 10.7251 110.941 10.7553 110.941 10.7859C110.941 10.8164 110.935 10.8466 110.923 10.8747C110.911 10.9029 110.894 10.9284 110.872 10.9497C110.118 11.7457 109.468 12.626 109.505 12.8227C109.613 12.9865 110.137 13.0427 110.441 13.0146C110.503 13.0094 110.564 13.0286 110.611 13.0681C110.658 13.1075 110.688 13.164 110.694 13.2253C110.697 13.2559 110.695 13.2867 110.686 13.3161C110.677 13.3454 110.662 13.3727 110.642 13.3963C110.623 13.4199 110.599 13.4393 110.571 13.4533C110.544 13.4674 110.514 13.4758 110.484 13.4782L110.296 13.4922Z" fill="#231F20"></path><path d="M109.959 14.6262C109.959 14.6262 111.364 15.3567 111.996 13.9941L109.959 14.6262Z" fill="white"></path><path d="M110.784 15.0527C110.459 15.0483 110.14 14.9732 109.847 14.8327C109.82 14.8188 109.795 14.7997 109.776 14.7763C109.756 14.7529 109.741 14.7258 109.732 14.6966C109.723 14.6673 109.719 14.6365 109.722 14.606C109.725 14.5755 109.734 14.5459 109.749 14.5189C109.777 14.4638 109.826 14.422 109.884 14.4027C109.943 14.3834 110.007 14.3882 110.062 14.4159C110.393 14.5801 110.772 14.6216 111.13 14.533C111.276 14.4767 111.409 14.3911 111.521 14.2816C111.633 14.1722 111.721 14.041 111.781 13.8962C111.811 13.8474 111.858 13.8114 111.913 13.795C111.968 13.7785 112.027 13.7829 112.079 13.8071C112.131 13.8314 112.172 13.8739 112.195 13.9266C112.218 13.9792 112.22 14.0384 112.202 14.0929C112.094 14.3768 111.901 14.6208 111.65 14.7923C111.399 14.9639 111.102 15.0547 110.798 15.0527H110.784Z" fill="#231F20"></path><path d="M113.27 11.2338C113.366 10.9939 113.306 10.7438 113.136 10.6753C112.966 10.6067 112.749 10.7456 112.653 10.9855C112.556 11.2254 112.616 11.4755 112.786 11.544C112.957 11.6126 113.173 11.4737 113.27 11.2338Z" fill="#231F20"></path><path d="M109.821 10.6673C109.918 10.4274 109.858 10.1774 109.688 10.1089C109.517 10.0403 109.301 10.1792 109.205 10.4191C109.108 10.659 109.168 10.9091 109.338 10.9776C109.509 11.0462 109.725 10.9072 109.821 10.6673Z" fill="#231F20"></path><path d="M16.1729 23.7563C16.2408 27.5182 17.7829 31.1031 20.4674 33.7395C23.1518 36.3758 26.7639 37.8529 30.5265 37.8529C34.289 37.8529 37.9012 36.3758 40.5856 33.7395C43.27 31.1031 44.8121 27.5182 44.8801 23.7563H30.5288V9.40039C26.7218 9.40163 23.071 10.9145 20.379 13.6065C17.687 16.2985 16.1741 19.9493 16.1729 23.7563Z" fill="#007456"></path><path d="M32.8462 7.2832V21.6391H47.2022C47.2009 17.8321 45.688 14.1813 42.996 11.4893C40.304 8.79733 36.6532 7.28444 32.8462 7.2832Z" fill="#E6E7E8"></path><path d="M28.0658 55.0527H18.2329V63.6962H28.0658V55.0527Z" fill="#007456"></path><path d="M23.599 54.1582H22.4565V55.8953H23.599V54.1582Z" fill="#E6E7E8"></path><path d="M23.0324 57.8257H20.0544C19.9923 57.8257 19.9328 57.801 19.8889 57.7571C19.845 57.7132 19.8203 57.6536 19.8203 57.5915C19.8203 57.5294 19.845 57.4699 19.8889 57.426C19.9328 57.3821 19.9923 57.3574 20.0544 57.3574H23.0324C23.0945 57.3574 23.154 57.3821 23.1979 57.426C23.2418 57.4699 23.2665 57.5294 23.2665 57.5915C23.2665 57.6536 23.2418 57.7132 23.1979 57.7571C23.154 57.801 23.0945 57.8257 23.0324 57.8257Z" fill="white"></path><path d="M25.3173 59.6987H20.0544C19.9923 59.6987 19.9328 59.674 19.8889 59.6301C19.845 59.5862 19.8203 59.5267 19.8203 59.4646C19.8203 59.4025 19.845 59.3429 19.8889 59.299C19.9328 59.2551 19.9923 59.2305 20.0544 59.2305H25.3173C25.3794 59.2305 25.439 59.2551 25.4829 59.299C25.5268 59.3429 25.5515 59.4025 25.5515 59.4646C25.5515 59.5267 25.5268 59.5862 25.4829 59.6301C25.439 59.674 25.3794 59.6987 25.3173 59.6987Z" fill="white"></path><path d="M26.5488 57.894H24.3528C24.2907 57.894 24.2311 57.8693 24.1872 57.8254C24.1433 57.7815 24.1187 57.722 24.1187 57.6599C24.1187 57.5978 24.1433 57.5383 24.1872 57.4944C24.2311 57.4505 24.2907 57.4258 24.3528 57.4258H26.5488C26.6109 57.4258 26.6704 57.4505 26.7143 57.4944C26.7582 57.5383 26.7829 57.5978 26.7829 57.6599C26.7829 57.722 26.7582 57.7815 26.7143 57.8254C26.6704 57.8693 26.6109 57.894 26.5488 57.894Z" fill="white"></path><path d="M14.7166 5.20898H6.03564V12.8364H14.7166V5.20898Z" fill="#007456"></path><path d="M10.7645 4.42383H9.75781V5.95962H10.7645V4.42383Z" fill="#E6E7E8"></path><path d="M13.2511 7.62113H7.63234C7.59012 7.62113 7.54963 7.60436 7.51977 7.5745C7.48991 7.54465 7.47314 7.50415 7.47314 7.46193C7.47314 7.41971 7.48991 7.37922 7.51977 7.34936C7.54963 7.31951 7.59012 7.30273 7.63234 7.30273H13.2511C13.2933 7.30273 13.3338 7.31951 13.3637 7.34936C13.3935 7.37922 13.4103 7.41971 13.4103 7.46193C13.4103 7.50415 13.3935 7.54465 13.3637 7.5745C13.3338 7.60436 13.2933 7.62113 13.2511 7.62113Z" fill="white"></path><path d="M13.2511 9.25901H7.63237C7.59424 9.2525 7.55965 9.23271 7.53471 9.20315C7.50977 9.17358 7.49609 9.13615 7.49609 9.09747C7.49609 9.0588 7.50977 9.02137 7.53471 8.9918C7.55965 8.96224 7.59424 8.94245 7.63237 8.93593H13.2511C13.2747 8.93192 13.2988 8.93308 13.3218 8.93935C13.3448 8.94561 13.3662 8.95683 13.3844 8.97221C13.4027 8.9876 13.4173 9.00678 13.4274 9.02841C13.4374 9.05005 13.4426 9.07362 13.4426 9.09747C13.4426 9.12133 13.4374 9.1449 13.4274 9.16654C13.4173 9.18817 13.4027 9.20735 13.3844 9.22273C13.3662 9.23812 13.3448 9.24933 13.3218 9.2556C13.2988 9.26187 13.2747 9.26303 13.2511 9.25901Z" fill="white"></path><path d="M11.2142 10.8946H7.64162C7.5994 10.8946 7.55891 10.8778 7.52905 10.8479C7.4992 10.8181 7.48242 10.7776 7.48242 10.7354C7.48242 10.6931 7.4992 10.6527 7.52905 10.6228C7.55891 10.5929 7.5994 10.5762 7.64162 10.5762H11.2142C11.2564 10.5762 11.2969 10.5929 11.3268 10.6228C11.3566 10.6527 11.3734 10.6931 11.3734 10.7354C11.3734 10.7776 11.3566 10.8181 11.3268 10.8479C11.2969 10.8778 11.2564 10.8946 11.2142 10.8946Z" fill="white"></path><path d="M32.7201 44.1425H16.8331C16.7808 44.1348 16.7331 44.1086 16.6985 44.0686C16.664 44.0286 16.645 43.9776 16.645 43.9248C16.645 43.8719 16.664 43.8209 16.6985 43.7809C16.7331 43.7409 16.7808 43.7147 16.8331 43.707H32.7201C32.7724 43.7147 32.8202 43.7409 32.8547 43.7809C32.8892 43.8209 32.9082 43.8719 32.9082 43.9248C32.9082 43.9776 32.8892 44.0286 32.8547 44.0686C32.8202 44.1086 32.7724 44.1348 32.7201 44.1425Z" fill="#D1D3D4"></path><path d="M38.7084 44.1425H35.6837C35.6314 44.1348 35.5837 44.1086 35.5491 44.0686C35.5146 44.0286 35.4956 43.9776 35.4956 43.9248C35.4956 43.8719 35.5146 43.8209 35.5491 43.7809C35.5837 43.7409 35.6314 43.7147 35.6837 43.707H38.7084C38.7607 43.7147 38.8084 43.7409 38.843 43.7809C38.8775 43.8209 38.8965 43.8719 38.8965 43.9248C38.8965 43.9776 38.8775 44.0286 38.843 44.0686C38.8084 44.1086 38.7607 44.1348 38.7084 44.1425Z" fill="#D1D3D4"></path><path d="M44.2994 43.8761H41.2794C41.2222 43.8761 41.1674 43.8534 41.1271 43.813C41.0867 43.7726 41.064 43.7178 41.064 43.6607C41.0652 43.604 41.0882 43.5499 41.1284 43.5097C41.1685 43.4696 41.2226 43.4465 41.2794 43.4453H44.2994C44.3566 43.4453 44.4114 43.468 44.4517 43.5084C44.4921 43.5488 44.5148 43.6036 44.5148 43.6607C44.5155 43.6892 44.5103 43.7175 44.4997 43.7439C44.4891 43.7703 44.4733 43.7943 44.4532 43.8144C44.433 43.8346 44.409 43.8504 44.3826 43.861C44.3562 43.8716 44.3279 43.8767 44.2994 43.8761Z" fill="#D1D3D4"></path><path d="M40.1225 47.8312H16.711C16.6542 47.83 16.6002 47.8069 16.56 47.7668C16.5199 47.7267 16.4968 47.6726 16.4956 47.6158C16.4956 47.5587 16.5183 47.5039 16.5587 47.4635C16.5991 47.4231 16.6539 47.4004 16.711 47.4004H40.1225C40.151 47.3998 40.1793 47.4049 40.2057 47.4155C40.2321 47.4261 40.2561 47.442 40.2763 47.4621C40.2964 47.4822 40.3122 47.5062 40.3228 47.5327C40.3334 47.5591 40.3386 47.5874 40.3379 47.6158C40.3379 47.6441 40.3323 47.6721 40.3215 47.6983C40.3107 47.7244 40.2948 47.7481 40.2748 47.7681C40.2548 47.7881 40.2311 47.804 40.205 47.8148C40.1788 47.8256 40.1508 47.8312 40.1225 47.8312Z" fill="#D1D3D4"></path><path d="M24.3857 51.5226H16.7769C16.7198 51.5226 16.665 51.4999 16.6246 51.4595C16.5842 51.4191 16.5615 51.3643 16.5615 51.3072C16.5627 51.2504 16.5858 51.1963 16.6259 51.1562C16.6661 51.1161 16.7202 51.093 16.7769 51.0918H24.3857C24.4424 51.093 24.4965 51.1161 24.5366 51.1562C24.5768 51.1963 24.5999 51.2504 24.601 51.3072C24.601 51.3643 24.5784 51.4191 24.538 51.4595C24.4976 51.4999 24.4428 51.5226 24.3857 51.5226Z" fill="#D1D3D4"></path><path d="M42.6231 51.3917H29.0865C29.0581 51.3923 29.0298 51.3872 29.0034 51.3766C28.9769 51.366 28.9529 51.3502 28.9328 51.33C28.9127 51.3099 28.8968 51.2859 28.8862 51.2595C28.8756 51.2331 28.8705 51.2048 28.8711 51.1763C28.8711 51.1192 28.8938 51.0644 28.9342 51.024C28.9746 50.9836 29.0294 50.9609 29.0865 50.9609H42.6231C42.6798 50.9621 42.7339 50.9852 42.7741 51.0253C42.8142 51.0655 42.8373 51.1196 42.8385 51.1763C42.8385 51.2334 42.8158 51.2882 42.7754 51.3286C42.735 51.369 42.6802 51.3917 42.6231 51.3917Z" fill="#D1D3D4"></path><path d="M32.7198 44.1557H16.8327C16.7707 44.1557 16.7111 44.1311 16.6672 44.0872C16.6233 44.0433 16.5986 43.9837 16.5986 43.9216C16.5998 43.8599 16.6249 43.801 16.6685 43.7574C16.7122 43.7137 16.771 43.6887 16.8327 43.6875H32.7198C32.7819 43.6875 32.8415 43.7122 32.8854 43.7561C32.9293 43.8 32.9539 43.8595 32.9539 43.9216C32.9539 43.9837 32.9293 44.0433 32.8854 44.0872C32.8415 44.1311 32.7819 44.1557 32.7198 44.1557Z" fill="#E6E7E8"></path><path d="M38.7086 44.1557H35.6838C35.6217 44.1557 35.5622 44.1311 35.5183 44.0872C35.4744 44.0433 35.4497 43.9837 35.4497 43.9216C35.4509 43.8599 35.476 43.801 35.5196 43.7574C35.5633 43.7137 35.6221 43.6887 35.6838 43.6875H38.7086C38.7703 43.6887 38.8292 43.7137 38.8728 43.7574C38.9165 43.801 38.9415 43.8599 38.9427 43.9216C38.9427 43.9837 38.918 44.0433 38.8741 44.0872C38.8302 44.1311 38.7707 44.1557 38.7086 44.1557Z" fill="#E6E7E8"></path><path d="M44.2991 43.894H41.279C41.2169 43.894 41.1574 43.8693 41.1135 43.8254C41.0696 43.7815 41.0449 43.722 41.0449 43.6599C41.0449 43.5978 41.0696 43.5383 41.1135 43.4944C41.1574 43.4505 41.2169 43.4258 41.279 43.4258H44.2991C44.3612 43.4258 44.4208 43.4505 44.4647 43.4944C44.5086 43.5383 44.5332 43.5978 44.5332 43.6599C44.5332 43.722 44.5086 43.7815 44.4647 43.8254C44.4208 43.8693 44.3612 43.894 44.2991 43.894Z" fill="#E6E7E8"></path><path d="M40.1227 47.851H16.7112C16.6491 47.851 16.5895 47.8264 16.5456 47.7825C16.5017 47.7386 16.4771 47.679 16.4771 47.6169C16.4771 47.5548 16.5017 47.4953 16.5456 47.4514C16.5895 47.4075 16.6491 47.3828 16.7112 47.3828H40.1227C40.1848 47.3828 40.2444 47.4075 40.2883 47.4514C40.3322 47.4953 40.3568 47.5548 40.3568 47.6169C40.3568 47.679 40.3322 47.7386 40.2883 47.7825C40.2444 47.8264 40.1848 47.851 40.1227 47.851Z" fill="#E6E7E8"></path><path d="M24.3853 51.5405H16.7766C16.7145 51.5405 16.655 51.5158 16.6111 51.4719C16.5671 51.428 16.5425 51.3685 16.5425 51.3064C16.5437 51.2447 16.5687 51.1858 16.6124 51.1422C16.656 51.0985 16.7149 51.0735 16.7766 51.0723H24.3853C24.4474 51.0723 24.507 51.0969 24.5509 51.1408C24.5948 51.1847 24.6195 51.2443 24.6195 51.3064C24.6195 51.3685 24.5948 51.428 24.5509 51.4719C24.507 51.5158 24.4474 51.5405 24.3853 51.5405Z" fill="#E6E7E8"></path><path d="M42.6232 51.4096H29.0867C29.0246 51.4096 28.965 51.385 28.9211 51.3411C28.8772 51.2972 28.8525 51.2376 28.8525 51.1755C28.8525 51.1134 28.8772 51.0539 28.9211 51.01C28.965 50.9661 29.0246 50.9414 29.0867 50.9414H42.6232C42.6853 50.9414 42.7448 50.9661 42.7888 51.01C42.8327 51.0539 42.8573 51.1134 42.8573 51.1755C42.8573 51.2376 42.8327 51.2972 42.7888 51.3411C42.7448 51.385 42.6853 51.4096 42.6232 51.4096Z" fill="#E6E7E8"></path><path d="M58.1169 39.793H53.2754V53.5214H58.1169V39.793Z" fill="#007456"></path><path d="M66.4699 44.457H61.6284V53.5266H66.4699V44.457Z" fill="#E6E7E8"></path><path d="M74.8186 41.8027H69.9771V53.5225H74.8186V41.8027Z" fill="#E6E7E8"></path><path d="M76.9209 10.3217H51.6365C51.5744 10.3217 51.5148 10.2971 51.4709 10.2532C51.427 10.2093 51.4023 10.1497 51.4023 10.0876C51.4023 10.0255 51.427 9.96599 51.4709 9.92209C51.5148 9.87818 51.5744 9.85352 51.6365 9.85352H76.9209C76.983 9.85352 77.0426 9.87818 77.0865 9.92209C77.1304 9.96599 77.155 10.0255 77.155 10.0876C77.1538 10.1493 77.1288 10.2082 77.0851 10.2518C77.0415 10.2955 76.9826 10.3205 76.9209 10.3217Z" fill="#D1D3D4"></path><path d="M71.4662 14.0112H52.0159C51.9538 14.0112 51.8942 13.9865 51.8503 13.9426C51.8064 13.8987 51.7817 13.8392 51.7817 13.7771C51.7829 13.7154 51.808 13.6565 51.8516 13.6129C51.8953 13.5692 51.9541 13.5442 52.0159 13.543H71.4662C71.5283 13.543 71.5878 13.5676 71.6317 13.6115C71.6756 13.6554 71.7003 13.715 71.7003 13.7771C71.7003 13.8392 71.6756 13.8987 71.6317 13.9426C71.5878 13.9865 71.5283 14.0112 71.4662 14.0112Z" fill="#D1D3D4"></path><path d="M74.1957 17.5561H51.6457C51.5836 17.5561 51.5241 17.5315 51.4802 17.4875C51.4363 17.4436 51.4116 17.3841 51.4116 17.322C51.4116 17.2599 51.4363 17.2004 51.4802 17.1565C51.5241 17.1126 51.5836 17.0879 51.6457 17.0879H74.1957C74.2574 17.0891 74.3163 17.1141 74.3599 17.1578C74.4036 17.2014 74.4286 17.2603 74.4298 17.322C74.4298 17.3841 74.4052 17.4436 74.3613 17.4875C74.3174 17.5315 74.2578 17.5561 74.1957 17.5561Z" fill="#D1D3D4"></path><path d="M77.7874 13.8393H74.196C74.1339 13.8393 74.0744 13.8147 74.0305 13.7708C73.9866 13.7268 73.9619 13.6673 73.9619 13.6052C73.9619 13.5431 73.9866 13.4836 74.0305 13.4397C74.0744 13.3958 74.1339 13.3711 74.196 13.3711H77.7874C77.8495 13.3711 77.909 13.3958 77.9529 13.4397C77.9968 13.4836 78.0215 13.5431 78.0215 13.6052C78.0215 13.6673 77.9968 13.7268 77.9529 13.7708C77.909 13.8147 77.8495 13.8393 77.7874 13.8393Z" fill="#D1D3D4"></path><path d="M65.2618 35.5875H52.0764C52.0143 35.5875 51.9548 35.5628 51.9109 35.5189C51.8669 35.475 51.8423 35.4154 51.8423 35.3533V24.5466C51.8423 24.4845 51.8669 24.425 51.9109 24.3811C51.9548 24.3372 52.0143 24.3125 52.0764 24.3125C52.1385 24.3125 52.198 24.3372 52.2419 24.3811C52.2858 24.425 52.3105 24.4845 52.3105 24.5466V35.1192H65.2618C65.3239 35.1192 65.3834 35.1439 65.4273 35.1878C65.4712 35.2317 65.4959 35.2913 65.4959 35.3533C65.4959 35.4154 65.4712 35.475 65.4273 35.5189C65.3834 35.5628 65.3239 35.5875 65.2618 35.5875Z" fill="#E6E7E8"></path><path d="M52.0764 35.5878C52.0302 35.5895 51.9845 35.5771 51.9454 35.5523C51.9063 35.5275 51.8757 35.4915 51.8574 35.4489C51.8392 35.4064 51.8342 35.3593 51.8433 35.3139C51.8523 35.2685 51.8748 35.2269 51.9079 35.1945L57.4424 29.2621C57.4675 29.2359 57.4983 29.216 57.5324 29.2038C57.5666 29.1916 57.603 29.1875 57.639 29.1918C57.6743 29.1948 57.7085 29.2062 57.7386 29.2249C57.7687 29.2436 57.7939 29.2692 57.8123 29.2995L58.9735 31.135L62.7193 27.0146C62.7411 26.9926 62.767 26.9752 62.7955 26.9633C62.824 26.9514 62.8546 26.9453 62.8856 26.9453C62.9165 26.9453 62.9471 26.9514 62.9756 26.9633C63.0041 26.9752 63.03 26.9926 63.0518 27.0146C63.0736 27.0359 63.0909 27.0614 63.1027 27.0896C63.1146 27.1177 63.1206 27.1479 63.1206 27.1784C63.1206 27.209 63.1146 27.2392 63.1027 27.2673C63.0909 27.2955 63.0736 27.321 63.0518 27.3423L59.0999 31.6922C59.0753 31.7194 59.0448 31.7407 59.0107 31.7545C58.9766 31.7683 58.9399 31.7742 58.9033 31.7718C58.8668 31.7686 58.8316 31.7567 58.8006 31.7372C58.7697 31.7176 58.7439 31.691 58.7253 31.6594L57.5688 29.7865L52.2403 35.4942C52.2212 35.5205 52.1967 35.5425 52.1685 35.5587C52.1402 35.5748 52.1088 35.5847 52.0764 35.5878Z" fill="#E6E7E8"></path><path d="M78.5786 53.6538H49.8386C49.7765 53.6538 49.717 53.6291 49.6731 53.5852C49.6292 53.5413 49.6045 53.4818 49.6045 53.4197C49.6045 53.3576 49.6292 53.298 49.6731 53.2541C49.717 53.2102 49.7765 53.1855 49.8386 53.1855H78.5786C78.6407 53.1855 78.7003 53.2102 78.7442 53.2541C78.7881 53.298 78.8127 53.3576 78.8127 53.4197C78.8115 53.4814 78.7865 53.5402 78.7428 53.5839C78.6992 53.6275 78.6403 53.6526 78.5786 53.6538Z" fill="#E6E7E8"></path></svg>