<svg xmlns="http://www.w3.org/2000/svg" width="150" height="108" viewBox="0 0 150 108" fill="none"><path d="M52.5876 14.1523H92.4929C95.1551 14.153 97.7877 14.7568 100.221 15.925C102.655 17.0932 104.836 18.8 106.625 20.9355C108.413 23.0711 109.768 25.5882 110.604 28.3251C111.441 31.0619 111.738 33.9579 111.479 36.8269L107.729 78.3096H37.3512L33.5961 36.8269C33.3375 33.9576 33.6361 31.0615 34.4728 28.3247C35.3095 25.5878 36.6657 23.0708 38.4543 20.9353C40.2429 18.7998 42.4243 17.0932 44.8584 15.925C47.2924 14.7569 49.9252 14.153 52.5876 14.1523Z" fill="white"></path><path d="M107.729 78.5966H37.3508C37.2853 78.597 37.222 78.5709 37.1733 78.5235C37.1246 78.476 37.094 78.4106 37.0875 78.34L33.3323 36.8574C33.0692 33.9482 33.3714 31.0115 34.2193 28.2363C35.0672 25.4611 36.4422 22.9088 38.2558 20.7436C40.0694 18.5783 42.2814 16.8481 44.7497 15.6641C47.2179 14.4802 49.8876 13.8688 52.5872 13.8691H92.4924C95.192 13.8678 97.862 14.4786 100.33 15.6623C102.799 16.8461 105.011 18.5764 106.824 20.7419C108.637 22.9075 110.012 25.4602 110.859 28.2358C111.706 31.0114 112.007 33.9483 111.742 36.8574L107.992 78.34C107.984 78.4101 107.954 78.4748 107.905 78.522C107.857 78.5692 107.794 78.5957 107.729 78.5966ZM37.5878 78.0264H107.492L111.221 36.8004C111.476 33.9707 111.182 31.1143 110.358 28.4151C109.533 25.7158 108.195 23.2333 106.431 21.1272C104.668 19.0211 102.516 17.338 100.115 16.1863C97.7148 15.0345 95.1182 14.4394 92.4924 14.4394H52.5872C49.9612 14.4386 47.3641 15.033 44.9631 16.1845C42.5621 17.336 40.4103 19.019 38.6462 21.1253C36.8822 23.2316 35.5448 25.7145 34.7203 28.4141C33.8958 31.1138 33.6024 33.9705 33.859 36.8004L37.5878 78.0264Z" fill="#D1D3D4"></path><path d="M123.008 45.5715C119.942 47.3964 102.994 49.1187 100.414 50.4133C99.9538 50.6523 99.5103 50.9267 99.0866 51.2345C94.9681 54.1772 92.24 61.2943 99.4184 61.9388C101.615 62.1384 120.933 54.4053 128.617 50.9151C130.312 50.1509 135.932 47.003 135.5 45.7825C135.068 44.5621 133.272 41.3913 132.577 41.6195C131.882 41.8476 126.642 44.5336 126.642 44.5336C126.642 44.5336 128.101 39.8002 126.642 39.9713C125.183 40.1424 123.008 45.5715 123.008 45.5715Z" fill="white"></path><path d="M99.4971 62.2346H99.397C96.1475 61.938 95.1153 60.3754 94.8151 59.1151C94.162 56.3378 96.3951 52.802 98.9336 50.9885C99.3691 50.674 99.825 50.3939 100.298 50.1502C101.488 49.5457 105.417 48.9013 109.967 48.1485C115.165 47.2931 121.027 46.3236 122.797 45.3598C123.155 44.4587 125.082 39.8052 126.599 39.6569C126.728 39.6365 126.86 39.6531 126.981 39.7052C127.102 39.7572 127.208 39.8429 127.289 39.9535C127.847 40.712 127.389 42.8049 127.084 43.9455C128.458 43.2383 131.913 41.4761 132.498 41.3051C133.551 40.9971 135.431 44.7268 135.753 45.662C136.385 47.4584 128.801 51.1482 128.722 51.1824C121.722 54.3646 102.225 62.2346 99.4971 62.2346ZM126.699 40.2272H126.652C125.699 40.3299 124.066 43.6489 123.26 45.6849C123.236 45.746 123.193 45.7963 123.139 45.8274C121.406 46.8597 115.634 47.812 110.046 48.7302C105.728 49.443 101.62 50.116 100.529 50.6806C100.08 50.9119 99.647 51.1788 99.2338 51.479C96.5636 53.3894 94.8151 56.7484 95.3417 58.9668C95.7051 60.5123 97.1219 61.4362 99.4444 61.6472H99.5287C101.988 61.6472 120.785 54.1536 128.495 50.6464C131.16 49.4373 135.489 46.6201 135.226 45.8731C134.699 44.3903 133.072 41.8811 132.635 41.8811C132.076 42.0407 128.2 44.0253 126.752 44.7724C126.703 44.7976 126.649 44.8068 126.595 44.7987C126.542 44.7905 126.492 44.7655 126.452 44.7268C126.412 44.6883 126.384 44.6379 126.371 44.5821C126.358 44.5262 126.36 44.4674 126.378 44.4131C126.805 43.0159 127.242 40.8203 126.863 40.3071C126.844 40.2798 126.819 40.2582 126.79 40.2442C126.762 40.2302 126.731 40.2244 126.699 40.2272Z" fill="#231F20"></path><path d="M84.561 17.005C88.9191 12.8442 92.635 7.95606 95.5683 2.52539L99.9659 5.47377C99.9659 5.47377 95.9317 17.0962 84.561 17.005Z" fill="white"></path><path d="M84.7031 17.2957H84.5557C84.4997 17.2961 84.445 17.2777 84.3993 17.2428C84.3535 17.208 84.3189 17.1585 84.3004 17.1014C84.2818 17.0442 84.2802 16.9822 84.2957 16.924C84.3113 16.8658 84.3433 16.8143 84.3871 16.7768C88.7156 12.6339 92.4096 7.77359 95.3312 2.37703C95.3488 2.34266 95.3729 2.31271 95.402 2.28912C95.431 2.26554 95.4643 2.24885 95.4997 2.24016C95.5351 2.23 95.5721 2.2278 95.6083 2.23369C95.6446 2.23957 95.6793 2.25342 95.7104 2.27437L100.108 5.22276C100.161 5.25894 100.202 5.31355 100.223 5.37772C100.244 5.4419 100.244 5.51188 100.224 5.57633C100.182 5.69039 96.0211 17.2957 84.7031 17.2957ZM95.663 2.93591C92.8493 8.04951 89.3551 12.6863 85.293 16.6969C94.952 16.3376 98.9862 7.15032 99.6288 5.58774L95.663 2.93591Z" fill="#231F20"></path><path d="M84.561 17.0064C89.4998 17.5587 94.4534 16.1213 98.4754 12.9688L99.3971 19.567C99.3971 19.567 93.0139 23.1769 83.5234 19.1735L84.561 17.0064Z" fill="white"></path><path d="M92.3033 21.3386C89.2569 21.3131 86.2417 20.6709 83.4133 19.4453C83.3778 19.4295 83.3455 19.4063 83.3184 19.3769C83.2913 19.3475 83.2698 19.3126 83.2553 19.2742C83.2396 19.2366 83.2314 19.1957 83.2314 19.1544C83.2314 19.1131 83.2396 19.0723 83.2553 19.0347L84.3086 16.8676C84.334 16.8119 84.3756 16.7667 84.4269 16.7389C84.4782 16.7111 84.5366 16.7022 84.593 16.7136C89.4537 17.2277 94.321 15.8088 98.2862 12.7216C98.3244 12.6912 98.3693 12.6721 98.4164 12.6661C98.4634 12.6601 98.5112 12.6674 98.5548 12.6874C98.5973 12.7071 98.6343 12.7385 98.6621 12.7785C98.6898 12.8186 98.7073 12.8658 98.7128 12.9155L99.624 19.5137C99.6313 19.5745 99.6217 19.6364 99.5963 19.6912C99.571 19.7461 99.5311 19.7915 99.4818 19.8217C99.4712 19.8502 96.7642 21.3386 92.3033 21.3386ZM83.8767 19.0119C92.1453 22.388 98.0071 19.9072 99.071 19.394L98.2599 13.4744C94.2858 16.4154 89.4938 17.7756 84.6983 17.3238L83.8767 19.0119Z" fill="#231F20"></path><path d="M103.969 49.1969C103.969 49.1969 102.389 44.9882 94.8628 35.5101C91.2499 30.9478 81.554 29.2369 78.9523 29.0886C79.5211 29.1514 81.1485 28.1819 70.0675 29.0886C64.369 29.5563 60.7245 29.8642 57.3697 33.7308C51.0497 41.0247 37.3564 56.5422 37.3564 56.5422L51.8134 61.0076C51.8134 61.0076 54.157 59.2283 55.0155 57.9965L52.9404 74.6944L91.982 77.1581L91.6554 58.0136L95.6581 61.5493L103.969 49.1969Z" fill="#007456"></path><path d="M78.2832 29.0718C78.2832 29.0718 78.5255 29.0718 78.9521 29.0718C78.7203 29.0376 78.2832 29.0718 78.2832 29.0718Z" fill="#007456"></path><path d="M68.0869 30.8732L68.4398 73.6903H79.3786V28.5293L68.0869 30.8732Z" fill="white"></path><path d="M79.3839 73.9539H68.4399C68.3765 73.9539 68.3157 73.9271 68.2704 73.8791C68.2251 73.8312 68.199 73.7659 68.1976 73.6973L67.8447 30.8745C67.8449 30.8139 67.8643 30.7553 67.8999 30.7085C67.9354 30.6618 67.9848 30.6297 68.0396 30.6179L79.3313 28.274C79.366 28.2654 79.4021 28.2654 79.4369 28.2741C79.4716 28.2827 79.5041 28.2997 79.532 28.3238C79.5598 28.3479 79.5823 28.3785 79.5977 28.4134C79.6131 28.4482 79.621 28.4863 79.6209 28.5249V73.6916C79.6209 73.7602 79.5961 73.8261 79.5518 73.8751C79.5075 73.9241 79.4473 73.9524 79.3839 73.9539ZM68.6821 73.435H79.1417V28.8443L68.324 31.0855L68.6821 73.435Z" fill="#231F20"></path><path d="M65.9543 58.2523C65.909 58.2525 65.8645 58.2387 65.8263 58.2124C65.788 58.1861 65.7575 58.1485 65.7383 58.104L60.9984 47.3427C60.9776 47.3027 60.9667 47.2575 60.9667 47.2116C60.9667 47.1656 60.9776 47.1204 60.9984 47.0804L64.0741 42.1816L61.0563 39.775C61.0069 39.7351 60.9735 39.6763 60.9627 39.6106C60.9519 39.545 60.9647 39.4773 60.9984 39.4214L65.7383 31.8366C65.7558 31.8083 65.7783 31.7841 65.8045 31.7653C65.8307 31.7465 65.8601 31.7336 65.891 31.7272C65.9219 31.7208 65.9536 31.7212 65.9844 31.7282C66.0151 31.7352 66.0443 31.7488 66.0701 31.7682C66.0964 31.7877 66.1189 31.8125 66.1364 31.8414C66.1538 31.8703 66.1658 31.9026 66.1716 31.9365C66.1775 31.9704 66.1771 32.0052 66.1706 32.039C66.164 32.0727 66.1513 32.1047 66.1333 32.1332L61.504 39.507L64.5165 41.9079C64.5673 41.9479 64.6017 42.0078 64.6125 42.0748C64.6233 42.1419 64.6097 42.2108 64.5744 42.2672L61.4776 47.2515L66.1807 57.8816C66.2078 57.9444 66.2107 58.0162 66.189 58.0814C66.1673 58.1466 66.1227 58.1998 66.0649 58.2295C66.0302 58.2466 65.9923 58.2544 65.9543 58.2523Z" fill="#231F20"></path><path d="M81.1325 58.2529C81.0979 58.2615 81.0619 58.2615 81.0272 58.2529C80.9694 58.2233 80.9247 58.17 80.903 58.1049C80.8813 58.0397 80.8843 57.9678 80.9113 57.905L85.6144 47.2749L82.4913 42.2906C82.4561 42.2343 82.4424 42.1653 82.4532 42.0983C82.464 42.0313 82.4985 41.9714 82.5493 41.9313L85.5618 39.5304L80.9324 32.1566C80.9144 32.1282 80.9017 32.0962 80.8952 32.0624C80.8886 32.0287 80.8882 31.9938 80.8941 31.9599C80.9 31.926 80.912 31.8937 80.9294 31.8648C80.9468 31.836 80.9693 31.8111 80.9956 31.7916C81.0215 31.7723 81.0506 31.7587 81.0814 31.7516C81.1121 31.7446 81.1439 31.7443 81.1747 31.7506C81.2056 31.757 81.235 31.77 81.2612 31.7887C81.2874 31.8075 81.3099 31.8318 81.3274 31.8601L86.0937 39.4449C86.1274 39.5007 86.1401 39.5684 86.1294 39.6341C86.1186 39.6998 86.0851 39.7585 86.0358 39.7985L83.018 42.188L86.0937 47.0867C86.1145 47.1268 86.1254 47.172 86.1254 47.2179C86.1254 47.2638 86.1145 47.309 86.0937 47.3491L81.3537 58.1104C81.3335 58.1547 81.3018 58.1917 81.2626 58.217C81.2233 58.2423 81.1782 58.2548 81.1325 58.2529Z" fill="#231F20"></path><path d="M83.5972 26.1709C83.5287 26.1709 84.7927 18.8541 84.9033 18.2382C85.6459 14.1037 86.2199 10.3512 85.8723 7.0093C84.9612 7.48834 84.74 8.95398 83.9816 9.67254C83.7009 6.5589 83.5778 3.43095 83.613 0.302734C78.6623 2.20179 73.4483 4.29474 70.1883 8.76008L69.7986 2.09343C67.5129 6.08544 65.1903 10.1687 63.9631 14.7025C62.736 19.2362 63.5839 23.4621 64.6004 27.9331L83.5972 26.1709Z" fill="white"></path><path d="M64.6007 28.2055C64.5396 28.2048 64.4805 28.1819 64.4328 28.1406C64.3851 28.0993 64.3515 28.0418 64.3374 27.9774C63.284 23.3125 62.5204 19.0867 63.7264 14.6213C64.9852 9.95069 67.4131 5.69635 69.5935 1.93816C69.6238 1.88569 69.6686 1.84483 69.7215 1.82131C69.7744 1.79779 69.8328 1.79278 69.8884 1.80699C69.9448 1.82168 69.9952 1.85573 70.0323 1.90404C70.0693 1.95235 70.0909 2.01233 70.0938 2.07503L70.4309 8.00031C73.87 3.73456 79.2104 1.68153 83.5343 0.0162952C83.5755 0.000863236 83.6194 -0.00369651 83.6626 0.00299441C83.7058 0.00968533 83.7468 0.0274334 83.7824 0.0547641C83.8179 0.0820947 83.8469 0.118219 83.867 0.160131C83.887 0.202043 83.8975 0.248533 83.8977 0.295736C83.867 3.18141 83.9707 6.06692 84.2084 8.94128C84.3242 8.74168 84.4348 8.52497 84.5454 8.30256C84.7926 7.65519 85.2196 7.10711 85.7673 6.73427C85.8066 6.71316 85.8499 6.70218 85.8937 6.70218C85.9376 6.70218 85.9808 6.71316 86.0201 6.73427C86.0573 6.75872 86.0889 6.79192 86.1126 6.83141C86.1363 6.8709 86.1515 6.91567 86.157 6.96238C86.5204 10.3841 85.9042 14.2849 85.1827 18.2826C85.0458 19.0582 83.924 25.5993 83.8818 26.1297C83.8924 26.1707 83.8924 26.2141 83.8818 26.2552C83.8659 26.3091 83.8352 26.3565 83.7938 26.3912C83.7525 26.4258 83.7023 26.446 83.6501 26.4491L64.6376 28.2055H64.6007ZM69.604 3.02741C67.5816 6.55748 65.3907 10.5153 64.2478 14.7867C63.105 19.0582 63.8107 23.1072 64.8114 27.5953L83.3973 25.8845C83.4605 25.1602 83.7396 23.2612 84.656 18.1685C85.3302 14.416 85.9148 10.7548 85.6672 7.53267C85.4126 7.84802 85.1982 8.19905 85.03 8.57629C84.8204 9.06219 84.5334 9.50428 84.182 9.88225C84.1452 9.91933 84.0992 9.94395 84.0496 9.95306C84 9.96218 83.949 9.95541 83.9029 9.93358C83.8556 9.91452 83.8142 9.88141 83.7834 9.83803C83.7527 9.79466 83.7339 9.74278 83.7291 9.68835C83.465 6.70307 83.3402 3.70525 83.3552 0.706341C78.9733 2.4172 73.6435 4.52726 70.4203 8.92987C70.3854 8.9756 70.3388 9.00918 70.2863 9.02642C70.2339 9.04366 70.1779 9.0438 70.1254 9.02682C70.0739 9.00738 70.0286 8.97232 69.995 8.92581C69.9614 8.8793 69.9408 8.8233 69.9358 8.76449L69.604 3.02741Z" fill="#231F20"></path><path d="M80.8008 25.8328C81.3274 22.3312 86.6889 21.4701 86.4255 25.599C86.3837 27.0337 85.8765 28.4067 84.993 29.4769C84.5437 29.9985 83.9613 30.3637 83.3199 30.5261C82.6785 30.6886 82.007 30.641 81.3906 30.3894" fill="white"></path><path d="M82.5126 30.9309C82.0884 30.9359 81.6682 30.8426 81.2802 30.6571C81.2477 30.6414 81.2183 30.6189 81.1939 30.5909C81.1694 30.5629 81.1502 30.5299 81.1375 30.4939C81.1248 30.4579 81.1188 30.4196 81.1198 30.381C81.1207 30.3425 81.1287 30.3045 81.1432 30.2693C81.1578 30.2341 81.1786 30.2024 81.2044 30.1759C81.2303 30.1494 81.2607 30.1286 81.294 30.1149C81.3272 30.1011 81.3626 30.0946 81.3982 30.0956C81.4338 30.0967 81.4689 30.1053 81.5014 30.121C82.0666 30.3507 82.6823 30.3926 83.2696 30.2412C83.857 30.0898 84.3892 29.7521 84.7983 29.2713C85.6363 28.2499 86.1154 26.9416 86.1518 25.5759C86.2413 24.1787 85.6251 23.2947 84.4981 23.1522C83.7163 23.0709 82.9344 23.3047 82.3018 23.8087C81.6693 24.3127 81.2305 25.0515 81.0695 25.8838C81.0638 25.9217 81.0512 25.958 81.0324 25.9906C81.0136 26.0232 80.9891 26.0514 80.9602 26.0737C80.9313 26.0959 80.8987 26.1118 80.8641 26.1203C80.8295 26.1288 80.7937 26.1299 80.7588 26.1233C80.6878 26.1107 80.6242 26.0683 80.5818 26.0054C80.5395 25.9424 80.5217 25.8639 80.5323 25.7869C80.7113 24.8022 81.224 23.9256 81.9695 23.3294C82.715 22.7332 83.6395 22.4604 84.5613 22.5648C85.6778 22.7073 86.8259 23.5799 86.6679 25.6158C86.6211 27.1204 86.0881 28.5594 85.1617 29.6819C84.4638 30.4579 83.5126 30.9064 82.5126 30.9309Z" fill="#231F20"></path><path d="M67.4183 25.8328C66.8917 22.3312 61.5302 21.4701 61.7936 25.599C61.8376 27.0332 62.3445 28.4054 63.2261 29.4769C63.6754 29.9985 64.2578 30.3637 64.8992 30.5261C65.5406 30.6886 66.2121 30.641 66.8285 30.3894" fill="white"></path><path d="M65.6909 30.9311C64.6799 30.9156 63.7158 30.4664 63.0102 29.6822C62.0979 28.5657 61.5728 27.1402 61.525 25.6503C61.3933 23.6087 62.5415 22.7361 63.6317 22.5935C64.5532 22.4906 65.4771 22.7638 66.2223 23.3598C66.9676 23.9558 67.4805 24.8316 67.6606 25.8157C67.6674 25.854 67.6668 25.8934 67.6589 25.9315C67.651 25.9696 67.636 26.0055 67.6148 26.0371C67.5935 26.0686 67.5666 26.0951 67.5355 26.1149C67.5044 26.1347 67.4699 26.1474 67.4342 26.1521C67.3992 26.1587 67.3634 26.1576 67.3289 26.1491C67.2943 26.1406 67.2616 26.1247 67.2327 26.1025C67.2038 26.0802 67.1793 26.052 67.1605 26.0194C67.1418 25.9868 67.1292 25.9505 67.1234 25.9126C66.9614 25.0809 66.5224 24.3428 65.8901 23.839C65.2578 23.3353 64.4764 23.101 63.6949 23.1809C62.552 23.3235 61.9516 24.2075 62.0411 25.6047C62.0775 26.9704 62.5567 28.2786 63.3947 29.3001C63.8041 29.7803 64.3364 30.1175 64.9236 30.2688C65.5107 30.4202 66.1262 30.3788 66.6916 30.1498C66.7572 30.1181 66.8318 30.1159 66.899 30.1437C66.9662 30.1715 67.0204 30.227 67.0497 30.2981C67.079 30.3692 67.0811 30.45 67.0554 30.5227C67.0297 30.5954 66.9784 30.6541 66.9128 30.6859C66.5261 30.8604 66.1096 30.9439 65.6909 30.9311Z" fill="#231F20"></path><path d="M68.1924 41.9726L73.5801 46.7687L79.3629 43.2842L79.7474 28.7705L68.1924 28.377V41.9726Z" fill="white"></path><path d="M73.5909 47.0652C73.529 47.0651 73.4692 47.0408 73.4224 46.9968L68.0188 42.1893C67.9878 42.1618 67.963 42.1269 67.9466 42.0873C67.9301 42.0477 67.9224 42.0045 67.924 41.9612V28.3769C67.924 28.2981 67.9523 28.2224 68.003 28.1659C68.0577 28.1122 68.1294 28.0836 68.2032 28.0861L79.7582 28.4739C79.8299 28.4769 79.8976 28.5102 79.9469 28.5667C79.9961 28.6232 80.0229 28.6984 80.0215 28.7761L79.6318 43.2899C79.6319 43.3412 79.6192 43.3916 79.5951 43.4358C79.571 43.4799 79.5364 43.5162 79.4948 43.5409L73.7015 47.0253C73.6685 47.0488 73.6304 47.0626 73.5909 47.0652ZM68.477 41.8357L73.6225 46.398L79.1051 43.0903L79.479 29.0328L68.477 28.6678V41.8357Z" fill="#231F20"></path><path d="M68.556 34.2065C68.6614 34.868 71.9477 39.282 79.5317 39.7839V34.2065C77.72 34.4859 75.3184 35.444 73.3645 35.2501C71.7231 35.1851 70.1009 34.8446 68.556 34.2407C68.3243 34.1095 68.7983 34.3776 68.556 34.2065Z" fill="#231F20"></path><path d="M79.5315 40.09C72.3531 39.6166 68.8139 35.5847 68.361 34.4327C68.3033 34.3999 68.2598 34.3438 68.2401 34.2765C68.2204 34.2092 68.226 34.1363 68.2556 34.0734C68.3083 33.9594 68.4242 33.8453 68.677 33.9708C70.2015 34.5583 71.7998 34.891 73.4169 34.9574C74.7981 34.9937 76.1763 34.8014 77.5038 34.3871C78.2201 34.2046 78.8995 34.0335 79.521 33.9366C79.5586 33.9305 79.5969 33.9334 79.6334 33.9453C79.6698 33.9571 79.7033 33.9775 79.7316 34.005C79.7589 34.0318 79.7809 34.0644 79.7963 34.1006C79.8116 34.1369 79.8201 34.1761 79.8212 34.216V39.8276C79.8213 39.8663 79.8139 39.9047 79.7994 39.9401C79.7848 39.9755 79.7635 40.0071 79.7369 40.0329C79.7085 40.058 79.6754 40.076 79.64 40.0859C79.6045 40.0957 79.5675 40.0971 79.5315 40.09ZM69.172 34.7749C70.1674 36.0865 73.2747 39.0178 79.2682 39.4969V34.524C78.7415 34.6209 78.1885 34.7635 77.5934 34.9118C76.2134 35.3467 74.7801 35.5505 73.3432 35.5163C71.932 35.4347 70.5333 35.1861 69.172 34.7749Z" fill="#231F20"></path><path d="M73.4324 36.5387H74.2961C75.2703 36.5387 76.2351 36.3308 77.1351 35.9269C78.0351 35.523 78.8528 34.9311 79.5415 34.1848C80.2301 33.4386 80.7762 32.5527 81.1486 31.5779C81.5209 30.603 81.7122 29.5583 81.7115 28.5033V19.0594C81.7115 17.0862 79.1625 15.8772 77.6773 15.6377C76.0651 15.4507 74.436 15.5353 72.8478 15.8886C68.9294 16.5444 65.9748 18.0956 66.0012 22.8689C66.0012 24.7566 66.0012 26.6499 66.0012 28.5375C66.0081 30.6652 66.7946 32.7028 68.188 34.203C69.5813 35.7032 71.4675 36.5432 73.4324 36.5387Z" fill="white"></path><path d="M74.2965 36.8352H73.4328C71.3934 36.8321 69.4384 35.9532 67.9969 34.3911C66.5553 32.8291 65.7449 30.7116 65.7435 28.5033C65.7435 27.876 65.7435 27.243 65.7435 26.6156C65.7435 25.3534 65.7435 24.0931 65.7435 22.8346C65.7014 17.4454 69.4933 16.1167 72.8061 15.5635C74.4233 15.2001 76.0834 15.1154 77.7251 15.3126C79.4894 15.6319 81.9805 17.0234 81.9805 19.0536V28.5033C81.9805 30.7111 81.1713 32.8286 79.7306 34.3908C78.2898 35.953 76.3354 36.8321 74.2965 36.8352ZM76.2241 15.7859C75.1094 15.8159 73.9984 15.9379 72.9009 16.1509C68.2399 16.9322 66.2649 18.9282 66.2965 22.8346C66.2965 24.1007 66.2965 25.3629 66.2965 26.6213C66.2965 27.2544 66.2965 27.8817 66.2965 28.509C66.2993 30.5605 67.0532 32.5271 68.3928 33.9778C69.7325 35.4284 71.5487 36.2448 73.4433 36.2478H74.3071C76.2003 36.2417 78.014 35.4231 79.3507 33.9714C80.6875 32.5197 81.4381 30.5533 81.4381 28.5033V19.0593C81.4381 17.3485 79.1682 16.1737 77.6356 15.9C77.1685 15.8229 76.6966 15.7848 76.2241 15.7859Z" fill="#231F20"></path><path d="M76.3956 26.2713C76.6423 26.2537 76.812 25.7425 76.7746 25.1297C76.7372 24.5169 76.5069 24.0344 76.2602 24.052C76.0135 24.0697 75.8438 24.5808 75.8812 25.1936C75.9186 25.8065 76.1489 26.289 76.3956 26.2713Z" fill="#231F20"></path><path d="M70.3742 25.9304C70.6214 25.9117 70.7896 25.3986 70.7499 24.7844C70.7102 24.1703 70.4776 23.6876 70.2304 23.7063C69.9831 23.725 69.8149 24.2381 69.8546 24.8523C69.8943 25.4665 70.1269 25.9492 70.3742 25.9304Z" fill="#231F20"></path><path d="M72.0425 33.7487C71.7897 33.7487 71.6422 33.7487 71.6159 33.7487C71.5594 33.7257 71.5115 33.6831 71.4797 33.6276C71.4478 33.5721 71.4338 33.5067 71.4398 33.4417C71.4458 33.3766 71.4715 33.3156 71.5129 33.268C71.5542 33.2204 71.609 33.1889 71.6686 33.1784C74.0364 33.2295 76.3349 32.311 78.1044 30.6065C78.1602 30.5575 78.2313 30.5337 78.303 30.5401C78.3746 30.5465 78.4412 30.5825 78.4889 30.6407C78.5354 30.7005 78.5581 30.7779 78.5522 30.8559C78.5463 30.9339 78.5122 31.0061 78.4573 31.057C76.6762 32.7402 74.4059 33.6928 72.0425 33.7487Z" fill="#231F20"></path><path d="M79.0941 31.9858C79.0561 31.9964 79.0162 31.9964 78.9782 31.9858C77.63 31.3129 77.7775 29.6647 78.0461 28.8892C78.0577 28.8526 78.0762 28.819 78.1002 28.7904C78.1243 28.7618 78.1534 28.7388 78.1859 28.7228C78.2185 28.7068 78.2536 28.6981 78.2893 28.6973C78.3251 28.6965 78.3605 28.7036 78.3937 28.7181C78.461 28.7451 78.5159 28.7997 78.5464 28.8701C78.577 28.9405 78.5807 29.0211 78.5569 29.0945C78.5306 29.1629 77.9776 30.8395 79.21 31.4554C79.2742 31.4888 79.3239 31.548 79.3484 31.6204C79.373 31.6928 79.3706 31.7728 79.3416 31.8432C79.3161 31.889 79.2796 31.9263 79.236 31.9514C79.1924 31.9765 79.1434 31.9884 79.0941 31.9858Z" fill="#231F20"></path><path d="M72.7324 31.5766C72.6438 31.5764 72.5564 31.5542 72.4769 31.5117C72.3975 31.4692 72.3281 31.4075 72.2742 31.3314C71.579 30.4019 72.311 26.3186 72.469 25.5088C72.4935 25.445 72.5378 25.3925 72.5943 25.3603C72.6507 25.3282 72.7158 25.3183 72.7782 25.3325C72.8406 25.3467 72.8965 25.384 72.9362 25.4381C72.9759 25.4921 72.997 25.5595 72.9957 25.6286C72.6323 27.5276 72.3005 30.4361 72.6902 30.955C73.6646 30.955 74.4019 29.7061 74.4072 29.6947C74.426 29.6619 74.4506 29.6334 74.4797 29.611C74.5087 29.5886 74.5416 29.5726 74.5764 29.5641C74.6113 29.5556 74.6473 29.5547 74.6824 29.5615C74.7176 29.5682 74.7511 29.5825 74.7811 29.6035C74.8421 29.6447 74.8858 29.7103 74.9025 29.786C74.9193 29.8618 74.9078 29.9417 74.8706 30.0084C74.839 30.0711 73.9648 31.5766 72.7324 31.5766Z" fill="#231F20"></path><path d="M74.6441 25.0238C74.5846 25.0228 74.527 25.0013 74.4796 24.9623C74.4322 24.9233 74.3976 24.8689 74.3808 24.8071C74.3629 24.7323 74.3727 24.6529 74.4082 24.5858C74.4436 24.5187 74.5018 24.4692 74.5704 24.4479C74.9707 24.3224 76.3452 23.102 77.0826 22.4461C77.4354 22.1325 77.7146 21.8759 77.8515 21.7789C77.9109 21.7335 77.9844 21.7156 78.0561 21.7289C78.1277 21.7423 78.1914 21.7859 78.2333 21.8502C78.2752 21.9145 78.2918 21.9942 78.2795 22.0717C78.2671 22.1492 78.2269 22.2183 78.1675 22.2637C78.0464 22.3549 77.7567 22.6058 77.4249 22.9024C76.2241 23.9688 75.1919 24.8642 74.7179 25.0124L74.6441 25.0238Z" fill="#231F20"></path><path d="M71.326 25.0228C71.2739 25.0225 71.2229 25.0067 71.1785 24.9772C69.9935 24.1389 68.6558 23.2663 68.4188 23.1295C68.358 23.1162 68.3032 23.0806 68.2639 23.0286C68.2246 22.9766 68.2031 22.9115 68.2031 22.8443C68.2031 22.7771 68.2246 22.712 68.2639 22.66C68.3032 22.6081 68.358 22.5724 68.4188 22.5592C68.5505 22.525 68.6663 22.5021 71.4892 24.4867C71.5485 24.5298 71.59 24.5962 71.6048 24.6718C71.6195 24.7474 71.6064 24.8263 71.5682 24.8916C71.5422 24.9348 71.5061 24.9697 71.4635 24.9927C71.4209 25.0158 71.3735 25.0262 71.326 25.0228Z" fill="#231F20"></path><path d="M149.188 99.7938H0.263672L16.8272 66.2324H132.625L149.188 99.7938Z" fill="white"></path><path d="M149.188 100.079H0.263445C0.21879 100.079 0.174933 100.066 0.136161 100.042C0.0973894 100.018 0.0650288 99.9836 0.0422456 99.942C0.0190673 99.8997 0.00683594 99.8515 0.00683594 99.8023C0.00683594 99.7531 0.0190673 99.7049 0.0422456 99.6626L16.6058 66.1012C16.6278 66.0552 16.6611 66.0165 16.7019 65.9894C16.7427 65.9622 16.7896 65.9477 16.8375 65.9473H132.624C132.672 65.9477 132.719 65.9622 132.76 65.9894C132.801 66.0165 132.834 66.0552 132.856 66.1012L149.43 99.6626C149.451 99.7059 149.461 99.7542 149.46 99.8029C149.458 99.8517 149.445 99.8992 149.422 99.941C149.399 99.9827 149.366 100.017 149.327 100.041C149.288 100.066 149.244 100.079 149.199 100.079H149.188ZM0.705843 99.5086H148.746L132.466 66.5176H16.985L0.705843 99.5086Z" fill="#231F20"></path><path d="M113.617 70.9252L92.0238 65.0684C92.0238 65.0684 81.2008 83.557 75.792 87.3095L101.641 95.3791C101.641 95.3791 112.316 76.9132 113.617 70.9252Z" fill="white"></path><path d="M101.614 95.688H101.541L75.6974 87.607C75.6491 87.5905 75.6062 87.5596 75.5735 87.5178C75.5408 87.476 75.5196 87.4251 75.5125 87.3709C75.5053 87.3166 75.5124 87.2613 75.533 87.2113C75.5536 87.1613 75.5869 87.1186 75.6289 87.0881C80.9271 83.3926 91.6711 65.1036 91.7817 64.9154C91.8105 64.8646 91.8539 64.8254 91.9053 64.8038C91.9566 64.7822 92.0131 64.7793 92.0661 64.7956L113.707 70.6524C113.74 70.6611 113.771 70.6769 113.799 70.6988C113.827 70.7208 113.85 70.7486 113.868 70.7804C113.885 70.8123 113.897 70.8476 113.902 70.8844C113.907 70.9212 113.905 70.9586 113.896 70.9946C112.58 76.9598 102.278 94.7984 101.841 95.5511C101.818 95.5936 101.785 95.6286 101.745 95.6526C101.705 95.6767 101.66 95.6889 101.614 95.688ZM76.3715 87.2421L101.504 95.0664C102.599 93.1616 111.858 76.9484 113.322 71.1144L92.124 65.3716C90.9706 67.3391 81.6539 83.0048 76.3715 87.2421Z" fill="#231F20"></path><path d="M103.969 90.4399H103.879C97.0641 87.8109 86.6888 83.8189 86.041 83.7391C85.9712 83.7285 85.9081 83.6883 85.8656 83.6273C85.8232 83.5664 85.8048 83.4896 85.8146 83.414C85.8244 83.3384 85.8615 83.2701 85.9178 83.2241C85.9741 83.1781 86.0449 83.1582 86.1148 83.1688C87.0206 83.3 102.315 89.2081 104.058 89.8811C104.128 89.8939 104.19 89.9363 104.231 89.9989C104.272 90.0614 104.289 90.1391 104.277 90.2147C104.265 90.2903 104.226 90.3577 104.168 90.4021C104.11 90.4465 104.038 90.4642 103.969 90.4514V90.4399Z" fill="#D1D3D4"></path><path d="M106.075 86.6726C106.045 86.6781 106.015 86.6781 105.986 86.6726C99.1706 84.0379 88.7953 80.0801 88.1475 79.9889C88.079 79.9776 88.0172 79.938 87.975 79.8785C87.9328 79.819 87.9135 79.7441 87.921 79.6695C87.9315 79.5942 87.9688 79.5264 88.0249 79.4805C88.081 79.4347 88.1515 79.4145 88.2212 79.4243C89.1271 79.5555 104.421 85.4636 106.165 86.1366C106.235 86.1494 106.297 86.1918 106.338 86.2544C106.379 86.3169 106.395 86.3946 106.383 86.4702C106.371 86.5458 106.332 86.6132 106.274 86.6576C106.217 86.702 106.145 86.7197 106.075 86.7069V86.6726Z" fill="#D1D3D4"></path><path d="M108.904 81.9456C108.874 81.951 108.844 81.951 108.814 81.9456C101.999 79.2937 91.6239 75.3359 90.9708 75.2675C90.9017 75.2576 90.8391 75.2184 90.7967 75.1585C90.7542 75.0986 90.7354 75.023 90.7444 74.9481C90.7548 74.874 90.7914 74.807 90.8463 74.7613C90.9013 74.7156 90.9704 74.6947 91.0393 74.7029C91.9504 74.8341 107.245 80.7423 108.988 81.4152C109.058 81.428 109.12 81.4704 109.161 81.533C109.202 81.5956 109.218 81.6732 109.207 81.7488C109.195 81.8244 109.156 81.8919 109.098 81.9362C109.04 81.9806 108.968 81.9983 108.898 81.9855L108.904 81.9456Z" fill="#D1D3D4"></path><path d="M110.815 76.8835H110.726C103.911 74.2488 93.5354 70.2967 92.8929 70.1998C92.8584 70.1956 92.8251 70.1839 92.7948 70.1654C92.7646 70.147 92.7381 70.1221 92.717 70.0923C92.6958 70.0624 92.6804 70.0283 92.6718 69.9919C92.6631 69.9555 92.6613 69.9176 92.6665 69.8804C92.6756 69.8056 92.7118 69.7378 92.7671 69.6918C92.8224 69.6458 92.8923 69.6255 92.9614 69.6352C93.8672 69.7664 109.162 75.6745 110.905 76.3474C110.938 76.3595 110.968 76.3787 110.994 76.4038C111.02 76.4289 111.041 76.4594 111.056 76.4935C111.07 76.5276 111.079 76.5645 111.08 76.6022C111.081 76.6398 111.075 76.6773 111.063 76.7124C111.043 76.7653 111.009 76.8102 110.964 76.8409C110.92 76.8716 110.868 76.8865 110.815 76.8835Z" fill="#D1D3D4"></path><path d="M97.6172 77.1584C97.6172 77.1584 100.503 93.5598 102.668 97.2724C102.668 97.2724 123.676 96.1946 129.085 91.9003C129.085 91.9003 120.337 79.1088 118.894 73.252L97.6172 77.1584Z" fill="white"></path><path d="M102.668 97.5582C102.622 97.5575 102.578 97.5445 102.539 97.5207C102.499 97.4968 102.466 97.4627 102.441 97.4214C100.277 93.7088 97.4748 77.8834 97.3589 77.2104C97.3513 77.1731 97.3511 77.1345 97.3583 77.0971C97.3656 77.0597 97.3802 77.0245 97.401 76.9937C97.4211 76.9627 97.447 76.9366 97.4769 76.9169C97.5068 76.8973 97.5402 76.8846 97.5748 76.8796L118.852 72.9732C118.917 72.9607 118.983 72.9748 119.039 73.0128C119.094 73.0508 119.135 73.1099 119.152 73.1785C120.564 78.9156 129.211 91.6044 129.296 91.7299C129.316 91.7599 129.331 91.794 129.339 91.8302C129.347 91.8665 129.349 91.9041 129.343 91.9409C129.333 92.0153 129.298 92.0827 129.243 92.1291C123.829 96.4291 103.542 97.5126 102.678 97.5582H102.668ZM97.9277 77.3929C98.3174 79.56 100.861 93.3609 102.81 96.9765C104.716 96.8682 123.35 95.7048 128.711 91.844C127.5 90.0533 120.216 79.1494 118.705 73.5948L97.9277 77.3929Z" fill="#231F20"></path><path d="M59.0918 69.5977L52.2979 90.2876L86.078 91.6677L79.7475 69.5977H59.0918Z" fill="white"></path><path d="M86.0778 91.9529L52.2976 90.5728C52.2569 90.5702 52.2171 90.5575 52.1815 90.5358C52.146 90.514 52.1154 90.4838 52.0922 90.4473C52.0678 90.4107 52.0522 90.3681 52.0467 90.3233C52.0411 90.2785 52.0459 90.233 52.0606 90.1907L58.8441 69.5007C58.8625 69.4456 58.8961 69.398 58.9404 69.3643C58.9847 69.3306 59.0375 69.3125 59.0916 69.3125H79.7473C79.8036 69.3121 79.8586 69.3313 79.9041 69.3672C79.9496 69.4032 79.9832 69.4539 80.0001 69.5121L86.3201 91.5822C86.3333 91.6254 86.3364 91.6715 86.329 91.7163C86.3217 91.7611 86.3041 91.8032 86.278 91.8388C86.2548 91.873 86.2247 91.9011 86.19 91.9208C86.1554 91.9406 86.117 91.9516 86.0778 91.9529ZM52.6663 90.0196L85.7039 91.3655L79.5419 69.8828H59.2654L52.6663 90.0196Z" fill="#231F20"></path><path d="M149.183 99.793H0.263672V107.714H149.183V99.793Z" fill="white"></path><path d="M149.188 107.999H0.263332C0.193492 107.999 0.126512 107.969 0.0771279 107.916C0.0277436 107.862 0 107.79 0 107.714V99.7871C0.0013483 99.7119 0.0295256 99.6402 0.0786206 99.5871C0.127716 99.5339 0.193914 99.5034 0.263332 99.502H149.188C149.257 99.5034 149.324 99.5339 149.373 99.5871C149.422 99.6402 149.45 99.7119 149.451 99.7871V107.714C149.451 107.79 149.424 107.862 149.374 107.916C149.325 107.969 149.258 107.999 149.188 107.999ZM0.526663 107.429H148.904V100.078H0.526663V107.429Z" fill="#231F20"></path><path d="M67.7654 62.8281L73.09 73.3727L73.1479 73.8803L73.4323 76.3724L71.6469 74.7699L71.2836 74.4449L65.959 63.8946L67.7654 62.8281Z" fill="#231F20"></path><path d="M73.4325 76.6564C73.3704 76.6573 73.3103 76.6329 73.264 76.588L71.1152 74.6604C71.09 74.638 71.0686 74.611 71.052 74.5806L65.7274 64.0303C65.7109 63.9978 65.7005 63.9621 65.6968 63.9251C65.6931 63.8882 65.6963 63.8509 65.7061 63.8153C65.7159 63.7798 65.7322 63.7467 65.7539 63.718C65.7757 63.6893 65.8025 63.6656 65.8328 63.6482L67.6392 62.5761C67.7033 62.5476 67.7753 62.5476 67.8394 62.5761C67.8719 62.5869 67.9021 62.6045 67.9284 62.628C67.9546 62.6515 67.9762 62.6804 67.9921 62.7129L73.3219 73.2575C73.329 73.2913 73.329 73.3264 73.3219 73.3602L73.6643 76.3599C73.6722 76.4155 73.6638 76.4725 73.6401 76.5227C73.6165 76.5728 73.5789 76.6136 73.5326 76.6393C73.5008 76.653 73.4666 76.6588 73.4325 76.6564ZM71.4839 74.2555L73.0639 75.6927L72.8111 73.4571L67.634 63.192L66.2857 63.9904L71.4839 74.2555Z" fill="#231F20"></path><path d="M64.8829 61.1518L66.2091 60.3666C66.3316 60.294 66.4758 60.2771 66.6098 60.3196C66.7439 60.3622 66.8568 60.4606 66.9238 60.5933L69.4506 65.597L67.2325 66.9103L64.7058 61.9066C64.6388 61.7739 64.6232 61.6178 64.6625 61.4727C64.7017 61.3275 64.7927 61.2052 64.9152 61.1326L64.8829 61.1518Z" fill="#231F20"></path><path d="M67.2128 67.1962H67.1391C67.1055 67.1864 67.0741 67.1692 67.0469 67.1456C67.0197 67.1221 66.9973 67.0927 66.9811 67.0593L64.4478 62.0465C64.3513 61.8525 64.3286 61.6253 64.3846 61.4135C64.4128 61.307 64.4603 61.2077 64.5246 61.1215C64.5888 61.0353 64.6684 60.9639 64.7586 60.9116L66.0805 60.1246C66.2618 60.0204 66.4737 59.9972 66.6706 60.0601C66.8675 60.123 67.0338 60.267 67.1338 60.4611L69.6618 65.4739C69.6786 65.5061 69.6893 65.5415 69.6933 65.5782C69.6974 65.6149 69.6947 65.652 69.6854 65.6876C69.6761 65.7231 69.6604 65.7563 69.6391 65.7852C69.6179 65.8141 69.5916 65.8382 69.5617 65.856L67.334 67.1734C67.2961 67.1921 67.2543 67.2 67.2128 67.1962ZM66.4544 60.5809C66.412 60.5806 66.3702 60.5924 66.3333 60.6151L65.0114 61.3964C64.9809 61.4121 64.9541 61.4352 64.9331 61.4638C64.9121 61.4925 64.8974 61.526 64.8902 61.5618C64.8772 61.5941 64.8705 61.6291 64.8705 61.6644C64.8705 61.6997 64.8772 61.7347 64.8902 61.7671L67.2918 66.529L69.0561 65.4853L66.6546 60.7234C66.6347 60.6836 66.606 60.6497 66.5711 60.6249C66.5362 60.6 66.4961 60.5849 66.4544 60.5809Z" fill="#231F20"></path><path d="M66.0067 67.1789C65.9584 67.1801 65.9108 67.1669 65.869 67.1408C65.8272 67.1146 65.7928 67.0765 65.7697 67.0307C65.7117 66.9223 64.4372 64.4244 64.2845 64.0538C64.1317 63.6831 64.3161 62.3429 64.4109 61.8468C64.4249 61.7696 64.4666 61.7017 64.5268 61.6579C64.5871 61.614 64.6609 61.5979 64.7321 61.6129C64.7672 61.6198 64.8006 61.6341 64.8305 61.6551C64.8604 61.676 64.8862 61.7032 64.9063 61.7351C64.9264 61.7669 64.9404 61.8028 64.9476 61.8405C64.9548 61.8783 64.9549 61.9173 64.9481 61.9551C64.8114 62.5631 64.7547 63.189 64.7795 63.8142C64.9007 64.1051 65.875 66.0269 66.2437 66.7455C66.2613 66.7791 66.2726 66.8162 66.2768 66.8546C66.281 66.893 66.2782 66.9319 66.2684 66.9691C66.2586 67.0062 66.242 67.0409 66.2197 67.0711C66.1974 67.1012 66.1697 67.1263 66.1383 67.1447C66.0974 67.1668 66.0524 67.1785 66.0067 67.1789Z" fill="#231F20"></path><path d="M47.2577 58.8827C42.8812 56.6643 36.0819 54.0295 34.3123 61.0098C33.8583 62.7326 34.0298 64.5781 34.7915 66.1685C35.5533 67.7588 36.8478 68.9736 38.4098 69.5641C46.236 72.7178 67.9029 75.9628 67.9029 75.9628C67.9029 75.9628 70.0096 75.5693 70.7627 74.0922C71.5158 72.6152 73.396 74.1892 74.4494 73.2026C75.5027 72.216 74.7601 70.3226 73.7594 68.8171C72.7588 67.3115 69.4987 67.1461 68.6719 67.3172C67.845 67.4883 65.7594 68.8171 65.7541 68.8228C63.7897 70.066 59.0708 65.6805 57.4592 64.6768C54.38 62.7758 51.2411 60.9794 48.0425 59.2876L47.2577 58.8827Z" fill="white"></path><path d="M67.9396 76.235H67.908C67.6921 76.2008 46.1094 72.9502 38.3464 69.825C36.7228 69.2134 35.3771 67.9519 34.5857 66.2995C33.7943 64.6471 33.6173 62.7293 34.091 60.9399C34.6176 58.8983 35.5972 57.5182 37.0192 56.7939C40.0423 55.2827 44.3925 57.1247 47.3734 58.6417C47.6525 58.7785 47.9264 58.9211 48.1845 59.058C51.3444 60.7289 54.5413 62.5481 57.617 64.4586C57.9857 64.6867 58.5071 65.0859 59.1127 65.5478C61.0456 67.0192 64.274 69.4828 65.6697 68.5989C65.6697 68.5989 67.7763 67.253 68.6611 67.0648C69.4301 66.9051 72.8744 67.0192 73.991 68.673C75.3814 70.7545 75.6184 72.4825 74.644 73.4064C74.1174 73.931 73.3379 73.8341 72.6743 73.7485C71.8369 73.6402 71.3103 73.606 71.0048 74.2162C70.2306 75.7902 68.066 76.2065 67.9765 76.2236L67.9396 76.235ZM39.642 56.7483C38.811 56.7294 37.9861 56.9065 37.2246 57.2673C35.9343 57.9117 35.039 59.1948 34.5913 61.0768C34.1512 62.7383 34.3153 64.5193 35.0499 66.0539C35.7845 67.5885 37.0338 68.7604 38.5413 69.3288C46.0936 72.3742 66.9179 75.5507 67.9607 75.7103C68.2293 75.6476 69.9989 75.2256 70.594 73.9995C71.0627 73.0414 71.9528 73.1554 72.7428 73.2581C73.359 73.3379 73.9436 73.4121 74.3228 73.0414C75.4393 71.9807 74.0489 69.6824 73.596 69.0038C72.7006 67.6579 69.5775 67.4355 68.7507 67.6066C67.7571 67.9861 66.8037 68.4793 65.9067 69.0779C64.2477 70.1272 61.1141 67.7434 58.8283 66.0041C58.2332 65.5478 57.7223 65.1543 57.3695 64.9376C54.3043 63.0329 51.1443 61.2194 47.9685 59.5541L47.1627 59.1378C45.014 58.0201 42.1384 56.7483 39.642 56.7483Z" fill="#231F20"></path><path d="M63.0946 19.9083C63.0946 19.9083 76.6825 26.1073 85.1723 20.5927L86.0781 14.3765C86.0781 14.3765 72.9116 17.5473 64.4112 12.2266C63.8412 13.4797 63.4133 14.8029 63.1367 16.1672C62.9476 17.4047 62.9334 18.6662 63.0946 19.9083Z" fill="white"></path><path d="M76.4504 23.1179C69.6037 23.1179 63.0942 20.1923 62.9994 20.1467C62.9618 20.1303 62.9286 20.104 62.9028 20.0701C62.8771 20.0362 62.8596 19.9959 62.8519 19.9528C62.6872 18.6802 62.7032 17.3878 62.8993 16.1205C63.1806 14.738 63.6157 13.3976 64.1949 12.1285C64.2097 12.0961 64.2304 12.0673 64.2557 12.0437C64.2811 12.0202 64.3105 12.0025 64.3424 11.9916C64.3724 11.9778 64.4046 11.9707 64.4372 11.9707C64.4698 11.9707 64.502 11.9778 64.532 11.9916C72.8427 17.1926 85.8934 14.1416 86.0251 14.1131C86.063 14.1018 86.103 14.1017 86.1409 14.1127C86.1789 14.1238 86.2134 14.1455 86.241 14.1758C86.2705 14.2037 86.2927 14.2394 86.3057 14.2794C86.3186 14.3193 86.3217 14.3623 86.3148 14.4039L85.4089 20.6201C85.4034 20.6579 85.3901 20.6939 85.3701 20.7255C85.35 20.7571 85.3237 20.7834 85.293 20.8025C82.6597 22.5248 79.5261 23.1179 76.4504 23.1179ZM63.2838 19.6962C64.6689 20.2665 77.0613 25.3991 84.9244 20.3976L85.7618 14.6948C83.6551 15.1396 72.1949 17.2269 64.4898 12.579C63.9808 13.7342 63.5972 14.9494 63.347 16.2003C63.18 17.3672 63.1676 18.554 63.3101 19.7247L63.2838 19.6962Z" fill="#231F20"></path><path d="M71.6421 44.988L72.8692 47.195C72.8692 47.195 72.0371 54.9566 74.9759 59.422C77.9147 63.8873 94.5835 52.9036 94.5835 52.9036L95.1102 46.7673H89.1694C89.1694 46.7673 81.1326 57.9905 77.3722 55.3216C74.0647 52.9663 74.3702 46.7673 74.3702 46.7673L76.5295 44.988L73.8646 42.416L71.6421 44.988Z" fill="#231F20"></path><path d="M77.4669 60.7514C76.2503 60.7514 75.2865 60.4149 74.7493 59.6108C71.9422 55.3279 72.511 48.2393 72.6006 47.2812L71.4208 45.1597C71.391 45.1068 71.3779 45.0447 71.3836 44.9829C71.3893 44.9212 71.4135 44.8631 71.4524 44.8176L73.6697 42.2456C73.7189 42.1933 73.7851 42.1641 73.854 42.1641C73.9229 42.1641 73.9891 42.1933 74.0383 42.2456L76.7033 44.8176C76.7318 44.8457 76.7546 44.8801 76.77 44.9184C76.7854 44.9567 76.7932 44.9982 76.7928 45.04C76.7908 45.0822 76.7804 45.1235 76.7622 45.1609C76.744 45.1984 76.7185 45.231 76.6875 45.2567L74.6282 46.9675C74.6282 47.8572 74.6282 53.0867 77.5196 55.1398C81.0272 57.6376 88.885 46.7622 88.9587 46.6539C88.9829 46.6181 89.0147 46.5891 89.0513 46.5693C89.088 46.5495 89.1284 46.5394 89.1694 46.5398H95.1101C95.1468 46.5405 95.183 46.5493 95.2164 46.5656C95.2498 46.582 95.2798 46.6056 95.3045 46.635C95.3291 46.6644 95.348 46.6989 95.3598 46.7365C95.3717 46.7741 95.3764 46.8139 95.3735 46.8535L94.8468 52.9898C94.8433 53.0335 94.8299 53.0755 94.8079 53.1123C94.7858 53.1491 94.7558 53.1795 94.7204 53.2008C94.1305 53.5201 83.0706 60.7514 77.4669 60.7514ZM71.9686 45.04L73.0956 47.0588C73.1261 47.1115 73.1391 47.1738 73.1325 47.2356C73.1325 47.3154 72.3425 54.9458 75.1759 59.2686C77.4459 62.7303 89.6486 55.8013 94.3149 52.7445L94.8415 47.0417H89.2958C88.3952 48.2792 80.985 58.2193 77.2299 55.5447C73.8329 53.1266 74.0963 46.9904 74.1121 46.7394C74.1123 46.699 74.1214 46.6592 74.1389 46.6235C74.1563 46.5877 74.1814 46.5571 74.2121 46.5341L76.1187 44.9601L73.8803 42.7988L71.9686 45.04Z" fill="#231F20"></path><path d="M75.6659 41.619C70.926 41.619 68.4349 39.4976 68.2927 39.3835C68.2368 39.3351 68.201 39.2647 68.1931 39.1877C68.1852 39.1107 68.2058 39.0334 68.2505 38.9729C68.2952 38.9124 68.3603 38.8736 68.4314 38.8651C68.5025 38.8565 68.5739 38.8789 68.6297 38.9273C68.6719 38.9558 72.4059 42.1038 79.2894 40.6382C79.3243 40.6298 79.3605 40.6292 79.3957 40.6362C79.4309 40.6432 79.4644 40.6577 79.4944 40.679C79.5243 40.7002 79.55 40.7278 79.57 40.7599C79.5899 40.7921 79.6038 40.8282 79.6106 40.8663C79.6247 40.9426 79.6105 41.0218 79.5711 41.0869C79.5317 41.152 79.4702 41.1977 79.4 41.2141C78.1705 41.4812 76.9199 41.6168 75.6659 41.619Z" fill="#231F20"></path><path d="M55.0151 58.2895C54.9601 58.2907 54.9061 58.2732 54.8608 58.2394C54.8155 58.2056 54.781 58.1574 54.7623 58.1013L52.0447 50.5735C52.0316 50.5361 52.0254 50.4962 52.0265 50.4562C52.0276 50.4161 52.036 50.3767 52.0511 50.3402C52.0663 50.3036 52.0879 50.2707 52.1148 50.2432C52.1418 50.2157 52.1734 50.1943 52.208 50.18C52.2426 50.1658 52.2794 50.1591 52.3164 50.1603C52.3534 50.1615 52.3898 50.1705 52.4235 50.1869C52.4573 50.2034 52.4877 50.2268 52.5131 50.256C52.5384 50.2851 52.5583 50.3194 52.5714 50.3568L55.289 57.8903C55.3147 57.9637 55.3125 58.0451 55.2829 58.1167C55.2533 58.1883 55.1987 58.2443 55.131 58.2724C55.0938 58.2863 55.0544 58.2921 55.0151 58.2895Z" fill="#231F20"></path><path d="M126.594 70.8926L106.997 73.1053C106.997 73.1053 109.404 91.2005 110.847 94.9758C110.847 94.9758 128.638 96.4072 137.775 90.6815C137.775 90.6644 126.715 74.2801 126.594 70.8926Z" fill="white"></path><path d="M115.676 95.4139C112.801 95.4139 110.884 95.2656 110.826 95.2599C110.777 95.2567 110.73 95.2383 110.691 95.2069C110.652 95.1755 110.622 95.1325 110.604 95.0831C109.161 91.3192 106.834 73.8856 106.739 73.1442C106.734 73.107 106.736 73.0691 106.745 73.0329C106.754 72.9966 106.77 72.9627 106.791 72.9332C106.812 72.9023 106.839 72.8767 106.87 72.858C106.901 72.8393 106.935 72.828 106.971 72.8248L126.568 70.6064C126.64 70.6002 126.712 70.6247 126.768 70.6749C126.821 70.7281 126.853 70.8017 126.857 70.8802C126.952 73.4921 134.178 84.8636 137.986 90.5094C138.009 90.5413 138.025 90.5783 138.033 90.6177C138.041 90.6572 138.041 90.6981 138.033 90.7375C138.025 90.7766 138.01 90.8135 137.988 90.8459C137.966 90.8783 137.939 90.9055 137.907 90.9257C131.761 94.7809 121.654 95.4139 115.676 95.4139ZM111.031 94.701C112.822 94.8265 128.827 95.7446 137.391 90.5893C135.969 88.4678 126.978 74.9406 126.362 71.1995L107.297 73.3609C107.613 75.6763 109.709 90.9599 111.031 94.701Z" fill="#231F20"></path><path d="M41.996 91.6404L54.5411 78.9173L20.8136 75.9746L8.6582 87.6256L41.996 91.6404Z" fill="#231F20"></path><path d="M41.9908 91.917L8.65297 87.925C8.60282 87.919 8.55531 87.8976 8.5161 87.8632C8.47689 87.8288 8.44761 87.783 8.43177 87.7311C8.41659 87.6787 8.41598 87.6227 8.43003 87.5699C8.44408 87.5172 8.47216 87.4701 8.51077 87.4345L20.6662 75.7836C20.6925 75.7579 20.7233 75.7382 20.7568 75.7254C20.7902 75.7127 20.8256 75.7073 20.861 75.7095L54.5675 78.6521C54.6174 78.6585 54.6647 78.6794 54.7046 78.7125C54.7445 78.7456 54.7753 78.7898 54.7939 78.8403C54.8095 78.8926 54.8114 78.9486 54.7993 79.002C54.7872 79.0553 54.7616 79.104 54.7255 79.1426L42.1804 91.8657C42.1246 91.906 42.0575 91.9242 41.9908 91.917ZM9.26917 87.4117L41.9223 91.3353L53.9513 79.1426L20.9242 76.2626L9.26917 87.4117Z" fill="#231F20"></path><path d="M41.9959 91.6382L35.7128 63.0782L2.99121 60.3066L8.65811 87.6234L41.9959 91.6382Z" fill="white"></path><path d="M41.9911 91.9168L8.65328 87.9248C8.59912 87.917 8.54843 87.8916 8.50797 87.8518C8.46751 87.8121 8.43919 87.76 8.42681 87.7023L2.75992 60.3856C2.75219 60.3418 2.75337 60.2966 2.76337 60.2533C2.77338 60.2099 2.79197 60.1695 2.81785 60.1347C2.84557 60.1015 2.87988 60.0756 2.91818 60.0588C2.95649 60.042 2.99781 60.0348 3.03905 60.0378L35.7606 62.8094C35.816 62.8152 35.8683 62.8398 35.9099 62.8798C35.9515 62.9197 35.9804 62.9729 35.9924 63.0318L42.2755 91.586C42.2856 91.6307 42.2857 91.6773 42.2756 91.722C42.2655 91.7667 42.2456 91.8081 42.2175 91.8426C42.1875 91.8729 42.1515 91.8953 42.1122 91.9081C42.073 91.921 42.0315 91.9239 41.9911 91.9168ZM8.86921 87.3545L41.6487 91.3008L35.492 63.3568L3.31818 60.6309L8.86921 87.3545Z" fill="#231F20"></path><path d="M23.2258 80.3413C22.1261 80.2927 21.073 79.847 20.2344 79.0752C19.4956 78.2016 18.8441 77.2458 18.291 76.2238C18.2624 76.1714 18.2501 76.1105 18.2557 76.0499C18.2614 75.9894 18.2849 75.9324 18.3226 75.8873L19.0546 75.0148C19.0815 74.9839 19.1143 74.9597 19.1507 74.9439C19.187 74.9281 19.2262 74.9212 19.2653 74.9235C19.3047 74.9267 19.3429 74.939 19.3775 74.9597C19.412 74.9804 19.442 75.0089 19.4654 75.0433C19.859 75.5807 20.4011 75.9675 21.0124 76.1471C21.6237 76.3267 22.272 76.2896 22.8624 76.0413C23.7306 75.6504 24.4342 74.9251 24.8374 74.0054C24.8856 73.7936 24.9191 73.5782 24.9375 73.361C24.9316 73.1052 24.9859 72.852 25.0955 72.6253C25.1692 72.534 25.3325 72.3173 26.4753 72.5683C26.5349 72.58 26.5889 72.6137 26.6282 72.6636C26.6676 72.7134 26.6898 72.7764 26.6913 72.842V74.3704C26.7808 74.781 27.2864 77.2959 26.6913 78.1685C26.3444 78.7443 25.8884 79.2338 25.3536 79.6044C24.8188 79.9751 24.2174 80.2185 23.5892 80.3184C23.4786 80.3299 23.3522 80.3413 23.2258 80.3413ZM18.844 76.1097C19.3404 77.0187 19.9229 77.8692 20.582 78.6475C21.4055 79.4164 22.4717 79.8108 23.5576 79.7482C24.1126 79.6547 24.6431 79.4352 25.1142 79.1039C25.5853 78.7727 25.9864 78.3373 26.291 77.8263C26.6544 77.3073 26.4279 75.4938 26.2067 74.4673C26.2038 74.4484 26.2038 74.4292 26.2067 74.4103V73.0872C25.9863 73.0418 25.7622 73.0208 25.5379 73.0245C25.5379 73.1043 25.5379 73.2925 25.4957 73.4294C25.4819 73.7116 25.4305 73.9901 25.343 74.2563C24.8739 75.321 24.0468 76.1513 23.031 76.5774C22.381 76.8493 21.6712 76.906 20.9914 76.7406C20.3116 76.5751 19.6926 76.1947 19.2126 75.6478L18.844 76.1097Z" fill="#D1D3D4"></path><path d="M80.1315 87.0934L56.0841 86.4375C56.0495 86.4361 56.0155 86.4272 55.9841 86.4115C55.9526 86.3958 55.9244 86.3736 55.9009 86.346C55.8774 86.3185 55.8592 86.2862 55.8472 86.251C55.8353 86.2158 55.8299 86.1784 55.8313 86.141C55.832 86.1043 55.8393 86.0681 55.8529 86.0345C55.8665 86.0009 55.8861 85.9705 55.9106 85.945C55.935 85.9196 55.9639 85.8997 55.9954 85.8863C56.027 85.873 56.0607 85.8665 56.0946 85.8672L80.1368 86.5231C80.1716 86.523 80.206 86.5306 80.238 86.5454C80.2701 86.5601 80.299 86.5817 80.3231 86.6089C80.3472 86.6361 80.366 86.6682 80.3783 86.7035C80.3906 86.7387 80.3963 86.7763 80.3948 86.8139C80.3922 86.8881 80.3634 86.9583 80.3145 87.0103C80.2655 87.0623 80.2001 87.092 80.1315 87.0934Z" fill="#D1D3D4"></path><path d="M63.9421 81.945C60.4766 81.945 57.8223 81.945 57.7011 81.9108C57.6313 81.8972 57.5693 81.8541 57.5288 81.791C57.4883 81.7279 57.4726 81.65 57.4852 81.5743C57.4978 81.4987 57.5376 81.4316 57.5958 81.3877C57.6541 81.3439 57.7261 81.3269 57.7959 81.3405C58.3226 81.3918 72.1317 81.3405 79.3891 81.3405C79.459 81.3405 79.5259 81.3706 79.5753 81.424C79.6247 81.4775 79.6524 81.55 79.6524 81.6257C79.6524 81.7013 79.6247 81.7738 79.5753 81.8273C79.5259 81.8808 79.459 81.9108 79.3891 81.9108C76.3608 81.9279 69.2087 81.945 63.9421 81.945Z" fill="#D1D3D4"></path><path d="M77.4038 77.0456H77.3775L73.4064 76.6578C73.3718 76.6542 73.3381 76.6432 73.3074 76.6255C73.2767 76.6078 73.2495 76.5836 73.2275 76.5545C73.2055 76.5253 73.189 76.4917 73.179 76.4556C73.169 76.4195 73.1658 76.3816 73.1694 76.3441C73.172 76.3068 73.1815 76.2705 73.1974 76.2373C73.2132 76.2041 73.235 76.1746 73.2615 76.1507C73.288 76.1268 73.3187 76.1089 73.3517 76.098C73.3848 76.0871 73.4195 76.0836 73.4538 76.0875L77.4248 76.4753C77.4947 76.4753 77.5617 76.5053 77.6111 76.5588C77.6604 76.6123 77.6882 76.6848 77.6882 76.7604C77.6882 76.836 77.6604 76.9086 77.6111 76.962C77.5617 77.0155 77.4947 77.0456 77.4248 77.0456H77.4038Z" fill="#D1D3D4"></path><path d="M124.587 55.3057C124.587 55.3057 125.025 41.7614 131.755 34.7754L149.725 40.4212C149.725 40.4212 139.95 51.9125 140.077 61.4534L124.587 55.3057Z" fill="white"></path><path d="M140.077 61.7513C140.047 61.7572 140.017 61.7572 139.987 61.7513L124.493 55.6037C124.439 55.5823 124.393 55.5433 124.361 55.4922C124.329 55.441 124.312 55.3803 124.314 55.3185C124.314 55.1816 124.84 41.5746 131.566 34.5886C131.601 34.5544 131.643 34.5302 131.689 34.5183C131.735 34.5063 131.783 34.507 131.829 34.5202L149.804 40.166C149.848 40.1811 149.888 40.2077 149.92 40.2435C149.952 40.2793 149.976 40.3233 149.988 40.3713C150.002 40.4197 150.004 40.4713 149.993 40.5205C149.981 40.5697 149.958 40.6148 149.925 40.6507C149.83 40.7648 140.245 52.1591 140.35 61.4662C140.35 61.5141 140.34 61.5613 140.32 61.6039C140.3 61.6466 140.27 61.6834 140.235 61.7114C140.187 61.7411 140.132 61.7549 140.077 61.7513ZM124.867 55.1075L139.808 61.01C139.898 56.1283 142.441 50.8189 144.632 47.1862C146.024 44.8675 147.562 42.6552 149.235 40.5652L131.829 35.0962C125.815 41.4948 124.961 53.3738 124.867 55.1075Z" fill="#231F20"></path><path d="M144.048 42.3211H143.974L131.624 38.4431C131.558 38.4207 131.502 38.3713 131.469 38.3054C131.435 38.2395 131.427 38.1621 131.445 38.0896C131.454 38.0532 131.47 38.0192 131.491 37.9896C131.513 37.9599 131.539 37.9353 131.57 37.9172C131.6 37.8991 131.634 37.8879 131.669 37.8842C131.703 37.8805 131.738 37.8844 131.771 37.8957L144.122 41.7736C144.192 41.7842 144.255 41.8244 144.297 41.8854C144.34 41.9463 144.358 42.023 144.348 42.0987C144.338 42.1743 144.301 42.2426 144.245 42.2886C144.189 42.3346 144.118 42.3545 144.048 42.3439V42.3211Z" fill="#D1D3D4"></path><path d="M142.268 46.2273H142.194L129.844 42.3494C129.777 42.3269 129.722 42.2776 129.688 42.2117C129.655 42.1457 129.646 42.0684 129.665 41.9958C129.674 41.9594 129.689 41.9254 129.711 41.8958C129.732 41.8662 129.759 41.8416 129.79 41.8235C129.82 41.8054 129.854 41.7941 129.888 41.7904C129.923 41.7867 129.958 41.7906 129.991 41.8019L142.341 45.6799C142.411 45.6904 142.474 45.7306 142.517 45.7916C142.559 45.8526 142.578 45.9293 142.568 46.0049C142.558 46.0805 142.521 46.1489 142.465 46.1949C142.408 46.2408 142.337 46.2607 142.268 46.2501V46.2273Z" fill="#D1D3D4"></path><path d="M140.745 50.3445H140.672L128.321 46.4666C128.288 46.4561 128.257 46.4386 128.23 46.4152C128.203 46.3917 128.181 46.3628 128.164 46.3299C128.148 46.2971 128.137 46.261 128.133 46.2238C128.13 46.1866 128.133 46.1489 128.142 46.113C128.151 46.0766 128.167 46.0426 128.189 46.013C128.21 45.9834 128.237 45.9588 128.267 45.9407C128.298 45.9226 128.332 45.9113 128.366 45.9076C128.401 45.9039 128.436 45.9078 128.469 45.9191L140.819 49.797C140.852 49.8075 140.883 49.825 140.91 49.8484C140.937 49.8719 140.96 49.9008 140.976 49.9337C140.993 49.9665 141.003 50.0026 141.007 50.0398C141.011 50.077 141.008 50.1147 140.998 50.1506C140.981 50.2082 140.947 50.2583 140.902 50.2932C140.856 50.3282 140.801 50.3462 140.745 50.3445Z" fill="#D1D3D4"></path><path d="M135.474 54.028C135.449 54.0333 135.424 54.0333 135.4 54.028L126.621 51.2679C126.587 51.2581 126.556 51.241 126.528 51.2177C126.501 51.1945 126.478 51.1654 126.461 51.1324C126.445 51.0994 126.434 51.063 126.431 51.0256C126.428 50.9881 126.431 50.9502 126.442 50.9143C126.461 50.8417 126.506 50.7805 126.568 50.7441C126.629 50.7077 126.701 50.6992 126.768 50.7204L135.548 53.4806C135.581 53.4911 135.612 53.5085 135.639 53.532C135.666 53.5554 135.688 53.5844 135.705 53.6172C135.721 53.65 135.732 53.6861 135.736 53.7233C135.739 53.7605 135.736 53.7982 135.727 53.8342C135.71 53.8917 135.676 53.9418 135.63 53.9767C135.584 54.0117 135.53 54.0297 135.474 54.028Z" fill="#D1D3D4"></path></svg>