<svg xmlns="http://www.w3.org/2000/svg" width="53" height="54" viewBox="0 0 53 54" fill="none"><g opacity="0.3"><path d="M50.0148 24.1479C49.796 25.8442 48.9452 27.3562 47.4261 28.3998C44.3879 30.4869 40.1159 29.7112 37.7428 26.6416C34.5579 22.5218 28.5771 21.4359 24.4995 24.237C20.422 27.0381 19.6957 32.6697 22.8718 36.8574C25.2449 39.927 24.7199 43.9981 21.6817 46.0852C18.6435 48.1723 14.3715 47.3966 11.9984 44.327C4.12972 34.1488 5.92367 20.2391 16.0063 13.2509C26.0802 6.33054 40.6764 8.98078 48.6162 19.172C49.8028 20.7068 50.2336 22.4516 50.0148 24.1479Z" fill="#FFD75E"></path><path d="M46.6105 19.4623C46.3917 21.1586 45.5409 22.6707 44.0218 23.7143C40.9836 25.8014 36.7116 25.0257 34.3385 21.9561C31.1536 17.8363 25.1727 16.7504 21.0952 19.5515C17.0176 22.3526 16.2913 27.9842 19.4675 32.1718C21.8406 35.2415 21.3155 39.3126 18.2774 41.3997C15.2392 43.4868 10.9672 42.7111 8.59408 39.6414C0.725419 29.4632 2.51937 15.5536 12.602 8.56541C22.6759 1.64503 37.2721 4.29528 45.2119 14.4864C46.3985 16.0213 46.8205 17.8339 46.6105 19.4623Z" stroke="white" stroke-width="2" stroke-miterlimit="10"></path></g></svg>