<svg xmlns="http://www.w3.org/2000/svg" width="160" height="108" viewBox="0 0 160 108" fill="none"><path d="M70.8668 27.9481C70.8668 27.9481 71.2554 21.9893 70.8668 20.3415C70.4782 18.6938 68.1413 14.704 67.364 14.9941C66.5868 15.2843 66.4883 16.4553 67.364 18.0098C67.364 18.0098 62.4001 13.9733 60.5036 14.0459C58.6071 14.1184 57.5397 16.5538 57.8299 17.7196C58.1201 18.8855 62.4933 20.9063 62.7939 21.8649C63.0944 22.8235 63.8613 29.5596 63.8613 29.5596" fill="white"></path><path d="M63.8721 29.8459C63.8087 29.8453 63.7477 29.8219 63.7002 29.78C63.6526 29.7382 63.6217 29.6807 63.613 29.6179C63.613 29.5506 62.8357 22.9181 62.5767 21.9647C62.4627 21.5865 61.3072 20.8248 60.3797 20.2133C59.048 19.3273 57.7889 18.493 57.6127 17.7832C57.5455 17.2964 57.5779 16.8011 57.7079 16.3272C57.838 15.8533 58.063 15.4108 58.3692 15.0266C58.61 14.6739 58.9268 14.3796 59.2962 14.1653C59.6656 13.951 60.0783 13.8221 60.504 13.7882C62.0119 13.7312 65.1675 15.9955 66.696 17.151C66.4745 16.617 66.4381 16.0242 66.5924 15.467C66.6469 15.3047 66.7371 15.1566 66.8564 15.0338C66.9756 14.9109 67.1209 14.8164 67.2815 14.7571C67.3673 14.7293 67.458 14.7205 67.5475 14.7312C67.6369 14.742 67.723 14.772 67.7997 14.8193C68.8723 15.3893 70.7843 18.8506 71.1211 20.2859C71.5149 21.9543 71.1211 27.7215 71.1211 27.965C71.1198 27.9993 71.1116 28.0329 71.097 28.0639C71.0823 28.095 71.0615 28.1227 71.0358 28.1454C71.0102 28.1682 70.9802 28.1855 70.9476 28.1964C70.9151 28.2072 70.8807 28.2113 70.8465 28.2085C70.7787 28.2032 70.7156 28.1714 70.671 28.1201C70.6264 28.0687 70.6038 28.0018 70.6081 27.9339C70.6081 27.8717 70.9864 21.9958 70.6081 20.4051C70.1884 18.6174 67.9655 15.1665 67.4422 15.2235C67.3534 15.259 67.2735 15.3136 67.2081 15.3835C67.1427 15.4533 67.0935 15.5367 67.0639 15.6276C66.8774 16.1458 67.0639 16.9541 67.5821 17.8713C67.6118 17.923 67.6224 17.9835 67.612 18.0423C67.6016 18.101 67.5708 18.1542 67.5251 18.1925C67.4785 18.2313 67.4199 18.2525 67.3593 18.2525C67.2987 18.2525 67.24 18.2313 67.1935 18.1925C65.8359 17.0837 62.0119 14.2286 60.5092 14.2856C60.1568 14.3158 59.8156 14.4246 59.5108 14.6039C59.2059 14.7832 58.9451 15.0286 58.7475 15.3219C58.2266 15.9769 57.9863 16.8116 58.079 17.6433C58.2086 18.1614 59.5506 19.0475 60.6336 19.7625C62.0222 20.6849 62.8824 21.2807 63.0378 21.8041C63.328 22.7989 64.0741 29.2656 64.1156 29.5402C64.123 29.6087 64.1032 29.6775 64.0606 29.7317C64.018 29.7859 63.9559 29.8213 63.8876 29.8304L63.8721 29.8459Z" fill="#231F20"></path><path d="M83.6343 107.735L156.493 90.7552V79.0293L83.6343 86.5115V107.735Z" fill="white"></path><path d="M83.6342 108C83.5741 108 83.5158 107.98 83.4684 107.943C83.4373 107.917 83.412 107.886 83.3941 107.85C83.3762 107.814 83.3662 107.775 83.3647 107.735V86.4908C83.3644 86.4236 83.3892 86.3587 83.4343 86.3089C83.4794 86.259 83.5414 86.2278 83.6083 86.2213L156.461 78.7443C156.499 78.7394 156.537 78.743 156.573 78.7546C156.609 78.7663 156.641 78.7858 156.669 78.8117C156.696 78.8367 156.718 78.867 156.733 78.9009C156.749 78.9348 156.757 78.9714 156.757 79.0086V90.7345C156.757 90.7955 156.737 90.8549 156.699 90.9029C156.662 90.9509 156.609 90.9847 156.55 90.9988L83.6964 107.994L83.6342 108ZM83.9036 86.755V107.404L156.223 90.548V79.3246L83.9036 86.755Z" fill="#231F20"></path><path d="M3.72412 67.1328V79.9572L83.6346 107.736V82.2786L3.72412 67.1328Z" fill="white"></path><path d="M83.6348 108H83.5467L3.63614 80.2107C3.58427 80.1916 3.53955 80.157 3.50803 80.1116C3.47652 80.0661 3.45974 80.0121 3.45996 79.9568V67.1324C3.46046 67.0933 3.469 67.0547 3.48504 67.0191C3.50109 66.9834 3.5243 66.9515 3.55323 66.9252C3.58386 66.8998 3.61973 66.8815 3.65825 66.8717C3.69677 66.8618 3.737 66.8606 3.77604 66.8682L83.6866 82.0139C83.7478 82.0259 83.803 82.0589 83.8427 82.1071C83.8824 82.1553 83.9042 82.2158 83.9042 82.2782V107.735C83.9026 107.778 83.8916 107.819 83.8718 107.857C83.8521 107.895 83.8242 107.927 83.7902 107.953C83.7443 107.984 83.6901 108 83.6348 108ZM3.99367 79.7703L83.3653 107.373V82.501L3.99367 67.4744V79.7703Z" fill="#231F20"></path><path d="M137.419 77.3193C137.419 77.3193 144.715 34.5971 138.585 28.5502C132.455 22.5033 104.438 21.3737 98.1686 23.0007C91.8989 24.6277 87.0903 67.868 87.0903 67.868L137.419 77.3193Z" fill="#231F20"></path><path d="M137.419 77.5623H137.372L87.0333 68.1059C86.9692 68.0933 86.9122 68.0569 86.8738 68.0041C86.8353 67.9512 86.8183 67.8858 86.8261 67.8209C87.023 66.0488 91.7175 24.394 98.096 22.7411C103.946 21.2229 132.388 22.0623 138.766 28.358C144.917 34.4256 137.974 75.6037 137.673 77.3499C137.668 77.3843 137.655 77.4173 137.636 77.4467C137.618 77.4761 137.593 77.5013 137.564 77.5208C137.521 77.5497 137.471 77.5642 137.419 77.5623ZM87.3649 67.6447L137.191 77.0027C137.787 73.4274 144.109 34.3582 138.388 28.7207C135.797 26.161 128.507 24.1298 118.387 23.1401C110.319 22.3525 101.454 22.394 98.21 23.2334C96.4897 23.679 93.759 28.0056 90.505 46.0738C88.7225 56.0743 87.5515 65.9918 87.3649 67.6447Z" fill="#231F20"></path><path d="M159.089 76.9312V81.3096L84.1009 96.9269L0.262695 68.2209V64.7285L159.089 76.9312Z" fill="white"></path><path d="M84.1007 97.1842C84.0732 97.1891 84.0452 97.1891 84.0178 97.1842L0.179594 68.4782C0.128963 68.4603 0.0849819 68.4274 0.0535088 68.3839C0.0220358 68.3404 0.00456417 68.2883 0.0034193 68.2346V64.7267C0.00330441 64.6909 0.0106265 64.6554 0.024923 64.6225C0.0392194 64.5897 0.0601792 64.5601 0.0864769 64.5358C0.112775 64.5114 0.143838 64.4928 0.177704 64.4811C0.21157 64.4693 0.247499 64.4648 0.283224 64.4676L159.109 76.6703C159.174 76.6755 159.235 76.7051 159.279 76.7531C159.324 76.8011 159.348 76.8641 159.348 76.9293V81.3078C159.348 81.3675 159.327 81.4254 159.289 81.4717C159.252 81.5179 159.199 81.5497 159.14 81.5617L84.1577 97.1738L84.1007 97.1842ZM0.521579 68.0326L84.1214 96.6557L158.83 81.1109V77.1884L0.521579 65.0065V68.0326Z" fill="#231F20"></path><path d="M125.72 30.3792C128.17 39.3122 122.398 81.3142 122.398 81.3142L88.6401 68.1167C88.6401 68.1167 95.573 59.7847 87.2825 42.3227C83.8937 35.1825 87.3809 31.4414 89.7437 29.4309C91.7283 27.7417 123.263 21.4461 125.72 30.3792Z" fill="#007456"></path><path d="M54.8819 55.127L159.089 76.9311L84.1009 91.3825L0.262695 64.7284L54.8819 55.127Z" fill="white"></path><path d="M84.1008 91.646H84.0231L0.179732 64.9816C0.12414 64.9619 0.076519 64.9246 0.0441733 64.8753C0.0118275 64.826 -0.00345892 64.7675 0.000657943 64.7087C0.0047748 64.6499 0.0280683 64.594 0.0669657 64.5497C0.105863 64.5054 0.158218 64.4751 0.216003 64.4634L54.8352 54.8671C54.8675 54.8594 54.9013 54.8594 54.9336 54.8671L159.146 76.6712C159.206 76.6843 159.26 76.7176 159.299 76.7657C159.337 76.8139 159.358 76.8738 159.358 76.9355C159.356 76.9968 159.334 77.0556 159.294 77.1025C159.255 77.1495 159.201 77.1819 159.141 77.1946L84.1526 91.6408L84.1008 91.646ZM1.38186 64.8002L84.1164 91.1019L157.731 76.9199L54.8766 55.4008L1.38186 64.8002Z" fill="#231F20"></path><path d="M88.6866 70.3192C88.6866 70.3192 63.302 62.293 62.8616 62.293C62.4212 62.293 30.3315 67.801 30.3315 67.801L56.9805 76.9154L88.6866 70.3192Z" fill="white"></path><path d="M56.9805 77.2005C56.9514 77.2058 56.9216 77.2058 56.8924 77.2005L30.2435 68.0809C30.1876 68.0626 30.1394 68.0261 30.1066 67.9773C30.0737 67.9285 30.0581 67.8701 30.0622 67.8114C30.067 67.7519 30.0916 67.6956 30.1319 67.6516C30.1722 67.6075 30.2261 67.578 30.285 67.5679C33.5701 67.0031 62.4108 62.0547 62.8616 62.0547C63.3124 62.0547 82.8004 68.1949 88.7696 70.081C88.8266 70.0965 88.8764 70.1313 88.9104 70.1795C88.9445 70.2278 88.9606 70.2864 88.9561 70.3452C88.9538 70.4045 88.9316 70.4613 88.893 70.5064C88.8545 70.5515 88.8019 70.5824 88.7437 70.5939L57.0324 77.1953L56.9805 77.2005ZM31.4094 67.8736L56.9961 76.6305L87.6297 70.2416C80.106 67.8684 63.4783 62.6454 62.8357 62.5469C62.3124 62.6143 42.6223 65.9772 31.4094 67.8995V67.8736Z" fill="#231F20"></path><path d="M53.3949 73.6922C53.3608 73.6999 53.3253 73.6999 53.2912 73.6922L39.161 67.3344C39.11 67.311 39.068 67.2717 39.0412 67.2225C39.0144 67.1732 39.0044 67.1165 39.0125 67.061C39.0207 67.0055 39.0467 66.9542 39.0865 66.9147C39.1264 66.8752 39.178 66.8497 39.2336 66.8421L55.7577 64.5156C55.8016 64.5026 55.8484 64.5026 55.8924 64.5156L70.5926 70.7646C70.6447 70.7859 70.6883 70.8239 70.7164 70.8727C70.7445 70.9215 70.7557 70.9782 70.748 71.034C70.7405 71.0905 70.7147 71.1429 70.6744 71.1832C70.6341 71.2235 70.5817 71.2493 70.5252 71.2568L53.426 73.6922H53.3949ZM40.1922 67.1841L53.4363 73.1377L69.5355 70.8527L55.7577 64.9923L40.1922 67.1841Z" fill="#D1D3D4"></path><path d="M56.9805 76.9301L88.8317 73.1786L88.6866 70.3184L56.9805 74.5621V76.9301Z" fill="white"></path><path d="M56.9804 77.1989C56.914 77.1979 56.85 77.1741 56.799 77.1316C56.7709 77.106 56.7486 77.0748 56.7334 77.04C56.7182 77.0051 56.7106 76.9675 56.711 76.9295V74.5615C56.7105 74.4965 56.734 74.4336 56.7771 74.3848C56.8201 74.3361 56.8796 74.3049 56.9441 74.2973L88.6503 70.0639C88.6868 70.058 88.7241 70.0599 88.7597 70.0696C88.7954 70.0793 88.8286 70.0965 88.857 70.12C88.8855 70.1436 88.9086 70.173 88.9248 70.2062C88.9409 70.2394 88.9498 70.2757 88.9508 70.3126L89.1011 73.1729C89.1042 73.241 89.0813 73.3078 89.037 73.3597C88.9928 73.4116 88.9305 73.4449 88.8627 73.4527L57.0115 77.2093L56.9804 77.1989ZM57.2447 74.7947V76.629L88.5518 72.9397L88.4327 70.6183L57.2447 74.7947Z" fill="#231F20"></path><path d="M56.9806 76.9311L51.1461 34.5405L24.3003 33.1777L30.3317 67.8166L56.9806 76.9311Z" fill="white"></path><path d="M56.9803 77.1996C56.9511 77.2049 56.9213 77.2049 56.8922 77.1996L30.2432 68.08C30.1975 68.0651 30.1569 68.0379 30.1258 68.0013C30.0947 67.9647 30.0743 67.9202 30.0671 67.8727L24.0357 33.2234C24.0289 33.184 24.0309 33.1436 24.0417 33.105C24.0524 33.0665 24.0716 33.0308 24.0979 33.0006C24.1244 32.9709 24.1572 32.9475 24.194 32.9323C24.2308 32.917 24.2706 32.9103 24.3103 32.9125L51.1769 34.2701C51.2395 34.2741 51.2988 34.2995 51.345 34.3419C51.3912 34.3843 51.4214 34.4413 51.4308 34.5033L57.2652 76.8938C57.271 76.9395 57.2649 76.9858 57.2477 77.0284C57.2305 77.0711 57.2026 77.1086 57.1668 77.1374C57.1414 77.1596 57.1118 77.1766 57.0798 77.1873C57.0478 77.1979 57.0139 77.2021 56.9803 77.1996ZM30.5541 67.6136L56.6435 76.5363L50.8971 34.7935L24.6108 33.4618L30.5541 67.6136Z" fill="#231F20"></path><path d="M70.8254 69.325H70.7373L61.9286 66.216C61.8599 66.2105 61.7962 66.1779 61.7515 66.1255C61.7068 66.073 61.6848 66.0049 61.6903 65.9362C61.6958 65.8675 61.7284 65.8038 61.7808 65.7591C61.8333 65.7144 61.9014 65.6924 61.9701 65.6978L67.0066 64.9102C67.0491 64.8997 67.0936 64.8997 67.1361 64.9102L76.1314 68.1954C76.1868 68.215 76.2339 68.2528 76.265 68.3027C76.2961 68.3526 76.3093 68.4116 76.3024 68.47C76.2953 68.5284 76.2682 68.5825 76.2257 68.6232C76.1832 68.6638 76.1279 68.6884 76.0692 68.6928L70.8876 69.2783L70.8254 69.325ZM63.053 66.0813L70.8669 68.8016L74.9137 68.3508L67.017 65.4647L63.053 66.0813Z" fill="#D1D3D4"></path><path d="M126.31 36.4312L128.17 51.4111C129.289 60.4841 130.056 69.184 126.559 71.3706C123.061 73.5573 92.8784 73.635 92.8784 73.635C93.4421 71.0843 93.5752 68.4572 93.2722 65.8626C93.2722 65.8626 118.144 62.308 117.869 59.826C117.595 57.3441 109.713 40.4262 109.579 36.483C109.444 32.5398 121.517 33.5761 126.31 36.4312Z" fill="#007456"></path><path d="M89.7433 29.4312C89.7433 29.4312 73.0845 42.9966 73.2037 40.4317C73.2658 39.0793 72.9031 25.6953 72.9031 25.6953L62.5037 26.1513C62.5037 26.1513 58.3947 48.1005 61.9855 53.5049C66.535 60.3446 73.1052 58.132 81.8621 53.0282C93.0751 46.489 95.8524 43.7013 95.8524 43.7013L89.7433 29.4312Z" fill="#007456"></path><path d="M93.2516 65.8636C93.2516 65.8636 88.07 66.0812 87.3809 65.1019C86.6917 64.1226 85.5725 62.9049 84.9093 62.7857C84.246 62.6666 76.1317 63.5992 76.6187 64.4438C77.1058 65.2884 80.6137 64.563 80.6137 64.563C80.6137 64.563 77.5669 65.3403 77.7069 66.3558C77.8468 67.3714 78.5515 67.2626 79.7173 66.874C80.8832 66.4854 83.6968 65.8066 83.6968 65.8066C83.6968 65.8066 79.3909 67.8015 79.3235 68.8326C79.2562 69.8638 81.334 69.3508 84.2616 67.7963C84.2616 67.7963 80.8521 69.9415 81.9091 70.5737C82.9662 71.2058 85.4482 69.9001 85.4482 69.9001C85.4482 69.9001 86.6192 71.7913 88.1996 72.2629C89.78 72.7344 93.0703 72.6929 93.0703 72.6929C93.0703 72.6929 94.6299 69.2005 93.2516 65.8636Z" fill="white"></path><path d="M92.8627 72.94C92.1218 72.94 89.4947 72.9089 88.1008 72.4944C86.707 72.0798 85.6966 70.743 85.3339 70.2197C84.6603 70.5461 82.7431 71.3803 81.7482 70.7845C81.65 70.7296 81.5678 70.6501 81.5096 70.5538C81.4515 70.4575 81.4194 70.3477 81.4166 70.2352C81.4945 69.7884 81.732 69.3852 82.085 69.1004C80.9658 69.5512 79.8725 69.8259 79.344 69.4942C79.2355 69.4211 79.1491 69.3197 79.0943 69.2009C79.0395 69.0821 79.0183 68.9506 79.0331 68.8206C79.0745 68.1729 80.2663 67.3335 81.4529 66.6547C80.8207 66.8205 80.1937 66.9967 79.7792 67.1314C79.0227 67.3801 78.3543 67.5615 77.8983 67.2765C77.757 67.1757 77.6406 67.0439 77.558 66.8912C77.4754 66.7386 77.4287 66.5691 77.4216 66.3956C77.349 65.8775 77.805 65.4578 78.3905 65.121C77.4838 65.1573 76.6236 65.0484 76.3594 64.5717C76.3207 64.5004 76.3035 64.4193 76.3099 64.3384C76.3164 64.2574 76.3461 64.1801 76.3956 64.1158C77.0744 63.1727 84.3338 62.411 84.9608 62.525C85.8054 62.6753 87.0334 64.1727 87.5982 64.9448C88.0128 65.5407 91.1476 65.6858 93.241 65.5977C93.2961 65.5948 93.3507 65.6093 93.3971 65.639C93.4436 65.6687 93.4796 65.7123 93.5001 65.7635C94.9043 69.1678 93.3602 72.6395 93.2928 72.7845C93.272 72.8305 93.2386 72.8695 93.1963 72.8971C93.1541 72.9246 93.1049 72.9395 93.0545 72.94H92.8627ZM85.4271 69.6082C85.473 69.6086 85.5181 69.6207 85.558 69.6434C85.5979 69.6661 85.6313 69.6985 85.6551 69.7378C85.6551 69.7378 86.7951 71.5513 88.2459 71.9814C89.5621 72.3752 92.1632 72.4063 92.8627 72.4063C93.1322 71.7171 94.1115 68.8828 93.0648 66.1366C91.8523 66.178 87.8418 66.2402 87.1526 65.2557C86.3443 64.1054 85.3339 63.1364 84.852 63.0483C84.0488 62.9033 77.5978 63.7893 76.8723 64.38C77.2454 64.7064 79.0071 64.6132 80.5305 64.3023C80.5639 64.2946 80.5984 64.2937 80.6322 64.2995C80.6659 64.3052 80.6981 64.3176 80.727 64.3359C80.7559 64.3543 80.7809 64.3781 80.8006 64.4061C80.8202 64.4341 80.8341 64.4658 80.8414 64.4992C80.85 64.5329 80.8518 64.5679 80.8468 64.6023C80.8418 64.6367 80.83 64.6697 80.8122 64.6996C80.7944 64.7294 80.7709 64.7555 80.743 64.7762C80.7151 64.7969 80.6834 64.812 80.6497 64.8204C79.515 65.1106 77.8672 65.7894 77.9397 66.3179C77.9372 66.4158 77.9563 66.513 77.9957 66.6026C78.0351 66.6921 78.0939 66.7719 78.1677 66.8361C78.432 67.0019 79.0486 66.8361 79.603 66.6392C80.7689 66.2557 83.484 65.6029 83.6032 65.5666C83.6372 65.5554 83.6732 65.551 83.7089 65.5536C83.7446 65.5562 83.7795 65.5659 83.8115 65.582C83.8435 65.5981 83.872 65.6204 83.8954 65.6475C83.9188 65.6747 83.9366 65.7062 83.9478 65.7402C83.959 65.7742 83.9634 65.8101 83.9608 65.8458C83.9582 65.8816 83.9485 65.9164 83.9324 65.9484C83.9163 65.9804 83.894 66.0089 83.8669 66.0323C83.8397 66.0557 83.8082 66.0735 83.7742 66.0848C81.7741 67.0123 79.5927 68.3439 79.5564 68.888C79.5564 69.0227 79.5979 69.0538 79.6238 69.0745C79.9139 69.2611 81.1782 69.1522 84.1007 67.5667C84.1609 67.5415 84.2282 67.5391 84.2901 67.5598C84.3519 67.5806 84.4042 67.6231 84.4371 67.6794C84.47 67.7358 84.4814 67.8021 84.4691 67.8662C84.4567 67.9303 84.4216 67.9877 84.3701 68.0279C83.1991 68.7688 81.9348 69.831 81.9399 70.2559C81.9399 70.2818 81.9399 70.3129 82.0125 70.3544C82.7742 70.8104 84.6395 70.0176 85.2924 69.6704C85.3308 69.6377 85.3774 69.6162 85.4271 69.6082Z" fill="#231F20"></path><path d="M97.1323 65.5375C97.0705 65.5321 97.0126 65.5051 96.9687 65.4613C96.9248 65.4175 96.8977 65.3597 96.8922 65.2979C96.8866 65.2362 96.903 65.1744 96.9383 65.1235C96.9737 65.0725 97.0259 65.0357 97.0857 65.0193L117.387 61.4855C116.064 57.9709 114.94 54.3848 114.019 50.7441C111.978 42.5727 111.667 36.3651 113.092 32.2872C113.102 32.2537 113.119 32.2227 113.142 32.196C113.165 32.1694 113.193 32.1476 113.224 32.1321C113.256 32.1166 113.29 32.1077 113.325 32.1058C113.36 32.104 113.395 32.1093 113.428 32.1214C113.496 32.1449 113.551 32.1941 113.582 32.2582C113.613 32.3223 113.617 32.3961 113.594 32.4634C110.278 41.9716 117.926 61.4026 118.004 61.5943C118.022 61.6297 118.031 61.6687 118.031 61.7083C118.031 61.7479 118.022 61.7869 118.004 61.8223C117.984 61.8569 117.958 61.8869 117.925 61.9101C117.893 61.9334 117.856 61.9494 117.817 61.957L97.1945 65.5478L97.1323 65.5375Z" fill="#231F20"></path><path d="M84.1008 97.1911C84.0307 97.1911 83.9635 97.1632 83.9139 97.1137C83.8644 97.0641 83.8365 96.9969 83.8365 96.9268V91.3825C83.8251 91.3424 83.8231 91.3002 83.8307 91.2592C83.8384 91.2182 83.8554 91.1795 83.8805 91.1462C83.9056 91.1129 83.9381 91.0859 83.9755 91.0673C84.0128 91.0487 84.0539 91.0391 84.0956 91.0391C84.1373 91.0391 84.1784 91.0487 84.2158 91.0673C84.2531 91.0859 84.2856 91.1129 84.3107 91.1462C84.3358 91.1795 84.3529 91.2182 84.3605 91.2592C84.3681 91.3002 84.3661 91.3424 84.3547 91.3825V96.9268C84.3547 96.9951 84.3283 97.0608 84.281 97.1101C84.2336 97.1594 84.1691 97.1884 84.1008 97.1911Z" fill="#231F20"></path><path d="M91.329 57.25C91.2606 57.25 91.1949 57.2236 91.1457 57.1763C91.0964 57.1289 91.0674 57.0643 91.0647 56.9961C90.8833 53.2446 89.8729 50.317 88.9921 47.7314C88.3849 46.2061 87.9588 44.6149 87.7226 42.9902C87.6863 42.6224 87.65 42.27 87.6189 41.9539C87.3288 39.0626 87.1008 36.7723 88.8159 31.6426C88.8384 31.5756 88.8863 31.5202 88.9493 31.4882C89.0123 31.4562 89.0853 31.4502 89.1527 31.4716C89.1858 31.4827 89.2163 31.5002 89.2426 31.5232C89.2689 31.5462 89.2904 31.5741 89.3058 31.6054C89.3212 31.6367 89.3303 31.6708 89.3325 31.7056C89.3346 31.7405 89.3299 31.7754 89.3185 31.8084C87.6448 36.8397 87.8573 38.9642 88.1526 41.9021C88.1837 42.2441 88.22 42.5964 88.2511 42.9643C88.4853 44.5463 88.9026 46.0956 89.4947 47.5811C90.4014 50.203 91.4274 53.1669 91.6088 56.9961C91.6116 57.0667 91.5866 57.1356 91.5391 57.1879C91.4916 57.2403 91.4254 57.2719 91.3549 57.2759L91.329 57.25Z" fill="#231F20"></path><path d="M106.418 84.1278C111.123 84.1278 114.936 82.9795 114.936 81.5629C114.936 80.1464 111.123 78.998 106.418 78.998C101.713 78.998 97.8994 80.1464 97.8994 81.5629C97.8994 82.9795 101.713 84.1278 106.418 84.1278Z" fill="white"></path><path d="M106.418 84.3979C102.159 84.3979 97.6094 83.403 97.6094 81.5635C97.6094 79.7241 102.138 78.7344 106.418 78.7344C110.698 78.7344 115.227 79.7241 115.227 81.5635C115.227 83.403 110.683 84.3979 106.418 84.3979ZM106.418 79.2681C101.558 79.2681 98.1638 80.4754 98.1638 81.5635C98.1638 82.6517 101.558 83.8642 106.418 83.8642C111.278 83.8642 114.672 82.6517 114.672 81.5635C114.672 80.4754 111.284 79.2681 106.418 79.2681Z" fill="#231F20"></path><path d="M99.998 74.5881L99.7908 74.6244C99.1813 74.7186 98.6279 75.034 98.2363 75.5104C98.0135 75.8507 97.8906 76.2467 97.8814 76.6533C97.8723 77.06 97.9772 77.461 98.1845 77.811C99.0861 79.4432 101.293 79.8837 102.988 80.0547C103.227 80.0917 103.472 80.0722 103.703 79.9977C103.817 79.9576 103.917 79.8836 103.988 79.7854C104.06 79.6873 104.099 79.5697 104.102 79.4484C104.089 79.3507 104.052 79.2576 103.995 79.1779C103.937 79.0982 103.859 79.0344 103.77 78.9925C103.592 78.9088 103.401 78.8562 103.205 78.837C102.135 78.7287 101.088 78.4615 100.096 78.0442C99.5317 77.7592 98.7441 77.1064 99.1534 76.4068C99.2963 76.1789 99.5037 75.9985 99.7493 75.8887C100.718 75.4275 101.641 75.7747 102.599 76.0597C102.669 76.0855 102.743 76.0961 102.817 76.0908C103.003 76.0908 103.107 75.8472 103.091 75.6607C103.06 75.241 102.646 74.9664 102.252 74.8161C101.534 74.5432 100.756 74.4645 99.998 74.5881Z" fill="white"></path><path d="M103.257 80.3344C103.154 80.3397 103.05 80.3397 102.946 80.3344C100.324 80.0857 98.6818 79.2981 97.9356 77.9561C97.7018 77.5617 97.5841 77.1093 97.596 76.651C97.608 76.1926 97.749 75.747 98.003 75.3653C98.4426 74.836 99.0594 74.4843 99.7388 74.3756L99.9564 74.3393C100.751 74.2194 101.563 74.3069 102.314 74.5932C102.931 74.8316 103.288 75.2098 103.324 75.6658C103.346 75.8293 103.304 75.9948 103.208 76.1286C103.112 76.2624 102.968 76.3545 102.806 76.386C102.694 76.3933 102.582 76.3792 102.475 76.3446L102.226 76.2669C101.397 76.0182 100.614 75.7798 99.8217 76.1581C99.6238 76.2382 99.4555 76.3776 99.3398 76.557C99.3027 76.6177 99.2785 76.6854 99.2687 76.7558C99.2589 76.8262 99.2637 76.8979 99.2828 76.9664C99.4657 77.3487 99.7803 77.6522 100.169 77.8214C101.015 78.1911 101.914 78.4288 102.832 78.526L103.226 78.5882C103.451 78.6106 103.671 78.6738 103.874 78.7748C104.023 78.8403 104.148 78.9501 104.232 79.0894C104.317 79.2286 104.356 79.3904 104.346 79.5528C104.335 79.7153 104.274 79.8705 104.172 79.9973C104.07 80.1242 103.932 80.2165 103.775 80.2619C103.608 80.3173 103.433 80.3418 103.257 80.3344ZM100.039 74.8523L99.8424 74.8834C99.2933 74.9648 98.7925 75.2428 98.433 75.6658C98.2395 75.9651 98.1339 76.3128 98.1284 76.6692C98.1229 77.0256 98.2177 77.3763 98.402 77.6814C99.06 78.868 100.563 79.5572 102.998 79.7852C103.195 79.8175 103.397 79.8051 103.589 79.7489C103.65 79.7426 103.708 79.715 103.751 79.6708C103.794 79.6266 103.82 79.5687 103.825 79.5071C103.83 79.4455 103.813 79.3841 103.778 79.3336C103.742 79.2831 103.69 79.2467 103.63 79.2307C103.478 79.1601 103.315 79.1146 103.148 79.096L102.76 79.0338C101.785 78.9312 100.832 78.6778 99.9357 78.2825C99.4175 78.0454 99.0058 77.6244 98.7802 77.1011C98.7398 76.9629 98.7286 76.8179 98.7473 76.6751C98.766 76.5324 98.8143 76.3951 98.889 76.2721C99.0563 75.9982 99.3043 75.7828 99.5989 75.6554C100.578 75.1891 101.501 75.4689 102.392 75.7384L102.64 75.8161C102.675 75.82 102.71 75.82 102.744 75.8161C102.762 75.7965 102.775 75.7735 102.783 75.7485C102.791 75.7235 102.794 75.6971 102.791 75.671C102.765 75.3394 102.314 75.1528 102.122 75.0544C101.462 74.8048 100.748 74.7281 100.05 74.8316L100.039 74.8523Z" fill="#231F20"></path><path d="M100.791 72.8418C100.791 72.8418 102.386 80.8007 102.516 81.2774C102.646 81.7541 106.884 82.9873 109.418 81.7956L112.045 73.6605L100.791 72.8418Z" fill="white"></path><path d="M106.755 82.5683C105.409 82.5726 104.074 82.3212 102.822 81.8273C102.48 81.6667 102.304 81.5164 102.262 81.3455C102.133 80.8636 100.594 73.2155 100.532 72.8943C100.523 72.8533 100.525 72.8109 100.536 72.7705C100.546 72.7301 100.566 72.6927 100.594 72.6611C100.621 72.6306 100.654 72.6069 100.692 72.5916C100.73 72.5763 100.771 72.5699 100.811 72.573L112.066 73.3917C112.106 73.3944 112.145 73.4063 112.18 73.4264C112.215 73.4466 112.245 73.4745 112.268 73.508C112.29 73.5416 112.305 73.5798 112.31 73.6198C112.315 73.6598 112.312 73.7006 112.299 73.7389L109.677 81.874C109.665 81.909 109.646 81.9413 109.621 81.9689C109.596 81.9965 109.566 82.0188 109.532 82.0346C108.656 82.4123 107.708 82.5945 106.755 82.5683ZM101.122 73.1326C101.692 75.9566 102.677 80.8532 102.775 81.2055C103.05 81.5268 106.786 82.6564 109.2 81.5993L111.688 73.8995L101.122 73.1326Z" fill="#231F20"></path><path d="M112.073 73.3036C112.129 71.9568 109.649 70.7615 106.535 70.6337C103.422 70.5059 100.853 71.4941 100.797 72.8408C100.742 74.1876 103.221 75.3829 106.335 75.5107C109.449 75.6385 112.018 74.6503 112.073 73.3036Z" fill="#231F20"></path><path d="M106.879 75.7647H106.319C104.921 75.7342 103.542 75.4278 102.262 74.8631C101.117 74.3086 100.506 73.5832 100.537 72.8215C100.568 72.0598 101.236 71.3914 102.423 70.9354C105.102 70.0594 108.007 70.179 110.605 71.2722C111.75 71.8215 112.361 72.5469 112.33 73.3086C112.273 74.7284 109.921 75.7647 106.879 75.7647ZM105.988 70.8629C104.838 70.8405 103.694 71.0248 102.609 71.407C101.64 71.78 101.055 72.2982 101.055 72.8371C101.055 73.376 101.573 73.9356 102.49 74.3916C103.708 74.9267 105.02 75.2155 106.351 75.2413C109.568 75.3761 111.776 74.3346 111.822 73.2827C111.822 72.7645 111.304 72.179 110.387 71.7282C109.169 71.1918 107.857 70.9012 106.527 70.8733L105.988 70.8629Z" fill="#231F20"></path><path d="M99.7853 0.990067C99.7853 0.990067 94.3084 1.18179 92.7021 3.82958C91.0958 6.47737 91.3134 10.3946 89.246 12.9388C87.1785 15.483 84.6447 20.934 85.9556 23.7269C87.2666 26.5197 100.899 27.2607 108.04 24.0222C115.18 20.7837 115.537 14.9959 114.998 11.317C114.46 7.63804 111.848 -2.35206 99.7853 0.990067Z" fill="white"></path><path d="M95.9874 26.4106C95.5936 26.4106 95.1998 26.4106 94.806 26.4106C90.9457 26.3018 86.5155 25.5712 85.7227 23.8561C84.3858 21.0114 86.8367 15.5085 89.0441 12.7934C90.1478 11.4306 90.5986 9.62742 91.0183 7.87604C91.2963 6.42926 91.7888 5.03209 92.4795 3.73077C94.091 1.06744 99.2466 0.782452 99.7337 0.761726C103.848 -0.373041 107.273 -0.0725097 109.916 1.64778C113.828 4.2023 114.947 9.25435 115.247 11.3114C115.854 15.4567 115.113 21.1202 108.133 24.2654C105.123 25.6282 100.651 26.4106 95.9874 26.4106ZM104.278 0.575189C102.773 0.596045 101.278 0.819124 99.8322 1.23843H99.7752C99.7182 1.23843 94.4174 1.45606 92.8992 3.95358C92.2337 5.21608 91.7621 6.57157 91.5002 7.97449C91.0597 9.77769 90.5986 11.6431 89.4275 13.0887C87.2616 15.7624 84.9765 21.0528 86.1787 23.6073C87.3342 26.0686 100.625 27.079 107.915 23.7732C114.6 20.7419 115.31 15.3427 114.729 11.3373C114.439 9.3528 113.361 4.47692 109.625 2.0364C108.032 1.03612 106.179 0.527856 104.299 0.575189H104.278Z" fill="#231F20"></path><path d="M109.537 31.5723C109.537 31.5723 105.086 42.4536 101.381 42.1531C97.6764 41.8525 97.8112 33.7537 97.8112 33.7537L109.537 31.5723Z" fill="#231F20"></path><path d="M101.532 42.4157H101.361C97.4641 42.0996 97.5263 34.0941 97.5315 33.7573C97.5306 33.6979 97.5511 33.6402 97.5891 33.5946C97.6271 33.549 97.6802 33.5185 97.7387 33.5086L109.491 31.3219C109.535 31.3122 109.582 31.3153 109.625 31.3309C109.668 31.3465 109.706 31.3739 109.734 31.41C109.764 31.4461 109.784 31.4898 109.792 31.5364C109.799 31.583 109.793 31.6306 109.776 31.6743C109.594 32.1147 105.335 42.4157 101.532 42.4157ZM98.0444 33.9697C98.0444 35.2237 98.3035 41.6437 101.402 41.8976C104.154 42.1255 107.734 35.1615 109.112 31.9126L98.0444 33.9697Z" fill="#231F20"></path><path d="M98.7854 26.1816L97.8113 33.7519C97.8113 33.7519 99.0601 36.8608 104.148 36.3789C107.288 36.068 109.563 31.5704 109.563 31.5704L110.568 16.7252C110.568 16.7252 103.511 12.839 99.4435 6.11328C99.4435 6.11328 96.0962 11.6368 93.6505 11.098C93.6505 11.098 92.8577 18.5543 93.7437 22.3472C94.6298 26.1401 98.7854 26.1816 98.7854 26.1816Z" fill="white"></path><path d="M103.034 36.6905C98.7335 36.6905 97.5988 33.9754 97.5469 33.851C97.5368 33.8084 97.5368 33.7641 97.5469 33.7215L98.5055 26.4206C97.5158 26.3273 94.2825 25.7522 93.5053 22.4049C92.6192 18.612 93.3758 11.3733 93.412 11.0676C93.4154 11.0317 93.4265 10.997 93.4443 10.9657C93.4622 10.9345 93.4865 10.9074 93.5157 10.8862C93.5456 10.8657 93.5794 10.8514 93.6151 10.8443C93.6507 10.8372 93.6874 10.8374 93.7229 10.8448C95.5883 11.2593 98.3345 7.47156 99.2361 5.97926C99.2608 5.94292 99.2941 5.91318 99.3329 5.89263C99.3717 5.87207 99.415 5.86133 99.4589 5.86133C99.5029 5.86133 99.5462 5.87207 99.585 5.89263C99.6238 5.91318 99.657 5.94292 99.6818 5.97926C103.677 12.5651 110.615 16.4616 110.682 16.4979C110.725 16.5224 110.76 16.558 110.784 16.6009C110.807 16.6438 110.819 16.6924 110.817 16.7414L109.812 31.5867C109.808 31.6211 109.797 31.6546 109.781 31.6851C109.687 31.8768 107.408 36.3174 104.164 36.6335C103.789 36.6726 103.412 36.6916 103.034 36.6905ZM98.0547 33.7163C98.2516 34.1412 99.6092 36.561 104.096 36.1205C106.895 35.8459 109.035 31.9753 109.278 31.4986L110.273 16.871C109.263 16.2803 103.21 12.5702 99.4434 6.60623C98.6662 7.79281 96.0702 11.5132 93.8836 11.3888C93.754 12.7464 93.2255 18.9799 93.9924 22.2702C94.8214 25.8144 98.6247 25.8973 98.7853 25.8973C98.8222 25.8977 98.8586 25.9059 98.892 25.9214C98.9254 25.937 98.9551 25.9595 98.9792 25.9875C99.0032 26.0154 99.021 26.0482 99.0314 26.0836C99.0417 26.1189 99.0444 26.1561 99.0392 26.1926L98.0547 33.7163Z" fill="#231F20"></path><path d="M98.2622 30.1677C99.1267 30.2698 100.003 30.1599 100.815 29.8475C101.628 29.5352 102.352 29.0297 102.926 28.3749C104.952 26.1105 104.48 25.7012 104.48 25.7012C102.638 26.2765 100.693 26.4427 98.7804 26.1882L98.2622 30.1677Z" fill="#231F20"></path><path d="M98.8841 30.4678C98.6602 30.47 98.4365 30.4526 98.2156 30.416C98.1506 30.4045 98.0923 30.3686 98.0528 30.3157C98.0133 30.2627 97.9956 30.1966 98.0032 30.131L98.5213 26.1515C98.5251 26.1176 98.5358 26.0847 98.5525 26.055C98.5693 26.0253 98.5919 25.9992 98.619 25.9784C98.6461 25.9576 98.6771 25.9425 98.7102 25.9339C98.7433 25.9254 98.7777 25.9236 98.8115 25.9287C100.688 26.177 102.595 26.0144 104.402 25.452C104.447 25.4367 104.495 25.4334 104.542 25.4425C104.588 25.4516 104.631 25.4728 104.667 25.5038C104.739 25.5712 104.89 25.7733 104.713 26.2707C104.313 27.1118 103.774 27.8792 103.117 28.5402C102.59 29.1442 101.939 29.6286 101.209 29.961C100.479 30.2934 99.6862 30.4662 98.8841 30.4678ZM98.5524 29.9496C99.3365 30.0012 100.122 29.871 100.847 29.569C101.573 29.2669 102.218 28.8014 102.734 28.2086C103.822 26.9909 104.149 26.3536 104.247 26.0583C102.544 26.5308 100.765 26.6733 99.0084 26.478L98.5524 29.9496Z" fill="#231F20"></path><path d="M100.475 14.1719C100.475 14.1719 98.0239 18.1617 98.6665 18.8353C99.309 19.5089 101.024 18.9752 101.024 18.9752" fill="white"></path><path d="M99.7491 19.3992C99.2911 19.4339 98.8377 19.289 98.4848 18.9951C97.7749 18.2748 99.4848 15.2902 100.252 14.0363C100.288 13.9779 100.346 13.9363 100.413 13.9208C100.48 13.9052 100.551 13.9169 100.609 13.9534C100.668 13.9898 100.709 14.0479 100.725 14.115C100.74 14.182 100.729 14.2525 100.692 14.3109C99.4434 16.3421 98.5832 18.3577 98.8527 18.6272C99.2879 19.0676 100.516 18.8292 100.951 18.6997C101.016 18.6803 101.087 18.6873 101.147 18.7193C101.207 18.7513 101.252 18.8057 101.272 18.8707C101.292 18.9367 101.285 19.0077 101.253 19.0686C101.221 19.1296 101.167 19.1757 101.101 19.1971C100.661 19.3223 100.207 19.3902 99.7491 19.3992Z" fill="#231F20"></path><path d="M103.707 14.6849C104.059 14.641 104.295 14.2025 104.233 13.7056C104.171 13.2086 103.835 12.8414 103.483 12.8853C103.131 12.9292 102.895 13.3677 102.957 13.8646C103.019 14.3616 103.355 14.7288 103.707 14.6849Z" fill="#231F20"></path><path d="M98.1473 14.1607C98.2345 13.6676 98.0218 13.2177 97.6724 13.156C97.3229 13.0942 96.969 13.444 96.8819 13.9371C96.7948 14.4303 97.0074 14.8801 97.3568 14.9419C97.7063 15.0036 98.0602 14.6539 98.1473 14.1607Z" fill="#231F20"></path><path d="M100.262 22.3937C99.5928 22.423 98.93 22.2504 98.3599 21.8984C97.7898 21.5463 97.3387 21.0311 97.0651 20.4195C97.0497 20.3803 97.0445 20.338 97.0499 20.2963C97.0554 20.2546 97.0713 20.215 97.0962 20.1811C97.12 20.147 97.1518 20.1192 97.1888 20.1002C97.2259 20.0812 97.267 20.0716 97.3086 20.0723C103.19 20.0723 103.221 20.1034 103.319 20.2122C103.345 20.2388 103.364 20.2707 103.376 20.3057C103.387 20.3406 103.391 20.3777 103.387 20.4143C103.384 20.4596 103.368 20.5031 103.34 20.5386C103.288 20.6112 102.071 22.2797 100.604 22.3833L100.262 22.3937ZM97.7335 20.5905C98.0361 21.0508 98.4629 21.4159 98.9646 21.6433C99.4663 21.8708 100.022 21.9513 100.568 21.8755C101.402 21.8185 102.185 21.0931 102.604 20.6319C101.635 20.6112 99.402 20.6008 97.7335 20.6008V20.5905Z" fill="#231F20"></path><path d="M111.423 14.2124C111.423 14.2124 113.45 5.51767 109.688 2.14446C105.926 -1.22875 99.7856 0.988967 99.7856 0.988967C99.7856 0.988967 106.688 0.558897 108.112 3.67821C109.537 6.79753 108.392 15.6839 108.392 15.6839L111.423 14.2124Z" fill="white"></path><path d="M108.392 15.9434C108.336 15.9446 108.281 15.9263 108.237 15.8916C108.199 15.8637 108.17 15.8265 108.152 15.7838C108.134 15.741 108.127 15.6942 108.133 15.6481C108.133 15.56 109.252 6.79275 107.879 3.78225C106.542 0.865013 99.8682 1.24327 99.8009 1.24327C99.739 1.24833 99.6775 1.23057 99.6278 1.19333C99.5782 1.1561 99.5439 1.10198 99.5314 1.04119C99.5179 0.98018 99.5273 0.916315 99.5579 0.86182C99.5885 0.807326 99.6381 0.76603 99.6972 0.745836C99.9511 0.652568 106.034 -1.49261 109.864 1.94796C113.693 5.38854 111.76 13.9071 111.672 14.2698C111.664 14.3073 111.648 14.3425 111.624 14.373C111.601 14.4035 111.571 14.4284 111.537 14.446L108.501 15.9175C108.467 15.934 108.43 15.9428 108.392 15.9434ZM101.868 0.740654C104.081 0.870193 107.371 1.43499 108.351 3.5698C109.61 6.33158 108.92 13.3371 108.703 15.2439L111.195 14.0314C111.418 12.9951 112.884 5.35745 109.516 2.33658C107.221 0.274312 103.946 0.383124 101.868 0.740654Z" fill="#231F20"></path><path d="M114.115 17.7267C114.645 14.9923 113.408 12.4526 111.352 12.054C109.297 11.6555 107.2 13.549 106.67 16.2834C106.14 19.0177 107.377 21.5575 109.433 21.956C111.488 22.3546 113.584 20.461 114.115 17.7267Z" fill="white"></path><path d="M109.729 21.8757C109.533 21.8764 109.337 21.8591 109.143 21.8239C106.941 21.4042 105.599 18.7149 106.148 15.8443C106.378 14.5292 107.025 13.3228 107.993 12.4038C108.397 11.9945 108.892 11.6871 109.438 11.507C109.984 11.3268 110.565 11.279 111.133 11.3674C113.33 11.7871 114.672 14.4764 114.123 17.347C113.615 19.9689 111.713 21.8757 109.729 21.8757ZM110.537 11.8493C109.713 11.8767 108.93 12.2112 108.34 12.7872C107.457 13.6318 106.868 14.7381 106.661 15.9428C106.143 18.5336 107.319 20.9482 109.252 21.3109C111.185 21.6736 113.133 19.8652 113.631 17.2693C114.123 14.6785 112.967 12.2638 111.04 11.9011C110.872 11.8596 110.7 11.837 110.527 11.8338L110.537 11.8493Z" fill="#231F20"></path><path d="M102.811 24.5038C102.743 24.5038 102.677 24.4765 102.628 24.4279C102.58 24.3793 102.552 24.3134 102.552 24.2447C102.552 24.176 102.58 24.1101 102.628 24.0615C102.677 24.013 102.743 23.9857 102.811 23.9857C104.651 23.8872 107.78 23.4934 108.319 22.8457C108.941 22.0892 109.356 19.6694 109.449 18.8041C109.453 18.77 109.464 18.7372 109.481 18.7073C109.497 18.6774 109.52 18.6511 109.547 18.63C109.574 18.6088 109.605 18.5931 109.638 18.5839C109.671 18.5747 109.705 18.572 109.739 18.5761C109.773 18.5802 109.806 18.5909 109.836 18.6077C109.866 18.6245 109.892 18.647 109.913 18.6739C109.934 18.7009 109.95 18.7317 109.959 18.7647C109.969 18.7977 109.971 18.8322 109.967 18.8662C109.967 19.001 109.568 22.1462 108.713 23.1721C107.858 24.1981 103.34 24.4675 102.827 24.5038H102.811Z" fill="#231F20"></path><path d="M104.573 23.3166L101.745 23.5719C101.349 23.6077 101.057 23.9567 101.092 24.3515C101.128 24.7462 101.478 25.0372 101.874 25.0014L104.702 24.746C105.098 24.7103 105.391 24.3613 105.355 23.9665C105.319 23.5718 104.969 23.2808 104.573 23.3166Z" fill="white"></path><path d="M101.801 25.2762C101.558 25.2746 101.324 25.1825 101.145 25.0177C100.965 24.853 100.854 24.6274 100.832 24.385C100.814 24.1312 100.895 23.8802 101.06 23.6863C101.225 23.4924 101.46 23.3711 101.713 23.3487L104.547 23.0896C104.806 23.0673 105.063 23.1473 105.262 23.3124C105.41 23.4353 105.518 23.5988 105.573 23.7826C105.629 23.9665 105.629 24.1625 105.573 24.3463C105.518 24.5301 105.41 24.6937 105.263 24.8166C105.115 24.9396 104.935 25.0165 104.744 25.0379L101.91 25.2918L101.801 25.2762ZM104.641 23.587H104.594L101.76 23.8409C101.698 23.8474 101.639 23.8659 101.585 23.8955C101.53 23.9251 101.483 23.9652 101.444 24.0134C101.406 24.0616 101.377 24.117 101.36 24.1763C101.343 24.2357 101.338 24.2978 101.345 24.3591C101.351 24.4194 101.368 24.478 101.396 24.5314C101.425 24.5848 101.464 24.6319 101.511 24.67C101.556 24.7103 101.608 24.7408 101.665 24.7595C101.722 24.7783 101.783 24.7848 101.843 24.7788L104.677 24.5197C104.739 24.5146 104.799 24.497 104.855 24.4679C104.91 24.4388 104.958 24.3988 104.998 24.3504C105.037 24.3019 105.066 24.2461 105.083 24.1861C105.1 24.1262 105.105 24.0634 105.097 24.0016C105.082 23.8809 105.023 23.77 104.931 23.6907C104.849 23.6239 104.746 23.5873 104.641 23.587Z" fill="#231F20"></path><path d="M37.0522 3.51367C28.6839 3.51367 21.896 8.55535 21.896 14.7681C21.896 18.4315 24.2536 21.6855 27.9015 23.7374L31.2902 28.5355V25.1779C33.1584 25.7435 35.1003 26.0281 37.0522 26.0225C45.4204 26.0225 52.2135 20.986 52.2135 14.7681C52.2135 8.55017 45.4204 3.51367 37.0522 3.51367Z" fill="white"></path><path d="M31.2902 28.7939C31.2486 28.7946 31.2075 28.785 31.1704 28.7661C31.1334 28.7471 31.1015 28.7193 31.0778 28.6851L27.7201 23.9492C23.8546 21.7366 21.6421 18.3997 21.6421 14.7674C21.6421 8.4044 28.5543 3.25391 37.0521 3.25391C45.55 3.25391 52.4622 8.43549 52.4622 14.7674C52.4622 21.0993 45.55 26.2809 37.0521 26.2809C35.1906 26.2793 33.3384 26.0177 31.5493 25.5036V28.5141C31.5496 28.5695 31.5322 28.6236 31.4996 28.6683C31.4669 28.7131 31.4208 28.7462 31.3679 28.7629C31.3445 28.7785 31.318 28.7891 31.2902 28.7939ZM37.0521 3.77206C28.8393 3.77206 22.1602 8.70493 22.1602 14.7674C22.1602 18.2494 24.2951 21.4102 28.0258 23.5139C28.0606 23.5306 28.0908 23.5555 28.1139 23.5865L31.0311 27.7317V25.1772C31.0315 25.137 31.0411 25.0975 31.059 25.0616C31.077 25.0257 31.1029 24.9943 31.1348 24.9699C31.1684 24.9467 31.2066 24.931 31.2468 24.9238C31.2871 24.9167 31.3284 24.9183 31.3679 24.9285C33.2157 25.4891 35.1368 25.7703 37.0677 25.7627C45.2805 25.7627 51.9596 20.8298 51.9596 14.7674C51.9596 8.70493 45.265 3.77206 37.0521 3.77206Z" fill="#D1D3D4"></path><path d="M29.7768 16.0478C30.4923 16.0478 31.0722 15.4679 31.0722 14.7524C31.0722 14.037 30.4923 13.457 29.7768 13.457C29.0614 13.457 28.4814 14.037 28.4814 14.7524C28.4814 15.4679 29.0614 16.0478 29.7768 16.0478Z" fill="#D1D3D4"></path><path d="M37.0517 16.0478C37.7672 16.0478 38.3471 15.4679 38.3471 14.7524C38.3471 14.037 37.7672 13.457 37.0517 13.457C36.3363 13.457 35.7563 14.037 35.7563 14.7524C35.7563 15.4679 36.3363 16.0478 37.0517 16.0478Z" fill="#D1D3D4"></path><path d="M44.3218 16.0478C45.0372 16.0478 45.6172 15.4679 45.6172 14.7524C45.6172 14.037 45.0372 13.457 44.3218 13.457C43.6063 13.457 43.0264 14.037 43.0264 14.7524C43.0264 15.4679 43.6063 16.0478 44.3218 16.0478Z" fill="#D1D3D4"></path><path d="M129.937 46.1879H129.911C129.841 46.1801 129.777 46.1455 129.731 46.0915C129.686 46.0375 129.663 45.9681 129.668 45.8977C130.704 33.8713 134.823 29.5757 134.994 29.3996C135.045 29.3582 135.11 29.3371 135.176 29.3401C135.242 29.3432 135.304 29.3702 135.351 29.4162C135.398 29.4621 135.427 29.5237 135.432 29.5894C135.437 29.6551 135.418 29.7203 135.378 29.7726C135.336 29.8141 131.232 34.1407 130.196 45.9444C130.191 46.0099 130.162 46.0712 130.114 46.1162C130.066 46.1613 130.003 46.1868 129.937 46.1879Z" fill="white"></path></svg>