<svg xmlns="http://www.w3.org/2000/svg" width="141" height="103" viewBox="0 0 141 103" fill="none"><path d="M135.69 98.7983H5.41382C5.35379 98.7983 5.29623 98.7745 5.25379 98.732C5.21134 98.6896 5.1875 98.632 5.1875 98.572C5.1875 98.512 5.21134 98.4544 5.25379 98.412C5.29623 98.3695 5.35379 98.3457 5.41382 98.3457H135.69C135.75 98.3457 135.808 98.3695 135.85 98.412C135.893 98.4544 135.916 98.512 135.916 98.572C135.916 98.632 135.893 98.6896 135.85 98.732C135.808 98.7745 135.75 98.7983 135.69 98.7983Z" fill="#D1D3D4"></path><path d="M131.435 5.35352H5.92493C2.78266 5.35352 0.235352 7.90081 0.235352 11.0431V74.9406C0.235352 78.0829 2.78266 80.6302 5.92493 80.6302H131.435C134.577 80.6302 137.125 78.0829 137.125 74.9406V11.0431C137.125 7.90081 134.577 5.35352 131.435 5.35352Z" fill="white"></path><path d="M131.435 80.8646H5.92494C4.35392 80.8634 2.84758 80.2388 1.7367 79.1279C0.625816 78.017 0.0011988 76.5107 0 74.9397V11.0421C0.0011988 9.47108 0.625816 7.96475 1.7367 6.85388C2.84758 5.743 4.35392 5.11839 5.92494 5.11719H131.435C133.006 5.11839 134.512 5.743 135.623 6.85388C136.734 7.96475 137.359 9.47108 137.36 11.0421V74.9397C137.359 76.5107 136.734 78.017 135.623 79.1279C134.512 80.2388 133.006 80.8634 131.435 80.8646ZM5.92494 5.58339C4.47798 5.58459 3.09069 6.16023 2.06796 7.18381C1.04523 8.20738 0.470735 9.59514 0.470735 11.0421V74.9397C0.47791 76.3819 1.05557 77.7627 2.07753 78.7804C3.09948 79.7981 4.48268 80.37 5.92494 80.3712H131.435C132.873 80.3641 134.251 79.7895 135.268 78.7725C136.285 77.7554 136.86 76.378 136.867 74.9397V11.0421C136.867 9.59905 136.295 8.21471 135.277 7.19178C134.26 6.16885 132.878 5.59057 131.435 5.58339H5.92494Z" fill="#231F20"></path><path d="M137.125 13.9141H0.235352V72.0587H137.125V13.9141Z" fill="white"></path><path d="M137.125 72.2945H0.235369C0.204675 72.2951 0.174169 72.2896 0.145638 72.2782C0.117106 72.2669 0.0911216 72.25 0.0692042 72.2285C0.0472868 72.207 0.0298764 72.1814 0.0179934 72.1531C0.00611053 72.1247 -5.89775e-06 72.0944 4.26726e-09 72.0637V13.9145C-5.89775e-06 13.8838 0.00611053 13.8534 0.0179934 13.8251C0.0298764 13.7968 0.0472868 13.7711 0.0692042 13.7496C0.0911216 13.7281 0.117106 13.7112 0.145638 13.6999C0.174169 13.6886 0.204675 13.683 0.235369 13.6836H137.125C137.155 13.683 137.186 13.6886 137.214 13.6999C137.243 13.7112 137.269 13.7281 137.291 13.7496C137.313 13.7711 137.33 13.7968 137.342 13.8251C137.354 13.8534 137.36 13.8838 137.36 13.9145V72.0637C137.36 72.0944 137.354 72.1247 137.342 72.1531C137.33 72.1814 137.313 72.207 137.291 72.2285C137.269 72.25 137.243 72.2669 137.214 72.2782C137.186 72.2896 137.155 72.2951 137.125 72.2945ZM0.470735 71.8419H136.889V14.1498H0.470735V71.8419Z" fill="#231F20"></path><path d="M92.6128 97.1227H44.7471L50.1605 80.6289H87.1994L92.6128 97.1227Z" fill="white"></path><path d="M92.6132 97.3551H44.7475C44.7107 97.3552 44.6745 97.3462 44.6421 97.3288C44.6097 97.3114 44.5822 97.2862 44.5619 97.2556C44.5394 97.2264 44.5243 97.1922 44.518 97.1559C44.5117 97.1197 44.5143 97.0824 44.5257 97.0474L49.9573 80.5536C49.9725 80.5066 50.0021 80.4655 50.0419 80.4363C50.0817 80.4071 50.1297 80.3911 50.1791 80.3906H87.2179C87.2673 80.3911 87.3153 80.4071 87.3551 80.4363C87.3949 80.4655 87.4245 80.5066 87.4397 80.5536L92.8712 97.0474C92.8826 97.0824 92.8852 97.1197 92.8789 97.1559C92.8726 97.1922 92.8576 97.2264 92.835 97.2556C92.8118 97.2919 92.7784 97.3208 92.739 97.3384C92.6996 97.3561 92.6559 97.3619 92.6132 97.3551ZM45.0869 96.9025H92.2873L87.0323 80.8795H50.3284L45.0869 96.9025Z" fill="#231F20"></path><path d="M96.5643 97.123H40.7956C39.5132 97.123 38.4736 98.1626 38.4736 99.445C38.4736 100.727 39.5132 101.767 40.7956 101.767H96.5643C97.8467 101.767 98.8863 100.727 98.8863 99.445C98.8863 98.1626 97.8467 97.123 96.5643 97.123Z" fill="white"></path><path d="M96.5644 102.001H40.7957C40.1174 102.001 39.4669 101.732 38.9873 101.252C38.5077 100.773 38.2383 100.122 38.2383 99.4441C38.2383 98.7658 38.5077 98.1153 38.9873 97.6357C39.4669 97.1562 40.1174 96.8867 40.7957 96.8867H96.5644C97.2426 96.8867 97.8931 97.1562 98.3727 97.6357C98.8523 98.1153 99.1217 98.7658 99.1217 99.4441C99.1217 100.122 98.8523 100.773 98.3727 101.252C97.8931 101.732 97.2426 102.001 96.5644 102.001ZM40.7957 97.3574C40.2422 97.3574 39.7115 97.5773 39.3202 97.9686C38.9289 98.3599 38.709 98.8907 38.709 99.4441C38.709 99.9975 38.9289 100.528 39.3202 100.92C39.7115 101.311 40.2422 101.531 40.7957 101.531H96.5644C97.1178 101.531 97.6485 101.311 98.0398 100.92C98.4312 100.528 98.651 99.9975 98.651 99.4441C98.651 98.8907 98.4312 98.3599 98.0398 97.9686C97.6485 97.5773 97.1178 97.3574 96.5644 97.3574H40.7957Z" fill="#231F20"></path><path d="M46.3496 92.7503C47.1236 92.3429 88.5575 84.7705 88.5575 84.7705L87.1996 80.6289H50.1427L46.3496 92.7503Z" fill="#231F20"></path><path d="M46.3586 92.9738C46.3025 92.9746 46.2479 92.9554 46.2047 92.9195C46.1725 92.8906 46.149 92.8532 46.137 92.8115C46.125 92.7699 46.1249 92.7258 46.1368 92.6841L49.9435 80.5627C49.958 80.5166 49.9869 80.4763 50.026 80.4477C50.0651 80.4192 50.1123 80.404 50.1607 80.4043H87.1995C87.2472 80.4044 87.2937 80.4192 87.3326 80.4468C87.3715 80.4743 87.4009 80.5132 87.4168 80.5582L88.7747 84.6997C88.7881 84.7288 88.795 84.7605 88.795 84.7925C88.795 84.8246 88.7881 84.8562 88.7747 84.8853C88.7584 84.9134 88.7362 84.9377 88.7096 84.9564C88.683 84.9752 88.6528 84.988 88.6208 84.994C74.4127 87.592 47.3137 92.5981 46.4718 92.9557C46.4366 92.9724 46.3973 92.9787 46.3586 92.9738ZM50.3237 80.8569L46.7026 92.4306C50.9392 91.4303 83.2798 85.5099 88.2768 84.5956L87.0502 80.8569H50.3237Z" fill="#231F20"></path><path d="M88.5348 25.3141C88.5348 25.3141 61.5353 18.6967 53.1481 25.3141C44.7608 31.9316 36.2559 39.3003 36.2559 39.3003L42.9548 52.3632L53.311 43.8402L48.7847 66.4173L84.3344 66.9333L86.3395 46.4292C86.3395 46.4292 90.0058 58.6095 93.9618 59.1028C97.9178 59.5962 104.734 54.2416 101.005 45.524C97.2751 36.8064 88.5348 25.3141 88.5348 25.3141Z" fill="#007456"></path><path d="M109.754 39.9109C110.11 40.6094 110.266 41.3924 110.207 42.174C110.11 42.9104 109.882 43.6233 109.532 44.2787C107.794 48.0853 106.052 51.8874 104.101 55.5944C102.951 57.7806 100.991 60.2927 98.2981 60.5372C95.9715 60.7544 92.0472 58.5592 91.5086 56.1919C90.7934 53.0235 94.9531 49.2712 96.7048 46.9673C99.0585 43.8759 101.399 40.5445 104.114 37.7564C105.604 36.231 106.106 36.0862 107.767 37.53C108.578 38.1872 109.253 38.9959 109.754 39.9109Z" fill="white"></path><path d="M97.9266 60.7901C95.0841 60.7901 91.7617 58.2645 91.3091 56.2638C90.7162 53.6386 93.2102 50.7599 95.2108 48.4469C95.7132 47.8676 96.1839 47.3199 96.546 46.8446C96.9987 46.2336 97.4785 45.609 97.9492 44.9843C99.7967 42.3996 101.809 39.9367 103.974 37.611C105.531 36.0132 106.16 35.8005 107.948 37.3711C108.774 38.0489 109.458 38.8825 109.962 39.8244C110.342 40.5608 110.515 41.3871 110.46 42.2142C110.357 42.9782 110.121 43.7181 109.763 44.4004C108.052 48.1482 106.282 52.0182 104.331 55.7162C103.399 57.4905 101.38 60.505 98.3385 60.7856C98.2013 60.794 98.0639 60.7955 97.9266 60.7901ZM106.002 36.7646C105.504 36.7646 105.051 37.1584 104.309 37.9188C102.157 40.23 100.157 42.6778 98.3204 45.2469L96.9172 47.1117C96.5461 47.596 96.0708 48.1482 95.5593 48.7321C93.6266 50.9681 91.2186 53.7517 91.7572 56.1416C92.2551 58.3505 96.0844 60.505 98.2932 60.3058C101.113 60.0478 103.023 57.1736 103.915 55.4853C105.857 51.7919 107.622 47.9264 109.346 44.1696C109.684 43.5362 109.906 42.8482 110.003 42.1373C110.051 41.3942 109.894 40.6522 109.55 39.9918C109.076 39.1039 108.43 38.3192 107.649 37.6834C106.907 37.0679 106.436 36.7646 106.002 36.7646Z" fill="#231F20"></path><path d="M96.981 33.0671L104.006 46.6821C104.635 47.8952 105.952 48.375 107.038 47.7775L110.343 45.9308C111.506 45.2926 111.977 43.6676 111.388 42.3097L106.862 31.8993L109.293 28.8848C109.293 28.8848 97.9043 32.3926 96.981 33.0671Z" fill="white"></path><path d="M106.038 48.2656C105.811 48.2639 105.586 48.2304 105.368 48.1661C105.025 48.0527 104.709 47.8723 104.437 47.6352C104.165 47.3982 103.943 47.1094 103.784 46.7855L96.7634 33.175C96.7386 33.1246 96.7323 33.0671 96.7455 33.0125C96.7588 32.9579 96.7907 32.9097 96.8359 32.8763C97.7411 32.2019 108.066 29.047 109.238 28.6895C109.285 28.6736 109.336 28.6738 109.383 28.6902C109.429 28.7067 109.469 28.7382 109.496 28.78C109.526 28.8199 109.542 28.8683 109.542 28.918C109.542 28.9678 109.526 29.0162 109.496 29.0561L107.174 31.962L111.646 42.2412C112.28 43.6986 111.764 45.4503 110.496 46.1473L107.16 47.9805C106.817 48.1713 106.43 48.2696 106.038 48.2656ZM97.293 33.1569L104.2 46.5728C104.33 46.8414 104.512 47.0811 104.736 47.2779C104.96 47.4746 105.221 47.6243 105.504 47.718C105.737 47.7895 105.982 47.8132 106.225 47.7875C106.468 47.7619 106.703 47.6874 106.916 47.5686L110.252 45.7581C111.311 45.1742 111.732 43.6896 111.193 42.4448L106.667 32.0344C106.651 31.9952 106.645 31.9523 106.65 31.9102C106.656 31.868 106.673 31.8281 106.699 31.7945L108.654 29.3729C105.291 30.3913 98.574 32.5051 97.293 33.1569Z" fill="#231F20"></path><path d="M92.1464 20.582L88.9463 21.6004C88.9463 21.6004 87.5884 30.4267 93.6219 33.5996L96.7134 32.5088L92.1464 20.582Z" fill="#231F20"></path><path d="M93.6222 33.8416C93.5857 33.8418 93.5498 33.8324 93.5181 33.8144C87.4302 30.6053 88.7112 21.6749 88.7248 21.5934C88.7311 21.552 88.7489 21.5131 88.776 21.4811C88.8032 21.4491 88.8387 21.4253 88.8786 21.4124L92.0787 20.3894C92.1334 20.372 92.1927 20.3764 92.2442 20.4017C92.2957 20.427 92.3353 20.4713 92.3549 20.5252L96.9264 32.4565C96.9372 32.4844 96.9421 32.5142 96.9411 32.544C96.94 32.5739 96.9329 32.6032 96.9203 32.6303C96.9076 32.6573 96.8896 32.6816 96.8673 32.7015C96.845 32.7214 96.8189 32.7366 96.7906 32.7462L93.6992 33.837C93.674 33.8432 93.6479 33.8448 93.6222 33.8416ZM89.1502 21.7881C89.019 22.9061 88.34 30.4876 93.6449 33.3708L96.424 32.3886L92.0109 20.8738L89.1502 21.7881Z" fill="#231F20"></path><path d="M127.597 1.72656C127.597 1.72656 122.957 8.14031 113.461 12.4041C105.232 16.0975 91.486 19.714 91.486 19.714C91.486 19.714 88.4352 28.5674 95.9082 33.7455C95.9082 33.7455 108.618 30.3101 114.421 29.3188C121.885 28.0424 136.758 31.5819 136.758 31.5819L127.597 1.72656Z" fill="white"></path><path d="M95.9084 33.9848C95.8611 33.983 95.8155 33.9672 95.7771 33.9395C88.2408 28.7207 91.2508 19.727 91.2508 19.6365C91.2637 19.6001 91.2852 19.5675 91.3136 19.5415C91.3421 19.5154 91.3764 19.4968 91.4137 19.4871C91.5495 19.4509 105.237 15.8344 113.353 12.1907C122.682 7.99939 127.348 1.65354 127.384 1.59018C127.41 1.55467 127.446 1.52702 127.486 1.51026C127.527 1.49349 127.572 1.48826 127.615 1.49512C127.658 1.50243 127.698 1.52153 127.731 1.5503C127.764 1.57907 127.788 1.61638 127.801 1.65807L136.958 31.4908C136.97 31.5303 136.972 31.5723 136.963 31.6128C136.954 31.6532 136.935 31.6907 136.908 31.7217C136.879 31.7508 136.843 31.7723 136.803 31.7842C136.764 31.796 136.722 31.7979 136.681 31.7895C136.532 31.7533 121.772 28.2998 114.439 29.5536C108.713 30.5312 96.0759 33.9395 95.9491 33.9757L95.9084 33.9848ZM91.6717 19.9035C91.3549 20.9536 89.2773 28.7886 95.9536 33.4824C97.1938 33.1474 108.912 30.0152 114.385 29.0783C121.124 27.9241 133.997 30.6851 136.414 31.2283L127.507 2.22385C123.702 6.70251 118.933 10.2616 113.556 12.6343C105.816 16.0879 93.0704 19.5324 91.6717 19.9035Z" fill="#231F20"></path><path d="M137.627 31.4458C135.043 32.2017 131.684 28.9337 129.136 23.6515C128.277 21.8456 127.566 19.9731 127.009 18.0525C126.455 16.1841 126.053 14.2738 125.809 12.3403C125.067 6.45615 126.131 1.81671 128.738 1.05176C132.146 0.0559809 136.885 6.03068 139.352 14.4405C141.819 22.8504 141.036 30.459 137.627 31.4458Z" fill="#231F20"></path><path d="M136.871 31.7901C134.373 31.7901 131.354 28.7756 128.937 23.765C128.07 21.9479 127.352 20.0633 126.791 18.1298C126.235 16.2492 125.831 14.3269 125.583 12.3814C124.8 6.15324 126.013 1.62696 128.674 0.848437C132.259 -0.201661 137.043 5.75493 139.569 14.3911C142.059 22.8869 141.217 30.6404 137.691 31.677C137.424 31.7535 137.149 31.7916 136.871 31.7901ZM129.521 1.17886C129.277 1.17885 129.035 1.21391 128.801 1.28296C126.402 1.98453 125.289 6.42029 126.031 12.3226C126.274 14.2455 126.673 16.1453 127.226 18.0031C127.783 19.9135 128.494 21.7754 129.353 23.5704C131.902 28.8526 135.21 31.935 137.578 31.2651C140.864 30.301 141.57 22.8009 139.148 14.5405C136.894 6.85029 132.734 1.17886 129.521 1.17886Z" fill="#231F20"></path><path d="M91.486 19.7123C91.486 19.7123 88.4352 28.5657 95.9082 33.7438C95.9082 33.7438 104.463 31.4309 110.736 30.0549C109.455 28.7513 107.885 26.3931 107.115 22.2697C106.622 19.9031 106.469 17.4781 106.663 15.0684C99.2712 17.6619 91.486 19.7123 91.486 19.7123Z" fill="white"></path><path d="M95.9084 33.9855C95.8611 33.9837 95.8155 33.968 95.7771 33.9403C88.2408 28.7215 91.2508 19.7278 91.2508 19.6372C91.2637 19.6009 91.2852 19.5683 91.3136 19.5422C91.3421 19.5162 91.3764 19.4975 91.4137 19.4879C91.4907 19.4879 99.2759 17.4103 106.545 14.8575C106.582 14.8441 106.622 14.8404 106.661 14.8468C106.7 14.8531 106.736 14.8693 106.767 14.8937C106.797 14.918 106.82 14.9493 106.835 14.9848C106.85 15.0203 106.856 15.059 106.853 15.0974C106.665 17.4846 106.817 19.8865 107.306 22.2308C108.098 26.3678 109.686 28.6853 110.881 29.8983C110.91 29.9283 110.931 29.9654 110.942 30.0059C110.952 30.0464 110.951 30.0889 110.94 30.1292C110.929 30.1687 110.907 30.2044 110.876 30.2323C110.846 30.2602 110.809 30.2793 110.768 30.2876C104.567 31.6455 96.0351 33.9539 95.9491 33.9765L95.9084 33.9855ZM91.6717 19.9043C91.3549 20.9544 89.2773 28.7894 95.9536 33.4831C96.9358 33.2206 104.495 31.22 110.288 29.9074C109.089 28.5812 107.622 26.2366 106.867 22.3032C106.399 20.0341 106.232 17.7134 106.369 15.4006C99.6878 17.7452 92.6902 19.6372 91.6717 19.9043Z" fill="#231F20"></path><path d="M133.671 21.9156L129.145 23.6672C128.286 21.8613 127.574 19.9889 127.017 18.0682C126.463 16.1999 126.062 14.2895 125.818 12.3561L130.711 11.6816L133.671 21.9156Z" fill="white"></path><path d="M129.135 23.9018C129.092 23.9013 129.049 23.8887 129.013 23.8655C128.976 23.8424 128.946 23.8095 128.927 23.7705C128.062 21.9526 127.345 20.0682 126.782 18.1353C126.225 16.2532 125.821 14.3294 125.573 12.3824C125.567 12.3213 125.584 12.2601 125.622 12.2119C125.66 12.1637 125.716 12.1323 125.777 12.1244L130.67 11.45C130.726 11.4413 130.783 11.4536 130.831 11.4845C130.878 11.5154 130.913 11.5627 130.928 11.6174L133.879 21.8469C133.894 21.9033 133.889 21.9635 133.863 22.016C133.837 22.0685 133.793 22.1098 133.739 22.132L129.212 23.8837C129.188 23.8952 129.162 23.9013 129.135 23.9018ZM126.066 12.5544C126.315 14.3919 126.704 16.2077 127.23 17.9859C127.764 19.8251 128.44 21.6199 129.253 23.3541L133.385 21.7563L130.534 11.9207L126.066 12.5544Z" fill="#231F20"></path><path d="M133.675 21.9219C134.503 21.6815 134.509 19.1959 133.689 16.3704C132.868 13.5448 131.532 11.4491 130.704 11.6896C129.876 11.9301 129.869 14.4156 130.69 17.2412C131.51 20.0667 132.846 22.1624 133.675 21.9219Z" fill="white"></path><path d="M133.54 22.1666C133.087 22.1666 132.535 21.7139 131.983 20.8449C131.317 19.7366 130.806 18.5427 130.462 17.2963C129.711 14.7072 129.516 11.7787 130.639 11.4574C131.155 11.3035 131.761 11.7516 132.395 12.7428C133.059 13.853 133.569 15.0483 133.911 16.296C134.663 18.885 134.857 21.809 133.739 22.1349C133.674 22.1542 133.608 22.1649 133.54 22.1666ZM130.824 11.8964C130.8 11.8917 130.776 11.8917 130.752 11.8964C130.222 12.0503 130.019 14.1279 130.901 17.156C131.235 18.36 131.731 19.5128 132.377 20.5824C132.952 21.4876 133.391 21.7366 133.608 21.6732C134.142 21.5193 134.341 19.4417 133.463 16.4136C133.135 15.2084 132.643 14.054 132.001 12.9827C131.481 12.1816 131.073 11.8964 130.838 11.8964H130.824Z" fill="#231F20"></path><path d="M105.839 34.8814C105.305 34.8964 104.79 35.0767 104.363 35.3974C103.974 35.7595 103.91 36.5018 104.363 36.7553C104.512 36.8301 104.676 36.8718 104.843 36.8775C105.537 36.9452 106.238 36.9055 106.92 36.7598C106.33 37.0382 105.818 37.4599 105.431 37.9864C105.342 38.0875 105.294 38.2182 105.295 38.3531C105.327 38.6065 105.639 38.697 105.888 38.7061C106.522 38.7359 107.155 38.623 107.74 38.3757C107.347 38.4601 106.978 38.6335 106.662 38.8826C105.843 39.6385 106.59 40.2405 107.314 40.1726C108.541 40.0414 110.994 41.3811 110.994 41.3811C110.994 41.3811 111.637 40.0685 111.587 39.4031C111.501 38.7035 111.341 38.0147 111.112 37.3482C110.736 36.0401 110.256 34.5419 109.333 33.5054C107.975 31.9846 103.652 31.9936 103.634 34.6189C104.343 34.8586 105.094 34.948 105.839 34.8814Z" fill="white"></path><path d="M110.999 41.6271C110.959 41.6273 110.919 41.6164 110.885 41.5954C110.863 41.5954 108.482 40.2963 107.341 40.414C107.108 40.4512 106.868 40.4171 106.654 40.3162C106.44 40.2153 106.262 40.0522 106.142 39.8482C106.078 39.6981 106.059 39.5328 106.087 39.3722C106.116 39.2117 106.189 39.0626 106.3 38.943C106.16 38.943 106.024 38.943 105.884 38.943C105.431 38.943 105.105 38.7076 105.069 38.3863C105.063 38.2897 105.075 38.1928 105.106 38.1011C105.137 38.0094 105.186 37.9248 105.25 37.8522C105.442 37.586 105.665 37.3443 105.916 37.1325C105.553 37.1619 105.188 37.1619 104.825 37.1325C104.624 37.1268 104.428 37.0757 104.25 36.9831C104.125 36.9124 104.019 36.8132 103.941 36.6936C103.862 36.574 103.813 36.4374 103.797 36.2951C103.778 36.1021 103.803 35.9074 103.869 35.725C103.934 35.5426 104.04 35.3771 104.177 35.2405C104.244 35.1823 104.313 35.1279 104.386 35.0775C104.095 35.0347 103.81 34.9619 103.535 34.8603C103.49 34.8434 103.451 34.813 103.425 34.7732C103.398 34.7335 103.384 34.6864 103.385 34.6385C103.385 34.1641 103.539 33.7024 103.823 33.3222C104.106 32.9421 104.506 32.664 104.96 32.5292C106.463 31.9589 108.582 32.3572 109.487 33.3711C110.392 34.385 110.931 35.9647 111.297 37.309L111.379 37.5896C111.574 38.178 111.709 38.7846 111.782 39.4001C111.831 40.1108 111.234 41.36 111.162 41.5003C111.148 41.528 111.129 41.5527 111.106 41.5729C111.082 41.5932 111.055 41.6085 111.026 41.618C111.017 41.6217 111.008 41.6247 110.999 41.6271ZM107.491 39.9388C108.586 39.9388 110.283 40.758 110.89 41.0703C111.14 40.5549 111.293 39.998 111.343 39.4273C111.275 38.8435 111.146 38.2685 110.958 37.7118L110.876 37.4222C110.505 36.1276 110.03 34.6657 109.143 33.6699C108.364 32.7963 106.454 32.4523 105.132 32.9502C104.795 33.0493 104.494 33.2463 104.269 33.5162C104.043 33.786 103.903 34.1168 103.865 34.4665C104.496 34.6459 105.154 34.7073 105.807 34.6475C105.858 34.6565 105.904 34.682 105.939 34.7201C105.974 34.7582 105.996 34.8067 106.001 34.8583C106.005 34.9098 105.993 34.9614 105.965 35.0051C105.937 35.0489 105.896 35.0823 105.848 35.1002C105.359 35.107 104.885 35.2652 104.49 35.5528C104.404 35.6378 104.339 35.7408 104.298 35.8543C104.257 35.9679 104.242 36.0891 104.254 36.2091C104.258 36.2769 104.278 36.3427 104.313 36.401C104.348 36.4593 104.396 36.5084 104.454 36.5441C104.573 36.6038 104.705 36.6362 104.838 36.6391C105.51 36.7034 106.188 36.6652 106.848 36.526C106.908 36.5067 106.973 36.5122 107.029 36.541C107.085 36.5699 107.127 36.6198 107.147 36.6798C107.166 36.7399 107.16 36.8051 107.132 36.8611C107.103 36.9171 107.053 36.9594 106.993 36.9786C106.437 37.2372 105.956 37.6328 105.594 38.1283C105.567 38.1645 105.49 38.2731 105.499 38.3319C105.508 38.3908 105.676 38.4723 105.875 38.4813C106.277 38.498 106.68 38.4553 107.07 38.3546C107.257 38.2769 107.449 38.2104 107.645 38.1554C107.702 38.14 107.764 38.1463 107.817 38.173C107.87 38.1996 107.912 38.2449 107.934 38.3003C107.954 38.3568 107.951 38.4187 107.927 38.4733C107.902 38.528 107.858 38.5713 107.803 38.5945C107.613 38.6758 107.418 38.7438 107.219 38.7981C107.063 38.8605 106.919 38.9493 106.794 39.0607C106.658 39.1874 106.441 39.4364 106.536 39.6491C106.616 39.7623 106.726 39.8504 106.855 39.9033C106.983 39.9562 107.123 39.9716 107.26 39.9478C107.336 39.9386 107.414 39.9355 107.491 39.9388Z" fill="#231F20"></path><path d="M78.2961 31.7378L69.7912 52.8892L67.2021 28.6328L78.2961 31.7378Z" fill="#231F20"></path><path d="M69.7909 53.1134H69.7592C69.7095 53.1059 69.6636 53.0824 69.6284 53.0464C69.5933 53.0105 69.5709 52.9641 69.5645 52.9142L66.9755 28.6533C66.9722 28.6167 66.978 28.5798 66.9922 28.5459C67.0064 28.512 67.0286 28.4821 67.057 28.4587C67.0842 28.4343 67.1172 28.4173 67.1529 28.4094C67.1886 28.4014 67.2257 28.4028 67.2607 28.4134L78.3592 31.5185C78.3895 31.5272 78.4176 31.5422 78.4418 31.5625C78.4659 31.5827 78.4856 31.6078 78.4995 31.6361C78.5118 31.6655 78.5182 31.6971 78.5182 31.7289C78.5182 31.7608 78.5118 31.7923 78.4995 31.8217L69.99 52.973C69.9737 53.013 69.9462 53.0474 69.9109 53.0723C69.8756 53.0971 69.834 53.1114 69.7909 53.1134ZM67.4598 28.9339L69.9176 51.9682L77.9925 31.8987L67.4598 28.9339Z" fill="#231F20"></path><path d="M69.1848 3.41249C69.7161 3.34395 70.2557 3.43679 70.7336 3.67895C71.2114 3.92111 71.6054 4.30139 71.8644 4.77038C71.8883 4.32779 72.0302 3.89966 72.2753 3.53038C72.5205 3.1611 72.8599 2.8641 73.2585 2.67018C74.0609 2.29245 74.9337 2.08736 75.8203 2.06818C77.049 1.93032 78.2924 2.01465 79.4912 2.31713C82.5646 3.22239 84.4475 6.35458 85.3754 9.4234C85.8642 11.0574 86.2399 13.316 85.226 14.8549C84.2936 16.2717 81.605 17.2403 80.0977 17.9102C77.916 18.8698 75.5714 19.5623 73.177 19.3993C66.8809 18.9739 63.6491 12.5194 65.6226 6.84794C66.0752 5.51721 66.9307 4.23175 68.2207 3.67954C68.5247 3.53688 68.8507 3.4466 69.1848 3.41249Z" fill="white"></path><path d="M73.8602 19.642C73.6248 19.642 73.3849 19.642 73.1495 19.642C71.8023 19.5625 70.4926 19.1671 69.3265 18.4878C68.1604 17.8084 67.1705 16.8641 66.437 15.7313C65.5932 14.4149 65.0622 12.9226 64.8849 11.369C64.7075 9.81547 64.8886 8.24194 65.4141 6.76923C65.9753 5.15335 66.944 3.97199 68.1298 3.44694C68.4637 3.30501 68.8183 3.21789 69.1799 3.18894C69.6508 3.13881 70.1269 3.19947 70.5701 3.36608C71.0134 3.53269 71.4115 3.80063 71.7328 4.14851C71.9707 3.42527 72.4826 2.82405 73.1586 2.47379C73.9881 2.07829 74.8922 1.86382 75.811 1.84463C77.0687 1.70681 78.3408 1.79417 79.5678 2.10263C82.2565 2.90378 84.4517 5.54713 85.5924 9.34469C86.0948 11.0239 86.4705 13.364 85.4158 14.9573C84.5694 16.2382 82.4285 17.1435 80.8624 17.8043L80.1879 18.094C78.2095 19.045 76.0542 19.5723 73.8602 19.642ZM69.2026 3.64157C68.8904 3.66331 68.5842 3.73833 68.2973 3.86336C66.8444 4.50156 66.1202 6.04955 65.8214 6.91407C65.3171 8.32149 65.1425 9.8259 65.3113 11.3114C65.48 12.7969 65.9875 14.2239 66.7946 15.4823C67.494 16.5547 68.4364 17.4472 69.5453 18.0873C70.6541 18.7275 71.8982 19.0973 73.1767 19.1667C75.1999 19.307 77.4314 18.8227 79.9933 17.7002C80.2015 17.6052 80.4459 17.5101 80.6768 17.406C82.1841 16.7678 84.2526 15.8942 85.0266 14.7264C85.9816 13.278 85.6195 11.0783 85.1443 9.48953C84.6237 7.75596 83.0305 3.60536 79.423 2.53716C78.2491 2.24256 77.0318 2.16131 75.8291 2.29726C74.9756 2.31407 74.1352 2.50991 73.3623 2.8721C73.0003 3.04647 72.6913 3.31405 72.467 3.64735C72.2427 3.98065 72.1111 4.36765 72.0858 4.76861C72.0869 4.82037 72.0699 4.87088 72.0376 4.91139C72.0054 4.9519 71.96 4.97985 71.9093 4.9904C71.8595 5.0025 71.8069 4.99693 71.7607 4.97464C71.7145 4.95236 71.6774 4.91474 71.6558 4.86819C71.2032 3.9222 70.1033 3.56915 69.1981 3.64157H69.2026Z" fill="#231F20"></path><path d="M78.0198 25.0692L78.2959 31.7364C78.2959 31.7364 75.6118 35.5068 71.5064 33.7641C67.401 32.0215 67.2109 28.6313 67.2109 28.6313L68.5326 15.9215C68.5326 15.9215 71.9907 14.7537 72.1944 7.69727C75.4456 9.78169 79.1979 10.9527 83.0576 11.0875C83.0576 11.0875 83.7727 18.8908 82.7317 22.1225C81.6906 25.3543 78.0198 25.0692 78.0198 25.0692Z" fill="white"></path><path d="M73.6428 34.4475C72.8748 34.4471 72.1146 34.2932 71.4068 33.9949C67.211 32.2161 66.9846 28.8078 66.9756 28.663L68.2973 15.9215C68.302 15.8784 68.319 15.8375 68.3463 15.8038C68.3736 15.7701 68.41 15.745 68.4512 15.7314C68.4828 15.7314 71.7599 14.5002 71.9591 7.71531C71.9601 7.67432 71.9725 7.63444 71.9949 7.60008C72.0173 7.56572 72.0487 7.53824 72.0858 7.52068C72.1206 7.49949 72.1605 7.48828 72.2012 7.48828C72.2419 7.48828 72.2819 7.49949 72.3166 7.52068C75.5401 9.57248 79.2526 10.7272 83.0712 10.8656C83.1259 10.8675 83.1781 10.8892 83.218 10.9267C83.258 10.9641 83.283 11.0148 83.2884 11.0693C83.3201 11.3907 83.99 18.9586 82.9218 22.1994C81.9848 25.051 79.1287 25.2954 78.2552 25.3045L78.5222 31.7318C78.5269 31.782 78.5123 31.8322 78.4815 31.8721C78.4588 31.8993 76.6031 34.4475 73.6428 34.4475ZM68.7318 16.0799L67.4282 28.6539C67.4282 28.749 67.6591 31.8902 71.5834 33.5559C75.2452 35.1039 77.6984 32.1527 78.0696 31.6684L77.7935 25.0781C77.7927 25.0141 77.8171 24.9524 77.8614 24.9061C77.8849 24.884 77.9127 24.867 77.943 24.8561C77.9734 24.8452 78.0057 24.8407 78.0379 24.8428C78.1827 24.8428 81.496 25.0736 82.4918 22.0546C83.4378 19.1849 82.9444 12.5494 82.8539 11.3047C79.1572 11.1249 75.5637 10.0266 72.3981 8.1091C72.1039 14.1879 69.3926 15.7812 68.7318 16.0799Z" fill="#231F20"></path><path d="M70.3117 19.2758C69.8709 19.3887 69.4121 19.4137 68.9617 19.3492C68.5112 19.2848 68.0779 19.1321 67.6864 18.9001C67.1514 18.5538 66.7141 18.0761 66.4162 17.5128C66.1182 16.9494 65.9696 16.319 65.9845 15.6819C65.9624 15.2175 66.0428 14.7539 66.2199 14.324C66.3146 14.1103 66.4535 13.9191 66.6275 13.7631C66.8015 13.607 67.0066 13.4897 67.2293 13.4188C67.7944 13.3275 68.3738 13.4212 68.8814 13.6858C69.6644 13.9936 69.7142 14.4236 70.2031 15.012C70.1488 14.9577 70.099 14.7993 70.0492 14.745" fill="white"></path><path d="M69.4558 19.6106C68.7932 19.6106 68.1428 19.4324 67.5728 19.0946C67.0036 18.73 66.5379 18.2248 66.2208 17.6278C65.9037 17.0308 65.7458 16.3621 65.7623 15.6863C65.7346 15.1798 65.8229 14.6736 66.0203 14.2063C66.1267 13.959 66.2847 13.7375 66.4838 13.5563C66.6829 13.3752 66.9184 13.2388 67.1745 13.1561C67.792 13.0483 68.4278 13.1453 68.985 13.4323C69.4444 13.6042 69.8256 13.9372 70.0578 14.3692L70.1438 14.4959C70.1729 14.5065 70.1992 14.5235 70.2207 14.5457C70.2724 14.6031 70.3137 14.6689 70.3429 14.7403C70.3532 14.7654 70.3653 14.7896 70.3791 14.8128C70.4014 14.8339 70.4193 14.8592 70.4319 14.8872C70.4444 14.9152 70.4512 14.9454 70.4521 14.9761C70.4529 15.0068 70.4477 15.0373 70.4368 15.066C70.4258 15.0947 70.4093 15.1209 70.3882 15.1432C70.3671 15.1655 70.3418 15.1834 70.3138 15.1959C70.2857 15.2084 70.2555 15.2153 70.2248 15.2161C70.1942 15.217 70.1636 15.2118 70.135 15.2008C70.1063 15.1898 70.0801 15.1733 70.0578 15.1522L70.0216 15.1115C69.8812 14.9395 69.7771 14.7856 69.6821 14.6589C69.4969 14.3025 69.1854 14.0281 68.8085 13.8894C68.3478 13.6457 67.8214 13.5553 67.3058 13.6314C67.1155 13.691 66.9398 13.7899 66.7901 13.9217C66.6404 14.0535 66.52 14.2152 66.4367 14.3964C66.2682 14.8014 66.194 15.2394 66.2195 15.6773C66.2012 16.2746 66.3364 16.8666 66.6121 17.3967C66.8879 17.9269 67.295 18.3775 67.7946 18.7054C68.5346 19.1397 69.4154 19.2664 70.2479 19.0584C70.2776 19.051 70.3085 19.0495 70.3388 19.054C70.3691 19.0585 70.3982 19.0689 70.4245 19.0847C70.4507 19.1005 70.4736 19.1212 70.4919 19.1459C70.5101 19.1705 70.5233 19.1984 70.5308 19.2282C70.5382 19.2579 70.5397 19.2888 70.5352 19.3191C70.5307 19.3494 70.5202 19.3785 70.5045 19.4048C70.4887 19.431 70.4679 19.4539 70.4433 19.4722C70.4187 19.4904 70.3907 19.5036 70.361 19.5111C70.0646 19.5817 69.7605 19.6152 69.4558 19.6106Z" fill="#231F20"></path><path d="M78.1651 28.572C77.4039 28.5941 76.6488 28.4305 75.9651 28.0953C75.2814 27.7602 74.6895 27.2635 74.2407 26.6484C72.6565 24.5165 73.0548 23.0273 73.0548 23.0273C73.0548 23.0273 75.1188 25.1819 78.0338 25.0823L78.1651 28.572Z" fill="#231F20"></path><path d="M77.9794 28.8056C77.2136 28.7966 76.4605 28.6091 75.78 28.2578C75.0995 27.9066 74.5104 27.4013 74.0596 26.7823C72.4301 24.5871 72.8194 23.021 72.8375 22.9576C72.8467 22.9187 72.8664 22.883 72.8942 22.8543C72.9221 22.8256 72.9573 22.805 72.9959 22.7946C73.0354 22.7819 73.0775 22.7798 73.118 22.7885C73.1586 22.7972 73.1961 22.8165 73.2268 22.8444C73.2268 22.8444 75.2591 24.9039 78.0201 24.8269C78.0503 24.8237 78.0808 24.827 78.1096 24.8365C78.1384 24.846 78.1648 24.8616 78.1871 24.8821C78.2094 24.9027 78.227 24.9278 78.2388 24.9558C78.2506 24.9837 78.2563 25.0139 78.2555 25.0442L78.4003 28.5476C78.4029 28.6054 78.3833 28.662 78.3454 28.7058C78.3075 28.7496 78.2543 28.7772 78.1966 28.7829C78.1966 28.7829 78.0971 28.8056 77.9794 28.8056ZM73.2268 23.4917C73.2907 24.6 73.7061 25.659 74.4126 26.5153C74.8172 27.0701 75.3441 27.5244 75.9523 27.8431C76.5606 28.1617 77.234 28.3362 77.9205 28.3529L77.7938 25.2932C76.1094 25.2364 74.4963 24.6001 73.2268 23.4917Z" fill="#231F20"></path><path d="M77.4858 14.4863C77.4858 14.4863 79.2964 18.1436 78.6944 18.6596C78.0924 19.1756 76.6304 18.5962 76.6304 18.5962" fill="white"></path><path d="M77.9523 19.1024C77.4707 19.0855 76.9958 18.9844 76.5491 18.8037C76.5179 18.7956 76.4888 18.781 76.4638 18.7608C76.4387 18.7406 76.4182 18.7153 76.4037 18.6866C76.3892 18.6579 76.381 18.6264 76.3796 18.5942C76.3782 18.5621 76.3837 18.53 76.3957 18.5001C76.4077 18.4702 76.426 18.4433 76.4492 18.421C76.4725 18.3988 76.5002 18.3817 76.5306 18.3711C76.561 18.3604 76.5933 18.3563 76.6253 18.3591C76.6574 18.3619 76.6885 18.3715 76.7166 18.3873C77.0832 18.5321 78.1333 18.8399 78.5271 18.4868C78.7806 18.2741 78.1876 16.45 77.2597 14.5852C77.2437 14.5585 77.2333 14.5288 77.2293 14.498C77.2252 14.4671 77.2276 14.4358 77.2362 14.4059C77.2448 14.3759 77.2595 14.3481 77.2793 14.3242C77.2992 14.3002 77.3238 14.2806 77.3515 14.2665C77.3793 14.2525 77.4097 14.2443 77.4408 14.2426C77.4718 14.2408 77.5029 14.2454 77.5321 14.2562C77.5613 14.267 77.588 14.2837 77.6104 14.3053C77.6329 14.3268 77.6506 14.3528 77.6626 14.3815C78.2374 15.5312 79.4731 18.2651 78.8168 18.8308C78.5693 19.0197 78.2633 19.1158 77.9523 19.1024Z" fill="#231F20"></path><path d="M75.3522 14.0203C75.4449 13.5928 75.2745 13.193 74.9715 13.1273C74.6686 13.0616 74.3479 13.355 74.2552 13.7825C74.1625 14.2101 74.333 14.6099 74.6359 14.6755C74.9389 14.7412 75.2596 14.4478 75.3522 14.0203Z" fill="#231F20"></path><path d="M80.1391 15.3878C80.448 15.3612 80.668 14.9864 80.6305 14.5505C80.5931 14.1147 80.3124 13.7829 80.0035 13.8094C79.6947 13.8359 79.4747 14.2108 79.5121 14.6466C79.5496 15.0825 79.8303 15.4143 80.1391 15.3878Z" fill="#231F20"></path><path d="M77.694 23.7159C77.542 23.7155 77.3904 23.7003 77.2413 23.6706C76.7647 23.5762 76.3159 23.3743 75.9292 23.0801C75.5425 22.786 75.228 22.4074 75.0099 21.9733C74.6556 21.2715 74.4711 20.4963 74.4712 19.7101C74.4706 19.6775 74.4772 19.6453 74.4905 19.6155C74.5038 19.5858 74.5235 19.5594 74.5482 19.5381C74.6478 19.4521 74.6885 19.4114 79.7942 19.9907C79.8471 19.9971 79.8961 20.0219 79.9325 20.0608C79.969 20.0997 79.9905 20.1502 79.9933 20.2035C79.9933 20.2849 80.1065 22.2675 78.9794 23.2768C78.618 23.5735 78.1614 23.7295 77.694 23.7159ZM74.9239 19.9274C74.951 20.5585 75.1147 21.1762 75.4036 21.7379C75.586 22.1138 75.8515 22.4432 76.1801 22.7012C76.5087 22.9592 76.8918 23.1391 77.3002 23.227C77.5332 23.2833 77.7758 23.2873 78.0106 23.2388C78.2453 23.1903 78.4664 23.0904 78.6581 22.9464C79.4456 22.2448 79.5316 20.9141 79.5316 20.4253C77.9474 20.2397 75.6345 19.9817 74.9239 19.9274Z" fill="#231F20"></path><path d="M75.2002 21.8666C76.1055 23.5776 78.011 23.822 78.8212 23.1159C78.5587 22.4505 78.1287 21.7806 77.4407 21.5905C76.6848 21.4127 75.8903 21.5106 75.2002 21.8666Z" fill="#231F20"></path><path d="M77.6988 23.7094C77.5471 23.7083 77.3957 23.6947 77.2462 23.6686C76.7705 23.5733 76.3227 23.3709 75.9369 23.0768C75.551 22.7828 75.2372 22.4047 75.0192 21.9713C75.0069 21.9435 75.0005 21.9134 75.0005 21.883C75.0005 21.8526 75.0069 21.8225 75.0192 21.7947C75.0291 21.7661 75.0445 21.7397 75.0648 21.7172C75.085 21.6946 75.1095 21.6764 75.1369 21.6635C75.8735 21.2902 76.7178 21.1877 77.5223 21.3738C78.1741 21.5503 78.6901 22.1116 79.0522 23.0349C79.07 23.0773 79.0738 23.1243 79.0633 23.169C79.0527 23.2137 79.0282 23.254 78.9933 23.2839C78.6284 23.5793 78.1678 23.7307 77.6988 23.7094ZM75.5262 21.9713C75.7184 22.2922 75.9755 22.5695 76.281 22.7854C76.5866 23.0013 76.9338 23.151 77.3005 23.225C77.7162 23.319 78.152 23.2545 78.5226 23.044C78.4343 22.7637 78.2838 22.507 78.0824 22.293C77.8809 22.0791 77.6338 21.9134 77.3593 21.8083C76.7466 21.6655 76.1042 21.7226 75.5262 21.9713Z" fill="#231F20"></path><path d="M42.9551 52.362C42.9551 52.362 37.9445 54.5754 33.4498 51.3436C28.9552 48.1119 17.5806 22.3935 17.5806 22.3935L22.4961 19.6777L36.2561 39.2856L42.9551 52.362Z" fill="white"></path><path d="M38.994 53.3276C36.9561 53.3438 34.9661 52.7096 33.3135 51.5171C28.8188 48.2899 17.8335 23.5039 17.3673 22.4493C17.344 22.396 17.3413 22.336 17.3597 22.2808C17.3781 22.2257 17.4163 22.1793 17.4668 22.1506L22.3824 19.471C22.4331 19.444 22.4919 19.4365 22.5478 19.4498C22.6036 19.4631 22.6527 19.4964 22.6857 19.5434L36.4457 39.1513L43.1627 52.2685C43.1751 52.2978 43.1814 52.3294 43.1814 52.3613C43.1814 52.3931 43.1751 52.4247 43.1627 52.454C43.1534 52.4836 43.1376 52.5108 43.1165 52.5335C43.0953 52.5562 43.0694 52.5739 43.0405 52.5853C41.7495 53.0818 40.3772 53.3336 38.994 53.3276ZM17.8787 22.4765C18.9469 24.8663 29.3982 48.1495 33.585 51.155C37.3736 53.8708 41.6057 52.6125 42.6377 52.2413L36.0564 39.4093L22.4232 20.0006L17.8787 22.4765Z" fill="#231F20"></path><path d="M23.8898 22.264C24.3826 19.3249 24.5782 16.3436 24.4737 13.3653C24.4737 12.7543 24.1568 11.9305 23.5684 12.0572C23.2606 12.1251 23.075 12.442 22.9483 12.7316C22.3401 14.1197 22.0317 15.6204 22.043 17.1357C21.4637 15.6783 20.8994 14.2238 20.3502 12.7724C20.1782 12.3198 19.1372 8.89336 18.6212 10.3961C18.3767 11.0931 18.7026 12.1794 18.7886 12.8901C18.9063 13.8527 19.0572 14.8137 19.2413 15.7733C19.1326 15.0944 18.1052 10.1155 17.1818 10.7944C16.4123 11.3783 17.0777 12.7226 17.2225 13.4513C17.4307 14.4969 17.4896 15.7824 17.8879 16.7736C17.3764 15.556 16.8197 14.3611 16.2041 13.1979C16.0502 12.8991 15.67 11.84 15.3396 11.7223C15.0092 11.6046 14.6018 12.1478 14.5656 12.4646C14.4886 13.1571 14.9865 14.3113 15.163 14.9993C15.3984 15.9046 15.7198 16.8098 16.0412 17.7151C15.7786 16.9773 15.1359 16.33 14.7738 15.6511C14.4615 15.0944 14.2397 14.2932 13.6332 13.9583C13.5417 13.9039 13.4397 13.8698 13.3339 13.858C13.2282 13.8463 13.1212 13.8573 13.02 13.8903C12.9189 13.9233 12.826 13.9776 12.7475 14.0494C12.669 14.1212 12.6068 14.209 12.5649 14.3068C12.5345 14.5173 12.5692 14.7322 12.6645 14.9224C14.3516 19.3564 16.8028 23.4604 19.9066 27.0483" fill="white"></path><path d="M19.8706 27.3031C19.804 27.3017 19.7405 27.274 19.6941 27.2262C16.5828 23.6183 14.1314 19.4907 12.452 15.0324C12.3384 14.7977 12.3004 14.5336 12.3434 14.2765C12.3728 14.1593 12.429 14.0504 12.5076 13.9586C12.5861 13.8667 12.6848 13.7942 12.796 13.7469C12.946 13.6817 13.1085 13.6503 13.272 13.655C13.4355 13.6597 13.596 13.7003 13.742 13.7741C14.2206 14.1034 14.5783 14.5803 14.7604 15.1319C14.8329 15.2904 14.9007 15.4397 14.9777 15.5846C15.0546 15.7294 15.0909 15.7792 15.1542 15.8788C15.0773 15.6208 15.0049 15.3583 14.937 15.1003C14.8872 14.9101 14.8147 14.6838 14.7333 14.4439C14.466 13.8072 14.3246 13.1248 14.3169 12.4343C14.3752 12.1031 14.5624 11.8086 14.8374 11.615C14.9169 11.5616 15.0071 11.5262 15.1017 11.5113C15.1963 11.4965 15.293 11.5025 15.3851 11.529C15.7155 11.6195 15.969 12.1446 16.2586 12.819C16.313 12.9412 16.3582 13.0498 16.3944 13.1177C16.657 13.6156 16.9059 14.118 17.1503 14.6295V14.5978C17.096 14.2176 17.0462 13.8601 16.9783 13.5251C16.9413 13.3476 16.8945 13.1723 16.838 13.0001C16.6072 12.2351 16.2949 11.1895 17.0281 10.6373C17.0983 10.5745 17.1848 10.5328 17.2777 10.5167C17.3705 10.5007 17.466 10.5112 17.5532 10.5468C17.9434 10.8176 18.2292 11.2137 18.3634 11.6693C18.2756 11.2189 18.2926 10.7543 18.4132 10.3114C18.5354 9.95387 18.7164 9.77734 18.9518 9.77734C19.4044 9.77734 19.8254 10.488 20.4907 12.4116C20.5315 12.5339 20.5632 12.6289 20.5858 12.6787C21.0067 13.7695 21.4232 14.8739 21.826 15.9738C21.9506 14.8183 22.2561 13.6896 22.7313 12.6289C22.7879 12.4411 22.8891 12.2698 23.0263 12.1295C23.1634 11.9892 23.3324 11.8841 23.5189 11.8232C23.6285 11.7977 23.7426 11.7975 23.8524 11.8226C23.9622 11.8477 24.0648 11.8974 24.1525 11.9681C24.502 12.3381 24.6922 12.8306 24.6821 13.3395C24.7911 16.3344 24.5955 19.3327 24.0982 22.288C24.0939 22.3183 24.0834 22.3475 24.0675 22.3737C24.0515 22.3998 24.0304 22.4225 24.0054 22.4403C23.9805 22.4581 23.9521 22.4706 23.9222 22.4771C23.8922 22.4836 23.8613 22.4839 23.8312 22.4781C23.8006 22.4732 23.7714 22.4622 23.7452 22.4458C23.719 22.4294 23.6964 22.4079 23.6786 22.3825C23.6609 22.3572 23.6484 22.3286 23.642 22.2983C23.6355 22.2681 23.6352 22.2369 23.6411 22.2065C24.1308 19.2838 24.3234 16.3191 24.2159 13.3576C24.2227 12.979 24.0889 12.6113 23.8402 12.3256C23.8053 12.2972 23.7641 12.2775 23.72 12.268C23.676 12.2586 23.6303 12.2597 23.5867 12.2713C23.374 12.3121 23.2292 12.5836 23.1341 12.81C22.5351 14.1674 22.2268 15.6352 22.2289 17.119C22.2286 17.1742 22.209 17.2275 22.1734 17.2697C22.1379 17.3119 22.0886 17.3403 22.0342 17.3498C21.9798 17.3606 21.9233 17.3515 21.8751 17.324C21.8269 17.2966 21.7902 17.2527 21.7717 17.2004C21.2466 15.752 20.699 14.281 20.1377 12.8416C20.1377 12.7828 20.0834 12.6832 20.0381 12.5565C19.3863 10.6554 19.074 10.2933 18.9427 10.2345C18.9043 10.3044 18.871 10.377 18.8432 10.4518C18.7308 11.0467 18.754 11.6594 18.9111 12.2442C18.9518 12.466 18.988 12.6968 19.0106 12.8597C19.1283 13.8012 19.2686 14.7563 19.4361 15.6887C19.4352 15.7022 19.4352 15.7158 19.4361 15.7294C19.4332 15.7827 19.4123 15.8335 19.3768 15.8733C19.3412 15.9132 19.2932 15.9398 19.2405 15.9487C19.1879 15.9576 19.1338 15.9484 19.0871 15.9226C19.0404 15.8967 19.0038 15.8557 18.9835 15.8064C18.9835 15.6977 18.9473 15.5891 18.9246 15.4805C18.6531 14.0321 17.9062 11.1941 17.3585 10.9768C17.3585 10.9768 17.3314 10.9768 17.2997 10.9768C16.8471 11.3344 17.0734 12.1672 17.2725 12.8326C17.3314 13.0408 17.3902 13.2354 17.4219 13.3984C17.4943 13.7514 17.5441 14.1135 17.5984 14.4983C17.6672 15.2401 17.819 15.9719 18.0511 16.6799C18.0745 16.7399 18.0731 16.8068 18.0472 16.8658C18.0213 16.9248 17.973 16.9711 17.913 16.9945C17.853 17.0179 17.7861 17.0165 17.7271 16.9906C17.6681 16.9647 17.6218 16.9165 17.5984 16.8565C17.096 15.657 16.5348 14.4575 15.9282 13.3033C15.8875 13.2309 15.8377 13.1087 15.7743 12.9729C15.6612 12.7104 15.3624 12.0133 15.1995 11.9454C15.1704 11.9382 15.1399 11.9381 15.1107 11.9452C15.0816 11.9523 15.0546 11.9663 15.032 11.9862C14.8707 12.1097 14.761 12.2887 14.7242 12.4886C14.7492 13.0944 14.8778 13.6914 15.1044 14.2538C15.1859 14.5028 15.2629 14.7382 15.3172 14.9373C15.5571 15.8833 15.8965 16.8157 16.1907 17.6531C16.2012 17.6828 16.2056 17.7143 16.2038 17.7457C16.2021 17.7772 16.1941 17.8079 16.1805 17.8363C16.1668 17.8647 16.1477 17.8901 16.1242 17.9111C16.1007 17.932 16.0734 17.9482 16.0436 17.9586C16.0139 17.969 15.9824 17.9735 15.951 17.9717C15.9196 17.9699 15.8888 17.962 15.8604 17.9483C15.832 17.9347 15.8066 17.9156 15.7857 17.8921C15.7647 17.8686 15.7485 17.8412 15.7381 17.8115C15.5497 17.3736 15.3063 16.9614 15.0139 16.5849C14.8233 16.3274 14.6466 16.06 14.4843 15.7837C14.4029 15.6389 14.3259 15.4714 14.249 15.3039C14.1009 14.8553 13.8179 14.4633 13.4388 14.1814C13.3541 14.1433 13.2623 14.1236 13.1694 14.1236C13.0766 14.1236 12.9848 14.1433 12.9001 14.1814C12.8541 14.2004 12.8127 14.2293 12.7791 14.2661C12.7455 14.3029 12.7203 14.3466 12.7055 14.3942C12.6912 14.5594 12.7225 14.7253 12.796 14.8739C14.4845 19.2847 16.9393 23.3622 20.0472 26.9184C20.0678 26.9414 20.0836 26.9682 20.0937 26.9974C20.1037 27.0266 20.1078 27.0576 20.1057 27.0884C20.1036 27.1192 20.0953 27.1493 20.0814 27.1768C20.0674 27.2044 20.0481 27.2289 20.0245 27.2488C19.981 27.284 19.9266 27.3032 19.8706 27.3031Z" fill="#231F20"></path><path d="M19.6847 22.6071C19.6345 22.6071 19.5858 22.5907 19.5457 22.5605C19.5057 22.5303 19.4766 22.4879 19.4629 22.4397C18.458 18.8865 21.8392 16.9629 21.8754 16.9312C21.9296 16.9053 21.9917 16.9011 22.0489 16.9195C22.1062 16.9379 22.1542 16.9776 22.1831 17.0302C22.212 17.0829 22.2197 17.1447 22.2046 17.2028C22.1895 17.261 22.1527 17.3112 22.1017 17.3431C21.975 17.411 18.9921 19.1174 19.911 22.322C19.9279 22.3814 19.9207 22.4451 19.8911 22.4993C19.8614 22.5535 19.8117 22.5938 19.7526 22.6117L19.6847 22.6071Z" fill="#231F20"></path><path d="M48.7572 66.416L46.8335 72.0648H84.3069V66.932L48.7572 66.416Z" fill="white"></path><path d="M84.3066 72.2951H46.8333C46.7965 72.2945 46.7603 72.2857 46.7273 72.2693C46.6944 72.2528 46.6656 72.2291 46.6432 72.2C46.6221 72.1692 46.6087 72.1339 46.6039 72.0969C46.5992 72.0599 46.6034 72.0223 46.616 71.9873L48.5352 66.343C48.5479 66.294 48.5776 66.2511 48.6191 66.222C48.6606 66.193 48.7111 66.1797 48.7615 66.1846L84.3111 66.696C84.3724 66.6983 84.4305 66.724 84.4734 66.7678C84.5163 66.8116 84.5409 66.8701 84.542 66.9314V72.0642C84.5408 72.1259 84.5155 72.1846 84.4715 72.2277C84.4275 72.2709 84.3683 72.2951 84.3066 72.2951ZM47.1592 71.8424H84.0894V67.1623L48.9425 66.6508L47.1592 71.8424Z" fill="#231F20"></path><path d="M84.9683 59.9342C84.9373 59.9325 84.907 59.9245 84.8792 59.9107C84.8514 59.8968 84.8268 59.8774 84.8069 59.8536C84.7869 59.8299 84.7721 59.8022 84.7632 59.7725C84.7544 59.7427 84.7518 59.7115 84.7556 59.6807L86.8784 34.9898C86.8801 34.9588 86.888 34.9285 86.9019 34.9007C86.9157 34.8729 86.9352 34.8483 86.9589 34.8284C86.9827 34.8084 87.0103 34.7936 87.0401 34.7847C87.0698 34.7759 87.1011 34.7733 87.1319 34.7771C87.1622 34.7794 87.1918 34.7876 87.219 34.8014C87.2461 34.8151 87.2703 34.8342 87.29 34.8573C87.3098 34.8804 87.3248 34.9072 87.3342 34.9362C87.3436 34.9652 87.3471 34.9957 87.3446 35.026L85.2218 59.7214C85.216 59.7831 85.1862 59.84 85.1388 59.8799C85.0913 59.9197 85.0301 59.9392 84.9683 59.9342Z" fill="#231F20"></path><path d="M45.6523 50.3696C45.617 50.3699 45.582 50.3623 45.5499 50.3474C45.5178 50.3325 45.4894 50.3107 45.4667 50.2836C45.4476 50.2599 45.4333 50.2326 45.4248 50.2034C45.4162 50.1741 45.4136 50.1434 45.4169 50.1131C45.4203 50.0828 45.4296 50.0535 45.4444 50.0268C45.4592 50.0002 45.4791 49.9767 45.503 49.9577L56.2394 41.2084C56.288 41.1787 56.3458 41.1676 56.402 41.1772C56.4582 41.1868 56.5089 41.2165 56.5449 41.2608C56.5808 41.305 56.5995 41.3608 56.5974 41.4178C56.5953 41.4747 56.5727 41.529 56.5336 41.5705L45.7972 50.3198C45.7561 50.3528 45.7049 50.3704 45.6523 50.3696Z" fill="#231F20"></path><path d="M11.5708 34.8613H12.3674C12.3951 34.8731 12.4239 34.8822 12.4534 34.8885C13.6506 34.9542 14.8072 35.3454 15.7983 36.0201C16.8913 36.7125 17.7658 37.7001 18.3209 38.8687C18.876 40.0374 19.0889 41.3393 18.9351 42.6239C18.8095 44.1806 18.1321 45.6413 17.025 46.7428C16.2906 47.5266 15.3828 48.1274 14.3742 48.4968C13.3657 48.8663 12.2846 48.9942 11.2177 48.8702C10.0927 48.7703 9.01234 48.3821 8.08098 47.7431C7.25462 47.2014 6.5534 46.4896 6.02418 45.6552C5.49496 44.8207 5.14992 43.883 5.01214 42.9045C4.98045 42.7009 4.95782 42.4972 4.93066 42.298V41.5014L4.95782 41.352C4.99856 41.0578 5.02119 40.7545 5.08456 40.4468C5.37916 39.0337 6.10216 37.7458 7.1551 36.7585C8.20803 35.7712 9.53971 35.1324 10.9688 34.9292C11.1543 34.9111 11.3626 34.8885 11.5708 34.8613ZM17.1019 45.8014C17.8982 44.7566 18.3548 43.4928 18.41 42.1803H15.6263C15.5811 42.6782 15.5539 43.1716 15.486 43.6604C15.4181 44.1493 15.3231 44.6245 15.2371 45.0862L17.1019 45.8014ZM5.50551 42.1803C5.56072 43.4928 6.0173 44.7566 6.81361 45.8014L8.69656 45.0681C8.45563 44.1208 8.32651 43.1486 8.31182 42.1713L5.50551 42.1803ZM18.401 41.6145C18.4553 40.578 17.7039 38.5276 17.0929 37.9935L15.219 38.7177C15.4583 39.6654 15.5889 40.6373 15.6082 41.6145H18.401ZM8.69656 38.7222L6.82266 37.9935C6.14372 38.7087 5.39687 40.7591 5.52361 41.6145H8.32087C8.3322 40.6361 8.45829 39.6623 8.69656 38.7132V38.7222ZM12.2407 44.6969C12.6526 44.7286 13.0554 44.7513 13.4537 44.7965C13.852 44.8418 14.2549 44.9097 14.6622 44.973C14.6622 44.9368 14.6622 44.9006 14.6939 44.8599C14.901 44.027 15.0163 43.1741 15.0379 42.3161C15.0379 42.1984 15.0108 42.1713 14.8976 42.1713H12.3629H12.2407V44.6969ZM8.87761 42.1758C8.87908 43.113 8.99614 44.0464 9.22614 44.9549L11.6477 44.6788V42.1803L8.87761 42.1758ZM15.0424 41.61C15.0301 40.6781 14.9055 39.7511 14.6713 38.849L12.2407 39.1251V41.61H15.0424ZM9.22614 38.8399C8.99217 39.742 8.86905 40.6691 8.85951 41.601H11.6703V39.116L9.22614 38.8399ZM14.4812 38.2606C14.2913 37.651 14.0121 37.0729 13.6529 36.5451C13.4119 36.1742 13.0881 35.8643 12.7069 35.6398C12.5575 35.5584 12.3946 35.5086 12.2226 35.4362V38.5095C12.9876 38.498 13.7498 38.4146 14.4993 38.2606H14.4812ZM12.218 45.2673V48.3089C12.5567 48.2472 12.8707 48.0902 13.1233 47.8563C13.6488 47.3498 14.0527 46.7308 14.3047 46.0458C14.368 45.8874 14.4269 45.7244 14.4902 45.5479C13.7524 45.3835 13.0007 45.2896 12.2452 45.2673H12.218ZM11.6432 48.318V45.2627C10.8822 45.2791 10.1245 45.367 9.38003 45.5253C9.51129 45.8466 9.62898 46.1589 9.76929 46.4577C10.0066 46.9992 10.357 47.4838 10.7968 47.8789C11.0439 48.1002 11.3454 48.2517 11.6703 48.318H11.6432ZM9.3574 38.2515C10.1092 38.4115 10.8746 38.4994 11.6432 38.514V35.4497C11.4107 35.4941 11.191 35.59 11.0005 35.7304C10.5422 36.0612 10.1723 36.4995 9.92319 37.0068C9.74666 37.4142 9.57919 37.8306 9.38456 38.2515H9.3574ZM16.6764 46.2721C16.1536 46.0049 15.6025 45.7969 15.0334 45.652C14.7636 46.5611 14.3004 47.401 13.6755 48.1143C14.8366 47.7939 15.8853 47.1559 16.7036 46.2721H16.6764ZM10.2219 35.6896C9.52035 35.7168 7.58309 36.9027 7.21645 37.5454L8.82329 38.1655C9.02698 37.7129 9.20351 37.2603 9.40719 36.8574C9.61662 36.4283 9.89148 36.0343 10.2219 35.6896ZM7.21193 46.2721C8.03325 47.1586 9.08474 47.7996 10.2491 48.1233C9.60812 47.412 9.13483 46.5659 8.86403 45.6475C8.29157 45.7928 7.73736 46.0024 7.21193 46.2721ZM13.7208 35.6942C14.0348 36.0394 14.2998 36.4263 14.5083 36.8438C14.7075 37.2648 14.8886 37.6903 15.0787 38.1248C15.6423 37.9811 16.1875 37.773 16.7036 37.5047C15.9002 36.6316 14.8661 36.0039 13.7208 35.6942Z" fill="#D1D3D4"></path><path d="M119.082 69.568H102.389C102.329 69.568 102.272 69.5442 102.229 69.5017C102.187 69.4593 102.163 69.4017 102.163 69.3417V60.1443C102.164 60.0846 102.188 60.0277 102.231 59.9855C102.273 59.9433 102.33 59.9191 102.389 59.918H119.082C119.142 59.918 119.2 59.9418 119.242 59.9843C119.285 60.0267 119.309 60.0843 119.309 60.1443V69.3417C119.309 69.4017 119.285 69.4593 119.242 69.5017C119.2 69.5442 119.142 69.568 119.082 69.568ZM102.616 69.1154H118.856V60.3706H102.616V69.1154Z" fill="#D1D3D4"></path><path d="M110.741 66.1088C110.695 66.1092 110.651 66.0949 110.614 66.0681L102.263 60.3288C102.237 60.3126 102.215 60.2912 102.197 60.2661C102.179 60.2409 102.167 60.2124 102.161 60.1823C102.155 60.1522 102.155 60.1212 102.161 60.0911C102.167 60.061 102.179 60.0325 102.197 60.0073C102.214 59.9821 102.237 59.9607 102.263 59.9444C102.289 59.9282 102.318 59.9174 102.348 59.9128C102.379 59.9081 102.41 59.9097 102.439 59.9174C102.469 59.9251 102.497 59.9388 102.521 59.9576L110.741 65.6064L118.943 59.9621C118.967 59.9433 118.995 59.9296 119.025 59.9219C119.054 59.9142 119.085 59.9126 119.116 59.9173C119.146 59.9219 119.175 59.9327 119.201 59.949C119.227 59.9652 119.25 59.9866 119.267 60.0118C119.285 60.037 119.297 60.0656 119.303 60.0956C119.309 60.1257 119.309 60.1568 119.303 60.1868C119.297 60.2169 119.284 60.2454 119.267 60.2706C119.249 60.2958 119.227 60.3171 119.201 60.3333L110.854 66.0726C110.821 66.0952 110.781 66.1077 110.741 66.1088Z" fill="#D1D3D4"></path><path d="M102.391 69.5659C102.343 69.5653 102.296 69.5495 102.258 69.5208C102.219 69.4921 102.191 69.4519 102.177 69.4061C102.163 69.3603 102.164 69.3112 102.179 69.2659C102.195 69.2206 102.224 69.1814 102.264 69.154L108.954 64.5553C108.978 64.5364 109.006 64.5228 109.036 64.5151C109.065 64.5073 109.096 64.5058 109.127 64.5104C109.157 64.5151 109.186 64.5259 109.212 64.5421C109.238 64.5584 109.261 64.5797 109.278 64.605C109.296 64.6302 109.308 64.6587 109.314 64.6888C109.32 64.7189 109.32 64.7499 109.314 64.78C109.308 64.81 109.295 64.8385 109.278 64.8637C109.26 64.8889 109.238 64.9102 109.212 64.9264L102.522 69.5251C102.483 69.5515 102.437 69.5656 102.391 69.5659Z" fill="#D1D3D4"></path><path d="M119.083 69.566C119.038 69.5651 118.994 69.5509 118.956 69.5252L112.271 64.9401C112.245 64.9239 112.222 64.9026 112.205 64.8774C112.187 64.8522 112.175 64.8237 112.169 64.7936C112.163 64.7636 112.163 64.7325 112.169 64.7024C112.175 64.6724 112.187 64.6438 112.205 64.6186C112.222 64.5934 112.245 64.572 112.271 64.5558C112.297 64.5395 112.326 64.5287 112.356 64.5241C112.386 64.5194 112.417 64.521 112.447 64.5287C112.477 64.5364 112.505 64.5501 112.529 64.5689L119.214 69.1676C119.254 69.1953 119.284 69.2349 119.299 69.2806C119.315 69.3264 119.315 69.3759 119.3 69.4219C119.286 69.468 119.257 69.5081 119.218 69.5364C119.179 69.5648 119.131 69.5799 119.083 69.5795V69.566Z" fill="#D1D3D4"></path><path d="M125.347 54.0545C123.934 54.0554 122.553 53.6371 121.377 52.8527C120.202 52.0682 119.286 50.9527 118.745 49.6474C118.204 48.3421 118.062 46.9056 118.337 45.5197C118.613 44.1338 119.293 42.8607 120.292 41.8615C121.291 40.8624 122.564 40.182 123.95 39.9066C125.336 39.6311 126.773 39.7729 128.078 40.3141C129.383 40.8552 130.499 41.7714 131.283 42.9467C132.068 44.122 132.486 45.5035 132.485 46.9165C132.482 48.8085 131.728 50.622 130.391 51.9599C129.053 53.2977 127.239 54.0509 125.347 54.0545ZM125.347 40.2267C124.024 40.2258 122.73 40.6174 121.629 41.3519C120.529 42.0865 119.67 43.131 119.163 44.3533C118.656 45.5756 118.523 46.9209 118.781 48.2189C119.038 49.5169 119.675 50.7093 120.611 51.6454C121.546 52.5814 122.738 53.219 124.036 53.4775C125.334 53.736 126.679 53.6038 127.902 53.0976C129.124 52.5914 130.17 51.7339 130.905 50.6337C131.64 49.5335 132.033 48.2399 132.033 46.9165C132.03 45.1438 131.325 43.4443 130.072 42.1903C128.819 40.9364 127.12 40.2303 125.347 40.2267Z" fill="#D1D3D4"></path><path d="M127.352 53.7556C127.304 53.7552 127.257 53.7397 127.218 53.7113C127.179 53.6829 127.15 53.643 127.135 53.5972L125.129 46.9797C125.119 46.9472 125.116 46.9124 125.121 46.8785C125.127 46.8446 125.141 46.8126 125.161 46.7851L129.176 41.1589C129.193 41.1345 129.215 41.1136 129.24 41.0976C129.265 41.0816 129.294 41.0708 129.323 41.0658C129.353 41.0607 129.383 41.0615 129.412 41.0682C129.441 41.0749 129.469 41.0873 129.493 41.1046C129.541 41.1407 129.572 41.1939 129.582 41.253C129.591 41.3121 129.577 41.3725 129.543 41.4215L125.596 46.9571L127.569 53.4433C127.586 53.5009 127.58 53.5629 127.552 53.6162C127.524 53.6694 127.477 53.7097 127.42 53.7284L127.352 53.7556Z" fill="#D1D3D4"></path><path d="M125.343 47.1432C125.307 47.1421 125.271 47.1329 125.239 47.116L119.128 43.8843C119.102 43.8703 119.078 43.8513 119.059 43.8282C119.04 43.8052 119.026 43.7787 119.017 43.7501C119.008 43.7215 119.005 43.6915 119.008 43.6617C119.011 43.6319 119.019 43.6029 119.033 43.5765C119.047 43.55 119.066 43.5266 119.089 43.5075C119.112 43.4884 119.139 43.474 119.167 43.4652C119.196 43.4564 119.226 43.4533 119.256 43.4561C119.286 43.4588 119.315 43.4675 119.341 43.4814L125.452 46.7132C125.504 46.742 125.544 46.7903 125.562 46.8478C125.579 46.9053 125.574 46.9674 125.547 47.021C125.527 47.0579 125.498 47.0888 125.462 47.1103C125.426 47.1318 125.385 47.1432 125.343 47.1432Z" fill="#D1D3D4"></path><path d="M22.3232 67.138H19.9514C19.8914 67.138 19.8338 67.1141 19.7914 67.0717C19.7489 67.0292 19.7251 66.9717 19.7251 66.9117V56.0486C19.7251 55.9886 19.7489 55.931 19.7914 55.8885C19.8338 55.8461 19.8914 55.8223 19.9514 55.8223H22.3232C22.3832 55.8223 22.4408 55.8461 22.4832 55.8885C22.5257 55.931 22.5495 55.9886 22.5495 56.0486V66.9117C22.5495 66.9717 22.5257 67.0292 22.4832 67.0717C22.4408 67.1141 22.3832 67.138 22.3232 67.138ZM20.1777 66.6853H22.0969V56.2749H20.1777V66.6853Z" fill="#D1D3D4"></path><path d="M27.511 67.1388H25.1301C25.0701 67.1388 25.0125 67.1149 24.9701 67.0725C24.9277 67.03 24.9038 66.9725 24.9038 66.9124V59.3943C24.9038 59.3343 24.9277 59.2767 24.9701 59.2343C25.0125 59.1918 25.0701 59.168 25.1301 59.168H27.5019C27.5619 59.168 27.6195 59.1918 27.6619 59.2343C27.7044 59.2767 27.7282 59.3343 27.7282 59.3943V66.926C27.7249 66.9821 27.7008 67.035 27.6606 67.0743C27.6205 67.1136 27.5671 67.1366 27.511 67.1388ZM25.3655 66.6861H27.2847V59.607H25.3655V66.6861Z" fill="#D1D3D4"></path><path d="M32.6982 67.1363H30.3264C30.2664 67.1363 30.2088 67.1125 30.1664 67.07C30.1239 67.0276 30.1001 66.97 30.1001 66.91V62.0759C30.1001 62.0159 30.1239 61.9583 30.1664 61.9159C30.2088 61.8735 30.2664 61.8496 30.3264 61.8496H32.6982C32.7582 61.8496 32.8158 61.8735 32.8582 61.9159C32.9007 61.9583 32.9245 62.0159 32.9245 62.0759V66.91C32.9245 66.97 32.9007 67.0276 32.8582 67.07C32.8158 67.1125 32.7582 67.1363 32.6982 67.1363ZM30.5527 66.6837H32.4719V62.3022H30.5618L30.5527 66.6837Z" fill="#D1D3D4"></path><path d="M34.6577 67.1362H17.6433C17.5833 67.1362 17.5257 67.1124 17.4833 67.0699C17.4408 67.0275 17.417 66.9699 17.417 66.9099C17.417 66.8499 17.4408 66.7923 17.4833 66.7499C17.5257 66.7074 17.5833 66.6836 17.6433 66.6836H34.6577C34.7177 66.6836 34.7753 66.7074 34.8177 66.7499C34.8602 66.7923 34.884 66.8499 34.884 66.9099C34.884 66.9699 34.8602 67.0275 34.8177 67.0699C34.7753 67.1124 34.7177 67.1362 34.6577 67.1362Z" fill="#D1D3D4"></path><path d="M42.4801 27.8422H32.4634C31.9028 27.8422 31.3651 27.6195 30.9687 27.223C30.5723 26.8266 30.3496 26.289 30.3496 25.7284V20.0298C30.3496 19.7522 30.4043 19.4773 30.5105 19.2209C30.6167 18.9644 30.7724 18.7314 30.9687 18.5351C31.165 18.3388 31.398 18.1831 31.6545 18.0769C31.9109 17.9707 32.1858 17.916 32.4634 17.916H42.4801C42.7577 17.916 43.0326 17.9707 43.289 18.0769C43.5455 18.1831 43.7785 18.3388 43.9748 18.5351C44.1711 18.7314 44.3268 18.9644 44.433 19.2209C44.5392 19.4773 44.5939 19.7522 44.5939 20.0298V25.7284C44.5939 26.289 44.3712 26.8266 43.9748 27.223C43.5784 27.6195 43.0407 27.8422 42.4801 27.8422ZM32.4634 18.3686C32.0228 18.3686 31.6003 18.5437 31.2888 18.8552C30.9773 19.1667 30.8022 19.5892 30.8022 20.0298V25.7284C30.8034 26.1686 30.9788 26.5904 31.2901 26.9017C31.6014 27.2129 32.0232 27.3883 32.4634 27.3895H42.4801C42.9207 27.3895 43.3432 27.2145 43.6547 26.903C43.9663 26.5915 44.1413 26.1689 44.1413 25.7284V20.0298C44.1413 19.5892 43.9663 19.1667 43.6547 18.8552C43.3432 18.5437 42.9207 18.3686 42.4801 18.3686H32.4634Z" fill="#D1D3D4"></path><path d="M35.1702 25.9957C35.128 25.9971 35.0866 25.9843 35.0525 25.9595C35.0195 25.94 34.9921 25.9121 34.9731 25.8788C34.954 25.8455 34.944 25.8078 34.9438 25.7694V19.9894C34.9445 19.9505 34.9547 19.9123 34.9737 19.8784C34.9926 19.8444 35.0197 19.8157 35.0525 19.7947C35.0855 19.7757 35.123 19.7656 35.1611 19.7656C35.1992 19.7656 35.2367 19.7757 35.2697 19.7947L41.2173 22.6553C41.2568 22.6733 41.2903 22.7023 41.3138 22.7389C41.3373 22.7754 41.3498 22.8179 41.3498 22.8613C41.3498 22.9047 41.3373 22.9472 41.3138 22.9837C41.2903 23.0202 41.2568 23.0492 41.2173 23.0672L35.2697 25.955C35.24 25.9758 35.206 25.9897 35.1702 25.9957ZM35.3965 20.3515V25.4073L40.6017 22.8817L35.3965 20.3515Z" fill="#D1D3D4"></path><path d="M112.176 63.298C112.023 63.5096 111.819 63.6793 111.583 63.7914C111.347 63.9052 111.089 63.964 110.827 63.9634C110.601 63.9652 110.377 63.9237 110.166 63.8412C109.965 63.7657 109.781 63.6519 109.623 63.5062C109.468 63.36 109.344 63.1846 109.256 62.9902C109.165 62.7836 109.119 62.5598 109.121 62.3339C109.119 62.1099 109.164 61.8881 109.252 61.6821C109.337 61.488 109.461 61.3126 109.614 61.1661C109.769 61.0173 109.95 60.8991 110.148 60.8176C110.54 60.6645 110.972 60.6549 111.37 60.7904C111.552 60.8516 111.72 60.9451 111.868 61.0665C112.015 61.1918 112.136 61.3459 112.221 61.5192C112.314 61.7109 112.361 61.9218 112.357 62.1348C112.36 62.2714 112.341 62.4076 112.298 62.5376C112.269 62.6418 112.222 62.7399 112.158 62.8273C112.108 62.9038 112.043 62.9699 111.968 63.0219C111.9 63.0684 111.827 63.1064 111.75 63.1351C111.685 63.1605 111.616 63.1787 111.547 63.1894C111.491 63.1949 111.435 63.1949 111.379 63.1894C111.285 63.1972 111.192 63.1698 111.117 63.1124C111.068 63.0714 111.037 63.0129 111.031 62.9495C110.964 63.013 110.89 63.0678 110.809 63.1124C110.703 63.1673 110.584 63.1938 110.465 63.1894C110.378 63.1902 110.291 63.1716 110.211 63.1351C110.134 63.0984 110.064 63.046 110.008 62.9812C109.951 62.9128 109.908 62.8345 109.881 62.7503C109.849 62.654 109.834 62.553 109.836 62.4516C109.834 62.3254 109.854 62.1999 109.895 62.0804C109.934 61.9658 109.992 61.8587 110.067 61.7636C110.143 61.6717 110.237 61.5962 110.343 61.5418C110.458 61.4858 110.586 61.4579 110.714 61.4603C110.814 61.4581 110.913 61.4782 111.004 61.5192C111.085 61.5602 111.15 61.6293 111.185 61.7138L111.221 61.5146H111.633L111.47 62.3792L111.447 62.5014C111.443 62.545 111.443 62.589 111.447 62.6326C111.446 62.6731 111.454 62.7133 111.47 62.7503C111.481 62.7648 111.495 62.7762 111.512 62.7833C111.529 62.7905 111.547 62.7931 111.565 62.7911C111.614 62.7915 111.662 62.779 111.705 62.7549C111.754 62.7265 111.794 62.6859 111.823 62.6372C111.862 62.5742 111.891 62.5055 111.909 62.4335C111.965 62.1816 111.946 61.9188 111.855 61.6776C111.803 61.5478 111.723 61.4316 111.619 61.3381C111.514 61.2451 111.391 61.1756 111.257 61.1344C111.111 61.0888 110.958 61.0659 110.804 61.0665C110.634 61.0653 110.465 61.096 110.307 61.1571C110.162 61.2161 110.033 61.3056 109.926 61.4196C109.816 61.5317 109.731 61.6659 109.677 61.8134C109.616 61.9722 109.586 62.1411 109.587 62.3113C109.583 62.4884 109.617 62.6643 109.686 62.8273C109.747 62.9744 109.838 63.1071 109.954 63.2165C110.074 63.323 110.214 63.4059 110.365 63.461C110.532 63.5166 110.706 63.5441 110.881 63.5424C111.035 63.5433 111.188 63.5204 111.334 63.4745C111.469 63.4311 111.595 63.3636 111.705 63.2754L112.176 63.298ZM110.741 61.8813C110.674 61.8803 110.608 61.8942 110.546 61.922C110.489 61.9489 110.438 61.9874 110.397 62.0352C110.358 62.0874 110.328 62.1454 110.307 62.2072C110.288 62.2735 110.279 62.342 110.279 62.4109C110.278 62.4455 110.278 62.4803 110.279 62.515C110.285 62.5623 110.298 62.6084 110.32 62.6507C110.346 62.6969 110.384 62.7357 110.429 62.7639C110.491 62.8025 110.564 62.82 110.637 62.8137C110.709 62.8154 110.78 62.7999 110.845 62.7684C110.898 62.7372 110.943 62.6937 110.976 62.6417C111.009 62.5888 111.032 62.5306 111.044 62.4697C111.051 62.408 111.051 62.3458 111.044 62.2841C111.048 62.1821 111.021 62.0814 110.967 61.9944C110.941 61.9592 110.907 61.9306 110.868 61.9109C110.828 61.8913 110.785 61.8811 110.741 61.8813Z" fill="#D1D3D4"></path></svg>