<svg xmlns="http://www.w3.org/2000/svg" width="75" height="51" viewBox="0 0 75 51" fill="none"><path d="M32.6653 12.1341C31.5232 12.4082 28.9609 13.1463 26.289 14.3836C23.6045 15.5997 20.8567 17.3219 18.9181 18.8544C17.7887 19.7331 16.7225 20.6715 15.7363 21.6662C15.2432 22.1618 14.7923 22.675 14.3203 23.1811C13.8567 23.6907 13.4395 24.225 13.0012 24.7452C11.3028 26.8681 9.86154 29.1106 8.62253 31.4127C6.1445 36.0242 4.46719 40.8359 3.04696 45.6336C2.60024 47.1344 1.80373 49.6686 2.74353 49.8197C3.72125 49.9779 4.80856 48.4068 5.62193 45.8234C6.60808 42.6952 7.64479 39.5811 8.94281 36.5549C10.2197 33.5251 11.8128 30.5938 13.7977 27.8979C15.2559 25.9367 16.8995 24.0598 18.7158 22.3657C20.5491 20.6821 22.6225 19.1707 24.873 17.8878C27.1277 16.6084 29.5635 15.5505 32.1174 14.7948C34.6713 14.0426 37.3516 13.5962 40.0277 13.5716C42.4299 13.5365 44.8194 13.8634 47.0699 14.5171C47.6388 14.6893 48.1782 14.8545 48.684 15.0725C49.1939 15.2869 49.6912 15.5259 50.1505 15.7965C51.0608 16.3378 51.8531 16.995 52.2999 17.7296C52.7634 18.4537 52.8646 19.2515 52.5906 19.9967C52.3251 20.7453 51.6719 21.4518 50.8375 22.0001C50.4203 22.2743 49.9567 22.5098 49.472 22.6996C49.2276 22.7945 48.9832 22.8788 48.7177 22.9421C48.4564 23.0053 48.1993 23.0897 47.9338 23.1389C46.8676 23.3498 45.7424 23.3498 44.6382 23.2198C40.4702 22.689 36.6773 19.8737 35.7417 16.5205C35.2487 14.8194 35.3751 12.9987 35.9904 11.2905C36.2854 10.4294 36.7448 9.61397 37.2589 8.82314C37.7815 8.03583 38.4347 7.31178 39.1343 6.62991C40.3902 5.47354 41.8272 4.50346 43.5172 3.8005C45.1903 3.09754 47.0193 2.59844 48.9157 2.37349C50.808 2.13448 52.7634 2.12043 54.6894 2.33483C55.6545 2.42621 56.6069 2.60547 57.5551 2.8023C58.4949 3.02724 59.4221 3.26976 60.3239 3.59313C61.1837 3.88134 62.0771 4.29608 62.9663 4.74949C63.8513 5.20993 64.7237 5.72309 65.5539 6.21165C66.9447 7.00599 69.0729 8.55953 70.2908 9.54016C70.8218 9.95491 71.3697 10.4013 71.8164 10.8688C72.8321 11.9513 73.4853 12.6226 73.9489 12.8476C74.4082 13.0725 74.6653 12.8616 74.758 12.2114C74.796 11.9232 75.2216 11.9583 74.8465 11.3257C74.8297 11.3011 74.8002 11.2484 74.7833 11.2238C73.7255 9.22383 71.7026 7.75465 69.7345 6.29952C67.3113 4.49994 64.5804 2.9464 61.5756 1.8287C58.5666 0.703962 55.2836 0.0642691 51.9627 0.00451756C48.6502 -0.055234 45.2661 0.4755 42.2402 1.73028C40.7315 2.34889 39.3029 3.16783 38.0723 4.14143C36.8375 5.11152 35.7755 6.22922 34.92 7.44886C34.3805 8.19048 33.9633 8.99185 33.584 9.80377C33.2511 10.6297 32.9603 11.4733 32.8128 12.345C32.5009 14.0778 32.5768 15.8914 33.23 17.5996C33.8748 19.3254 35.0464 20.8754 36.5383 22.1337C38.047 23.3814 39.8634 24.3585 41.8778 24.9807C42.9862 25.297 44.1409 25.5676 45.3504 25.6274C45.9489 25.6907 46.5641 25.6485 47.171 25.6204C47.4787 25.6098 47.7779 25.5395 48.0813 25.4973C48.3847 25.4446 48.6882 25.406 48.979 25.3111L48.9368 25.3216C50.1843 25.0615 51.4149 24.5976 52.4769 23.9368C53.5347 23.2725 54.4871 22.4008 55.0687 21.2901C55.6123 20.2392 55.764 18.9774 55.3932 17.8491C55.0476 16.6998 54.268 15.7473 53.3914 14.9811C52.4979 14.2289 51.4991 13.6208 50.4371 13.1463C49.9103 12.9003 49.3583 12.6964 48.8104 12.5066C48.2667 12.3415 47.7315 12.1622 47.1752 12.0322C46.0753 11.7404 44.9501 11.5331 43.8206 11.396C42.6912 11.2484 41.5575 11.1921 40.4323 11.1886C38.1818 11.1816 35.9862 11.4522 33.9085 11.8951C33.5967 11.9583 33.1415 12.0146 32.6653 12.1341Z" fill="#FFD75E"></path><path d="M3.1439 37.6691C3.16497 36.8993 3.22397 34.1789 3.31669 32.4391C3.52319 28.4041 3.74233 24.3761 3.69598 20.3376C3.69176 19.7085 3.75497 18.64 2.80254 18.6154C1.81217 18.5908 1.18423 19.2832 1.15052 20.3833C1.07044 23.0475 1.1463 25.7328 0.838661 28.3759C0.387726 32.2422 0.362434 36.119 0.189651 39.9888C0.109573 41.7287 0.0632248 43.4685 0.0252991 45.2083C0.0168686 45.6477 0 46.0659 0 46.5369C0.00421143 47.0044 0.0252914 47.5035 0.143295 48.0342C0.202293 48.2978 0.286575 48.572 0.408791 48.8426C0.535217 49.1308 0.703796 49.405 0.914513 49.658C1.33595 50.1607 1.92175 50.6422 2.81518 50.8847C3.1439 50.9726 3.50212 51.0112 3.85612 50.9972C4.2902 50.9796 4.69898 50.8742 5.04456 50.7336C5.39013 50.593 5.67671 50.4208 5.92114 50.245C6.40579 49.8935 6.75557 49.528 7.05901 49.1906L8.73209 47.3066C9.83625 46.0589 10.9362 44.8041 11.9898 43.5282C13.9073 41.2085 15.6267 38.7797 17.4768 36.4248C17.9109 35.8695 18.6021 35.2966 19.0867 34.692C19.4871 34.1929 20.1656 33.3634 20.5027 32.8362C20.6502 32.6078 20.7935 32.3688 20.9958 32.1754C21.9187 31.3003 21.8429 30.8855 20.6839 30.6887C20.4269 30.6465 20.2372 30.4145 19.9127 30.5657C19.9001 30.5727 19.8706 30.5832 19.8579 30.5903C18.7369 30.9734 18.3913 31.8345 17.7803 32.548C14.7797 36.0488 11.8338 39.5811 8.86696 43.0994L6.14872 46.3471L5.46599 47.1555C5.23841 47.4191 4.99821 47.7073 4.78749 47.9393C4.57256 48.1748 4.36183 48.3822 4.16376 48.5228C3.96568 48.6669 3.79712 48.7266 3.72548 48.7266C3.70441 48.7301 3.69175 48.7231 3.6749 48.7196C3.62854 48.695 3.61169 48.6739 3.50632 48.5931C3.41361 48.5193 3.28718 48.4033 3.1481 48.2767L3.15233 48.2802C3.09332 48.1889 3.05118 48.0975 3.01746 47.992C2.97954 47.876 2.95003 47.7495 2.92474 47.616C2.8826 47.3453 2.86575 47.0395 2.85733 46.7021C2.8489 46.3858 2.86154 46.0308 2.86997 45.6617C2.8784 45.2962 2.89103 44.9342 2.89946 44.5686C2.92474 43.8375 2.95004 43.1029 2.97533 42.3754C3.0259 40.9167 3.06804 39.4722 3.07647 38.0873C3.08911 37.9749 3.13969 37.8272 3.1439 37.6691Z" fill="#FFD75E"></path></svg>