<svg xmlns="http://www.w3.org/2000/svg" width="104" height="107" viewBox="0 0 104 107" fill="none"><path d="M5.73075 58.498C7.82321 56.3284 9.94004 54.1766 12.0569 52.0248C13.3544 50.7064 14.7618 49.4932 15.88 47.9942C16.1821 47.5799 16.313 46.991 16.8188 46.7751L16.8129 46.7832C17.1409 46.3505 17.4261 45.8741 17.8154 45.511C19.2889 44.1219 20.677 42.5087 22.2234 41.3096C22.2811 41.2646 22.2872 41.1198 22.3686 41.0423C22.7638 40.671 24.2172 39.4289 25.0742 38.5608C27.0682 36.5434 29.1153 34.5896 31.6599 33.1479C32.0571 32.9275 36.9909 29.0971 38.5512 30.7453C40.181 32.4689 36.3904 37.1205 35.7733 37.5913C34.2824 38.7313 32.553 39.6352 31.4984 41.2178C29.9608 43.5308 27.7789 45.1747 25.9069 47.1442C24.2334 48.91 22.3826 50.5093 20.7193 52.2951C19.1531 53.965 17.8622 55.9227 16.2021 57.4994C14.7664 58.8538 12.935 59.7952 11.3627 61.0127C10.9905 61.3012 10.8831 61.9944 10.4873 62.3154C10.1631 62.5892 9.64659 63.0586 9.20216 63.2073C9.01802 63.2721 8.80358 63.3273 8.73756 63.5031C8.42304 64.3438 3.28416 68.4726 1.41312 66.4485C-0.409194 64.46 3.90993 60.3804 5.73075 58.498Z" fill="#3AB446"></path><path d="M31.4841 55.8783C33.6529 54.1501 35.8401 52.4478 38.0273 50.7455C39.3747 49.6999 40.8062 48.7779 41.9919 47.5274C42.3191 47.1811 42.4928 46.6359 42.9919 46.5146L42.986 46.5227C43.3331 46.1662 43.6433 45.7578 44.0436 45.4649C45.5574 44.3789 47.0079 43.0726 48.5746 42.1869C48.6345 42.156 48.6546 42.0089 48.7323 41.9536C49.1407 41.6666 50.618 40.7158 51.5037 40.0303C53.5636 38.4342 55.6627 36.9041 58.1977 35.9532C58.5919 35.8052 63.5872 32.9653 64.9189 34.8076C66.3059 36.7275 62.3212 40.5532 61.6925 40.9035C60.1835 41.7441 58.4679 42.322 57.3315 43.6584C55.6747 45.6231 53.4749 46.8309 51.5392 48.3931C49.8025 49.8018 47.9226 51.0314 46.1882 52.4542C44.5632 53.7951 43.1736 55.4445 41.4668 56.6759C39.9908 57.7272 38.185 58.3265 36.5924 59.2305C36.2151 59.4407 36.0568 60.0843 35.65 60.335C35.3149 60.5386 34.7888 60.9015 34.3615 60.9756C34.1789 61.0042 33.972 61.0151 33.8897 61.179C33.5176 61.928 28.3106 65.024 26.7119 62.7631C25.1582 60.5598 29.604 57.3815 31.4841 55.8783Z" fill="#3AB446"></path><path d="M54.8907 55.6766C57.9238 53.7699 61.0387 51.9728 64.2281 50.3295C66.175 49.298 68.2272 48.4803 70.1158 47.3068C70.6344 46.9882 71.0594 46.4396 71.6981 46.3828L71.684 46.385C72.2447 46.0597 72.7723 45.6606 73.3706 45.4374C75.6188 44.5387 77.919 43.4662 80.1793 42.875C80.2695 42.8537 80.3481 42.7118 80.4782 42.6699C81.089 42.4807 83.2778 41.7999 84.6776 41.365C87.8862 40.2583 91.1744 39.3838 94.6175 39.2694C94.8888 39.2557 96.8641 39.0041 98.8132 39.0444C100.783 39.1246 102.704 39.4931 102.894 40.6146C103.099 41.7842 101.551 42.8827 99.8648 43.6936C98.185 44.5465 96.3467 45.1221 95.9113 45.1903C94.8496 45.3493 93.7748 45.424 92.7051 45.577C91.6456 45.7501 90.6075 46.0132 89.6408 46.5027C86.8389 47.9559 83.795 48.5979 80.9292 49.7804L77.0467 51.3163C75.7503 51.8142 74.4686 52.3603 73.226 52.9721C70.8725 54.1176 68.7439 55.6884 66.4103 56.8236C64.4066 57.8136 62.1412 58.3265 60.0785 59.261C59.5948 59.4806 59.2377 60.141 58.7184 60.4093C58.285 60.6283 57.5904 61.0176 57.0847 61.0967C56.8659 61.1238 56.6249 61.1472 56.5005 61.3177C56.194 61.7039 54.3905 62.7777 52.4692 63.467C50.5746 64.1881 48.5503 64.5409 47.7809 63.3949C47.0359 62.2667 48.1356 60.7419 49.7467 59.2665C50.5695 58.5476 51.5114 57.8533 52.4199 57.2218C53.355 56.6221 54.2368 56.0956 54.8907 55.6766Z" fill="#3AB446"></path></svg>