<svg xmlns="http://www.w3.org/2000/svg" width="66" height="63" viewBox="0 0 66 63" fill="none"><path d="M39.6334 7.31698C43.444 8.33803 45.1181 23.1006 45.603 23.6184C46.0876 24.137 59.7379 29.6231 60.1726 32.6805C60.6073 35.7379 47.0932 42.7556 46.6427 43.3595C46.1924 43.9626 45.1231 58.8032 42.3967 60.0532C39.6706 61.3023 28.8524 50.6624 28.0761 50.4496C27.2997 50.2368 13.1136 54.2278 10.8722 51.6063C8.63086 48.9848 15.5357 35.8434 15.542 35.0261C15.548 34.2098 6.95058 22.3143 9.16421 19.0128C11.3776 15.7122 25.7058 18.6901 26.313 18.4496C26.9202 18.2091 35.8228 6.29594 39.6334 7.31698Z" fill="#FFBD39"></path><path d="M39.1889 8.97706C42.7409 9.92881 43.9338 24.1025 44.3856 24.5854C44.8375 25.0683 57.9267 29.7679 58.3322 32.6183C58.7379 35.4678 45.9657 41.7065 45.5474 42.269C45.1282 42.8313 44.3055 56.9672 41.7648 58.1313C39.2239 59.2962 29.2048 49.1399 28.4805 48.9411C27.7563 48.7422 14.4697 52.7019 12.3809 50.2579C10.2919 47.8148 17.2052 35.6939 17.211 34.9323C17.2166 34.1716 8.72564 22.9562 10.7887 19.8791C12.8518 16.8019 26.5567 20.1844 27.123 19.9599C27.6885 19.7351 35.6369 8.0253 39.1889 8.97706Z" fill="url(#paint0_linear_6572_38289)"></path><path d="M13.7301 21.3356C14.1284 18.8614 22.4079 19.5603 22.0019 22.4723C21.5944 25.383 13.1886 24.707 13.7301 21.3356Z" fill="white"></path><path d="M24.2353 22.2238C24.591 20.6591 26.9777 21.1975 26.7603 22.501C26.5172 23.9612 23.9017 23.6876 24.2353 22.2238Z" fill="white"></path><g opacity="0.6"><g opacity="0.6"><path d="M24.6829 35.8775C24.2631 37.4443 22.5471 38.3463 20.8501 37.8915C19.1531 37.4368 18.118 35.7977 18.5378 34.2309C18.9577 32.6641 20.6743 31.7633 22.3704 32.2178C24.0674 32.6725 25.1027 34.3107 24.6829 35.8775Z" fill="#FF5F82"></path></g><g opacity="0.6"><path d="M45.055 41.3365C44.6352 42.9033 42.9192 43.8052 41.2222 43.3505C39.5252 42.8958 38.4901 41.2567 38.9099 39.6899C39.3297 38.1231 41.0455 37.2221 42.7425 37.6768C44.4386 38.1313 45.4748 39.7697 45.055 41.3365Z" fill="#FF5F82"></path></g></g><path d="M24.6065 35.346C25.0015 35.1863 28.5914 36.3522 32.0949 37.3016C35.3258 38.1769 38.4949 38.823 38.7399 39.1331C39.2515 39.7812 35.573 44.6206 30.0923 43.1521C24.6108 41.6833 23.8475 35.6537 24.6065 35.346Z" fill="#872A2A"></path><path d="M24.9143 24.6338C17.5537 18.9218 15.9146 28.5411 24.7801 32.5045C33.2998 28.8371 33.2106 20.1193 24.9143 24.6338Z" fill="#FF5F5F"></path><path d="M43.6675 29.6568C52.8503 28.0764 49.7722 37.3371 40.0851 36.6662C34.291 29.4252 38.4682 21.7726 43.6675 29.6568Z" fill="#FF5F5F"></path><defs><linearGradient id="paint0_linear_6572_38289" x1="24.2242" y1="17.3174" x2="43.2337" y2="58.5015" gradientUnits="userSpaceOnUse"><stop offset="0.043" stop-color="#FFF466"></stop><stop offset="0.0753" stop-color="#FFF466"></stop><stop offset="0.3152" stop-color="#FFEC5F"></stop><stop offset="0.6922" stop-color="#FFD54D"></stop><stop offset="0.8602" stop-color="#FFC943"></stop></linearGradient></defs></svg>