<svg xmlns="http://www.w3.org/2000/svg" width="65" height="63" viewBox="0 0 65 63" fill="none"><path d="M26.3761 7.69669C30.1867 6.67564 38.9898 18.519 39.6678 18.7221C40.3461 18.9261 54.9071 16.8387 56.8065 19.2477C58.706 21.6567 50.4907 34.4146 50.4008 35.1567C50.3119 35.8986 56.7757 49.1756 55.0357 51.6069C53.2955 54.0372 38.6217 50.2875 37.8431 50.4922C37.0644 50.6961 26.7591 61.1887 23.5112 60.0538C20.2631 58.918 19.7017 44.1951 19.3001 43.4901C18.8988 42.7861 5.52418 36.853 5.79834 32.9163C6.0725 28.9796 19.9717 24.4007 20.3781 23.8918C20.7851 23.3817 22.5664 8.71749 26.3761 7.69669Z" fill="#FFBD39"></path><path d="M26.8168 9.3413C30.3679 8.38979 38.4614 19.9659 39.0937 20.1565C39.7258 20.3461 53.4098 17.8625 55.1799 20.1086C56.9507 22.3534 48.99 34.072 48.9077 34.7634C48.8246 35.455 55.152 48.0038 53.5301 50.2688C51.9084 52.5346 38.1681 48.803 37.4414 48.993C36.7148 49.1829 27.1734 59.2006 24.1461 58.1422C21.1191 57.0846 21.0731 43.2328 20.6989 42.5759C20.3248 41.9199 7.3812 36.5178 7.6366 32.8487C7.89177 29.1787 21.4524 25.2577 21.8313 24.7829C22.2101 24.3071 23.2648 10.2931 26.8168 9.3413Z" fill="url(#paint0_linear_6572_38287)"></path><path d="M11.2736 32.7828C10.4172 30.4485 17.9852 27.0228 19.0479 29.7391C20.1097 32.4556 12.4413 35.9627 11.2736 32.7828Z" fill="white"></path><path d="M20.8773 28.433C20.4267 26.9057 22.7732 26.2102 23.2174 27.4441C23.7147 28.8262 21.2987 29.8622 20.8773 28.433Z" fill="white"></path><path d="M19.5135 33.4048C18.5886 32.9737 18.9566 29.854 21.9609 29.049C24.9652 28.244 26.7748 30.7344 26.332 31.5778C25.9487 32.3059 24.6447 30.0897 22.4745 30.6712C20.3032 31.252 20.2942 33.7685 19.5135 33.4048Z" fill="#541300"></path><path d="M38.0115 28.4478C37.0867 28.0167 37.4547 24.897 40.459 24.092C43.4633 23.287 45.2729 25.7774 44.83 26.6208C44.4467 27.3489 43.1436 25.1324 40.9725 25.7141C38.8012 26.295 38.7922 28.8115 38.0115 28.4478Z" fill="#541300"></path><g opacity="0.6"><g opacity="0.6"><path d="M26.2722 36.7556C26.6887 38.3101 25.651 39.9393 23.954 40.394C22.257 40.8487 20.5437 39.9567 20.1271 38.4021C19.7106 36.8476 20.7486 35.2193 22.4456 34.7646C24.1426 34.3099 25.8557 35.201 26.2722 36.7556Z" fill="#FF5F82"></path></g><g opacity="0.6"><path d="M46.6443 31.2966C47.0608 32.8512 46.023 34.4803 44.326 34.935C42.6291 35.3897 40.9157 34.4977 40.4992 32.9432C40.0826 31.3886 41.1207 29.7603 42.8177 29.3056C44.5146 28.8509 46.2277 29.742 46.6443 31.2966Z" fill="#FF5F82"></path></g></g><path d="M30.1159 34.924C30.5373 34.3528 36.5145 32.7512 37.1714 33.0335C37.8283 33.3158 38.3027 38.7496 35.2302 39.5729C32.1558 40.3967 29.6953 35.495 30.1159 34.924Z" fill="#872A2A"></path><path d="M34.536 36.9475C34.2789 37.0402 32.9028 36.3004 32.3243 36.9825C31.7456 37.6636 33.6562 39.4605 35.1343 39.0224C36.6128 38.5852 37.0532 36.1956 36.3082 35.915C35.5648 35.633 35.0256 36.7705 34.536 36.9475Z" fill="#F982B3"></path><defs><linearGradient id="paint0_linear_6572_38287" x1="18.0034" y1="23.9565" x2="54.7857" y2="50.1388" gradientUnits="userSpaceOnUse"><stop offset="0.0484" stop-color="#FFF466"></stop><stop offset="0.2848" stop-color="#FFED60"></stop><stop offset="0.6222" stop-color="#FFDA51"></stop><stop offset="0.8602" stop-color="#FFC943"></stop></linearGradient></defs></svg>