<svg xmlns="http://www.w3.org/2000/svg" width="26" height="26" viewBox="0 0 26 26" fill="none"><g clip-path="url(#clip0_6538_37241)"><path d="M14.425 25.1344C8.03226 25.1344 2.84995 19.9521 2.84995 13.5594C2.84995 7.16669 8.03226 1.98438 14.425 1.98438C20.8177 1.98438 26 7.16669 26 13.5594C26 19.9521 20.8177 25.1344 14.425 25.1344Z" fill="#FDDF6D"></path><path d="M9.27181 6.64451C9.06881 5.92718 9.94555 5.05098 11.2301 4.68747C12.5146 4.32395 13.7204 4.61078 13.9234 5.32811C14.1264 6.04544 13.2497 6.92164 11.9652 7.28515C10.6807 7.64867 9.47481 7.36184 9.27181 6.64451Z" fill="#FCEB88"></path><path d="M11.9446 23.4264C18.3373 23.4264 23.5195 18.2442 23.5195 11.8515C23.5195 8.43616 22.04 5.36674 19.6873 3.24805C23.4346 5.16412 26 9.06255 26 13.5603C26 19.953 20.8177 25.1353 14.4251 25.1353C11.4478 25.1353 8.73331 24.0108 6.68241 22.1639C8.26114 22.9711 10.0497 23.4264 11.9446 23.4264Z" fill="#FCC56B"></path><path d="M19.3991 13.7266C20.2587 13.7266 20.9556 14.4234 20.9556 15.283H17.8426C17.8426 14.4234 18.5395 13.7266 19.3991 13.7266Z" fill="#F9A880"></path><path d="M5.8229 13.7266C6.68247 13.7266 7.37939 14.4234 7.37939 15.283H4.26645C4.2664 14.4234 4.96327 13.7266 5.8229 13.7266Z" fill="#F9A880"></path><path d="M16.2327 0.89907C17.6827 1.11022 18.7454 2.21202 19.0005 3.53792C19.0231 3.65543 19.1124 3.74861 19.2292 3.77507C19.3459 3.80152 19.4666 3.75587 19.5377 3.65959C20.3386 2.57394 21.7707 2.03748 23.1691 2.46973C24.715 2.94769 25.6922 4.51434 25.4433 6.11309C25.2909 7.09215 24.7311 7.89104 23.9724 8.38006H23.9724L18.6052 12.0942C17.8016 12.6503 16.6941 12.399 16.2093 11.5505L13.0335 5.99314C12.5026 5.20192 12.3134 4.18411 12.6217 3.1826C13.0947 1.64621 14.642 0.667457 16.2327 0.89907Z" fill="#FD4DD7"></path><path d="M1.95025 3.76036C3.06921 3.4764 4.17503 3.95745 4.76094 4.84536C4.81284 4.92402 4.90597 4.9649 4.9989 4.94895C5.09183 4.93295 5.16592 4.86333 5.18857 4.77177C5.44374 3.73995 6.32388 2.91734 7.47205 2.80994C8.74123 2.69116 9.92529 3.53632 10.2267 4.77487C10.4113 5.53329 10.2451 6.28363 9.84049 6.86853H9.84054L7.05564 11.1914C6.63868 11.8386 5.75696 11.99 5.14799 11.5189L1.15953 8.43315C0.534467 8.01756 0.0894709 7.33404 0.0116234 6.51205C-0.107864 5.25115 0.722662 4.07196 1.95025 3.76036Z" fill="#FD4DD7"></path><path d="M16.1658 10.88L21.5331 7.16588H21.533C22.2917 6.67686 22.8516 5.87797 23.004 4.89891C23.1506 3.95671 22.8712 3.02589 22.3007 2.32227C22.5876 2.33232 22.879 2.3797 23.169 2.46938C24.7149 2.94733 25.6922 4.51398 25.4433 6.11273C25.2909 7.09179 24.7311 7.89068 23.9724 8.37971H23.9725L18.6052 12.0938C17.8016 12.65 16.6942 12.3987 16.2093 11.5502L15.9095 11.0256C15.9974 10.9853 16.0833 10.9371 16.1658 10.88Z" fill="#E54190"></path><path d="M4.61626 9.97751L7.40116 5.65466H7.40111C7.80563 5.06976 7.97194 4.31947 7.78735 3.561C7.72138 3.28983 7.61307 3.03749 7.47078 2.81004C7.47124 2.80999 7.47159 2.80994 7.47205 2.80994C8.74123 2.69116 9.92529 3.53632 10.2267 4.77487C10.4113 5.53339 10.2451 6.28363 9.84049 6.86853H9.84054L7.05564 11.1914C6.63868 11.8386 5.75696 11.99 5.14799 11.5189L3.86968 10.53C4.16599 10.4463 4.43508 10.2588 4.61626 9.97751Z" fill="#E54190"></path><path d="M11.7707 21.3943C14.3583 21.3943 16.4561 19.2966 16.4561 16.709H7.08539C7.08539 19.2966 9.18311 21.3943 11.7707 21.3943Z" fill="#7F184C"></path><path d="M15.313 16.709V17.4404C15.313 17.7488 15.063 17.9987 14.7546 17.9987H8.78714C8.47875 17.9987 8.2288 17.7487 8.2288 17.4404V16.709H15.313Z" fill="#F2F2F2"></path><path d="M11.6723 19.4514C12.9388 18.863 14.3443 18.9486 15.4839 19.5588C14.6275 20.675 13.2808 21.3953 11.7652 21.3953C11.0973 21.3953 10.4626 21.2545 9.88764 21.0027C10.3094 20.35 10.9143 19.8036 11.6723 19.4514Z" fill="#FC4C59"></path></g><defs><clipPath id="clip0_6538_37241"><rect width="26" height="26" fill="white" transform="matrix(-1 0 0 1 26 0)"></rect></clipPath></defs></svg>