<svg xmlns="http://www.w3.org/2000/svg" width="1440" height="820" viewBox="0 0 1440 820" fill="none"><g opacity="0.6"><path d="M852.82 419.819C852.163 416.807 851.475 413.775 850.784 410.761C850.355 408.903 849.784 407.063 849.618 405.198C849.574 404.684 849.786 404.166 849.461 403.668L849.467 403.683C849.411 403.139 849.428 402.594 849.28 402.061C848.739 400.045 848.401 397.909 847.693 395.977C847.67 395.899 847.74 395.792 847.713 395.681C847.565 395.148 846.961 393.235 846.683 392.016C846.029 389.181 845.3 386.348 843.836 383.545C843.61 383.104 841.352 376.928 839.069 377.04C836.686 377.166 837.471 383.153 837.764 383.917C838.457 385.767 839.486 387.627 839.545 389.492C839.635 392.236 840.653 394.923 841.224 397.64C841.738 400.08 842.483 402.512 842.973 404.947C843.432 407.237 843.502 409.544 844.109 411.83C844.631 413.802 845.732 415.751 846.453 417.713C846.625 418.18 846.341 418.752 846.51 419.257C846.648 419.67 846.84 420.378 847.151 420.794C847.285 420.977 847.436 421.151 847.397 421.331C847.214 422.156 849.484 428.701 852.252 428.525C854.967 428.375 853.387 422.43 852.82 419.819Z" fill="white"></path><path d="M837.456 432.205C835.264 430.729 833.076 429.279 830.869 427.829C829.519 426.947 828.098 426.187 826.867 425.07C826.534 424.763 826.316 424.229 825.835 424.175C825.471 423.859 825.147 423.474 824.75 423.246C823.231 422.341 821.757 421.201 820.213 420.495C820.155 420.47 820.126 420.331 820.046 420.281C819.636 420.044 818.169 419.267 817.268 418.683C815.189 417.326 813.088 416.039 810.648 415.397C810.267 415.299 805.348 413.047 804.273 415.08C803.157 417.183 807.24 420.555 807.846 420.833C809.329 421.487 810.992 421.863 812.167 423.076C813.896 424.845 816.066 425.793 818.021 427.143C819.78 428.357 821.649 429.352 823.385 430.575C825.019 431.722 826.482 433.225 828.188 434.25C829.667 435.13 831.404 435.504 832.975 436.226C833.352 436.394 833.552 437.024 833.95 437.217C834.277 437.377 834.808 437.69 835.203 437.702C835.382 437.708 835.571 437.697 835.664 437.852C836.089 438.565 841.226 441.039 842.505 438.561C843.799 436.153 839.359 433.487 837.456 432.205Z" fill="white"></path><path d="M829.601 449.592C826.903 449.656 824.201 449.74 821.511 449.836C819.86 449.893 818.247 450.111 816.536 449.9C816.07 449.843 815.542 449.528 815.131 449.758L815.144 449.76C814.65 449.708 814.141 449.591 813.659 449.623C811.873 449.767 809.941 449.689 808.271 450.009C808.203 450.016 808.087 449.923 807.992 449.935C807.522 449.98 805.856 450.198 804.751 450.235C802.219 450.33 799.714 450.503 797.374 451.403C797.007 451.538 791.664 452.578 792.22 454.877C792.811 457.274 798.262 457.669 798.922 457.527C800.527 457.205 802.058 456.541 803.793 456.838C806.349 457.291 808.672 456.797 811.1 456.764C813.288 456.737 815.414 456.462 817.599 456.455C819.653 456.444 821.81 456.831 823.834 456.68C825.578 456.549 827.184 455.838 828.883 455.503C829.28 455.424 829.875 455.813 830.322 455.754C830.688 455.701 831.307 455.643 831.625 455.416C831.76 455.319 831.9 455.202 832.085 455.278C832.899 455.626 838.574 454.649 837.867 451.851C837.199 449.132 831.939 449.542 829.601 449.592Z" fill="white"></path></g><g opacity="0.6"><path d="M1304.16 408.098C1303.86 404.657 1305.99 401.56 1309.03 401.216C1312.07 400.872 1314.81 403.28 1315.11 406.721C1315.42 410.162 1313.29 413.259 1310.25 413.603C1309.94 413.603 1309.64 413.603 1309.64 413.603C1306.9 413.603 1304.46 411.539 1304.16 408.098ZM1269.48 408.098C1266.74 406.721 1265.22 403.28 1266.43 400.183C1267.35 397.086 1270.69 395.366 1273.43 396.398C1276.17 397.775 1277.69 401.216 1276.78 404.313C1275.87 406.721 1273.74 408.442 1271.61 408.442C1270.69 408.442 1270.09 408.442 1269.48 408.098ZM1341.28 395.71C1339.45 392.957 1340.06 389.172 1342.8 387.107C1345.23 385.043 1348.58 385.731 1350.4 388.828C1352.23 391.581 1351.62 395.366 1348.88 397.43C1347.97 398.119 1346.75 398.463 1345.84 398.463C1344.02 398.119 1342.19 397.43 1341.28 395.71ZM1235.4 381.602C1233.27 379.193 1233.58 375.064 1235.71 372.655C1237.84 370.247 1241.49 370.591 1243.62 373.343C1245.75 375.752 1245.44 379.881 1243.01 382.29C1242.1 383.322 1240.57 384.011 1239.36 384.011C1238.14 383.666 1236.62 382.978 1235.4 381.602ZM1368.66 364.741C1365.92 363.02 1365.01 359.235 1366.22 356.482C1367.75 353.386 1371.09 352.353 1373.53 353.73C1376.26 355.45 1377.18 359.235 1375.96 361.988C1375.05 364.053 1372.92 365.429 1371.09 365.429C1370.48 365.429 1369.57 365.429 1368.66 364.741ZM1216.24 340.654C1215.63 337.213 1217.45 334.116 1220.19 333.084C1223.23 332.395 1225.97 334.116 1226.88 337.557C1227.49 340.998 1225.67 344.095 1222.93 345.127C1222.62 345.127 1222.02 345.471 1221.71 345.471C1219.28 345.127 1216.84 343.407 1216.24 340.654ZM1375.05 316.911C1375.05 313.126 1377.48 310.373 1380.52 310.373C1383.57 310.373 1386 313.126 1386 316.567C1386 316.567 1386 316.567 1386 316.911C1386 316.911 1386 316.911 1386 317.255C1386 320.696 1383.57 323.449 1380.52 323.449C1377.48 323.105 1375.05 320.352 1375.05 316.911ZM1220.19 301.426C1217.15 300.738 1215.32 297.297 1216.24 293.856C1216.84 290.415 1219.89 288.35 1222.93 289.383C1225.97 290.071 1227.8 293.512 1226.88 296.953C1226.28 299.706 1224.15 301.77 1221.41 301.77C1221.1 301.77 1220.8 301.426 1220.19 301.426ZM1366.22 277.339C1364.7 274.242 1365.92 270.457 1368.66 269.081C1371.4 267.36 1374.74 268.737 1375.96 271.489C1377.48 274.586 1376.26 278.371 1373.83 279.748C1372.92 280.092 1372.01 280.436 1371.4 280.436C1368.96 280.78 1367.14 279.404 1366.22 277.339ZM1235.71 261.51C1233.58 259.102 1233.27 255.317 1235.1 252.908C1237.23 250.155 1240.57 250.155 1242.7 252.22C1244.83 254.628 1245.14 258.414 1243.31 261.166C1242.1 262.543 1240.57 263.231 1239.05 263.231C1238.14 262.887 1236.92 262.543 1235.71 261.51ZM1342.19 247.058C1339.76 244.994 1339.15 241.208 1340.67 238.456C1342.49 235.703 1345.84 235.015 1348.27 236.735C1350.71 238.8 1351.32 242.585 1349.8 245.338C1348.88 247.058 1347.06 248.09 1345.23 248.09C1344.32 248.09 1343.1 247.746 1342.19 247.058ZM1265.83 233.982C1264.61 230.885 1266.13 227.1 1268.87 226.068C1271.61 224.692 1274.95 226.412 1275.87 229.509C1277.08 232.606 1275.56 236.391 1272.82 237.423C1272.22 237.767 1271.61 237.767 1271 237.767C1268.87 238.112 1266.74 236.735 1265.83 233.982ZM1308.72 232.606C1305.68 232.262 1303.55 229.165 1303.86 225.724C1304.16 222.283 1306.9 219.874 1309.94 220.218C1312.98 220.562 1315.11 223.659 1314.81 227.1C1314.5 230.197 1312.07 232.606 1309.33 232.606C1309.03 232.95 1309.03 232.606 1308.72 232.606Z" fill="#E0E0E0"></path><path d="M1303.55 391.583C1303.25 388.83 1305.07 386.421 1307.51 386.077C1309.94 385.733 1312.07 387.798 1312.38 390.551C1312.68 393.303 1310.85 395.712 1308.42 396.056C1308.12 396.056 1308.12 396.056 1307.81 396.056C1305.68 396.056 1303.55 394.336 1303.55 391.583ZM1274.95 391.583C1272.52 390.551 1271.61 387.798 1272.22 385.045C1273.13 382.292 1275.56 381.26 1278 381.948C1280.43 382.98 1281.34 385.733 1280.74 388.486C1280.13 390.551 1278.3 391.927 1276.48 391.927C1275.87 391.927 1275.56 391.927 1274.95 391.583ZM1333.67 381.26C1332.15 378.851 1332.76 375.754 1334.89 374.034C1337.02 372.313 1339.76 373.001 1341.28 375.41C1342.8 377.819 1342.19 380.916 1340.06 382.636C1339.15 383.324 1338.24 383.669 1337.63 383.669C1335.8 383.324 1334.58 382.636 1333.67 381.26ZM1247.27 369.904C1245.75 367.84 1245.75 364.743 1247.57 362.678C1249.4 360.958 1252.14 360.958 1253.96 363.022C1255.48 365.087 1255.48 368.184 1253.66 370.249C1252.75 370.937 1251.83 371.625 1250.62 371.625C1249.4 371.625 1248.18 370.937 1247.27 369.904ZM1356.19 356.14C1354.06 354.764 1353.14 351.667 1354.36 349.258C1355.58 346.85 1358.32 345.817 1360.45 347.194C1362.57 348.57 1363.49 351.667 1362.27 354.076C1361.36 355.796 1359.84 356.829 1358.32 356.829C1357.4 356.829 1356.79 356.485 1356.19 356.14ZM1231.45 336.183C1230.84 333.43 1232.36 330.677 1234.8 329.989C1237.23 329.301 1239.66 331.021 1240.27 333.774C1240.88 336.527 1239.36 339.28 1236.92 339.968C1236.62 339.968 1236.32 339.968 1235.71 339.968C1233.88 339.968 1232.06 338.591 1231.45 336.183ZM1361.36 316.913C1361.36 313.816 1363.49 311.407 1365.92 311.407C1368.36 311.407 1370.48 313.816 1370.48 316.569C1370.48 319.322 1368.36 321.73 1365.92 321.73C1363.18 322.074 1361.36 320.01 1361.36 316.913ZM1234.8 304.181C1232.36 303.493 1230.84 300.74 1231.45 297.987C1232.06 295.235 1234.49 293.514 1236.92 294.202C1239.36 294.89 1240.88 297.643 1240.27 300.396C1239.66 302.805 1237.84 304.181 1236.01 304.181C1235.4 304.525 1235.1 304.525 1234.8 304.181ZM1354.06 284.567C1352.84 282.159 1353.75 279.062 1355.88 277.685C1358.01 276.309 1360.75 277.341 1361.97 279.75C1363.18 282.159 1362.27 285.256 1360.14 286.632C1359.53 286.976 1358.62 287.32 1358.01 287.32C1356.49 287.32 1354.97 286.288 1354.06 284.567ZM1247.57 271.492C1245.75 269.771 1245.44 266.33 1247.27 264.265C1248.79 262.201 1251.83 261.857 1253.66 263.921C1255.48 265.642 1255.79 269.083 1253.96 271.147C1253.05 272.18 1251.83 272.868 1250.62 272.868C1249.4 272.868 1248.18 272.524 1247.57 271.492ZM1334.58 259.792C1332.46 258.072 1332.15 254.975 1333.37 252.566C1334.89 250.157 1337.63 249.813 1339.76 251.19C1341.89 252.91 1342.19 256.007 1340.97 258.416C1340.06 259.792 1338.54 260.48 1337.32 260.48C1336.11 260.824 1335.5 260.48 1334.58 259.792ZM1272.22 249.125C1271.3 246.372 1272.52 243.619 1274.65 242.587C1277.08 241.555 1279.52 242.931 1280.43 245.684C1281.34 248.437 1280.13 251.19 1278 252.222C1277.39 252.566 1276.78 252.566 1276.48 252.566C1274.35 252.566 1272.82 251.19 1272.22 249.125ZM1307.2 248.093C1304.77 247.749 1302.94 245.34 1303.25 242.587C1303.55 239.834 1305.68 237.77 1308.12 238.114C1310.55 238.458 1312.38 240.867 1312.07 243.619C1311.77 246.372 1309.94 248.093 1307.51 248.093H1307.2Z" fill="#E0E0E0"></path><path d="M1302.64 377.47C1302.34 375.062 1303.86 372.997 1305.68 372.997C1307.81 372.653 1309.64 374.373 1309.64 376.438C1309.94 378.503 1308.42 380.911 1306.59 380.911H1306.29C1304.47 381.255 1302.94 379.535 1302.64 377.47ZM1279.82 377.47C1278 376.782 1277.08 374.373 1277.69 372.309C1278.3 370.244 1280.43 369.212 1282.26 369.9C1284.08 370.588 1284.99 372.997 1284.39 375.061C1283.78 376.782 1282.56 377.814 1281.04 377.814C1280.43 377.814 1280.13 377.47 1279.82 377.47ZM1327.28 369.212C1326.07 367.491 1326.67 364.738 1328.2 363.362C1329.72 361.986 1332.15 362.674 1333.37 364.394C1334.58 366.115 1333.98 368.868 1332.46 370.244C1331.85 370.588 1331.24 370.932 1330.33 370.932C1329.11 370.932 1327.89 370.244 1327.28 369.212ZM1257.31 359.921C1256.09 358.201 1256.09 355.792 1257.61 354.071C1259.13 352.695 1261.57 352.695 1262.78 354.415C1264 356.136 1264 358.889 1262.48 360.265C1261.87 360.953 1260.96 361.297 1260.05 361.297C1258.83 361.297 1257.92 360.953 1257.31 359.921ZM1345.54 348.91C1343.71 347.878 1343.1 345.469 1344.02 343.404C1344.93 341.34 1347.06 340.651 1348.88 341.684C1350.71 342.716 1351.32 345.125 1350.41 347.189C1349.8 348.566 1348.58 349.254 1347.06 349.254C1346.45 349.254 1346.15 348.91 1345.54 348.91ZM1244.53 332.737C1243.92 330.672 1245.14 328.264 1247.27 327.576C1249.09 326.887 1251.22 328.264 1251.83 330.672C1252.44 332.737 1251.22 335.146 1249.09 335.834C1248.79 335.834 1248.49 335.834 1248.18 335.834C1246.36 335.834 1244.83 334.458 1244.53 332.737ZM1349.49 316.908C1349.49 314.5 1351.01 312.435 1353.14 312.435C1355.27 312.435 1356.79 314.156 1356.79 316.564C1356.79 318.973 1355.27 320.693 1353.14 320.693C1351.32 321.038 1349.49 319.317 1349.49 316.908ZM1246.96 306.585C1245.14 305.897 1243.92 303.833 1244.23 301.768C1244.83 299.703 1246.66 298.327 1248.49 298.671C1250.31 299.359 1251.53 301.424 1251.22 303.833C1250.92 305.553 1249.4 306.929 1247.57 306.929C1247.57 306.929 1247.27 306.929 1246.96 306.585ZM1343.71 290.757C1342.8 288.692 1343.41 286.283 1345.23 285.251C1347.06 284.219 1349.19 284.907 1350.1 286.972C1351.01 289.036 1350.4 291.445 1348.58 292.477C1347.97 292.821 1347.36 292.821 1346.75 292.821C1345.84 292.821 1344.62 292.133 1343.71 290.757ZM1257.31 280.09C1255.79 278.713 1255.79 275.96 1257 274.24C1258.22 272.519 1260.66 272.519 1262.18 273.896C1263.7 275.272 1263.7 278.025 1262.48 279.745C1261.87 280.778 1260.66 281.122 1259.74 281.122C1258.83 281.122 1258.22 280.778 1257.31 280.09ZM1327.89 270.799C1326.37 269.422 1325.76 267.014 1326.98 264.949C1328.2 263.229 1330.33 262.54 1332.15 263.917C1333.67 265.293 1334.28 267.702 1333.06 269.767C1332.46 270.799 1331.24 271.487 1330.02 271.487C1329.41 271.487 1328.5 271.143 1327.89 270.799ZM1277.39 262.196C1276.78 260.132 1277.69 257.723 1279.52 257.035C1281.34 256.347 1283.47 257.379 1284.08 259.443C1284.69 261.508 1283.78 263.917 1281.95 264.605C1281.65 264.949 1281.04 264.949 1280.73 264.949C1279.21 264.605 1278 263.573 1277.39 262.196ZM1305.68 261.164C1303.55 260.82 1302.34 258.755 1302.34 256.691C1302.64 254.282 1304.47 252.905 1306.29 253.25C1308.42 253.594 1309.64 255.658 1309.33 257.723C1309.03 259.788 1307.51 261.508 1305.68 261.508C1305.99 261.164 1305.99 261.164 1305.68 261.164Z" fill="#E0E0E0"></path></g></svg>