<svg xmlns="http://www.w3.org/2000/svg" width="95" height="98" viewBox="0 0 95 98" fill="none"><path d="M21.1673 66.9205C21.5872 66.5939 21.989 66.2447 22.371 65.8744C23.1026 65.2688 23.6937 64.5114 24.1032 63.655C24.5126 62.7987 24.7305 61.8639 24.7417 60.916C24.7461 60.8272 24.6493 60.7426 24.5937 60.6658C24.5737 60.4195 24.5332 60.1754 24.4723 59.936C24.4142 59.7188 24.334 59.5083 24.2331 59.3075C24.018 58.8774 23.7126 58.4989 23.3376 58.1978C22.993 57.8914 22.5784 57.6742 22.1299 57.5651C21.6813 57.4561 21.2125 57.4584 20.7644 57.572C20.3343 57.7594 19.9533 58.0438 19.6512 58.4028C19.3491 58.7619 19.1341 59.1858 19.0232 59.6412C19.0159 59.7158 19.0023 59.7896 18.9826 59.8619C18.9507 59.9572 18.901 60.0456 18.8361 60.1224C18.5542 60.4931 18.1883 60.7917 17.7687 60.9936C17.4994 61.1788 17.1913 61.2999 16.8682 61.3474C16.5451 61.3948 16.2155 61.3674 15.9052 61.2673C15.6286 61.1361 15.3981 60.9249 15.2433 60.661C15.076 60.3521 14.9938 60.0041 15.005 59.6526C15.041 58.8017 15.2467 57.966 15.6101 57.1946C15.9735 56.4232 16.4873 55.7316 17.1211 55.1605C18.0431 54.2939 19.182 53.6927 20.4168 53.4209L21.0276 53.3213L21.6508 53.2668C22.8459 53.2224 24.0292 53.5057 25.0727 54.0859C26.5969 54.9485 27.7917 56.2911 28.4714 57.9051C28.6872 58.4442 28.8456 59.0047 28.9441 59.5773C29.1299 60.6783 29.1266 61.8035 28.9344 62.9046C28.595 64.8132 27.7468 66.5966 26.4794 68.0668C25.2325 69.5014 23.6845 70.6437 21.9464 71.4119C20.3352 72.161 18.5994 72.6038 16.828 72.7176C14.9868 72.8335 13.1468 72.4961 11.4692 71.7352C10.0411 71.0423 8.78941 70.035 7.8078 68.7886C6.86411 67.597 6.11708 66.262 5.59476 64.8338C5.43903 64.0965 5.04905 63.43 4.48292 62.9335C4.71189 62.4453 4.47323 62.0454 4.31413 61.5988C4.18733 61.3885 4.13874 61.1402 4.17678 60.8972C4.21483 60.6542 4.33712 60.432 4.52227 60.2695C4.57708 59.993 4.6029 59.7116 4.59932 59.43C4.48512 58.7954 4.63887 58.3869 4.96304 58.2564C5.2872 58.1258 5.85157 58.2437 6.68026 58.5401C7.04548 58.6607 7.54479 58.651 7.77589 58.9021C8.32453 59.2776 8.4523 59.5773 8.45682 59.907C8.42021 60.2375 8.40576 60.5701 8.41362 60.9024C8.67734 62.5 9.34765 64.0018 10.3602 65.2635C11.3295 66.502 12.6394 67.4307 14.1302 67.9361C15.9799 68.563 18.0006 68.4682 19.7881 67.6705C20.2771 67.4495 20.6339 67.0177 21.1384 66.9043L21.1673 66.9205Z" fill="#3AB446"></path><path d="M49.9874 83.1595C50.381 82.9842 50.7628 82.7836 51.1306 82.5589C51.4741 82.3865 51.7981 82.1775 52.0967 81.9354C52.3757 81.7018 52.6252 81.4351 52.8396 81.1413C53.2977 80.5176 53.6066 79.7974 53.7423 79.0365C53.7781 78.9729 53.6762 78.8702 53.6444 78.7916C53.7937 77.964 53.65 77.1114 53.2378 76.3803C53.0198 76.0396 52.7233 75.7563 52.3729 75.554C51.9829 75.3287 51.5566 75.1725 51.1129 75.0923C50.1908 74.8999 49.2298 75.0176 48.3794 75.427C48.2355 75.5373 48.0633 75.6045 47.8829 75.6209C47.4233 75.6029 46.9768 75.4657 46.5871 75.2229C45.9993 74.9663 45.5334 74.4932 45.2863 73.9016C45.1994 73.6559 45.2001 73.3876 45.2882 73.1418C45.3776 72.8591 45.5541 72.6116 45.7922 72.4347C46.9309 71.5502 48.3196 71.0486 49.7587 71.0019C51.0959 70.9358 52.4333 71.1119 53.7062 71.5216C54.7101 71.8326 55.6131 72.4035 56.3237 73.1765C57.0268 73.9456 57.5496 74.8619 57.8542 75.8591C58.3954 77.7538 58.3114 79.7744 57.6145 81.6218C57.026 83.2948 55.9423 84.7506 54.5075 85.7953C53.1154 86.7993 51.5083 87.4636 49.8152 87.735C48.2711 88.0041 46.6934 88.0089 45.1495 87.7493C43.5754 87.4791 42.0816 86.8641 40.7753 85.9483C39.5821 85.0926 38.6208 83.9538 37.9775 82.6338C37.3342 81.3138 37.0291 79.8538 37.0893 78.3846C37.2299 77.6512 37.1761 76.8945 36.9334 76.1896C37.1063 76.0289 37.2451 75.835 37.3414 75.6196C37.4378 75.4041 37.4897 75.1716 37.494 74.936C37.5141 74.6843 37.6233 74.4477 37.8019 74.2688C37.9805 74.0898 38.217 73.9802 38.4687 73.9596C38.6886 73.7635 38.8972 73.555 39.0934 73.3352C39.4593 72.7791 39.8908 72.5792 40.1986 72.721C40.5063 72.8628 40.7835 73.3831 41.139 74.1831C41.3032 74.5261 41.6289 74.9062 41.64 75.2243C41.8156 75.8172 41.8137 76.0368 41.6839 76.2C41.5541 76.3632 41.3318 76.4747 41.2312 76.7076C41.0068 77.2309 40.894 77.795 40.9001 78.3637C40.9109 78.9345 41.0431 79.4961 41.288 80.0112C41.8783 81.1582 42.8075 82.0951 43.9498 82.6952C45.3865 83.5633 47.0867 83.8918 48.7471 83.6221C49.1891 83.5117 49.5675 83.2441 49.9978 83.249L49.9874 83.1595Z" fill="#3AB446"></path><path d="M75.9085 51.5763C75.8093 51.361 75.6796 51.1592 75.5771 50.9496C75.451 50.7565 75.335 50.557 75.2295 50.3518C74.8782 49.6184 74.3656 48.9742 73.73 48.467C73.0944 47.9598 72.3521 47.6028 71.5584 47.4225C71.5006 47.3902 71.3975 47.4923 71.3245 47.5276C70.46 47.4142 69.5844 47.6459 68.8875 48.1726C67.9628 48.8818 67.2438 49.8244 66.8049 50.903L66.6453 51.3083C66.5769 51.4299 66.5696 51.5779 66.5244 51.7124C66.4503 51.9803 66.3913 52.2521 66.3477 52.5265C66.2855 53.0439 66.3038 53.5674 66.4017 54.0786C66.4154 54.1623 66.4374 54.2583 66.4471 54.3627C66.4812 54.4755 66.4845 54.5957 66.4567 54.7105C66.2913 55.1604 65.9886 55.5474 65.5915 55.8166C65.1246 56.2527 64.5118 56.4988 63.8738 56.5065C63.6091 56.48 63.3561 56.3855 63.139 56.2323C62.9272 56.0461 62.768 55.8075 62.6773 55.5402C62.2228 54.181 62.1449 52.723 62.4519 51.3206C62.7398 50.028 63.1886 48.7761 63.7879 47.5941C64.6613 45.7716 66.1827 44.3383 68.0543 43.5747C69.0414 43.1678 70.0997 42.963 71.1662 42.9726C71.6864 42.9967 72.2043 43.0552 72.7165 43.1477C73.2238 43.258 73.7216 43.4069 74.2059 43.593C75.8802 44.2693 77.3272 45.4061 78.3795 46.872C79.4192 48.2833 80.1236 49.9133 80.4397 51.639C80.7908 53.3344 80.7112 55.0922 80.2083 56.752C79.6702 58.4405 78.6558 59.9392 77.2872 61.0676C76.1468 61.9814 74.82 62.634 73.401 62.979C72.0437 63.3064 70.6449 63.4244 69.2533 63.3288C68.9299 63.3228 68.5972 63.266 68.2608 63.2832C67.8948 63.3064 67.5397 63.4185 67.2262 63.6097C66.8994 63.191 66.473 63.2872 66.0351 63.2552C65.5973 63.2233 65.1478 63.1848 64.9949 62.5514C64.7867 62.3929 64.5571 62.2644 64.313 62.1698C63.7418 62.01 63.4432 61.7439 63.4723 61.395C63.6414 60.8285 63.9729 60.3235 64.4258 59.9427C64.6865 59.6548 64.8901 59.1981 65.1962 59.0727C65.7312 58.7024 66.0191 58.7037 66.2995 58.7997C66.4357 58.8533 66.564 58.9251 66.6809 59.0132C66.8103 59.0875 66.9479 59.1466 67.091 59.1893C68.4944 59.5263 69.9603 59.5131 71.3598 59.1509C72.7208 58.8121 73.9601 58.0975 74.9358 57.0888C75.5086 56.5359 75.9336 55.8484 76.1718 55.0896C76.41 54.3308 76.4539 53.5249 76.2992 52.7461C76.2386 52.5295 76.1451 52.3175 76.069 52.1151C75.9543 51.9206 75.8955 51.6981 75.8988 51.472L75.9085 51.5763Z" fill="#3AB446"></path><path d="M43.1133 40.6089C42.7954 40.431 42.4371 40.3522 42.1177 40.2039C41.5792 39.92 40.9874 39.7506 40.3795 39.7063C39.7715 39.6621 39.1606 39.7439 38.585 39.9467C38.5622 39.9872 38.5166 40.0683 38.4841 40.1262C37.9086 40.3752 37.4479 40.8323 37.1946 41.4057C36.8638 42.1925 36.7299 43.0473 36.8045 43.8962C36.8479 44.687 37.0877 45.454 37.5021 46.1279C37.5444 46.1868 37.58 46.2501 37.6085 46.3168C37.6626 46.3918 37.6943 46.4808 37.6998 46.5733C37.6843 47.035 37.5603 47.4869 37.3378 47.8925C37.1158 48.482 36.7061 48.9827 36.1718 49.3173C35.9596 49.4276 35.7198 49.4734 35.4823 49.4489C35.245 49.4006 35.0289 49.2797 34.864 49.1029C34.0112 48.2487 33.3991 47.1845 33.089 46.0172C32.8228 44.9534 32.6716 43.8636 32.6377 42.7668C32.5355 41.0907 33.0537 39.4335 34.0937 38.1108C34.6363 37.4014 35.3089 36.8016 36.0754 36.3435C37.0992 35.7505 38.2368 35.3818 39.4126 35.2618C40.5884 35.1417 41.7755 35.2732 42.8948 35.6474C44.2734 36.084 45.5476 36.797 46.6398 37.743C47.7287 38.6493 48.6087 39.7801 49.2199 41.0585C49.832 42.3614 50.1004 43.8002 49.9996 45.2383C49.8962 46.4245 49.5503 47.5776 48.9832 48.6262C48.442 49.6276 47.7745 50.5557 46.9971 51.3877C46.8116 51.579 46.6388 51.7823 46.48 51.9963C46.3164 52.2643 46.2369 52.575 46.2519 52.8882C45.7844 52.8548 45.6516 53.199 45.4444 53.4864C45.2372 53.7737 45.0152 54.0604 44.4954 53.8228C44.3068 53.915 44.0766 53.9461 43.9353 54.1028C43.5919 54.4433 43.292 54.5037 43.0579 54.3118C42.6871 53.8559 42.4325 53.3167 42.3159 52.7401C42.1911 52.3812 41.9235 51.9651 41.9504 51.6606C41.8799 51.0429 41.992 50.8165 42.1804 50.6708C42.3687 50.5251 42.6484 50.5142 42.8169 50.3498C43.6826 49.5872 44.3859 48.6583 44.8846 47.6187C45.3669 46.6235 45.6004 45.5268 45.5649 44.4232C45.5754 43.8006 45.4448 43.1842 45.1832 42.6201C44.9215 42.056 44.5355 41.5588 44.0539 41.1656C43.8978 41.0783 43.7418 40.9909 43.5915 40.9068C43.4243 40.8551 43.2813 40.7454 43.1881 40.5974L43.1133 40.6089Z" fill="#3AB446"></path><path d="M64.7222 20.5591C64.448 20.5198 64.1669 20.5603 63.9108 20.5159C62.9825 20.3376 62.02 20.5276 61.227 21.0457C61.2075 21.0804 61.2121 21.1667 61.2125 21.2202C60.7893 21.5316 60.4779 21.9715 60.3251 22.4737C60.136 23.1381 60.0836 23.8335 60.1709 24.5178C60.2381 25.211 60.413 25.889 60.6894 26.5276C60.7688 26.6598 60.8019 26.8148 60.7834 26.9683C60.6665 27.4007 60.4561 27.8024 60.1671 28.1452C59.827 28.6647 59.3568 29.0864 58.8033 29.3679C58.6197 29.4629 58.4091 29.4917 58.2072 29.4495C58.0053 29.4072 57.8244 29.2964 57.6952 29.1359C57.116 28.3538 56.6938 27.4665 56.4522 26.523C56.1998 25.6208 56.089 24.7371 55.941 23.8249C55.7375 22.4366 56.0007 21.0184 56.6893 19.7925C57.4057 18.4981 58.4942 17.4476 59.8134 16.7775C60.9576 16.1961 62.2285 15.9105 63.5097 15.9468C64.7633 15.9689 65.9983 16.2458 67.1397 16.7606C68.2945 17.2496 69.3227 17.9941 70.1472 18.9381C71.0078 19.9343 71.5508 21.1654 71.7069 22.474C71.8191 23.5462 71.6729 24.6306 71.2806 25.6366C70.9028 26.5907 70.3812 27.4817 69.7339 28.2788C69.6167 28.4871 69.4277 28.6476 69.2982 28.8643C69.1652 29.1272 69.1124 29.4231 69.1464 29.7152C68.6912 29.6735 68.5944 30.0075 68.388 30.28C68.1815 30.5526 67.9816 30.8135 67.4846 30.5354C67.2966 30.6129 67.0763 30.6265 66.9415 30.7717C66.597 31.0735 66.2919 31.1159 66.0699 30.8623C65.7629 30.3589 65.5613 29.7983 65.4771 29.2143C65.3434 28.8565 65.2463 28.4861 65.1872 28.1086C65.116 27.5057 65.166 27.3358 65.3019 27.2292C65.4378 27.1227 65.6404 27.1676 65.759 27.0513C66.3676 26.4905 66.821 25.7821 67.0749 24.9952C67.3303 24.2269 67.3618 23.4026 67.1655 22.6186C67.0635 22.1893 66.8695 21.7874 66.597 21.4407C66.3076 21.0941 65.9279 20.8343 65.4997 20.6898C65.2483 20.61 64.934 20.7232 64.7426 20.5096L64.7222 20.5591Z" fill="#3AB446"></path></svg>